<?xml version="1.0" encoding="UTF-8" standalone="no"?>
<svg xmlns="http://www.w3.org/2000/svg"
     xmlns:xlink="http://www.w3.org/1999/xlink"
     width="576px" height="432px" viewBox="0 0 576 432">
<title>gl2ps_renderer figure</title>
<desc>
Creator: GL2PS 1.4.0, (C) 1999-2017 C. Geuzaine
For: Octave
CreationDate: Sun Jul 19 02:19:29 2020
</desc>
<defs>
</defs>
<polygon fill="#ffffff" points="0,0 576,0 576,432 0,432"/>
<g>
<polygon fill="#ffffff" points="0,432 576,432 576,0 0,0" shape-rendering="crispEdges"/>
<clipPath id="cp00576432">
  <polygon points="0,432 576,432 576,0 0,0"/>
</clipPath>
<g clip-path="url(#cp00576432)">
<polyline fill="none" stroke="#e5e5e5" stroke-width="0.5" stroke-linecap="butt" stroke-linejoin="miter" points="103.937,208.44 410.094,208.44"/>
<polyline fill="none" stroke="#e5e5e5" stroke-width="0.5" stroke-linecap="butt" stroke-linejoin="miter" points="259.525,333.914 258.555,333.732 257.579,333.542 256.6,333.342 255.615,333.134 254.626,332.916 253.632,332.689 252.634,332.453 251.631,332.207 250.624,331.951 249.613,331.685 248.597,331.41 247.578,331.124 246.554,330.828 245.527,330.521 244.495,330.204 243.461,329.875 242.422,329.536 241.38,329.186 240.334,328.825 239.286,328.452 238.234,328.068 237.179,327.672 236.121,327.264 235.061,326.845 233.998,326.413 232.932,325.969 231.864,325.513 230.794,325.044 229.722,324.562 228.648,324.068 227.572,323.56 226.495,323.04 225.416,322.506 224.336,321.959 223.255,321.398 222.173,320.824 221.091,320.236 220.008,319.634 218.925,319.018 217.842,318.388 216.759,317.744 215.677,317.085 214.595,316.412 213.514,315.724 212.434,315.021 211.355,314.304 210.278,313.572 209.203,312.825 208.129,312.062 207.058,311.285 205.99,310.492 204.924,309.684 203.861,308.861 202.802,308.022 201.746,307.167 200.694,306.297 199.646,305.411 198.603,304.509 197.564,303.592 196.531,302.659 195.502,301.71 194.48,300.745 193.463,299.765 192.453,298.768 191.449,297.756 190.452,296.728 189.462,295.683 188.479,294.623 187.505,293.548 186.538,292.456 185.58,291.349 184.631,290.226 183.691,289.087 182.76,287.933 181.839,286.763 180.928,285.578 180.028,284.377 179.138,283.161 178.259,281.93 177.392,280.684 176.537,279.423 175.693,278.147 174.863,276.857 174.044,275.552 173.239,274.233 172.448,272.9 171.67,271.552 170.906,270.191 170.156,268.816 169.421,267.428 168.702,266.027 167.997,264.613 167.308,263.186 166.635,261.746 165.978,260.295 165.338,258.831 164.715,257.355 164.108,255.869 163.519,254.371 162.948,252.862 162.394,251.342 161.859,249.812 161.342,248.273 160.844,246.724 160.364,245.165 159.904,243.597 159.463,242.021 159.041,240.437 158.64,238.845 158.258,237.245 157.897,235.638 157.555,234.024 157.235,232.404 156.934,230.778 156.655,229.146 156.397,227.509 156.159,225.867 155.943,224.221 155.748,222.57 155.575,220.916 155.423,219.259 155.293,217.6 155.184,215.937 155.097,214.273 155.032,212.608 154.988,210.941 154.966,209.274 154.966,207.606 154.988,205.939 155.032,204.272 155.097,202.607 155.184,200.943 155.293,199.28 155.423,197.621 155.575,195.964 155.748,194.31 155.943,192.659 156.159,191.013 156.397,189.371 156.655,187.734 156.934,186.102 157.235,184.476 157.555,182.856 157.897,181.242 158.258,179.635 158.64,178.035 159.041,176.443 159.463,174.859 159.904,173.283 160.364,171.715 160.844,170.156 161.342,168.607 161.859,167.068 162.394,165.538 162.948,164.018 163.519,162.509 164.108,161.011 164.715,159.525 165.338,158.049 165.978,156.585 166.635,155.134 167.308,153.694 167.997,152.267 168.702,150.853 169.421,149.452 170.156,148.064 170.906,146.689 171.67,145.328 172.448,143.98 173.239,142.647 174.044,141.328 174.863,140.023 175.693,138.733 176.537,137.457 177.392,136.196 178.259,134.95 179.138,133.719 180.028,132.503 180.928,131.302 181.839,130.117 182.76,128.947 183.691,127.793 184.631,126.654 185.58,125.531 186.538,124.424 187.505,123.332 188.479,122.257 189.462,121.197 190.452,120.152 191.449,119.124 192.453,118.112 193.463,117.115 194.48,116.135 195.502,115.17 196.531,114.221 197.564,113.288 198.603,112.371 199.646,111.469 200.694,110.583 201.746,109.713 202.802,108.858 203.861,108.019 204.924,107.196 205.99,106.388 207.058,105.595 208.129,104.818 209.203,104.055 210.278,103.308 211.355,102.576 212.434,101.859 213.514,101.156 214.595,100.468 215.677,99.7951 216.759,99.1364 217.842,98.4921 218.925,97.8621 220.008,97.2461 221.091,96.6442 222.173,96.0562 223.255,95.4819 224.336,94.9213 225.416,94.3742 226.495,93.8404 227.572,93.3199 228.648,92.8125 229.722,92.3181 230.794,91.8364 231.864,91.3675 232.932,90.911 233.998,90.467 235.061,90.0352 236.121,89.6156 237.179,89.2079 238.234,88.812 239.286,88.4278 240.334,88.0551 241.38,87.6937 242.422,87.3436 243.461,87.0046 244.495,86.6765 245.527,86.3591 246.554,86.0524 247.578,85.7562 248.597,85.4703 249.613,85.1946 250.624,84.929 251.631,84.6732 252.634,84.4272 253.632,84.1908 254.626,83.9639 255.615,83.7462 256.6,83.5378 257.579,83.3383 258.555,83.1478 259.525,82.966"/>
<polyline fill="none" stroke="#e5e5e5" stroke-width="0.5" stroke-linecap="butt" stroke-linejoin="miter" points="336.616,306.41 335.874,306.624 335.123,306.833 334.362,307.04 333.592,307.242 332.813,307.44 332.024,307.634 331.226,307.824 330.418,308.009 329.6,308.189 328.772,308.364 327.935,308.535 327.087,308.699 326.229,308.858 325.361,309.012 324.483,309.159 323.594,309.3 322.695,309.435 321.785,309.563 320.864,309.683 319.933,309.797 318.991,309.903 318.039,310.001 317.075,310.092 316.101,310.173 315.116,310.247 314.119,310.311 313.112,310.366 312.093,310.412 311.064,310.447 310.023,310.473 308.971,310.488 307.908,310.492 306.834,310.485 305.749,310.466 304.652,310.436 303.545,310.393 302.426,310.338 301.296,310.269 300.155,310.187 299.004,310.091 297.841,309.981 296.668,309.856 295.484,309.717 294.289,309.561 293.084,309.39 291.868,309.202 290.642,308.998 289.406,308.776 288.161,308.537 286.905,308.279 285.64,308.003 284.366,307.708 283.082,307.393 281.79,307.058 280.489,306.702 279.18,306.326 277.863,305.928 276.538,305.508 275.206,305.065 273.867,304.6 272.522,304.111 271.17,303.598 269.812,303.061 268.45,302.499 267.082,301.912 265.71,301.298 264.335,300.659 262.956,299.993 261.574,299.299 260.19,298.578 258.805,297.829 257.419,297.051 256.033,296.245 254.647,295.409 253.262,294.544 251.879,293.648 250.5,292.723 249.123,291.766 247.751,290.779 246.384,289.76 245.023,288.71 243.669,287.628 242.322,286.514 240.984,285.368 239.656,284.19 238.339,282.98 237.033,281.736 235.739,280.461 234.46,279.153 233.194,277.812 231.945,276.439 230.712,275.034 229.497,273.597 228.301,272.127 227.125,270.626 225.969,269.093 224.836,267.529 223.726,265.934 222.641,264.308 221.58,262.653 220.546,260.968 219.54,259.254 218.562,257.512 217.614,255.742 216.697,253.945 215.811,252.122 214.958,250.273 214.138,248.4 213.353,246.502 212.604,244.582 211.891,242.64 211.215,240.677 210.577,238.694 209.978,236.692 209.419,234.672 208.899,232.636 208.421,230.584 207.984,228.519 207.59,226.44 207.237,224.35 206.928,222.25 206.663,220.141 206.441,218.024 206.263,215.9 206.129,213.772 206.04,211.641 205.995,209.507 205.995,207.373 206.04,205.239 206.129,203.108 206.263,200.98 206.441,198.856 206.663,196.739 206.928,194.63 207.237,192.53 207.59,190.44 207.984,188.361 208.421,186.296 208.899,184.244 209.419,182.208 209.978,180.188 210.577,178.186 211.215,176.203 211.891,174.24 212.604,172.298 213.353,170.378 214.138,168.48 214.958,166.607 215.811,164.758 216.697,162.935 217.614,161.138 218.562,159.368 219.54,157.626 220.546,155.912 221.58,154.227 222.641,152.572 223.726,150.946 224.836,149.351 225.969,147.787 227.125,146.254 228.301,144.753 229.497,143.283 230.712,141.846 231.945,140.441 233.194,139.068 234.46,137.727 235.739,136.419 237.033,135.144 238.339,133.901 239.656,132.69 240.984,131.512 242.322,130.366 243.669,129.252 245.023,128.17 246.384,127.12 247.751,126.101 249.123,125.114 250.5,124.158 251.879,123.232 253.262,122.336 254.647,121.471 256.033,120.635 257.419,119.829 258.805,119.051 260.19,118.302 261.574,117.581 262.956,116.887 264.335,116.221 265.71,115.582 267.082,114.968 268.45,114.381 269.812,113.819 271.17,113.282 272.522,112.769 273.867,112.28 275.206,111.815 276.538,111.372 277.863,110.952 279.18,110.554 280.489,110.178 281.79,109.822 283.082,109.487 284.366,109.172 285.64,108.877 286.905,108.601 288.161,108.343 289.406,108.104 290.642,107.882 291.868,107.678 293.084,107.49 294.289,107.319 295.484,107.163 296.668,107.024 297.841,106.899 299.004,106.789 300.155,106.693 301.296,106.611 302.426,106.542 303.545,106.487 304.652,106.444 305.749,106.414 306.834,106.395 307.908,106.388 308.971,106.392 310.023,106.407 311.064,106.433 312.093,106.468 313.112,106.514 314.119,106.569 315.116,106.633 316.101,106.707 317.075,106.788 318.039,106.879 318.991,106.977 319.933,107.083 320.864,107.197 321.785,107.317 322.695,107.445 323.594,107.58 324.483,107.721 325.361,107.868 326.229,108.022 327.087,108.181 327.935,108.345 328.772,108.516 329.6,108.691 330.418,108.871 331.226,109.056 332.024,109.246 332.813,109.44 333.592,109.638 334.362,109.84 335.123,110.047 335.874,110.257 336.616,110.47"/>
<polyline fill="none" stroke="#e5e5e5" stroke-width="0.5" stroke-linecap="butt" stroke-linejoin="miter" points="388.98,261.226 388.691,261.527 388.397,261.83 388.098,262.136 387.792,262.445 387.481,262.756 387.163,263.07 386.839,263.386 386.508,263.705 386.171,264.026 385.827,264.35 385.476,264.676 385.117,265.004 384.752,265.336 384.379,265.669 383.998,266.005 383.609,266.344 383.212,266.684 382.807,267.028 382.393,267.373 381.97,267.721 381.538,268.071 381.097,268.423 380.647,268.777 380.187,269.133 379.717,269.491 379.237,269.852 378.746,270.214 378.245,270.577 377.732,270.943 377.208,271.31 376.673,271.678 376.125,272.048 375.565,272.419 374.993,272.791 374.408,273.164 373.81,273.538 373.198,273.913 372.572,274.288 371.932,274.663 371.277,275.038 370.607,275.413 369.922,275.787 369.221,276.161 368.503,276.534 367.769,276.906 367.018,277.276 366.25,277.644 365.464,278.01 364.659,278.374 363.836,278.734 362.993,279.091 362.13,279.445 361.248,279.794 360.345,280.138 359.42,280.476 358.474,280.809 357.506,281.135 356.515,281.454 355.501,281.765 354.464,282.068 353.403,282.361 352.317,282.644 351.206,282.916 350.07,283.176 348.907,283.424 347.719,283.657 346.503,283.876 345.261,284.079 343.991,284.264 342.693,284.432 341.366,284.579 340.011,284.706 338.628,284.811 337.215,284.892 335.773,284.947 334.301,284.975 332.801,284.975 331.271,284.945 329.711,284.883 328.122,284.786 326.505,284.654 324.858,284.483 323.184,284.273 321.482,284.021 319.753,283.724 317.997,283.381 316.217,282.99 314.412,282.547 312.584,282.05 310.735,281.498 308.865,280.888 306.978,280.217 305.074,279.483 303.156,278.684 301.226,277.816 299.287,276.88 297.342,275.87 295.393,274.787 293.444,273.627 291.498,272.389 289.559,271.071 287.631,269.671 285.719,268.189 283.825,266.623 281.956,264.971 280.115,263.235 278.309,261.413 276.54,259.505 274.816,257.511 273.141,255.434 271.52,253.273 269.96,251.03 268.464,248.707 267.039,246.307 265.69,243.833 264.422,241.288 263.24,238.675 262.149,235.998 261.153,233.264 260.256,230.475 259.462,227.638 258.775,224.759 258.198,221.843 257.733,218.896 257.383,215.926 257.148,212.938 257.03,209.941 257.03,206.939 257.148,203.942 257.383,200.954 257.733,197.984 258.198,195.037 258.775,192.121 259.462,189.242 260.256,186.405 261.153,183.617 262.149,180.882 263.24,178.205 264.422,175.593 265.69,173.047 267.039,170.573 268.464,168.173 269.96,165.85 271.52,163.607 273.141,161.446 274.816,159.369 276.54,157.375 278.309,155.467 280.115,153.645 281.956,151.909 283.825,150.257 285.719,148.691 287.631,147.209 289.559,145.809 291.498,144.491 293.444,143.253 295.393,142.093 297.342,141.01 299.287,140.001 301.226,139.064 303.156,138.196 305.074,137.397 306.978,136.663 308.865,135.992 310.735,135.382 312.584,134.83 314.412,134.333 316.217,133.891 317.997,133.499 319.753,133.156 321.482,132.859 323.184,132.607 324.858,132.397 326.505,132.226 328.122,132.094 329.711,131.997 331.271,131.935 332.801,131.905 334.301,131.905 335.773,131.933 337.215,131.988 338.628,132.069 340.011,132.174 341.366,132.301 342.693,132.448 343.991,132.616 345.261,132.801 346.503,133.004 347.719,133.223 348.907,133.456 350.07,133.704 351.206,133.964 352.317,134.236 353.403,134.519 354.464,134.812 355.501,135.115 356.515,135.426 357.506,135.745 358.474,136.071 359.42,136.404 360.345,136.742 361.248,137.086 362.13,137.435 362.993,137.789 363.836,138.146 364.659,138.506 365.464,138.87 366.25,139.236 367.018,139.604 367.769,139.974 368.503,140.346 369.221,140.719 369.922,141.093 370.607,141.467 371.277,141.842 371.932,142.217 372.572,142.592 373.198,142.967 373.81,143.342 374.408,143.716 374.993,144.089 375.565,144.461 376.125,144.832 376.673,145.202 377.208,145.57 377.732,145.937 378.245,146.303 378.746,146.666 379.237,147.028 379.717,147.389 380.187,147.747 380.647,148.103 381.097,148.457 381.538,148.809 381.97,149.159 382.393,149.507 382.807,149.852 383.212,150.196 383.609,150.536 383.998,150.875 384.379,151.211 384.752,151.544 385.117,151.876 385.476,152.204 385.827,152.53 386.171,152.854 386.508,153.175 386.839,153.494 387.163,153.81 387.481,154.124 387.792,154.435 388.098,154.744 388.397,155.05 388.691,155.353 388.98,155.654"/>
<polyline fill="none" stroke="#e5e5e5" stroke-width="0.5" stroke-linecap="butt" stroke-linejoin="miter" points="339.442,255.541 339.101,255.397 338.759,255.25 338.417,255.1 338.074,254.947 337.73,254.791 337.386,254.631 337.042,254.467 336.697,254.301 336.352,254.131 336.007,253.958 335.661,253.781 335.315,253.601 334.969,253.417 334.623,253.229 334.276,253.039 333.93,252.844 333.583,252.646 333.237,252.445 332.89,252.239 332.543,252.03 332.197,251.818 331.851,251.601 331.505,251.381 331.159,251.157 330.814,250.93 330.469,250.698 330.124,250.463 329.78,250.224 329.437,249.981 329.094,249.734 328.751,249.483 328.409,249.229 328.068,248.97 327.728,248.708 327.389,248.441 327.05,248.171 326.713,247.896 326.376,247.618 326.04,247.335 325.706,247.049 325.373,246.758 325.041,246.464 324.71,246.165 324.38,245.863 324.052,245.556 323.726,245.245 323.401,244.93 323.078,244.611 322.756,244.288 322.436,243.961 322.118,243.63 321.802,243.295 321.487,242.956 321.175,242.613 320.864,242.266 320.556,241.914 320.25,241.559 319.946,241.199 319.645,240.836 319.346,240.469 319.049,240.097 318.755,239.722 318.464,239.343 318.175,238.959 317.889,238.572 317.606,238.181 317.325,237.786 317.048,237.388 316.773,236.985 316.502,236.579 316.233,236.169 315.968,235.755 315.707,235.337 315.448,234.916 315.193,234.491 314.941,234.063 314.693,233.631 314.449,233.195 314.208,232.756 313.971,232.314 313.738,231.868 313.508,231.418 313.283,230.966 313.062,230.51 312.844,230.051 312.631,229.589 312.422,229.124 312.217,228.655 312.016,228.184 311.82,227.709 311.628,227.232 311.441,226.752 311.258,226.269 311.08,225.784 310.906,225.295 310.737,224.805 310.573,224.311 310.413,223.816 310.259,223.317 310.109,222.817 309.964,222.314 309.824,221.809 309.689,221.302 309.56,220.793 309.435,220.282 309.315,219.769 309.201,219.255 309.092,218.738 308.988,218.22 308.889,217.701 308.796,217.179 308.708,216.657 308.625,216.133 308.548,215.608 308.476,215.082 308.409,214.554 308.348,214.026 308.293,213.497 308.243,212.967 308.198,212.436 308.159,211.904 308.126,211.372 308.098,210.84 308.076,210.307 308.059,209.774 308.048,209.24 308.042,208.707 308.042,208.173 308.048,207.64 308.059,207.106 308.076,206.573 308.098,206.04 308.126,205.508 308.159,204.976 308.198,204.444 308.243,203.913 308.293,203.383 308.348,202.854 308.409,202.326 308.476,201.798 308.548,201.272 308.625,200.747 308.708,200.223 308.796,199.701 308.889,199.179 308.988,198.66 309.092,198.142 309.201,197.625 309.315,197.111 309.435,196.598 309.56,196.087 309.689,195.578 309.824,195.071 309.964,194.566 310.109,194.063 310.259,193.563 310.413,193.064 310.573,192.569 310.737,192.075 310.906,191.585 311.08,191.096 311.258,190.611 311.441,190.128 311.628,189.648 311.82,189.171 312.016,188.696 312.217,188.225 312.422,187.757 312.631,187.291 312.844,186.829 313.062,186.37 313.283,185.914 313.508,185.462 313.738,185.012 313.971,184.566 314.208,184.124 314.449,183.685 314.693,183.249 314.941,182.817 315.193,182.389 315.448,181.964 315.707,181.543 315.968,181.125 316.233,180.711 316.502,180.301 316.773,179.895 317.048,179.492 317.325,179.094 317.606,178.699 317.889,178.308 318.175,177.921 318.464,177.537 318.755,177.158 319.049,176.783 319.346,176.411 319.645,176.044 319.946,175.681 320.25,175.321 320.556,174.966 320.864,174.614 321.175,174.267 321.487,173.924 321.802,173.585 322.118,173.25 322.436,172.919 322.756,172.592 323.078,172.269 323.401,171.95 323.726,171.635 324.052,171.324 324.38,171.017 324.71,170.715 325.041,170.416 325.373,170.122 325.706,169.831 326.04,169.545 326.376,169.262 326.713,168.984 327.05,168.709 327.389,168.439 327.728,168.172 328.068,167.91 328.409,167.651 328.751,167.397 329.094,167.146 329.437,166.899 329.78,166.656 330.124,166.417 330.469,166.182 330.814,165.95 331.159,165.723 331.505,165.499 331.851,165.279 332.197,165.062 332.543,164.85 332.89,164.641 333.237,164.435 333.583,164.234 333.93,164.036 334.276,163.841 334.623,163.651 334.969,163.463 335.315,163.279 335.661,163.099 336.007,162.922 336.352,162.749 336.697,162.579 337.042,162.413 337.386,162.249 337.73,162.089 338.074,161.933 338.417,161.78 338.759,161.63 339.101,161.483 339.442,161.339"/>
<polyline fill="none" stroke="#e5e5e5" stroke-width="0.5" stroke-linecap="butt" stroke-linejoin="miter" points="115.713,267.316 116.245,267.095 116.775,266.875 117.303,266.656 117.829,266.438 118.354,266.222 118.877,266.006 119.398,265.792 119.917,265.579 120.434,265.367 120.95,265.157 121.464,264.947 121.976,264.739 122.487,264.532 122.996,264.326 123.503,264.121 124.008,263.917 124.512,263.714 125.013,263.512 125.514,263.312 126.012,263.112 126.509,262.914 127.004,262.717 127.498,262.52 127.99,262.325 128.48,262.131 128.969,261.938 129.456,261.746 129.941,261.554 130.425,261.364 130.907,261.175 131.388,260.987 131.867,260.8 132.344,260.614 132.82,260.429 133.294,260.245 133.767,260.061 134.238,259.879 134.708,259.698 135.176,259.518 135.643,259.338 136.108,259.16 136.571,258.982 137.033,258.806 137.494,258.63 137.953,258.455 138.41,258.281 138.866,258.108 139.321,257.936 139.774,257.765 140.226,257.595 140.676,257.425 141.125,257.256 141.572,257.089 142.018,256.922 142.463,256.756 142.906,256.591 143.347,256.426 143.788,256.263 144.227,256.1 144.664,255.938 145.1,255.777 145.535,255.617 145.968,255.457 146.4,255.298 146.831,255.141 147.26,254.984 147.688,254.827 148.114,254.672 148.54,254.517 148.963,254.363 149.386,254.21 149.807,254.057 150.227,253.906 150.646,253.755 151.063,253.604 151.479,253.455 151.894,253.306 152.307,253.158 152.719,253.011 153.13,252.864 153.54,252.718 153.948,252.573 154.355,252.429 154.761,252.285 155.166,252.142 155.569,252 155.971,251.858 156.372,251.717 156.772,251.577 157.17,251.437 157.568,251.298 157.964,251.16 158.358,251.022 158.752,250.885 159.145,250.749 159.536,250.613 159.926,250.478 160.315,250.344 160.703,250.21 161.089,250.077 161.475,249.944 161.859,249.812 162.242,249.681 162.624,249.551 163.005,249.421 163.384,249.291 163.763,249.162 164.14,249.034 164.517,248.907 164.892,248.78 165.266,248.653 165.639,248.527 166.011,248.402 166.382,248.278 166.751,248.154 167.12,248.03 167.488,247.907 167.854,247.785 168.219,247.663 168.584,247.542 168.947,247.421 169.309,247.301 169.67,247.181 170.03,247.062 170.389,246.944 170.747,246.826 171.104,246.708 171.46,246.591 171.815,246.475 172.169,246.359 172.522,246.244 172.873,246.129 173.224,246.015 173.574,245.901 173.923,245.788 174.271,245.675 174.617,245.563 174.963,245.451 175.308,245.34 175.652,245.229 175.995,245.119 176.337,245.009 176.678,244.9 177.017,244.791 177.356,244.683 177.694,244.575 178.032,244.468 178.368,244.361 178.703,244.255 179.037,244.149 179.37,244.043 179.703,243.938 180.034,243.834 180.365,243.73 180.694,243.626 181.023,243.523 181.35,243.42 181.677,243.318 182.003,243.216 182.328,243.115 182.652,243.014 182.976,242.913 183.298,242.813 183.619,242.714 183.94,242.614 184.259,242.516 184.578,242.417 184.896,242.319 185.213,242.222 185.529,242.125 185.844,242.028 186.159,241.932 186.472,241.836 186.785,241.74 187.097,241.645 187.408,241.551 187.718,241.456 188.027,241.363 188.336,241.269 188.644,241.176 188.95,241.083 189.256,240.991 189.561,240.899 189.866,240.808 190.169,240.717 190.472,240.626 190.774,240.536 191.075,240.446 191.375,240.356 191.675,240.267 191.973,240.178 192.271,240.089 192.568,240.001 192.864,239.914 193.16,239.826 193.455,239.739 193.749,239.652 194.042,239.566 194.334,239.48 194.626,239.395 194.916,239.309 195.207,239.224 195.496,239.14 195.784,239.056 196.072,238.972 196.359,238.888 196.645,238.805 196.931,238.722 197.216,238.64 197.5,238.558 197.783,238.476 198.065,238.394 198.347,238.313 198.628,238.232 198.909,238.152 199.188,238.071 199.467,237.991 199.745,237.912 200.023,237.833 200.3,237.754 200.576,237.675 200.851,237.597 201.126,237.519 201.399,237.441 201.673,237.364 201.945,237.287 202.217,237.21 202.488,237.133 202.758,237.057 203.028,236.981 203.297,236.906 203.566,236.831 203.833,236.756 204.1,236.681 204.367,236.607 204.632,236.533 204.897,236.459 205.162,236.385 205.425,236.312 205.688,236.239 205.95,236.167 206.212,236.094 206.473,236.022 206.733,235.95 206.993,235.879 207.252,235.808 207.511,235.737 207.768,235.666 208.025,235.595 208.282,235.525 208.538,235.455 208.793,235.386 209.047,235.316 209.301,235.247 209.555,235.179"/>
<polyline fill="none" stroke="#e5e5e5" stroke-width="0.5" stroke-linecap="butt" stroke-linejoin="miter" points="115.713,149.564 116.245,149.785 116.775,150.005 117.303,150.224 117.829,150.442 118.354,150.659 118.877,150.874 119.398,151.088 119.917,151.301 120.434,151.513 120.95,151.723 121.464,151.933 121.976,152.141 122.487,152.348 122.996,152.554 123.503,152.759 124.008,152.963 124.512,153.166 125.013,153.368 125.514,153.568 126.012,153.768 126.509,153.966 127.004,154.163 127.498,154.36 127.99,154.555 128.48,154.749 128.969,154.942 129.456,155.134 129.941,155.326 130.425,155.516 130.907,155.705 131.388,155.893 131.867,156.08 132.344,156.266 132.82,156.451 133.294,156.635 133.767,156.819 134.238,157.001 134.708,157.182 135.176,157.362 135.643,157.542 136.108,157.72 136.571,157.898 137.033,158.074 137.494,158.25 137.953,158.425 138.41,158.599 138.866,158.772 139.321,158.944 139.774,159.115 140.226,159.285 140.676,159.455 141.125,159.624 141.572,159.791 142.018,159.958 142.463,160.124 142.906,160.289 143.347,160.454 143.788,160.617 144.227,160.78 144.664,160.942 145.1,161.103 145.535,161.263 145.968,161.423 146.4,161.582 146.831,161.739 147.26,161.896 147.688,162.053 148.114,162.208 148.54,162.363 148.963,162.517 149.386,162.67 149.807,162.823 150.227,162.974 150.646,163.125 151.063,163.276 151.479,163.425 151.894,163.574 152.307,163.722 152.719,163.869 153.13,164.016 153.54,164.162 153.948,164.307 154.355,164.451 154.761,164.595 155.166,164.738 155.569,164.88 155.971,165.022 156.372,165.163 156.772,165.303 157.17,165.443 157.568,165.582 157.964,165.72 158.358,165.858 158.752,165.995 159.145,166.131 159.536,166.267 159.926,166.402 160.315,166.536 160.703,166.67 161.089,166.803 161.475,166.936 161.859,167.068 162.242,167.199 162.624,167.329 163.005,167.459 163.384,167.589 163.763,167.718 164.14,167.846 164.517,167.973 164.892,168.1 165.266,168.227 165.639,168.353 166.011,168.478 166.382,168.602 166.751,168.727 167.12,168.85 167.488,168.973 167.854,169.095 168.219,169.217 168.584,169.338 168.947,169.459 169.309,169.579 169.67,169.699 170.03,169.818 170.389,169.936 170.747,170.054 171.104,170.172 171.46,170.289 171.815,170.405 172.169,170.521 172.522,170.636 172.873,170.751 173.224,170.865 173.574,170.979 173.923,171.092 174.271,171.205 174.617,171.317 174.963,171.429 175.308,171.54 175.652,171.651 175.995,171.761 176.337,171.871 176.678,171.98 177.017,172.089 177.356,172.197 177.694,172.305 178.032,172.412 178.368,172.519 178.703,172.625 179.037,172.731 179.37,172.837 179.703,172.942 180.034,173.046 180.365,173.15 180.694,173.254 181.023,173.357 181.35,173.46 181.677,173.562 182.003,173.664 182.328,173.765 182.652,173.866 182.976,173.967 183.298,174.067 183.619,174.166 183.94,174.266 184.259,174.364 184.578,174.463 184.896,174.561 185.213,174.658 185.529,174.755 185.844,174.852 186.159,174.948 186.472,175.044 186.785,175.14 187.097,175.235 187.408,175.329 187.718,175.424 188.027,175.517 188.336,175.611 188.644,175.704 188.95,175.797 189.256,175.889 189.561,175.981 189.866,176.072 190.169,176.163 190.472,176.254 190.774,176.344 191.075,176.434 191.375,176.524 191.675,176.613 191.973,176.702 192.271,176.791 192.568,176.879 192.864,176.966 193.16,177.054 193.455,177.141 193.749,177.228 194.042,177.314 194.334,177.4 194.626,177.485 194.916,177.571 195.207,177.656 195.496,177.74 195.784,177.824 196.072,177.908 196.359,177.992 196.645,178.075 196.931,178.158 197.216,178.24 197.5,178.322 197.783,178.404 198.065,178.486 198.347,178.567 198.628,178.648 198.909,178.728 199.188,178.809 199.467,178.889 199.745,178.968 200.023,179.047 200.3,179.126 200.576,179.205 200.851,179.283 201.126,179.361 201.399,179.439 201.673,179.516 201.945,179.593 202.217,179.67 202.488,179.747 202.758,179.823 203.028,179.899 203.297,179.974 203.566,180.049 203.833,180.124 204.1,180.199 204.367,180.273 204.632,180.347 204.897,180.421 205.162,180.495 205.425,180.568 205.688,180.641 205.95,180.713 206.212,180.786 206.473,180.858 206.733,180.93 206.993,181.001 207.252,181.072 207.511,181.143 207.768,181.214 208.025,181.285 208.282,181.355 208.538,181.425 208.793,181.494 209.047,181.564 209.301,181.633 209.555,181.701"/>
<polyline fill="none" stroke="#e5e5e5" stroke-width="0.5" stroke-linecap="butt" stroke-linejoin="miter" points="165.169,330.903 165.744,330.138 166.319,329.379 166.892,328.627 167.464,327.881 168.035,327.142 168.604,326.409 169.172,325.682 169.739,324.962 170.304,324.247 170.868,323.539 171.431,322.837 171.992,322.14 172.552,321.45 173.111,320.765 173.668,320.086 174.223,319.412 174.777,318.745 175.33,318.082 175.881,317.426 176.431,316.775 176.979,316.129 177.526,315.488 178.071,314.853 178.615,314.223 179.157,313.599 179.698,312.979 180.237,312.365 180.775,311.755 181.311,311.151 181.846,310.551 182.379,309.956 182.91,309.367 183.44,308.782 183.968,308.201 184.495,307.626 185.02,307.055 185.543,306.489 186.065,305.927 186.586,305.37 187.104,304.817 187.622,304.268 188.137,303.724 188.651,303.185 189.163,302.649 189.674,302.118 190.183,301.592 190.691,301.069 191.197,300.55 191.701,300.036 192.204,299.525 192.705,299.019 193.204,298.516 193.702,298.018 194.198,297.523 194.693,297.032 195.186,296.545 195.677,296.062 196.167,295.583 196.655,295.107 197.141,294.635 197.626,294.167 198.11,293.702 198.591,293.241 199.071,292.783 199.55,292.329 200.027,291.878 200.502,291.431 200.976,290.987 201.448,290.546 201.918,290.109 202.387,289.675 202.854,289.244 203.32,288.817 203.784,288.393 204.247,287.972 204.708,287.554 205.167,287.139 205.625,286.728 206.081,286.319 206.536,285.914 206.989,285.511 207.44,285.112 207.89,284.715 208.339,284.321 208.785,283.931 209.231,283.543 209.675,283.158 210.117,282.776 210.558,282.396 210.997,282.019 211.434,281.646 211.87,281.274 212.305,280.906 212.738,280.54 213.17,280.177 213.6,279.816 214.028,279.458 214.455,279.103 214.881,278.75 215.305,278.399 215.727,278.052 216.149,277.706 216.568,277.363 216.986,277.023 217.403,276.685 217.818,276.349 218.232,276.016 218.644,275.685 219.055,275.356 219.465,275.03 219.872,274.706 220.279,274.384 220.684,274.064 221.088,273.747 221.49,273.432 221.891,273.119 222.29,272.808 222.688,272.5 223.085,272.193 223.48,271.889 223.874,271.586 224.266,271.286 224.657,270.988 225.047,270.692 225.435,270.398 225.822,270.106 226.208,269.816 226.592,269.527 226.975,269.241 227.356,268.957 227.736,268.675 228.115,268.394 228.493,268.116 228.869,267.839 229.244,267.564 229.617,267.291 229.989,267.02 230.36,266.751 230.73,266.483 231.098,266.217 231.465,265.953 231.831,265.691 232.195,265.43 232.558,265.171 232.92,264.914 233.281,264.659 233.64,264.405 233.998,264.153 234.355,263.902 234.711,263.653 235.065,263.406 235.418,263.16 235.77,262.916 236.121,262.674 236.47,262.433 236.818,262.193 237.165,261.956 237.511,261.719 237.855,261.484 238.199,261.251 238.541,261.019 238.882,260.789 239.222,260.56 239.56,260.333 239.898,260.107 240.234,259.882 240.569,259.659 240.903,259.437 241.236,259.217 241.567,258.998 241.898,258.78 242.227,258.564 242.555,258.349 242.882,258.136 243.208,257.923 243.533,257.713 243.857,257.503 244.179,257.295 244.501,257.088 244.821,256.882 245.141,256.677 245.459,256.474 245.776,256.272 246.092,256.072 246.407,255.872 246.721,255.674 247.033,255.477 247.345,255.281 247.656,255.086 247.965,254.893 248.274,254.7 248.581,254.509 248.888,254.319 249.193,254.13 249.497,253.942 249.801,253.756 250.103,253.57 250.404,253.386 250.705,253.202 251.004,253.02 251.302,252.839 251.599,252.659 251.896,252.48 252.191,252.302 252.485,252.125 252.778,251.949 253.071,251.774 253.362,251.601 253.652,251.428 253.941,251.256 254.23,251.085 254.517,250.915 254.804,250.747 255.089,250.579 255.374,250.412 255.657,250.246 255.94,250.081 256.222,249.917 256.502,249.754 256.782,249.592 257.061,249.431 257.339,249.271 257.616,249.111 257.892,248.953 258.168,248.795 258.442,248.639 258.715,248.483 258.988,248.328 259.26,248.174 259.53,248.021 259.8,247.869 260.069,247.718 260.337,247.567 260.604,247.417 260.871,247.268 261.136,247.12 261.401,246.973 261.665,246.827 261.928,246.681 262.19,246.537 262.451,246.393 262.711,246.249 262.971,246.107 263.229,245.966 263.487,245.825 263.744,245.685 264,245.545 264.256,245.407 264.51,245.269 264.764,245.132 265.017,244.996 265.269,244.861 265.52,244.726 265.771,244.592 266.02,244.458"/>
<polyline fill="none" stroke="#e5e5e5" stroke-width="0.5" stroke-linecap="butt" stroke-linejoin="miter" points="165.169,85.9774 165.744,86.7425 166.319,87.501 166.892,88.2531 167.464,88.9987 168.035,89.7379 168.604,90.4708 169.172,91.1975 169.739,91.9181 170.304,92.6325 170.868,93.3409 171.431,94.0433 171.992,94.7398 172.552,95.4304 173.111,96.1152 173.668,96.7943 174.223,97.4677 174.777,98.1354 175.33,98.7976 175.881,99.4543 176.431,100.105 176.979,100.751 177.526,101.392 178.071,102.027 178.615,102.657 179.157,103.281 179.698,103.901 180.237,104.516 180.775,105.125 181.311,105.729 181.846,106.329 182.379,106.924 182.91,107.513 183.44,108.098 183.968,108.679 184.495,109.254 185.02,109.825 185.543,110.391 186.065,110.953 186.586,111.51 187.104,112.063 187.622,112.612 188.137,113.156 188.651,113.695 189.163,114.231 189.674,114.762 190.183,115.289 190.691,115.811 191.197,116.33 191.701,116.844 192.204,117.355 192.705,117.861 193.204,118.364 193.702,118.862 194.198,119.357 194.693,119.848 195.186,120.335 195.677,120.818 196.167,121.297 196.655,121.773 197.141,122.245 197.626,122.713 198.11,123.178 198.591,123.639 199.071,124.097 199.55,124.551 200.027,125.002 200.502,125.449 200.976,125.893 201.448,126.334 201.918,126.771 202.387,127.205 202.854,127.636 203.32,128.063 203.784,128.487 204.247,128.908 204.708,129.326 205.167,129.741 205.625,130.152 206.081,130.561 206.536,130.966 206.989,131.369 207.44,131.768 207.89,132.165 208.339,132.559 208.785,132.949 209.231,133.337 209.675,133.722 210.117,134.104 210.558,134.484 210.997,134.861 211.434,135.235 211.87,135.606 212.305,135.974 212.738,136.34 213.17,136.703 213.6,137.064 214.028,137.422 214.455,137.777 214.881,138.13 215.305,138.481 215.727,138.828 216.149,139.174 216.568,139.517 216.986,139.857 217.403,140.195 217.818,140.531 218.232,140.864 218.644,141.195 219.055,141.524 219.465,141.85 219.872,142.174 220.279,142.496 220.684,142.816 221.088,143.133 221.49,143.448 221.891,143.761 222.29,144.072 222.688,144.38 223.085,144.687 223.48,144.991 223.874,145.294 224.266,145.594 224.657,145.892 225.047,146.188 225.435,146.482 225.822,146.774 226.208,147.064 226.592,147.353 226.975,147.639 227.356,147.923 227.736,148.205 228.115,148.486 228.493,148.764 228.869,149.041 229.244,149.316 229.617,149.589 229.989,149.86 230.36,150.129 230.73,150.397 231.098,150.663 231.465,150.927 231.831,151.189 232.195,151.45 232.558,151.709 232.92,151.966 233.281,152.221 233.64,152.475 233.998,152.727 234.355,152.978 234.711,153.227 235.065,153.474 235.418,153.72 235.77,153.964 236.121,154.206 236.47,154.447 236.818,154.687 237.165,154.924 237.511,155.161 237.855,155.396 238.199,155.629 238.541,155.861 238.882,156.091 239.222,156.32 239.56,156.547 239.898,156.773 240.234,156.998 240.569,157.221 240.903,157.443 241.236,157.663 241.567,157.882 241.898,158.1 242.227,158.316 242.555,158.531 242.882,158.744 243.208,158.957 243.533,159.167 243.857,159.377 244.179,159.585 244.501,159.792 244.821,159.998 245.141,160.203 245.459,160.406 245.776,160.608 246.092,160.808 246.407,161.008 246.721,161.206 247.033,161.403 247.345,161.599 247.656,161.794 247.965,161.987 248.274,162.18 248.581,162.371 248.888,162.561 249.193,162.75 249.497,162.938 249.801,163.124 250.103,163.31 250.404,163.494 250.705,163.678 251.004,163.86 251.302,164.041 251.599,164.221 251.896,164.4 252.191,164.578 252.485,164.755 252.778,164.931 253.071,165.106 253.362,165.279 253.652,165.452 253.941,165.624 254.23,165.795 254.517,165.965 254.804,166.133 255.089,166.301 255.374,166.468 255.657,166.634 255.94,166.799 256.222,166.963 256.502,167.126 256.782,167.288 257.061,167.449 257.339,167.609 257.616,167.769 257.892,167.927 258.168,168.085 258.442,168.241 258.715,168.397 258.988,168.552 259.26,168.706 259.53,168.859 259.8,169.011 260.069,169.163 260.337,169.313 260.604,169.463 260.871,169.612 261.136,169.76 261.401,169.907 261.665,170.053 261.928,170.199 262.19,170.343 262.451,170.487 262.711,170.631 262.971,170.773 263.229,170.914 263.487,171.055 263.744,171.195 264,171.335 264.256,171.473 264.51,171.611 264.764,171.748 265.017,171.884 265.269,172.02 265.52,172.154 265.771,172.288 266.02,172.422"/>
<polyline fill="none" stroke="#e5e5e5" stroke-width="0.5" stroke-linecap="butt" stroke-linejoin="miter" points="257.016,361.518 257.02,360.322 257.034,359.136 257.057,357.959 257.089,356.791 257.129,355.633 257.177,354.484 257.234,353.344 257.299,352.214 257.371,351.093 257.451,349.982 257.538,348.879 257.633,347.786 257.734,346.702 257.843,345.628 257.958,344.562 258.079,343.505 258.207,342.458 258.341,341.419 258.481,340.39 258.626,339.369 258.778,338.358 258.935,337.355 259.097,336.361 259.264,335.376 259.437,334.399 259.614,333.431 259.797,332.472 259.984,331.521 260.175,330.578 260.371,329.644 260.571,328.719 260.775,327.802 260.983,326.892 261.195,325.992 261.411,325.099 261.631,324.214 261.854,323.337 262.08,322.469 262.31,321.608 262.543,320.755 262.779,319.91 263.018,319.072 263.26,318.242 263.505,317.42 263.753,316.605 264.003,315.798 264.255,314.998 264.511,314.206 264.768,313.42 265.028,312.642 265.29,311.871 265.554,311.107 265.82,310.351 266.089,309.601 266.359,308.858 266.63,308.122 266.904,307.392 267.179,306.67 267.456,305.954 267.734,305.244 268.014,304.542 268.296,303.845 268.578,303.155 268.862,302.472 269.147,301.794 269.433,301.123 269.721,300.458 270.009,299.8 270.298,299.147 270.589,298.5 270.88,297.86 271.172,297.225 271.465,296.596 271.758,295.972 272.053,295.355 272.348,294.743 272.643,294.137 272.939,293.536 273.236,292.941 273.533,292.351 273.831,291.766 274.129,291.187 274.427,290.613 274.726,290.045 275.025,289.481 275.324,288.923 275.624,288.37 275.923,287.822 276.223,287.279 276.523,286.74 276.823,286.207 277.123,285.678 277.423,285.154 277.723,284.635 278.023,284.121 278.324,283.611 278.624,283.106 278.924,282.605 279.223,282.109 279.523,281.617 279.822,281.13 280.122,280.647 280.421,280.168 280.72,279.694 281.018,279.223 281.317,278.757 281.615,278.295 281.912,277.838 282.21,277.384 282.507,276.934 282.803,276.488 283.1,276.047 283.395,275.609 283.691,275.174 283.986,274.744 284.28,274.318 284.575,273.895 284.868,273.476 285.161,273.06 285.454,272.648 285.746,272.24 286.038,271.835 286.329,271.434 286.619,271.037 286.909,270.642 287.198,270.251 287.487,269.864 287.775,269.48 288.063,269.099 288.35,268.721 288.636,268.347 288.922,267.975 289.207,267.607 289.491,267.243 289.775,266.881 290.058,266.522 290.34,266.166 290.622,265.814 290.903,265.464 291.183,265.117 291.463,264.773 291.742,264.432 292.02,264.094 292.297,263.759 292.574,263.426 292.85,263.097 293.125,262.77 293.4,262.445 293.673,262.124 293.946,261.805 294.219,261.489 294.49,261.175 294.761,260.864 295.031,260.556 295.3,260.25 295.569,259.946 295.836,259.645 296.103,259.347 296.369,259.05 296.634,258.757 296.899,258.465 297.163,258.177 297.426,257.89 297.688,257.606 297.949,257.324 298.21,257.044 298.47,256.766 298.729,256.491 298.987,256.218 299.244,255.947 299.501,255.678 299.756,255.412 300.011,255.147 300.266,254.885 300.519,254.625 300.771,254.366 301.023,254.11 301.274,253.856 301.524,253.604 301.774,253.353 302.022,253.105 302.27,252.859 302.517,252.614 302.763,252.372 303.008,252.131 303.252,251.892 303.496,251.655 303.739,251.42 303.981,251.187 304.222,250.955 304.463,250.726 304.702,250.498 304.941,250.271 305.179,250.047 305.416,249.824 305.653,249.603 305.888,249.384 306.123,249.166 306.357,248.95 306.591,248.735 306.823,248.522 307.055,248.311 307.286,248.101 307.516,247.893 307.745,247.687 307.973,247.482 308.201,247.278 308.428,247.076 308.654,246.876 308.88,246.676 309.104,246.479 309.328,246.283 309.551,246.088 309.773,245.895 309.995,245.703 310.216,245.513 310.436,245.324 310.655,245.136 310.873,244.95 311.091,244.765 311.308,244.581 311.524,244.399 311.739,244.218 311.954,244.038 312.168,243.86 312.381,243.683 312.593,243.507 312.805,243.333 313.016,243.159 313.226,242.987 313.436,242.816 313.644,242.647 313.852,242.478 314.06,242.311 314.266,242.145 314.472,241.98 314.677,241.816 314.881,241.654 315.085,241.492 315.288,241.332 315.49,241.173 315.691,241.015 315.892,240.858 316.092,240.702 316.292,240.547 316.49,240.393 316.688,240.24 316.885,240.089 317.082,239.938 317.278,239.788 317.473,239.64 317.668,239.492 317.861,239.346 318.054,239.2 318.247,239.056"/>
<polyline fill="none" stroke="#e5e5e5" stroke-width="0.5" stroke-linecap="butt" stroke-linejoin="miter" points="257.016,55.3618 257.02,56.5577 257.034,57.7441 257.057,58.9212 257.089,60.0889 257.129,61.2472 257.177,62.3961 257.234,63.5356 257.299,64.6659 257.371,65.7868 257.451,66.8984 257.538,68.0007 257.633,69.0939 257.734,70.1778 257.843,71.2525 257.958,72.3181 258.079,73.3746 258.207,74.4221 258.341,75.4605 258.481,76.49 258.626,77.5105 258.778,78.5222 258.935,79.525 259.097,80.519 259.264,81.5043 259.437,82.481 259.614,83.4489 259.797,84.4083 259.984,85.3592 260.175,86.3016 260.371,87.2356 260.571,88.1612 260.775,89.0785 260.983,89.9875 261.195,90.8884 261.411,91.7812 261.631,92.6659 261.854,93.5425 262.08,94.4112 262.31,95.272 262.543,96.1251 262.779,96.9703 263.018,97.8078 263.26,98.6376 263.505,99.4599 263.753,100.275 264.003,101.082 264.255,101.882 264.511,102.674 264.768,103.46 265.028,104.238 265.29,105.009 265.554,105.773 265.82,106.529 266.089,107.279 266.359,108.022 266.63,108.758 266.904,109.488 267.179,110.21 267.456,110.926 267.734,111.636 268.014,112.338 268.296,113.035 268.578,113.725 268.862,114.408 269.147,115.086 269.433,115.757 269.721,116.422 270.009,117.08 270.298,117.733 270.589,118.38 270.88,119.02 271.172,119.655 271.465,120.284 271.758,120.908 272.053,121.525 272.348,122.137 272.643,122.743 272.939,123.344 273.236,123.939 273.533,124.529 273.831,125.114 274.129,125.693 274.427,126.267 274.726,126.835 275.025,127.399 275.324,127.957 275.624,128.51 275.923,129.058 276.223,129.602 276.523,130.14 276.823,130.673 277.123,131.202 277.423,131.726 277.723,132.245 278.023,132.759 278.324,133.269 278.624,133.774 278.924,134.275 279.223,134.771 279.523,135.263 279.822,135.75 280.122,136.233 280.421,136.712 280.72,137.186 281.018,137.657 281.317,138.123 281.615,138.585 281.912,139.042 282.21,139.496 282.507,139.946 282.803,140.392 283.1,140.833 283.395,141.271 283.691,141.706 283.986,142.136 284.28,142.562 284.575,142.985 284.868,143.404 285.161,143.82 285.454,144.232 285.746,144.64 286.038,145.045 286.329,145.446 286.619,145.843 286.909,146.238 287.198,146.629 287.487,147.016 287.775,147.4 288.063,147.781 288.35,148.159 288.636,148.533 288.922,148.905 289.207,149.273 289.491,149.637 289.775,149.999 290.058,150.358 290.34,150.714 290.622,151.066 290.903,151.416 291.183,151.763 291.463,152.107 291.742,152.448 292.02,152.786 292.297,153.121 292.574,153.454 292.85,153.783 293.125,154.11 293.4,154.435 293.673,154.756 293.946,155.075 294.219,155.391 294.49,155.705 294.761,156.016 295.031,156.324 295.3,156.63 295.569,156.934 295.836,157.235 296.103,157.533 296.369,157.83 296.634,158.123 296.899,158.415 297.163,158.704 297.426,158.99 297.688,159.274 297.949,159.556 298.21,159.836 298.47,160.114 298.729,160.389 298.987,160.662 299.244,160.933 299.501,161.202 299.756,161.468 300.011,161.733 300.266,161.995 300.519,162.255 300.771,162.514 301.023,162.77 301.274,163.024 301.524,163.276 301.774,163.527 302.022,163.775 302.27,164.021 302.517,164.266 302.763,164.508 303.008,164.749 303.252,164.988 303.496,165.225 303.739,165.46 303.981,165.693 304.222,165.925 304.463,166.154 304.702,166.382 304.941,166.609 305.179,166.833 305.416,167.056 305.653,167.277 305.888,167.496 306.123,167.714 306.357,167.93 306.591,168.145 306.823,168.358 307.055,168.569 307.286,168.779 307.516,168.987 307.745,169.193 307.973,169.398 308.201,169.602 308.428,169.804 308.654,170.004 308.88,170.204 309.104,170.401 309.328,170.597 309.551,170.792 309.773,170.985 309.995,171.177 310.216,171.367 310.436,171.556 310.655,171.744 310.873,171.93 311.091,172.115 311.308,172.299 311.524,172.481 311.739,172.662 311.954,172.842 312.168,173.02 312.381,173.197 312.593,173.373 312.805,173.547 313.016,173.721 313.226,173.893 313.436,174.064 313.644,174.233 313.852,174.402 314.06,174.569 314.266,174.735 314.472,174.9 314.677,175.064 314.881,175.226 315.085,175.388 315.288,175.548 315.49,175.707 315.691,175.865 315.892,176.022 316.092,176.178 316.292,176.333 316.49,176.487 316.688,176.64 316.885,176.791 317.082,176.942 317.278,177.092 317.473,177.24 317.668,177.388 317.861,177.534 318.054,177.68 318.247,177.824"/>
<polyline fill="none" stroke="#e5e5e5" stroke-width="0.5" stroke-linecap="butt" stroke-linejoin="miter" points="348.863,330.903 348.153,329.94 347.463,328.975 346.794,328.007 346.145,327.036 345.516,326.064 344.907,325.09 344.317,324.116 343.747,323.141 343.196,322.167 342.664,321.192 342.15,320.219 341.654,319.247 341.177,318.276 340.717,317.308 340.275,316.341 339.85,315.378 339.442,314.417 339.051,313.46 338.676,312.506 338.317,311.556 337.974,310.61 337.646,309.668 337.333,308.731 337.036,307.799 336.753,306.872 336.484,305.95 336.229,305.033 335.987,304.122 335.759,303.217 335.544,302.317 335.342,301.424 335.153,300.537 334.975,299.656 334.809,298.781 334.656,297.913 334.513,297.052 334.381,296.198 334.261,295.35 334.15,294.509 334.05,293.676 333.96,292.849 333.88,292.029 333.809,291.217 333.748,290.412 333.695,289.614 333.651,288.823 333.616,288.039 333.589,287.263 333.57,286.495 333.558,285.733 333.555,284.979 333.558,284.232 333.569,283.493 333.587,282.761 333.611,282.036 333.642,281.319 333.68,280.609 333.723,279.906 333.772,279.211 333.828,278.523 333.888,277.842 333.954,277.168 334.026,276.501 334.102,275.841 334.183,275.189 334.27,274.543 334.36,273.905 334.455,273.273 334.555,272.648 334.658,272.031 334.765,271.42 334.877,270.815 334.992,270.218 335.11,269.627 335.232,269.042 335.358,268.464 335.486,267.893 335.618,267.328 335.752,266.769 335.89,266.217 336.03,265.671 336.173,265.131 336.318,264.597 336.466,264.07 336.616,263.548 336.769,263.032 336.923,262.523 337.08,262.019 337.238,261.52 337.399,261.028 337.561,260.541 337.725,260.06 337.891,259.584 338.058,259.114 338.226,258.649 338.396,258.189 338.568,257.735 338.74,257.286 338.914,256.842 339.089,256.403 339.265,255.97 339.442,255.541 339.62,255.117 339.799,254.698 339.979,254.284 340.16,253.875 340.341,253.47 340.523,253.07 340.706,252.675 340.889,252.284 341.073,251.897 341.258,251.515 341.443,251.138 341.628,250.764 341.814,250.395 342,250.031 342.186,249.67 342.372,249.313 342.559,248.961 342.746,248.612 342.934,248.268 343.121,247.927 343.308,247.59 343.496,247.257 343.684,246.928 343.871,246.602 344.059,246.28 344.246,245.962 344.434,245.647 344.621,245.336 344.808,245.029 344.996,244.724 345.183,244.423 345.369,244.126 345.556,243.832 345.742,243.541 345.929,243.253 346.115,242.968 346.3,242.687 346.486,242.409 346.671,242.134 346.855,241.861 347.04,241.592 347.224,241.326 347.408,241.062 347.591,240.802 347.774,240.544 347.956,240.289 348.139,240.037 348.32,239.788 348.501,239.541 348.682,239.297 348.863,239.056 349.042,238.817 349.222,238.581 349.401,238.347 349.579,238.116 349.757,237.887 349.934,237.66 350.111,237.436 350.287,237.215 350.463,236.996 350.638,236.779 350.813,236.564 350.987,236.351 351.161,236.141 351.334,235.933 351.506,235.727 351.678,235.524 351.849,235.322 352.02,235.123 352.19,234.925 352.36,234.73 352.529,234.536 352.697,234.345 352.865,234.155 353.032,233.968 353.198,233.782 353.364,233.598 353.529,233.417 353.694,233.236 353.858,233.058 354.022,232.882 354.184,232.707 354.346,232.534 354.508,232.363 354.669,232.194 354.829,232.026 354.989,231.86 355.148,231.695 355.306,231.532 355.464,231.371 355.621,231.211 355.778,231.053 355.934,230.897 356.089,230.742 356.244,230.588 356.398,230.436 356.551,230.286 356.704,230.136 356.856,229.989 357.007,229.843 357.158,229.698 357.308,229.554 357.458,229.412 357.607,229.271 357.755,229.132 357.903,228.994 358.05,228.857 358.196,228.722 358.342,228.588 358.487,228.455 358.632,228.323 358.776,228.193 358.919,228.063 359.062,227.935 359.204,227.808 359.346,227.683 359.487,227.558 359.627,227.435 359.767,227.313 359.906,227.192 360.044,227.072 360.182,226.953 360.32,226.835 360.456,226.718 360.592,226.602 360.728,226.488 360.863,226.374 360.997,226.262 361.131,226.15 361.264,226.039 361.397,225.93 361.529,225.821 361.66,225.714 361.791,225.607 361.921,225.501 362.051,225.396 362.18,225.292 362.309,225.19 362.437,225.087 362.564,224.986 362.691,224.886 362.817,224.787 362.943,224.688 363.068,224.59 363.193,224.493 363.317,224.397 363.44,224.302 363.563,224.208 363.686,224.114 363.808,224.021 363.929,223.929 364.05,223.838 364.17,223.748"/>
<polyline fill="none" stroke="#e5e5e5" stroke-width="0.5" stroke-linecap="butt" stroke-linejoin="miter" points="348.863,85.9774 348.153,86.9397 347.463,87.9052 346.794,88.8735 346.145,89.844 345.516,90.8162 344.907,91.7897 344.317,92.7641 343.747,93.7388 343.196,94.7135 342.664,95.6877 342.15,96.6611 341.654,97.6332 341.177,98.6037 340.717,99.5723 340.275,100.539 339.85,101.502 339.442,102.463 339.051,103.42 338.676,104.374 338.317,105.324 337.974,106.27 337.646,107.212 337.333,108.149 337.036,109.081 336.753,110.008 336.484,110.93 336.229,111.847 335.987,112.758 335.759,113.663 335.544,114.563 335.342,115.456 335.153,116.343 334.975,117.224 334.809,118.099 334.656,118.967 334.513,119.828 334.381,120.682 334.261,121.53 334.15,122.371 334.05,123.204 333.96,124.031 333.88,124.851 333.809,125.663 333.748,126.468 333.695,127.266 333.651,128.057 333.616,128.841 333.589,129.617 333.57,130.385 333.558,131.147 333.555,131.901 333.558,132.648 333.569,133.387 333.587,134.119 333.611,134.844 333.642,135.561 333.68,136.271 333.723,136.974 333.772,137.669 333.828,138.357 333.888,139.038 333.954,139.712 334.026,140.379 334.102,141.039 334.183,141.691 334.27,142.337 334.36,142.975 334.455,143.607 334.555,144.232 334.658,144.849 334.765,145.46 334.877,146.065 334.992,146.662 335.11,147.253 335.232,147.838 335.358,148.416 335.486,148.987 335.618,149.552 335.752,150.111 335.89,150.663 336.03,151.209 336.173,151.749 336.318,152.283 336.466,152.81 336.616,153.332 336.769,153.848 336.923,154.357 337.08,154.861 337.238,155.36 337.399,155.852 337.561,156.339 337.725,156.82 337.891,157.296 338.058,157.766 338.226,158.231 338.396,158.691 338.568,159.145 338.74,159.594 338.914,160.038 339.089,160.477 339.265,160.91 339.442,161.339 339.62,161.763 339.799,162.182 339.979,162.596 340.16,163.005 340.341,163.41 340.523,163.81 340.706,164.205 340.889,164.596 341.073,164.983 341.258,165.365 341.443,165.742 341.628,166.116 341.814,166.485 342,166.849 342.186,167.21 342.372,167.567 342.559,167.919 342.746,168.268 342.934,168.612 343.121,168.953 343.308,169.29 343.496,169.623 343.684,169.952 343.871,170.278 344.059,170.6 344.246,170.918 344.434,171.233 344.621,171.544 344.808,171.851 344.996,172.156 345.183,172.457 345.369,172.754 345.556,173.048 345.742,173.339 345.929,173.627 346.115,173.912 346.3,174.193 346.486,174.471 346.671,174.746 346.855,175.019 347.04,175.288 347.224,175.554 347.408,175.818 347.591,176.078 347.774,176.336 347.956,176.591 348.139,176.843 348.32,177.092 348.501,177.339 348.682,177.583 348.863,177.824 349.042,178.063 349.222,178.299 349.401,178.533 349.579,178.764 349.757,178.993 349.934,179.22 350.111,179.444 350.287,179.665 350.463,179.885 350.638,180.101 350.813,180.316 350.987,180.529 351.161,180.739 351.334,180.947 351.506,181.153 351.678,181.356 351.849,181.558 352.02,181.757 352.19,181.955 352.36,182.15 352.529,182.344 352.697,182.535 352.865,182.725 353.032,182.912 353.198,183.098 353.364,183.282 353.529,183.464 353.694,183.644 353.858,183.822 354.022,183.998 354.184,184.173 354.346,184.346 354.508,184.517 354.669,184.686 354.829,184.854 354.989,185.02 355.148,185.185 355.306,185.348 355.464,185.509 355.621,185.669 355.778,185.827 355.934,185.983 356.089,186.138 356.244,186.292 356.398,186.444 356.551,186.594 356.704,186.744 356.856,186.891 357.007,187.037 357.158,187.182 357.308,187.326 357.458,187.468 357.607,187.609 357.755,187.748 357.903,187.886 358.05,188.023 358.196,188.158 358.342,188.292 358.487,188.425 358.632,188.557 358.776,188.687 358.919,188.817 359.062,188.945 359.204,189.072 359.346,189.197 359.487,189.322 359.627,189.445 359.767,189.567 359.906,189.688 360.044,189.808 360.182,189.927 360.32,190.045 360.456,190.162 360.592,190.278 360.728,190.392 360.863,190.506 360.997,190.618 361.131,190.73 361.264,190.841 361.397,190.95 361.529,191.059 361.66,191.166 361.791,191.273 361.921,191.379 362.051,191.484 362.18,191.588 362.309,191.691 362.437,191.793 362.564,191.894 362.691,191.994 362.817,192.093 362.943,192.192 363.068,192.29 363.193,192.387 363.317,192.483 363.44,192.578 363.563,192.672 363.686,192.766 363.808,192.859 363.929,192.951 364.05,193.042 364.17,193.132"/>
<polyline fill="none" stroke="#e5e5e5" stroke-width="0.5" stroke-linecap="butt" stroke-linejoin="miter" points="398.319,267.316 397.894,267.136 397.474,266.949 397.058,266.757 396.646,266.56 396.239,266.357 395.836,266.149 395.438,265.936 395.045,265.717 394.656,265.494 394.272,265.266 393.893,265.033 393.519,264.796 393.149,264.555 392.785,264.309 392.427,264.059 392.073,263.806 391.724,263.548 391.381,263.287 391.044,263.022 390.711,262.754 390.384,262.483 390.062,262.209 389.746,261.931 389.435,261.651 389.13,261.368 388.83,261.083 388.536,260.795 388.247,260.504 387.964,260.212 387.686,259.917 387.414,259.621 387.147,259.323 386.885,259.023 386.629,258.721 386.379,258.418 386.133,258.114 385.894,257.808 385.659,257.502 385.43,257.194 385.206,256.886 384.987,256.577 384.774,256.267 384.566,255.956 384.362,255.645 384.164,255.334 383.971,255.022 383.783,254.71 383.6,254.398 383.422,254.087 383.249,253.775 383.08,253.463 382.916,253.152 382.757,252.84 382.603,252.53 382.453,252.219 382.307,251.91 382.166,251.601 382.03,251.292 381.898,250.984 381.77,250.678 381.646,250.372 381.527,250.066 381.411,249.762 381.3,249.459 381.193,249.157 381.089,248.856 380.99,248.557 380.894,248.258 380.802,247.961 380.714,247.665 380.629,247.37 380.548,247.077 380.47,246.785 380.396,246.495 380.325,246.206 380.257,245.919 380.193,245.634 380.132,245.349 380.074,245.067 380.019,244.786 379.967,244.507 379.919,244.229 379.873,243.954 379.829,243.679 379.789,243.407 379.751,243.137 379.716,242.868 379.684,242.601 379.654,242.335 379.627,242.072 379.602,241.81 379.58,241.551 379.56,241.293 379.542,241.037 379.527,240.783 379.514,240.53 379.503,240.28 379.494,240.031 379.487,239.785 379.482,239.54 379.479,239.297 379.478,239.056 379.479,238.816 379.482,238.579 379.487,238.344 379.493,238.11 379.501,237.879 379.511,237.649 379.522,237.421 379.535,237.195 379.549,236.971 379.565,236.748 379.583,236.528 379.602,236.309 379.622,236.092 379.644,235.878 379.667,235.664 379.691,235.453 379.716,235.244 379.743,235.036 379.771,234.83 379.8,234.626 379.831,234.424 379.862,234.223 379.894,234.024 379.928,233.827 379.962,233.632 379.998,233.438 380.034,233.246 380.072,233.056 380.11,232.868 380.149,232.681 380.189,232.496 380.23,232.312 380.272,232.13 380.314,231.95 380.357,231.772 380.401,231.595 380.446,231.42 380.491,231.246 380.537,231.074 380.584,230.903 380.631,230.734 380.679,230.566 380.727,230.4 380.776,230.236 380.826,230.073 380.876,229.912 380.926,229.752 380.977,229.593 381.029,229.436 381.081,229.28 381.133,229.126 381.186,228.973 381.239,228.822 381.293,228.672 381.347,228.524 381.401,228.376 381.456,228.23 381.511,228.086 381.566,227.943 381.622,227.801 381.678,227.66 381.734,227.521 381.791,227.383 381.847,227.246 381.904,227.111 381.962,226.977 382.019,226.844 382.077,226.712 382.135,226.581 382.193,226.452 382.251,226.324 382.31,226.197 382.368,226.071 382.427,225.946 382.486,225.823 382.545,225.701 382.604,225.579 382.663,225.459 382.722,225.34 382.782,225.222 382.841,225.105 382.901,224.989 382.961,224.875 383.02,224.761 383.08,224.648 383.14,224.537 383.2,224.426 383.26,224.316 383.32,224.208 383.38,224.1 383.44,223.993 383.5,223.888 383.56,223.783 383.62,223.679 383.68,223.576 383.74,223.474 383.8,223.373 383.86,223.273 383.92,223.174 383.98,223.075 384.04,222.978 384.099,222.881 384.159,222.786 384.219,222.691 384.279,222.597 384.338,222.503 384.398,222.411 384.458,222.32 384.517,222.229 384.576,222.139 384.636,222.05 384.695,221.961 384.754,221.874 384.813,221.787 384.872,221.701 384.931,221.616 384.99,221.531 385.049,221.447 385.107,221.364 385.166,221.282 385.224,221.2 385.283,221.119 385.341,221.039 385.399,220.959 385.457,220.88 385.515,220.802 385.573,220.725 385.63,220.648 385.688,220.572 385.745,220.496 385.802,220.421 385.859,220.347 385.916,220.273 385.973,220.201 386.03,220.128 386.087,220.056 386.143,219.985 386.199,219.915 386.256,219.845 386.312,219.775 386.368,219.707 386.423,219.638 386.479,219.571 386.535,219.504 386.59,219.437 386.645,219.371 386.7,219.306 386.755,219.241 386.81,219.177 386.864,219.113 386.919,219.05 386.973,218.987 387.027,218.925"/>
<polyline fill="none" stroke="#e5e5e5" stroke-width="0.5" stroke-linecap="butt" stroke-linejoin="miter" points="398.319,149.564 397.894,149.744 397.474,149.931 397.058,150.123 396.646,150.32 396.239,150.523 395.836,150.731 395.438,150.944 395.045,151.163 394.656,151.386 394.272,151.614 393.893,151.847 393.519,152.084 393.149,152.325 392.785,152.571 392.427,152.821 392.073,153.074 391.724,153.332 391.381,153.593 391.044,153.858 390.711,154.126 390.384,154.397 390.062,154.671 389.746,154.949 389.435,155.229 389.13,155.512 388.83,155.797 388.536,156.085 388.247,156.376 387.964,156.668 387.686,156.963 387.414,157.259 387.147,157.557 386.885,157.857 386.629,158.159 386.379,158.462 386.133,158.766 385.894,159.072 385.659,159.378 385.43,159.686 385.206,159.994 384.987,160.303 384.774,160.613 384.566,160.924 384.362,161.235 384.164,161.546 383.971,161.858 383.783,162.17 383.6,162.482 383.422,162.793 383.249,163.105 383.08,163.417 382.916,163.728 382.757,164.04 382.603,164.35 382.453,164.661 382.307,164.97 382.166,165.279 382.03,165.588 381.898,165.896 381.77,166.202 381.646,166.508 381.527,166.814 381.411,167.118 381.3,167.421 381.193,167.723 381.089,168.024 380.99,168.323 380.894,168.622 380.802,168.919 380.714,169.215 380.629,169.51 380.548,169.803 380.47,170.095 380.396,170.385 380.325,170.674 380.257,170.961 380.193,171.246 380.132,171.531 380.074,171.813 380.019,172.094 379.967,172.373 379.919,172.651 379.873,172.926 379.829,173.201 379.789,173.473 379.751,173.743 379.716,174.012 379.684,174.279 379.654,174.545 379.627,174.808 379.602,175.07 379.58,175.329 379.56,175.587 379.542,175.843 379.527,176.097 379.514,176.35 379.503,176.6 379.494,176.849 379.487,177.096 379.482,177.34 379.479,177.583 379.478,177.824 379.479,178.064 379.482,178.301 379.487,178.536 379.493,178.77 379.501,179.001 379.511,179.231 379.522,179.459 379.535,179.685 379.549,179.909 379.565,180.132 379.583,180.352 379.602,180.571 379.622,180.788 379.644,181.003 379.667,181.216 379.691,181.427 379.716,181.636 379.743,181.844 379.771,182.05 379.8,182.254 379.831,182.456 379.862,182.657 379.894,182.856 379.928,183.053 379.962,183.248 379.998,183.442 380.034,183.634 380.072,183.824 380.11,184.012 380.149,184.199 380.189,184.384 380.23,184.568 380.272,184.75 380.314,184.93 380.357,185.108 380.401,185.285 380.446,185.461 380.491,185.634 380.537,185.806 380.584,185.977 380.631,186.146 380.679,186.314 380.727,186.48 380.776,186.644 380.826,186.807 380.876,186.968 380.926,187.128 380.977,187.287 381.029,187.444 381.081,187.6 381.133,187.754 381.186,187.907 381.239,188.058 381.293,188.208 381.347,188.356 381.401,188.504 381.456,188.65 381.511,188.794 381.566,188.937 381.622,189.079 381.678,189.22 381.734,189.359 381.791,189.497 381.847,189.634 381.904,189.769 381.962,189.903 382.019,190.036 382.077,190.168 382.135,190.299 382.193,190.428 382.251,190.556 382.31,190.683 382.368,190.809 382.427,190.934 382.486,191.057 382.545,191.179 382.604,191.301 382.663,191.421 382.722,191.54 382.782,191.658 382.841,191.775 382.901,191.891 382.961,192.005 383.02,192.119 383.08,192.232 383.14,192.343 383.2,192.454 383.26,192.564 383.32,192.672 383.38,192.78 383.44,192.887 383.5,192.992 383.56,193.097 383.62,193.201 383.68,193.304 383.74,193.406 383.8,193.507 383.86,193.607 383.92,193.706 383.98,193.805 384.04,193.902 384.099,193.999 384.159,194.094 384.219,194.189 384.279,194.283 384.338,194.377 384.398,194.469 384.458,194.56 384.517,194.651 384.576,194.741 384.636,194.83 384.695,194.919 384.754,195.006 384.813,195.093 384.872,195.179 384.931,195.264 384.99,195.349 385.049,195.433 385.107,195.516 385.166,195.598 385.224,195.68 385.283,195.761 385.341,195.841 385.399,195.921 385.457,196 385.515,196.078 385.573,196.155 385.63,196.232 385.688,196.308 385.745,196.384 385.802,196.459 385.859,196.533 385.916,196.607 385.973,196.68 386.03,196.752 386.087,196.824 386.143,196.895 386.199,196.965 386.256,197.035 386.312,197.105 386.368,197.173 386.423,197.242 386.479,197.309 386.535,197.376 386.59,197.443 386.645,197.509 386.7,197.574 386.755,197.639 386.81,197.703 386.864,197.767 386.919,197.83 386.973,197.893 387.027,197.955"/>
<polyline fill="none" stroke="#e5e5e5" stroke-width="0.5" stroke-linecap="butt" stroke-linejoin="miter" points="410.094,208.44 410.086,207.811 410.063,207.183 410.024,206.556 409.97,205.93 409.9,205.305 409.816,204.682 409.715,204.061 409.6,203.443 409.469,202.829 409.323,202.217 409.162,201.609 408.987,201.006 408.796,200.407 408.591,199.813 408.371,199.224 408.137,198.64 407.888,198.063 407.625,197.492 407.349,196.927 407.058,196.37 406.754,195.82 406.436,195.277 406.105,194.743 405.761,194.217 405.404,193.699 405.035,193.191 404.653,192.691 404.259,192.202 403.853,191.722 403.435,191.252 403.006,190.793 402.566,190.344 402.114,189.906 401.652,189.48 401.18,189.065 400.698,188.662 400.206,188.271 399.704,187.892 399.193,187.526 398.673,187.172 398.145,186.832 397.609,186.504 397.064,186.19 396.512,185.889 395.953,185.602 395.387,185.328 394.814,185.069 394.235,184.824 393.65,184.593 393.06,184.377 392.465,184.176 391.865,183.989 391.26,183.817 390.651,183.66 390.039,183.518 389.423,183.391 388.805,183.279 388.183,183.183 387.56,183.102 386.935,183.036 386.308,182.986 385.681,182.951 385.052,182.931 384.424,182.927 383.795,182.939 383.167,182.966 382.54,183.009 381.914,183.067 381.29,183.14 380.667,183.229 380.047,183.333 379.43,183.452 378.816,183.587 378.206,183.736 377.599,183.901 376.996,184.08 376.399,184.275 375.806,184.484 375.218,184.707 374.636,184.945 374.06,185.197 373.491,185.463 372.928,185.743 372.373,186.037 371.824,186.345 371.284,186.666 370.751,187 370.227,187.348 369.712,187.708 369.206,188.08 368.709,188.465 368.222,188.862 367.744,189.271 367.277,189.692 366.82,190.124 366.374,190.567 365.94,191.021 365.516,191.486 365.104,191.96 364.704,192.445 364.316,192.94 363.94,193.444 363.577,193.957 363.227,194.479 362.889,195.009 362.565,195.548 362.254,196.094 361.957,196.648 361.673,197.209 361.403,197.777 361.147,198.351 360.906,198.931 360.679,199.517 360.466,200.109 360.268,200.706 360.085,201.307 359.917,201.913 359.764,202.522 359.625,203.136 359.502,203.752 359.394,204.371 359.302,204.993 359.224,205.617 359.163,206.242 359.116,206.869 359.085,207.497 359.07,208.126 359.07,208.754 359.085,209.383 359.116,210.011 359.163,210.638 359.224,211.263 359.302,211.887 359.394,212.509 359.502,213.128 359.625,213.744 359.764,214.358 359.917,214.967 360.085,215.573 360.268,216.174 360.466,216.771 360.679,217.363 360.906,217.949 361.147,218.529 361.403,219.103 361.673,219.671 361.957,220.232 362.254,220.786 362.565,221.332 362.889,221.871 363.227,222.401 363.577,222.923 363.94,223.436 364.316,223.94 364.704,224.435 365.104,224.92 365.516,225.394 365.94,225.859 366.374,226.313 366.82,226.756 367.277,227.188 367.744,227.609 368.222,228.018 368.709,228.415 369.206,228.8 369.712,229.172 370.227,229.533 370.751,229.88 371.284,230.214 371.824,230.535 372.373,230.843 372.928,231.137 373.491,231.417 374.06,231.683 374.636,231.935 375.218,232.173 375.806,232.396 376.399,232.605 376.996,232.8 377.599,232.979 378.206,233.144 378.816,233.293 379.43,233.428 380.047,233.547 380.667,233.651 381.29,233.74 381.914,233.813 382.54,233.871 383.167,233.914 383.795,233.941 384.424,233.953 385.052,233.949 385.681,233.929 386.308,233.895 386.935,233.844 387.56,233.779 388.183,233.697 388.805,233.601 389.423,233.489 390.039,233.362 390.651,233.22 391.26,233.063 391.865,232.891 392.465,232.704 393.06,232.503 393.65,232.287 394.235,232.056 394.814,231.811 395.387,231.552 395.953,231.278 396.512,230.991 397.064,230.69 397.609,230.376 398.145,230.048 398.673,229.708 399.193,229.354 399.704,228.988 400.206,228.609 400.698,228.218 401.18,227.815 401.652,227.4 402.114,226.974 402.566,226.536 403.006,226.087 403.435,225.628 403.853,225.158 404.259,224.678 404.653,224.189 405.035,223.689 405.404,223.181 405.761,222.663 406.105,222.137 406.436,221.603 406.754,221.06 407.058,220.51 407.349,219.953 407.625,219.388 407.888,218.817 408.137,218.24 408.371,217.656 408.591,217.067 408.796,216.473 408.987,215.874 409.162,215.271 409.323,214.663 409.469,214.052 409.6,213.437 409.715,212.819 409.816,212.198 409.9,211.575 409.97,210.951 410.024,210.324 410.063,209.697 410.086,209.069 410.094,208.44 410.09,208.097 410.077,207.755 410.056,207.412 410.026,207.071 409.988,206.73 409.942,206.39 409.887,206.052 409.824,205.715 409.753,205.379 409.674,205.046 409.586,204.714 409.49,204.385 409.386,204.058 409.274,203.734 409.154,203.413 409.026,203.095 408.891,202.78 408.747,202.468 408.596,202.16 408.438,201.856 408.272,201.556 408.099,201.26 407.918,200.969 407.731,200.682 407.536,200.4 407.334,200.122 407.126,199.85 406.911,199.583 406.69,199.321 406.462,199.065 406.228,198.814 405.988,198.57 405.741,198.331 405.489,198.098 405.232,197.872 404.969,197.652 404.7,197.439 404.427,197.232 404.148,197.032 403.864,196.839 403.576,196.654 403.284,196.475 402.987,196.303 402.686,196.139 402.381,195.983 402.072,195.834 401.759,195.692 401.444,195.559 401.125,195.433 400.803,195.315 400.478,195.205 400.151,195.103 399.821,195.009 399.489,194.923 399.155,194.846 398.819,194.777 398.482,194.716 398.143,194.663 397.803,194.619 397.462,194.583 397.12,194.556 396.778,194.537 396.435,194.526 396.092,194.524 395.749,194.53 395.407,194.545 395.064,194.568 394.723,194.6 394.382,194.64 394.043,194.688 393.705,194.745 393.368,194.81 393.033,194.884 392.7,194.965 392.369,195.055 392.041,195.153 391.715,195.259 391.391,195.373 391.071,195.495 390.753,195.624 390.439,195.762 390.129,195.907 389.822,196.06 389.519,196.22 389.22,196.388 388.925,196.563 388.634,196.746 388.349,196.935 388.067,197.131 387.791,197.335 387.52,197.545 387.254,197.761 386.994,197.984 386.739,198.214 386.49,198.449 386.247,198.691 386.01,198.939 385.779,199.192 385.554,199.451 385.336,199.716 385.124,199.985 384.919,200.26 384.721,200.54 384.53,200.825 384.346,201.114 384.169,201.408 383.999,201.706 383.837,202.008 383.682,202.314 383.535,202.624 383.396,202.937 383.264,203.253 383.14,203.573 383.024,203.896 382.916,204.221 382.816,204.549 382.725,204.88 382.641,205.212 382.566,205.547 382.498,205.883 382.44,206.221 382.389,206.56 382.347,206.9 382.313,207.241 382.288,207.583 382.271,207.926 382.263,208.269 382.263,208.611 382.271,208.954 382.288,209.297 382.313,209.639 382.347,209.98 382.389,210.32 382.44,210.659 382.498,210.997 382.566,211.333 382.641,211.668 382.725,212 382.816,212.331 382.916,212.659 383.024,212.984 383.14,213.307 383.264,213.627 383.396,213.943 383.535,214.256 383.682,214.566 383.837,214.872 383.999,215.174 384.169,215.472 384.346,215.766 384.53,216.055 384.721,216.34 384.919,216.62 385.124,216.895 385.336,217.164 385.554,217.429 385.779,217.688 386.01,217.941 386.247,218.189 386.49,218.431 386.739,218.666 386.994,218.896 387.254,219.119 387.52,219.335 387.791,219.545 388.067,219.749 388.349,219.945 388.634,220.134 388.925,220.317 389.22,220.492 389.519,220.66 389.822,220.82 390.129,220.973 390.439,221.118 390.753,221.256 391.071,221.385 391.391,221.507 391.715,221.621 392.041,221.727 392.369,221.825 392.7,221.915 393.033,221.996 393.368,222.07 393.705,222.135 394.043,222.192 394.382,222.24 394.723,222.28 395.064,222.312 395.407,222.335 395.749,222.35 396.092,222.356 396.435,222.354 396.778,222.343 397.12,222.324 397.462,222.297 397.803,222.261 398.143,222.217 398.482,222.164 398.819,222.103 399.155,222.034 399.489,221.957 399.821,221.871 400.151,221.777 400.478,221.675 400.803,221.565 401.125,221.447 401.444,221.321 401.759,221.188 402.072,221.046 402.381,220.897 402.686,220.741 402.987,220.577 403.284,220.405 403.576,220.226 403.864,220.041 404.148,219.848 404.427,219.648 404.7,219.441 404.969,219.228 405.232,219.008 405.489,218.782 405.741,218.549 405.988,218.311 406.228,218.066 406.462,217.815 406.69,217.559 406.911,217.297 407.126,217.03 407.334,216.758 407.536,216.48 407.731,216.198 407.918,215.911 408.099,215.62 408.272,215.324 408.438,215.024 408.596,214.72 408.747,214.412 408.891,214.1 409.026,213.785 409.154,213.467 409.274,213.146 409.386,212.822 409.49,212.495 409.586,212.166 409.674,211.834 409.753,211.501 409.824,211.165 409.887,210.828 409.942,210.49 409.988,210.15 410.026,209.809 410.056,209.468 410.077,209.126 410.09,208.783 410.094,208.44"/>
<polyline fill="none" stroke="#000000" stroke-width="0.5" stroke-linecap="butt" stroke-linejoin="miter" points="410.094,208.44 410.047,204.669 409.908,200.899 409.676,197.135 409.351,193.377 408.934,189.628 408.424,185.891 407.823,182.168 407.129,178.46 406.345,174.771 405.47,171.102 404.505,167.456 403.451,163.835 402.308,160.24 401.076,156.675 399.757,153.142 398.351,149.642 396.86,146.177 395.283,142.751 393.623,139.364 391.879,136.02 390.054,132.719 388.148,129.464 386.163,126.257 384.099,123.1 381.958,119.995 379.741,116.944 377.449,113.948 375.085,111.01 372.648,108.13 370.142,105.312 367.567,102.556 364.924,99.8645 362.217,97.2388 359.445,94.6807 356.611,92.1916 353.717,89.7731 350.764,87.4267 347.754,85.1537 344.689,82.9556 341.571,80.8336 338.401,78.7891 335.182,76.8233 331.916,74.9375 328.604,73.1326 325.248,71.41 321.852,69.7705 318.416,68.2151 314.942,66.745 311.434,65.3608 307.892,64.0636 304.319,62.8539 300.718,61.7327 297.09,60.7005 293.438,59.758 289.764,58.9058 286.07,58.1443 282.358,57.4741 278.631,56.8956 274.891,56.409 271.14,56.0148 267.38,55.713 263.614,55.504 259.844,55.3879 256.073,55.3646 252.302,55.4343 248.533,55.5969 244.77,55.8523 241.015,56.2003 237.269,56.6407 233.535,57.1733 229.815,57.7978 226.112,58.5137 222.427,59.3206 218.764,60.218 215.124,61.2054 211.509,62.2822 207.922,63.4478 204.365,64.7013 200.839,66.0421 197.348,67.4694 193.893,68.9822 190.476,70.5798 187.1,72.261 183.766,74.0248 180.477,75.8704 177.234,77.7963 174.039,79.8016 170.895,81.885 167.803,84.0452 164.765,86.2809 161.784,88.5908 158.86,90.9734 155.996,93.4274 153.193,95.9512 150.453,98.5433 147.777,101.202 145.169,103.926 142.628,106.713 140.156,109.562 137.755,112.472 135.427,115.439 133.173,118.463 130.993,121.541 128.891,124.673 126.866,127.855 124.92,131.086 123.054,134.364 121.27,137.687 119.568,141.053 117.949,144.459 116.415,147.905 114.966,151.387 113.604,154.904 112.329,158.454 111.141,162.034 110.042,165.642 109.032,169.276 108.112,172.934 107.283,176.613 106.544,180.312 105.896,184.028 105.341,187.758 104.877,191.501 104.506,195.255 104.228,199.016 104.042,202.784 103.949,206.554 103.949,210.326 104.042,214.096 104.228,217.864 104.506,221.625 104.877,225.379 105.341,229.122 105.896,232.852 106.544,236.568 107.283,240.267 108.112,243.946 109.032,247.604 110.042,251.238 111.141,254.846 112.329,258.426 113.604,261.976 114.966,265.493 116.415,268.975 117.949,272.421 119.568,275.827 121.27,279.193 123.054,282.516 124.92,285.794 126.866,289.025 128.891,292.207 130.993,295.339 133.173,298.417 135.427,301.441 137.755,304.408 140.156,307.318 142.628,310.167 145.169,312.954 147.777,315.678 150.453,318.337 153.193,320.929 155.996,323.453 158.86,325.907 161.784,328.289 164.765,330.599 167.803,332.835 170.895,334.995 174.039,337.078 177.234,339.084 180.477,341.01 183.766,342.855 187.1,344.619 190.476,346.3 193.893,347.898 197.348,349.411 200.839,350.838 204.365,352.179 207.922,353.432 211.509,354.598 215.124,355.675 218.764,356.662 222.427,357.559 226.112,358.366 229.815,359.082 233.535,359.707 237.269,360.239 241.015,360.68 244.77,361.028 248.533,361.283 252.302,361.446 256.073,361.515 259.844,361.492 263.614,361.376 267.38,361.167 271.14,360.865 274.891,360.471 278.631,359.984 282.358,359.406 286.07,358.736 289.764,357.974 293.438,357.122 297.09,356.18 300.718,355.147 304.319,354.026 307.892,352.816 311.434,351.519 314.942,350.135 318.416,348.665 321.852,347.11 325.248,345.47 328.604,343.747 331.916,341.943 335.182,340.057 338.401,338.091 341.571,336.046 344.689,333.924 347.754,331.726 350.764,329.453 353.717,327.107 356.611,324.688 359.445,322.199 362.217,319.641 364.924,317.016 367.567,314.324 370.142,311.568 372.648,308.75 375.085,305.87 377.449,302.932 379.741,299.936 381.958,296.885 384.099,293.78 386.163,290.623 388.148,287.416 390.054,284.161 391.879,280.86 393.623,277.516 395.283,274.129 396.86,270.703 398.351,267.238 399.757,263.738 401.076,260.205 402.308,256.64 403.451,253.045 404.505,249.424 405.47,245.778 406.345,242.109 407.129,238.42 407.823,234.712 408.424,230.989 408.934,227.252 409.351,223.503 409.676,219.745 409.908,215.981 410.047,212.211 410.094,208.44"/>
<text fill="#000000" x="139.656" y="203.848" font-size="10" text-anchor="start" dy="5" font-family="Helvetica">0.2</text>
<text fill="#000000" x="190.682" y="203.848" font-size="10" text-anchor="start" dy="5" font-family="Helvetica">0.5</text>
<text fill="#000000" x="249.362" y="203.848" font-size="10" text-anchor="start" dy="5" font-family="Helvetica">1</text>
<text fill="#000000" x="300.388" y="203.848" font-size="10" text-anchor="start" dy="5" font-family="Helvetica">2</text>
<text fill="#000000" x="351.414" y="203.848" font-size="10" text-anchor="start" dy="5" font-family="Helvetica">5</text>
<text fill="#000000" x="370.781" y="203.848" font-size="10" text-anchor="start" dy="5" font-family="Helvetica">10</text>
<text fill="#000000" x="98.5011" y="142.144" font-size="10" text-anchor="start" dy="5" font-family="Helvetica">0.2j</text>
<text fill="#000000" x="98.5011" y="274.736" font-size="10" text-anchor="start" dy="5" font-family="Helvetica">-0.2j</text>
<text fill="#000000" x="156.224" y="73.4027" font-size="10" text-anchor="start" dy="5" font-family="Helvetica">0.5j</text>
<text fill="#000000" x="156.224" y="343.477" font-size="10" text-anchor="start" dy="5" font-family="Helvetica">-0.5j</text>
<text fill="#000000" x="257.308" y="45.902" font-size="10" text-anchor="start" dy="5" font-family="Helvetica">1j</text>
<text fill="#000000" x="257.308" y="370.978" font-size="10" text-anchor="start" dy="5" font-family="Helvetica">-1j</text>
<text fill="#000000" x="353.664" y="80.1908" font-size="10" text-anchor="start" dy="5" font-family="Helvetica">2j</text>
<text fill="#000000" x="353.664" y="336.689" font-size="10" text-anchor="start" dy="5" font-family="Helvetica">-2j</text>
<text fill="#000000" x="404.031" y="147.815" font-size="10" text-anchor="start" dy="5" font-family="Helvetica">5j</text>
<text fill="#000000" x="404.031" y="269.065" font-size="10" text-anchor="start" dy="5" font-family="Helvetica">-5j</text>
<text fill="#000000" x="86.9758" y="208.44" font-size="10" text-anchor="start" dy="5" font-family="Helvetica">0</text>
<polyline fill="none" stroke="#ff00ff" stroke-width="0.5" stroke-linecap="butt" stroke-linejoin="miter" points="154.458,105.513 153.885,107.276 152.385,108.366 150.531,108.366 149.031,107.276 148.458,105.513 149.031,103.75 150.531,102.66 152.385,102.66 153.885,103.75 154.458,105.513"/>
<polyline fill="none" stroke="#ff00ff" stroke-width="2" stroke-linecap="butt" stroke-linejoin="miter" points="239.153,208.16 239.127,208.015 239.092,207.862 239.049,207.7 239,207.528 238.947,207.343 238.892,207.146 238.836,206.934 238.784,206.708 238.736,206.467 238.695,206.212 238.664,205.944 238.645,205.663 238.638,205.372 238.647,205.071 238.672,204.762 238.714,204.447 238.775,204.129 238.854,203.81 238.952,203.491 239.068,203.175 239.202,202.863 239.353,202.558 239.52,202.262 239.702,201.975 239.896,201.699 240.103,201.435 240.319,201.183 240.543,200.943 240.773,200.716 241.008,200.501 241.247,200.298 241.488,200.105 241.73,199.921 241.973,199.745 242.216,199.577 242.459,199.413 242.703,199.254 242.947,199.098 243.194,198.943 243.444,198.788 243.699,198.634 243.959,198.48 244.228,198.326 244.507,198.171 244.798,198.018 245.102,197.867 245.421,197.719 245.756,197.578 246.109,197.444 246.48,197.32 246.869,197.21 247.277,197.115 247.703,197.039 248.146,196.985 248.604,196.956 249.075,196.954 249.558,196.982 250.048,197.041 250.544,197.134 251.041,197.262 251.537,197.426 252.026,197.626 252.506,197.862 252.972,198.132 253.42,198.437 253.848,198.774 254.251,199.14 254.628,199.533 254.974,199.95 255.289,200.387 255.571,200.841 255.818,201.308 256.031,201.784 256.209,202.265 256.353,202.747 256.464,203.228 256.544,203.703 256.594,204.17 256.617,204.627 256.615,205.072 256.59,205.503 256.546,205.918 256.484,206.317 256.407,206.701 256.318,207.068 256.218,207.419 256.109,207.755 255.993,208.077 255.87,208.384 255.742,208.679 255.608,208.962 255.469,209.232 255.325,209.491 255.175,209.739 255.019,209.974 254.856,210.197 254.687,210.405 254.511,210.598 254.329,210.772 254.141,210.926 253.948,211.057 253.753,211.163 253.557,211.239 253.364,211.284 253.178,211.295 253.004,211.268 252.848,211.203 252.715,211.097 252.614,210.952 252.551,210.766 252.535,210.541 252.574,210.281 252.676,209.99 252.852,209.672 253.108,209.336 253.453,208.989 253.893,208.641 254.436,208.303 255.086,207.989 255.846,207.711 256.72,207.486 257.707,207.328 258.806,207.254 260.014,207.282 261.323,207.426 262.727,207.706 264.214,208.136 265.772,208.733 267.387,209.51 269.041,210.482 270.714,211.658 272.387,213.05 274.038,214.663 275.641,216.504 277.173,218.572 278.608,220.869 279.921,223.39 281.086,226.129 282.077,229.075 282.871,232.216 283.444,235.536 283.775,239.018 283.843,242.639 283.631,246.378 283.124,250.207 282.31,254.1 281.18,258.029 279.727,261.964 277.948,265.874 275.844,269.729 273.419,273.498 270.68,277.151 267.636,280.66 264.302,283.997 260.693,287.135 256.828,290.051 252.728,292.722 248.417,295.13 243.919,297.258 239.261,299.092 234.47,300.622 229.574,301.839 224.601,302.739 219.579,303.321 214.536,303.586 209.498,303.539 204.492,303.185 199.541,302.534 194.668,301.598 189.893,300.391 185.236,298.926 180.713,297.221 176.339,295.294 172.125,293.162 168.08,290.844 164.213,288.359 160.529,285.726 157.031,282.964 153.719,280.089 150.594,277.12 147.654,274.072 144.894,270.96 142.31,267.797 139.897,264.597 137.647,261.37 135.554,258.125 133.611,254.872 131.809,251.617 130.143,248.366 128.603,245.124 127.184,241.894 125.878,238.679 124.679,235.482 123.583,232.303 122.583,229.144 121.676,226.005 120.858,222.886 120.125,219.787 119.475,216.709 118.905,213.651 118.414,210.614 118,207.599 117.662,204.605 117.398,201.634 117.209,198.687 117.092,195.765 117.046,192.871 117.072,190.005 117.166,187.17 117.327,184.368 117.555,181.601 117.845,178.871 118.197,176.18 118.608,173.53 119.075,170.923 119.594,168.361 120.163,165.844 120.778,163.373 121.437,160.95 122.135,158.574 122.869,156.245 123.637,153.962 124.435,151.726 125.26,149.535 126.109,147.388 126.98,145.284 127.872,143.22 128.782,141.194 129.708,139.207 130.651,137.254 131.608,135.335 132.58,133.448 133.566,131.591 134.566,129.763 135.58,127.962 136.608,126.189 137.652,124.441 138.711,122.719 139.786,121.022 140.878,119.35 141.986,117.703 143.112,116.082 144.254,114.488 145.414,112.92 146.591,111.38 147.785,109.869 148.994,108.386 150.219,106.934 151.458,105.513 152.71,104.123 153.973,102.765 155.247,101.439 156.53,100.146 157.82,98.8846 159.116,97.6554 160.416,96.4576 161.719,95.2906 163.023,94.1537 164.327,93.0457 165.63,91.9656 166.932,90.912 168.23,89.8838 169.526,88.8793 170.818,87.8975 172.106,86.9367 173.391,85.9958 174.673,85.0735 175.952,84.1688 177.228,83.2808 178.503,82.4087 179.777,81.5518 181.05,80.7098 182.325,79.8825 183.6,79.0698 184.878,78.2719 186.158,77.489 187.441,76.7215 188.728,75.97 190.018,75.2352 191.311,74.5176 192.609,73.8179 193.909,73.1369 195.212,72.4752 196.518,71.8333 197.824,71.2116 199.131,70.6106 200.438,70.0305 201.743,69.4712 203.046,68.9326 204.345,68.4146 205.64,67.9167 206.929,67.4382 208.212,66.9785 209.488,66.5366 210.757,66.1117 212.017,65.7027 213.269,65.3086 214.512,64.9282 215.747,64.5604 216.974,64.2043 218.192,63.8587 219.403,63.5229 220.607,63.1962 221.805,62.8777 222.998,62.5672 224.186,62.2642 225.37,61.9685 226.551,61.6802 227.73,61.3994 228.907,61.1265 230.083,60.8618 231.259,60.6058 232.435,60.3592 233.61,60.1227 234.786,59.897 235.962,59.6827 237.137,59.4805 238.312,59.2912 239.485,59.1151 240.657,58.9528 241.825,58.8046 242.991,58.6706 244.151,58.5508 245.307,58.4453 246.456,58.3535 247.599,58.2753 248.734,58.2098 249.86,58.1566 250.977,58.1147 252.085,58.0833 253.184,58.0614 254.272,58.048 255.351,58.0422 256.421,58.043 257.481,58.0494 258.532,58.0606 259.576,58.076 260.612,58.0948 261.641,58.1167 262.665,58.1413 263.684,58.1684 264.699,58.1981 265.711,58.2306 266.72,58.2661 267.728,58.3051 268.735,58.3481 269.741,58.3959 270.747,58.4492 271.752,58.5088 272.758,58.5755 273.763,58.65 274.768,58.7332 275.771,58.8256 276.773,58.9279 277.772,59.0406 278.768,59.1638 279.759,59.2979 280.746,59.4427 281.727,59.5982 282.7,59.764 283.666,59.9395 284.624,60.1243 285.573,60.3174 286.512,60.5181 287.441,60.7253 288.36,60.9381 289.269,61.1555 290.169,61.3764 291.058,61.5999 291.939,61.8251 292.811,62.0511 293.676,62.2773 294.534,62.5032 295.387,62.7283 296.234,62.9526 297.078,63.1761 297.919,63.3988 298.758,63.6211 299.597,63.8436 300.435,64.0669 301.273,64.2918 302.112,64.5193 302.953,64.7501 303.794,64.9854 304.637,65.2261 305.48,65.4731 306.323,65.7274 307.166,65.9898 308.008,66.2608 308.847,66.541 309.684,66.8307 310.516,67.13 311.343,67.4389 312.163,67.7571 312.977,68.0841 313.782,68.4193 314.577,68.7619 315.363,69.1109 316.139,69.4653 316.904,69.8238 317.659,70.1853 318.403,70.5486 319.137,70.9125 319.861,71.2759 320.576,71.6378 321.283,71.9973 321.983,72.3538 322.678,72.7066 323.367,73.0556 324.054,73.4006 324.738,73.7419 325.422,74.0798 326.106,74.415 326.791,74.7482 327.478,75.0804 328.168,75.4128 328.862,75.7466 329.558,76.083 330.258,76.4235 330.961,76.7692 331.667,77.1215 332.374,77.4815 333.083,77.8501 333.79,78.2281 334.497,78.6161 335.2,79.0145 335.899,79.4232 336.591,79.842 337.277,80.2706 337.954,80.7081 338.621,81.1537 339.277,81.6061 339.922,82.064 340.555,82.5259 341.175,82.9903 341.783,83.4554 342.379,83.9198 342.963,84.3818 343.537,84.8401 344.102,85.2933 344.659,85.7405 345.209,86.1809 345.754,86.614 346.296,87.0395 346.837,87.4575 347.378,87.8686 347.922,88.2734 348.469,88.6731 349.02,89.0688 349.578,89.4622 350.142,89.8549 350.713,90.2489 351.291,90.6461 351.877,91.0482 352.468,91.4572 353.064,91.8748 353.665,92.3026 354.268,92.7418 354.871,93.1935 355.473,93.6582 356.072,94.1363 356.665,94.6276 357.251,95.1317 357.826,95.6478 358.39,96.1744 358.941,96.7102 359.478,97.2531 359.999,97.8011 360.504,98.352 360.993,98.9032 361.466,99.4524 361.924,99.9973 362.368,100.536 362.799,101.065 363.22,101.585 363.632,102.093 364.039,102.588 364.442,103.071 364.845,103.54 365.25,103.997 365.66,104.442 366.077,104.877 366.503,105.304 366.94,105.725 367.39,106.142 367.853,106.559 368.33,106.979 368.821,107.404 369.324,107.838 369.838,108.283 370.362,108.743 370.893,109.219 371.428,109.712 371.965,110.226 372.5,110.76 373.029,111.314 373.549,111.888 374.057,112.481"/>
<polyline fill="none" stroke="#00ff00" stroke-width="0.5" stroke-linecap="butt" stroke-linejoin="miter" points="256.793,212.32 256.22,214.083 254.72,215.173 252.866,215.173 251.366,214.083 250.793,212.32 251.366,210.556 252.866,209.467 254.72,209.467 256.22,210.556 256.793,212.32"/>
<polyline fill="none" stroke="#00ff00" stroke-width="2" stroke-linecap="butt" stroke-linejoin="miter" points="392.153,217.323 391.753,221.743 391.196,226.139 390.485,230.502 389.623,234.826 388.615,239.105 387.466,243.332 386.18,247.504 384.762,251.615 383.218,255.663 381.552,259.645 379.769,263.559 377.873,267.404 375.868,271.178 373.758,274.881 371.546,278.513 369.233,282.073 366.822,285.562 364.313,288.979 361.708,292.324 359.006,295.595 356.208,298.792 353.314,301.913 350.322,304.955 347.233,307.916 344.047,310.793 340.762,313.581 337.38,316.277 333.9,318.876 330.325,321.373 326.654,323.762 322.891,326.038 319.038,328.195 315.099,330.227 311.077,332.129 306.978,333.895 302.807,335.521 298.57,337.001 294.274,338.333 289.924,339.511 285.529,340.535 281.096,341.4 276.632,342.106 272.144,342.652 267.641,343.037 263.128,343.263 258.613,343.329 254.104,343.237 249.604,342.988 245.122,342.586 240.662,342.032 236.228,341.329 231.827,340.479 227.461,339.485 223.134,338.349 218.85,337.074 214.612,335.663 210.423,334.117 206.286,332.438 202.202,330.627 198.176,328.687 194.209,326.618 190.304,324.42 186.464,322.096 182.692,319.645 178.991,317.067 175.366,314.363 171.819,311.534 168.355,308.579 164.98,305.499 161.697,302.295 158.512,298.968 155.43,295.519 152.458,291.95 149.6,288.263 146.865,284.46 144.257,280.545 141.783,276.521 139.449,272.393 137.261,268.164 135.225,263.841 133.347,259.429 131.632,254.935 130.085,250.365 128.711,245.727 127.513,241.028 126.494,236.275 125.658,231.478 125.007,226.645 124.542,221.782 124.264,216.9 124.175,212.006 124.273,207.107 124.558,202.213 125.029,197.329 125.684,192.465 126.523,187.625 127.542,182.817 128.74,178.046 130.115,173.318 131.664,168.638 133.386,164.01 135.279,159.44 137.342,154.931 139.572,150.488 141.971,146.114 144.536,141.814 147.269,137.592 150.17,133.452 153.24,129.4 156.48,125.441 159.891,121.581 163.476,117.828 167.235,114.189 171.169,110.674 175.281,107.293 179.57,104.055 184.036,100.974 188.678,98.0613 193.494,95.3317 198.48,92.7995 203.632,90.4799 208.942,88.3888 214.402,86.5422 220.003,84.9564 225.731,83.6472 231.572,82.6304 237.51,81.9208 243.526,81.5325 249.6,81.478 255.709,81.7684 261.829,82.413 267.933,83.4187 273.995,84.7905 279.987,86.5303 285.878,88.6376 291.64,91.1087 297.241,93.937 302.654,97.1127 307.848,100.623 312.796,104.452 317.471,108.581 321.848,112.988 325.904,117.648 329.618,122.536 332.972,127.621 335.953,132.873 338.547,138.259 340.747,143.748 342.547,149.303 343.946,154.892 344.947,160.479 345.554,166.032 345.776,171.517 345.626,176.903 345.119,182.161 344.272,187.262 343.105,192.182 341.642,196.897 339.908,201.387 337.926,205.635 335.726,209.628 333.335,213.353 330.78,216.804 328.091,219.975 325.295,222.865 322.418,225.474 319.488,227.807 316.529,229.871 313.565,231.673 310.616,233.224 307.702,234.537 304.841,235.626 302.048,236.505 299.336,237.191 296.715,237.7 294.194,238.048 291.78,238.252 289.477,238.329 287.287,238.295 285.212,238.164 283.249,237.95 281.398,237.668 279.655,237.329 278.014,236.943 276.473,236.521 275.023,236.07 273.661,235.598 272.38,235.111 271.173,234.612 270.034,234.107 268.959,233.598 267.942,233.085 266.977,232.572 266.062,232.057 265.191,231.542 264.363,231.026 263.574,230.508 262.823,229.988 262.107,229.466 261.427,228.941 260.782,228.413 260.17,227.881 259.592,227.347 259.049,226.81 258.54,226.271 258.065,225.731 257.624,225.192 257.218,224.656 256.845,224.123 256.506,223.596 256.2,223.077 255.926,222.567 255.681,222.069 255.466,221.585 255.278,221.115 255.114,220.662 254.974,220.226 254.853,219.809 254.75,219.412 254.663,219.033 254.589,218.675 254.525,218.335 254.469,218.014 254.42,217.71 254.375,217.423 254.332,217.151 254.29,216.892 254.249,216.646 254.206,216.409 254.163,216.181 254.118,215.96 254.072,215.745 254.025,215.533 253.977,215.324 253.93,215.116 253.884,214.909 253.84,214.703 253.8,214.496 253.763,214.289 253.732,214.082 253.708,213.874 253.69,213.668 253.68,213.463 253.678,213.261 253.684,213.062 253.699,212.867 253.723,212.678 253.754,212.495 253.793,212.32 253.839,212.153 253.89,211.995 253.946,211.846 254.006,211.707 254.068,211.579 254.132,211.461 254.195,211.353 254.258,211.254 254.318,211.164 254.375,211.083 254.428,211.009 254.477,210.941 254.52,210.879 254.557,210.82 254.589,210.765 254.616,210.711 254.637,210.658 254.654,210.604 254.667,210.55 254.676,210.493 254.683,210.434 254.688,210.372 254.692,210.306 254.697,210.238 254.704,210.166 254.713,210.092 254.724,210.015 254.74,209.937 254.76,209.857 254.784,209.778 254.814,209.699 254.848,209.622 254.888,209.548 254.932,209.477 254.98,209.41 255.031,209.349 255.086,209.292 255.143,209.242 255.2,209.198 255.258,209.161 255.315,209.13 255.371,209.105 255.424,209.086 255.473,209.072 255.519,209.063 255.56,209.057 255.596,209.055 255.626,209.054 255.652,209.055 255.672,209.056 255.687,209.056 255.697,209.054 255.703,209.05 255.706,209.043 255.705,209.033 255.703,209.018 255.7,208.999 255.697,208.977 255.695,208.95 255.695,208.919 255.696,208.885 255.701,208.848 255.71,208.809 255.723,208.768 255.74,208.727 255.762,208.687 255.788,208.647 255.819,208.61 255.854,208.575 255.892,208.545 255.933,208.518 255.976,208.496 256.02,208.479 256.065,208.467 256.109,208.461 256.152,208.46 256.193,208.464 256.231,208.473 256.265,208.485 256.295,208.5 256.32,208.519 256.339,208.538 256.354,208.559 256.363,208.579 256.368,208.598 256.367,208.615 256.362,208.629 256.354,208.64 256.343,208.646 256.33,208.649 256.315,208.646 256.301,208.639 256.287,208.627 256.274,208.61 256.264,208.59 256.257,208.565 256.254,208.538 256.255,208.509 256.261,208.478 256.272,208.447 256.288,208.417 256.309,208.388 256.334,208.361 256.363,208.337 256.395,208.318 256.43,208.303 256.467,208.293 256.505,208.288 256.543,208.289 256.58,208.295 256.615,208.306 256.647,208.322 256.675,208.343 256.699,208.366 256.718,208.393 256.731,208.421 256.739,208.45 256.741,208.478 256.738,208.506 256.73,208.531 256.716,208.553 256.699,208.571 256.678,208.585 256.655,208.594 256.63,208.596 256.605,208.594 256.58,208.585 256.558,208.571 256.537,208.552 256.521,208.529 256.509,208.501 256.501,208.471 256.5,208.438 256.504,208.405 256.514,208.371 256.53,208.34 256.552,208.31 256.579,208.284 256.61,208.262 256.645,208.245 256.683,208.234 256.722,208.229 256.762,208.231 256.801,208.239 256.838,208.253 256.872,208.273 256.903,208.298 256.928,208.328 256.947,208.362 256.96,208.398 256.966,208.435 256.966,208.472 256.958,208.509 256.944,208.542 256.924,208.573 256.899,208.598 256.869,208.618 256.835,208.632 256.8,208.638 256.763,208.638 256.727,208.63 256.693,208.615 256.662,208.593 256.636,208.565 256.614,208.532 256.599,208.494 256.592,208.453 256.591,208.411 256.599,208.368 256.615,208.327 256.638,208.288 256.668,208.253 256.704,208.224 256.746,208.201 256.792,208.185 256.841,208.177 256.89,208.178 256.94,208.187 256.987,208.205 257.031,208.231 257.07,208.265 257.103,208.305 257.128,208.35 257.145,208.399 257.152,208.45 257.151,208.502 257.14,208.553 257.12,208.601 257.091,208.645 257.054,208.683 257.011,208.713 256.963,208.735 256.911,208.747 256.857,208.749 256.803,208.741 256.752,208.723 256.704,208.694 256.662,208.657 256.627,208.612 256.601,208.56 256.584,208.503 256.579,208.443 256.585,208.382 256.602,208.322 256.631,208.265 256.67,208.213 256.718,208.168 256.775,208.132 256.839,208.106 256.907,208.092 256.978,208.091 257.049,208.102 257.118,208.125 257.183,208.161 257.241,208.209 257.29,208.267 257.328,208.333 257.355,208.405 257.368,208.482 257.367,208.561 257.351,208.639 257.322,208.714 257.279,208.783 257.224,208.843 257.158,208.892 257.084,208.929 257.003,208.952 256.919,208.959 256.833,208.95 256.75,208.925 256.672,208.885 256.602,208.829 256.543,208.761 256.496,208.682 256.465,208.593 256.451,208.499 256.454,208.402 256.476,208.306 256.516,208.213 256.574,208.128 256.647,208.053 256.735,207.991 256.834,207.946 256.942,207.918 257.055,207.911 257.17,207.923 257.283,207.957 257.39,208.012 257.487,208.085"/>
</g>
<clipPath id="cp00576432">
  <polygon points="0,432 576,432 576,0 0,0"/>
</clipPath>
<g clip-path="url(#cp00576432)">
<polygon fill="#ffffff" shape-rendering="crispEdges" points="444.644,91.3787 573.254,91.3787 444.644,32.4"/>
<polygon fill="#ffffff" shape-rendering="crispEdges" points="573.254,91.3787 573.254,32.4 444.644,32.4"/>
<polyline fill="none" stroke="#262626" stroke-width="0.5" stroke-linecap="butt" stroke-linejoin="miter" stroke-dasharray="16,0" points="444.644,91.3787 573.254,91.3787"/>
<polyline fill="none" stroke="#262626" stroke-width="0.5" stroke-linecap="butt" stroke-linejoin="miter" stroke-dasharray="16,0" points="444.644,32.4 573.254,32.4"/>
<polyline fill="none" stroke="#262626" stroke-width="0.5" stroke-linecap="butt" stroke-linejoin="miter" stroke-dasharray="16,0" points="444.644,91.3787 444.644,32.4"/>
<polyline fill="none" stroke="#262626" stroke-width="0.5" stroke-linecap="butt" stroke-linejoin="miter" stroke-dasharray="16,0" points="573.254,91.3787 573.254,32.4"/>
<text fill="#000000" x="470.736" y="45.1447" font-size="10" text-anchor="start" dy="0" font-family="Helvetica">s11 @ 2510.00 MHz</text>
<text fill="#000000" x="470.736" y="58.1447" font-size="10" text-anchor="start" dy="0" font-family="Helvetica">-0.3dB -0.69+0.67j</text>
<text fill="#000000" x="470.736" y="74.634" font-size="10" text-anchor="start" dy="0" font-family="Helvetica">s21 @ 2510.00 MHz</text>
<text fill="#000000" x="470.736" y="87.634" font-size="10" text-anchor="start" dy="0" font-family="Helvetica">-29.6dB -0.02-0.03j</text>
<polyline fill="none" stroke="#ff00ff" stroke-width="0.5" stroke-linecap="butt" stroke-linejoin="miter" points="460.69,47.1447 460.117,48.908 458.617,49.9978 456.763,49.9978 455.263,48.908 454.69,47.1447 455.263,45.3813 456.763,44.2915 458.617,44.2915 460.117,45.3813 460.69,47.1447"/>
<polyline fill="none" stroke="#00ff00" stroke-width="0.5" stroke-linecap="butt" stroke-linejoin="miter" points="460.69,76.634 460.117,78.3973 458.617,79.4872 456.763,79.4872 455.263,78.3973 454.69,76.634 455.263,74.8706 456.763,73.7808 458.617,73.7808 460.117,74.8706 460.69,76.634"/>
</g>
</g>
</svg>
