<?xml version="1.0" encoding="UTF-8" standalone="no"?>
<svg xmlns="http://www.w3.org/2000/svg"
     xmlns:xlink="http://www.w3.org/1999/xlink"
     width="576px" height="432px" viewBox="0 0 576 432">
<title>gl2ps_renderer figure</title>
<desc>
Creator: GL2PS 1.4.0, (C) 1999-2017 C. Geuzaine
For: Octave
CreationDate: Sun Jul 19 02:19:29 2020
</desc>
<defs>
</defs>
<polygon fill="#ffffff" points="0,0 576,0 576,432 0,432"/>
<g>
<polygon fill="#ffffff" points="0,432 576,432 576,0 0,0" shape-rendering="crispEdges"/>
<clipPath id="cp00576432">
  <polygon points="0,432 576,432 576,0 0,0"/>
</clipPath>
<g clip-path="url(#cp00576432)">
<polygon fill="#ffffff" shape-rendering="crispEdges" points="74.88,384.48 521.28,384.48 74.88,32.4"/>
<polygon fill="#ffffff" shape-rendering="crispEdges" points="521.28,384.48 521.28,32.4 74.88,32.4"/>
<polyline fill="none" stroke="#262626" stroke-width="0.5" stroke-linecap="butt" stroke-linejoin="miter" stroke-opacity="0.15" stroke-dasharray="16,0" points="74.88,384.48 74.88,32.4"/>
<polyline fill="none" stroke="#262626" stroke-width="0.5" stroke-linecap="butt" stroke-linejoin="miter" stroke-opacity="0.15" stroke-dasharray="16,0" points="164.16,384.48 164.16,32.4"/>
<polyline fill="none" stroke="#262626" stroke-width="0.5" stroke-linecap="butt" stroke-linejoin="miter" stroke-opacity="0.15" stroke-dasharray="16,0" points="253.44,384.48 253.44,32.4"/>
<polyline fill="none" stroke="#262626" stroke-width="0.5" stroke-linecap="butt" stroke-linejoin="miter" stroke-opacity="0.15" stroke-dasharray="16,0" points="342.72,384.48 342.72,32.4"/>
<polyline fill="none" stroke="#262626" stroke-width="0.5" stroke-linecap="butt" stroke-linejoin="miter" stroke-opacity="0.15" stroke-dasharray="16,0" points="432,384.48 432,32.4"/>
<polyline fill="none" stroke="#262626" stroke-width="0.5" stroke-linecap="butt" stroke-linejoin="miter" stroke-opacity="0.15" stroke-dasharray="16,0" points="521.28,384.48 521.28,32.4"/>
<polyline fill="none" stroke="#262626" stroke-width="0.5" stroke-linecap="butt" stroke-linejoin="miter" points="74.88,384.48 74.88,380.015"/>
<polyline fill="none" stroke="#262626" stroke-width="0.5" stroke-linecap="butt" stroke-linejoin="miter" points="74.88,32.4 74.88,36.865"/>
<polyline fill="none" stroke="#262626" stroke-width="0.5" stroke-linecap="butt" stroke-linejoin="miter" points="164.16,384.48 164.16,380.015"/>
<polyline fill="none" stroke="#262626" stroke-width="0.5" stroke-linecap="butt" stroke-linejoin="miter" points="164.16,32.4 164.16,36.865"/>
<polyline fill="none" stroke="#262626" stroke-width="0.5" stroke-linecap="butt" stroke-linejoin="miter" points="253.44,384.48 253.44,380.015"/>
<polyline fill="none" stroke="#262626" stroke-width="0.5" stroke-linecap="butt" stroke-linejoin="miter" points="253.44,32.4 253.44,36.865"/>
<polyline fill="none" stroke="#262626" stroke-width="0.5" stroke-linecap="butt" stroke-linejoin="miter" points="342.72,384.48 342.72,380.015"/>
<polyline fill="none" stroke="#262626" stroke-width="0.5" stroke-linecap="butt" stroke-linejoin="miter" points="342.72,32.4 342.72,36.865"/>
<polyline fill="none" stroke="#262626" stroke-width="0.5" stroke-linecap="butt" stroke-linejoin="miter" points="432,384.48 432,380.015"/>
<polyline fill="none" stroke="#262626" stroke-width="0.5" stroke-linecap="butt" stroke-linejoin="miter" points="432,32.4 432,36.865"/>
<polyline fill="none" stroke="#262626" stroke-width="0.5" stroke-linecap="butt" stroke-linejoin="miter" points="521.28,384.48 521.28,380.015"/>
<polyline fill="none" stroke="#262626" stroke-width="0.5" stroke-linecap="butt" stroke-linejoin="miter" points="521.28,32.4 521.28,36.865"/>
<text fill="#262626" x="74.88" y="389.481" font-size="10" text-anchor="middle" dy="10" font-family="Helvetica">0</text>
<text fill="#262626" x="164.16" y="389.481" font-size="10" text-anchor="middle" dy="10" font-family="Helvetica">1000</text>
<text fill="#262626" x="253.44" y="389.481" font-size="10" text-anchor="middle" dy="10" font-family="Helvetica">2000</text>
<text fill="#262626" x="342.72" y="389.481" font-size="10" text-anchor="middle" dy="10" font-family="Helvetica">3000</text>
<text fill="#262626" x="432" y="389.481" font-size="10" text-anchor="middle" dy="10" font-family="Helvetica">4000</text>
<text fill="#262626" x="521.28" y="389.481" font-size="10" text-anchor="middle" dy="10" font-family="Helvetica">5000</text>
<polyline fill="none" stroke="#262626" stroke-width="0.5" stroke-linecap="butt" stroke-linejoin="miter" stroke-opacity="0.15" stroke-dasharray="16,0" points="74.88,384.48 521.28,384.48"/>
<polyline fill="none" stroke="#262626" stroke-width="0.5" stroke-linecap="butt" stroke-linejoin="miter" stroke-opacity="0.15" stroke-dasharray="16,0" points="74.88,296.46 521.28,296.46"/>
<polyline fill="none" stroke="#262626" stroke-width="0.5" stroke-linecap="butt" stroke-linejoin="miter" stroke-opacity="0.15" stroke-dasharray="16,0" points="74.88,208.44 521.28,208.44"/>
<polyline fill="none" stroke="#262626" stroke-width="0.5" stroke-linecap="butt" stroke-linejoin="miter" stroke-opacity="0.15" stroke-dasharray="16,0" points="74.88,120.42 521.28,120.42"/>
<polyline fill="none" stroke="#262626" stroke-width="0.5" stroke-linecap="butt" stroke-linejoin="miter" stroke-opacity="0.15" stroke-dasharray="16,0" points="74.88,32.4 521.28,32.4"/>
<polyline fill="none" stroke="#262626" stroke-width="0.5" stroke-linecap="butt" stroke-linejoin="miter" points="74.88,384.48 79.348,384.48"/>
<polyline fill="none" stroke="#262626" stroke-width="0.5" stroke-linecap="butt" stroke-linejoin="miter" points="521.28,384.48 516.812,384.48"/>
<polyline fill="none" stroke="#262626" stroke-width="0.5" stroke-linecap="butt" stroke-linejoin="miter" points="74.88,296.46 79.348,296.46"/>
<polyline fill="none" stroke="#262626" stroke-width="0.5" stroke-linecap="butt" stroke-linejoin="miter" points="521.28,296.46 516.812,296.46"/>
<polyline fill="none" stroke="#262626" stroke-width="0.5" stroke-linecap="butt" stroke-linejoin="miter" points="74.88,208.44 79.348,208.44"/>
<polyline fill="none" stroke="#262626" stroke-width="0.5" stroke-linecap="butt" stroke-linejoin="miter" points="521.28,208.44 516.812,208.44"/>
<polyline fill="none" stroke="#262626" stroke-width="0.5" stroke-linecap="butt" stroke-linejoin="miter" points="74.88,120.42 79.348,120.42"/>
<polyline fill="none" stroke="#262626" stroke-width="0.5" stroke-linecap="butt" stroke-linejoin="miter" points="521.28,120.42 516.812,120.42"/>
<polyline fill="none" stroke="#262626" stroke-width="0.5" stroke-linecap="butt" stroke-linejoin="miter" points="74.88,32.4 79.348,32.4"/>
<polyline fill="none" stroke="#262626" stroke-width="0.5" stroke-linecap="butt" stroke-linejoin="miter" points="521.28,32.4 516.812,32.4"/>
<text fill="#262626" x="69.8755" y="384.48" font-size="10" text-anchor="end" dy="5" font-family="Helvetica">-50</text>
<text fill="#262626" x="69.8755" y="296.46" font-size="10" text-anchor="end" dy="5" font-family="Helvetica">0</text>
<text fill="#262626" x="69.8755" y="208.44" font-size="10" text-anchor="end" dy="5" font-family="Helvetica">50</text>
<text fill="#262626" x="69.8755" y="120.42" font-size="10" text-anchor="end" dy="5" font-family="Helvetica">100</text>
<text fill="#262626" x="69.8755" y="32.4" font-size="10" text-anchor="end" dy="5" font-family="Helvetica">150</text>
<polyline fill="none" stroke="#262626" stroke-width="0.5" stroke-linecap="butt" stroke-linejoin="miter" stroke-dasharray="16,0" points="74.88,384.48 521.28,384.48"/>
<polyline fill="none" stroke="#262626" stroke-width="0.5" stroke-linecap="butt" stroke-linejoin="miter" stroke-dasharray="16,0" points="74.88,32.4 521.28,32.4"/>
<polyline fill="none" stroke="#262626" stroke-width="0.5" stroke-linecap="butt" stroke-linejoin="miter" stroke-dasharray="16,0" points="74.88,384.48 74.88,32.4"/>
<polyline fill="none" stroke="#262626" stroke-width="0.5" stroke-linecap="butt" stroke-linejoin="miter" stroke-dasharray="16,0" points="521.28,384.48 521.28,32.4"/>
<text fill="#262626" x="298.08" y="402.481" font-size="11" text-anchor="middle" dy="11" font-family="Helvetica">Frequency f (MHz)</text>
<text fill="#262626" x="47.8755" y="208.44" font-size="11" transform="rotate(-90, 47.8755, 208.44)" text-anchor="middle" dy="0" font-family="Helvetica">Impedance (Ohm)</text>
<polyline fill="none" stroke="#000000" stroke-width="2" stroke-linecap="butt" stroke-linejoin="miter" points="76.6656,226.835 77.5584,226.859 78.4512,226.892 79.344,226.931 80.2368,226.976 81.1296,227.025 82.0224,227.075 82.9152,227.125 83.808,227.173 84.7008,227.216 85.5936,227.253 86.4864,227.28 87.3792,227.297 88.272,227.302 89.1648,227.293 90.0576,227.268 90.9504,227.227 91.8432,227.17 92.736,227.095 93.6288,227.003 94.5216,226.894 95.4144,226.768 96.3072,226.626 97.2,226.469 98.0928,226.299 98.9856,226.116 99.8784,225.921 100.771,225.718 101.664,225.506 102.557,225.288 103.45,225.065 104.342,224.838 105.235,224.608 106.128,224.377 107.021,224.145 107.914,223.912 108.806,223.678 109.699,223.443 110.592,223.206 111.485,222.967 112.378,222.724 113.27,222.476 114.163,222.22 115.056,221.957 115.949,221.682 116.842,221.396 117.734,221.095 118.627,220.779 119.52,220.445 120.413,220.092 121.306,219.72 122.198,219.328 123.091,218.915 123.984,218.483 124.877,218.031 125.77,217.561 126.662,217.075 127.555,216.575 128.448,216.063 129.341,215.543 130.234,215.019 131.126,214.493 132.019,213.97 132.912,213.455 133.805,212.951 134.698,212.463 135.59,211.995 136.483,211.551 137.376,211.135 138.269,210.749 139.162,210.398 140.054,210.082 140.947,209.803 141.84,209.563 142.733,209.361 143.626,209.197 144.518,209.071 145.411,208.98 146.304,208.923 147.197,208.897 148.09,208.9 148.982,208.928 149.875,208.979 150.768,209.049 151.661,209.137 152.554,209.239 153.446,209.352 154.339,209.476 155.232,209.608 156.125,209.747 157.018,209.893 157.91,210.044 158.803,210.201 159.696,210.363 160.589,210.532 161.482,210.706 162.374,210.888 163.267,211.077 164.16,211.273 165.053,211.475 165.946,211.684 166.838,211.897 167.731,212.113 168.624,212.328 169.517,212.54 170.41,212.744 171.302,212.934 172.195,213.104 173.088,213.249 173.981,213.359 174.874,213.428 175.766,213.446 176.659,213.404 177.552,213.292 178.445,213.101 179.338,212.822 180.23,212.444 181.123,211.959 182.016,211.358 182.909,210.632 183.802,209.774 184.694,208.779 185.587,207.641 186.48,206.356 187.373,204.924 188.266,203.343 189.158,201.618 190.051,199.754 190.944,197.759 191.837,195.647 192.73,193.435 193.622,191.147 194.515,188.809 195.408,186.457 196.301,184.132 197.194,181.88 198.086,179.755 198.979,177.815 199.872,176.12 200.765,174.729 201.658,173.701 202.55,173.084 203.443,172.918 204.336,173.228 205.229,174.024 206.122,175.298 207.014,177.027 207.907,179.173 208.8,181.689 209.693,184.52 210.586,187.608 211.478,190.896 212.371,194.329 213.264,197.857 214.157,201.437 215.05,205.031 215.942,208.608 216.835,212.143 217.728,215.618 218.621,219.016 219.514,222.328 220.406,225.545 221.299,228.664 222.192,231.682 223.085,234.598 223.978,237.412 224.87,240.126 225.763,242.742 226.656,245.263 227.549,247.692 228.442,250.032 229.334,252.285 230.227,254.457 231.12,256.548 232.013,258.564 232.906,260.508 233.798,262.381 234.691,264.187 235.584,265.93 236.477,267.612 237.37,269.235 238.262,270.802 239.155,272.315 240.048,273.778 240.941,275.192 241.834,276.559 242.726,277.881 243.619,279.16 244.512,280.397 245.405,281.595 246.298,282.753 247.19,283.873 248.083,284.955 248.976,285.997 249.869,286.997 250.762,287.952 251.654,288.856 252.547,289.698 253.44,290.464 254.333,291.132 255.226,291.67 256.118,292.043 257.011,292.215 257.904,292.171 258.797,291.925 259.69,291.513 260.582,290.978 261.475,290.355 262.368,289.674 263.261,288.953 264.154,288.206 265.046,287.442 265.939,286.668 266.832,285.889 267.725,285.106 268.618,284.325 269.51,283.545 270.403,282.769 271.296,281.997 272.189,281.232 273.082,280.472 273.974,279.719 274.867,278.973 275.76,278.234 276.653,277.503 277.546,276.778 278.438,276.06 279.331,275.349 280.224,274.644 281.117,273.945 282.01,273.252 282.902,272.564 283.795,271.88 284.688,271.201 285.581,270.525 286.474,269.853 287.366,269.183 288.259,268.515 289.152,267.85 290.045,267.186 290.938,266.524 291.83,265.863 292.723,265.203 293.616,264.544 294.509,263.885 295.402,263.228 296.294,262.572 297.187,261.918 298.08,261.264 298.973,260.613 299.866,259.963 300.758,259.315 301.651,258.67 302.544,258.027 303.437,257.388 304.33,256.751 305.222,256.117 306.115,255.487 307.008,254.861 307.901,254.237 308.794,253.618 309.686,253.001 310.579,252.388 311.472,251.779 312.365,251.172 313.258,250.567 314.15,249.966 315.043,249.366 315.936,248.767 316.829,248.17 317.722,247.574 318.614,246.978 319.507,246.383 320.4,245.787 321.293,245.191 322.186,244.594 323.078,243.996 323.971,243.397 324.864,242.796 325.757,242.194 326.65,241.591 327.542,240.987 328.435,240.381 329.328,239.775 330.221,239.167 331.114,238.559 332.006,237.951 332.899,237.343 333.792,236.735 334.685,236.128 335.578,235.521 336.47,234.916 337.363,234.312 338.256,233.71 339.149,233.109 340.042,232.51 340.934,231.913 341.827,231.318 342.72,230.724 343.613,230.132 344.506,229.542 345.398,228.953 346.291,228.364 347.184,227.776 348.077,227.189 348.97,226.601 349.862,226.012 350.755,225.423 351.648,224.832 352.541,224.239 353.434,223.644 354.326,223.047 355.219,222.447 356.112,221.844 357.005,221.239 357.898,220.63 358.79,220.019 359.683,219.404 360.576,218.787 361.469,218.167 362.362,217.546 363.254,216.922 364.147,216.296 365.04,215.67 365.933,215.042 366.826,214.414 367.718,213.786 368.611,213.158 369.504,212.531 370.397,211.904 371.29,211.278 372.182,210.654 373.075,210.031 373.968,209.409 374.861,208.788 375.754,208.167 376.646,207.548 377.539,206.929 378.432,206.31 379.325,205.69 380.218,205.07 381.11,204.448 382.003,203.825 382.896,203.198 383.789,202.569 384.682,201.937 385.574,201.301 386.467,200.66 387.36,200.015 388.253,199.366 389.146,198.711 390.038,198.052 390.931,197.387 391.824,196.718 392.717,196.045 393.61,195.367 394.502,194.686 395.395,194.001 396.288,193.314 397.181,192.624 398.074,191.932 398.966,191.239 399.859,190.546 400.752,189.852 401.645,189.158 402.538,188.465 403.43,187.773 404.323,187.082 405.216,186.392 406.109,185.703 407.002,185.014 407.894,184.327 408.787,183.64 409.68,182.953 410.573,182.264 411.466,181.575 412.358,180.883 413.251,180.188 414.144,179.49 415.037,178.787 415.93,178.079 416.822,177.364 417.715,176.644 418.608,175.916 419.501,175.181 420.394,174.438 421.286,173.687 422.179,172.928 423.072,172.161 423.965,171.387 424.858,170.605 425.75,169.817 426.643,169.023 427.536,168.223 428.429,167.419 429.322,166.612 430.214,165.802 431.107,164.991 432,164.178 432.893,163.365 433.786,162.553 434.678,161.742 435.571,160.933 436.464,160.125 437.357,159.32 438.25,158.516 439.142,157.713 440.035,156.911 440.928,156.11 441.821,155.308 442.714,154.503 443.606,153.696 444.499,152.885 445.392,152.068 446.285,151.244 447.178,150.412 448.07,149.57 448.963,148.718 449.856,147.854 450.749,146.977 451.642,146.087 452.534,145.183 453.427,144.266 454.32,143.334 455.213,142.39 456.106,141.432 456.998,140.463 457.891,139.483 458.784,138.493 459.677,137.496 460.57,136.491 461.462,135.482 462.355,134.47 463.248,133.456 464.141,132.443 465.034,131.43 465.926,130.421 466.819,129.415 467.712,128.414 468.605,127.417 469.498,126.425 470.39,125.437 471.283,124.452 472.176,123.47 473.069,122.488 473.962,121.504 474.854,120.517 475.747,119.524 476.64,118.523 477.533,117.51 478.426,116.483 479.318,115.44 480.211,114.377 481.104,113.294 481.997,112.187 482.89,111.056 483.782,109.898 484.675,108.715 485.568,107.505 486.461,106.269 487.354,105.008 488.246,103.724 489.139,102.419 490.032,101.094 490.925,99.7538 491.818,98.4009 492.71,97.0388 493.603,95.6711 494.496,94.3015 495.389,92.9335 496.282,91.5706 497.174,90.2155 498.067,88.8707 498.96,87.5381 499.853,86.2188 500.746,84.9131 501.638,83.6204 502.531,82.3392 503.424,81.0672 504.317,79.8011 505.21,78.5368 506.102,77.2695 506.995,75.9937 507.888,74.7036 508.781,73.3931 509.674,72.056 510.566,70.6859 511.459,69.2771 512.352,67.8241 513.245,66.3222 514.138,64.7673 515.03,63.1565 515.923,61.4877 516.816,59.7603 517.709,57.9745 518.602,56.1324 519.494,54.2369 520.387,52.2925 521.28,50.3047"/>
<polyline fill="none" stroke="#ff00ff" stroke-width="2" stroke-linecap="butt" stroke-linejoin="miter" stroke-dasharray="8,8,8,8" points="76.6656,296.202 77.5584,296.068 78.4512,295.927 79.344,295.779 80.2368,295.62 81.1296,295.451 82.0224,295.27 82.9152,295.076 83.808,294.87 84.7008,294.65 85.5936,294.417 86.4864,294.172 87.3792,293.915 88.272,293.648 89.1648,293.372 90.0576,293.089 90.9504,292.799 91.8432,292.505 92.736,292.208 93.6288,291.91 94.5216,291.614 95.4144,291.32 96.3072,291.03 97.2,290.745 98.0928,290.468 98.9856,290.199 99.8784,289.938 100.771,289.687 101.664,289.446 102.557,289.215 103.45,288.994 104.342,288.781 105.235,288.578 106.128,288.382 107.021,288.193 107.914,288.009 108.806,287.829 109.699,287.652 110.592,287.477 111.485,287.302 112.378,287.126 113.27,286.949 114.163,286.77 115.056,286.589 115.949,286.406 116.842,286.222 117.734,286.036 118.627,285.851 119.52,285.668 120.413,285.49 121.306,285.318 122.198,285.154 123.091,285.003 123.984,284.867 124.877,284.749 125.77,284.653 126.662,284.582 127.555,284.539 128.448,284.528 129.341,284.551 130.234,284.612 131.126,284.711 132.019,284.851 132.912,285.033 133.805,285.257 134.698,285.523 135.59,285.831 136.483,286.178 137.376,286.562 138.269,286.98 139.162,287.429 140.054,287.905 140.947,288.402 141.84,288.917 142.733,289.444 143.626,289.978 144.518,290.515 145.411,291.051 146.304,291.581 147.197,292.101 148.09,292.609 148.982,293.102 149.875,293.578 150.768,294.036 151.661,294.476 152.554,294.896 153.446,295.298 154.339,295.682 155.232,296.048 156.125,296.397 157.018,296.731 157.91,297.049 158.803,297.353 159.696,297.643 160.589,297.918 161.482,298.179 162.374,298.424 163.267,298.652 164.16,298.861 165.053,299.05 165.946,299.214 166.838,299.352 167.731,299.461 168.624,299.538 169.517,299.579 170.41,299.583 171.302,299.547 172.195,299.47 173.088,299.351 173.981,299.188 174.874,298.985 175.766,298.741 176.659,298.46 177.552,298.145 178.445,297.803 179.338,297.439 180.23,297.062 181.123,296.681 182.016,296.308 182.909,295.954 183.802,295.635 184.694,295.367 185.587,295.17 186.48,295.064 187.373,295.074 188.266,295.226 189.158,295.549 190.051,296.075 190.944,296.839 191.837,297.876 192.73,299.225 193.622,300.922 194.515,303.004 195.408,305.501 196.301,308.437 197.194,311.825 198.086,315.662 198.979,319.926 199.872,324.572 200.765,329.531 201.658,334.709 202.55,339.99 203.443,345.242 204.336,350.327 205.229,355.107 206.122,359.459 207.014,363.283 207.907,366.506 208.8,369.085 209.693,371.009 210.586,372.294 211.478,372.976 212.371,373.108 213.264,372.751 214.157,371.971 215.05,370.834 215.942,369.401 216.835,367.731 217.728,365.875 218.621,363.877 219.514,361.775 220.406,359.603 221.299,357.386 222.192,355.148 223.085,352.905 223.978,350.672 224.87,348.461 225.763,346.279 226.656,344.135 227.549,342.032 228.442,339.975 229.334,337.966 230.227,336.007 231.12,334.098 232.013,332.241 232.906,330.435 233.798,328.679 234.691,326.973 235.584,325.316 236.477,323.707 237.37,322.145 238.262,320.628 239.155,319.154 240.048,317.722 240.941,316.33 241.834,314.977 242.726,313.661 243.619,312.379 244.512,311.131 245.405,309.915 246.298,308.727 247.19,307.568 248.083,306.435 248.976,305.326 249.869,304.24 250.762,303.175 251.654,302.129 252.547,301.102 253.44,300.091 254.333,299.096 255.226,298.116 256.118,297.149 257.011,296.194 257.904,295.252 258.797,294.32 259.69,293.4 260.582,292.489 261.475,291.588 262.368,290.697 263.261,289.815 264.154,288.943 265.046,288.079 265.939,287.225 266.832,286.38 267.725,285.544 268.618,284.718 269.51,283.901 270.403,283.093 271.296,282.295 272.189,281.506 273.082,280.726 273.974,279.955 274.867,279.194 275.76,278.441 276.653,277.697 277.546,276.961 278.438,276.233 279.331,275.513 280.224,274.799 281.117,274.092 282.01,273.391 282.902,272.696 283.795,272.005 284.688,271.319 285.581,270.637 286.474,269.959 287.366,269.284 288.259,268.611 289.152,267.94 290.045,267.272 290.938,266.605 291.83,265.939 292.723,265.275 293.616,264.612 294.509,263.951 295.402,263.29 296.294,262.632 297.187,261.974 298.08,261.318 298.973,260.665 299.866,260.013 300.758,259.363 301.651,258.717 302.544,258.073 303.437,257.431 304.33,256.794 305.222,256.159 306.115,255.528 307.008,254.901 307.901,254.277 308.794,253.656 309.686,253.039 310.579,252.426 311.472,251.815 312.365,251.208 313.258,250.603 314.15,250 315.043,249.399 315.936,248.8 316.829,248.203 317.722,247.606 318.614,247.009 319.507,246.413 320.4,245.816 321.293,245.219 322.186,244.621 323.078,244.022 323.971,243.422 324.864,242.82 325.757,242.218 326.65,241.614 327.542,241.009 328.435,240.403 329.328,239.795 330.221,239.187 331.114,238.579 332.006,237.97 332.899,237.362 333.792,236.754 334.685,236.146 335.578,235.54 336.47,234.934 337.363,234.33 338.256,233.728 339.149,233.127 340.042,232.528 340.934,231.931 341.827,231.336 342.72,230.742 343.613,230.15 344.506,229.56 345.398,228.971 346.291,228.382 347.184,227.794 348.077,227.206 348.97,226.618 349.862,226.029 350.755,225.439 351.648,224.848 352.541,224.255 353.434,223.66 354.326,223.062 355.219,222.462 356.112,221.859 357.005,221.253 357.898,220.644 358.79,220.032 359.683,219.418 360.576,218.8 361.469,218.18 362.362,217.558 363.254,216.934 364.147,216.309 365.04,215.682 365.933,215.054 366.826,214.426 367.718,213.798 368.611,213.171 369.504,212.543 370.397,211.917 371.29,211.291 372.182,210.667 373.075,210.044 373.968,209.422 374.861,208.801 375.754,208.181 376.646,207.562 377.539,206.943 378.432,206.324 379.325,205.705 380.218,205.084 381.11,204.462 382.003,203.839 382.896,203.212 383.789,202.583 384.682,201.95 385.574,201.314 386.467,200.673 387.36,200.028 388.253,199.378 389.146,198.723 390.038,198.064 390.931,197.399 391.824,196.73 392.717,196.056 393.61,195.379 394.502,194.697 395.395,194.012 396.288,193.325 397.181,192.635 398.074,191.943 398.966,191.251 399.859,190.557 400.752,189.864 401.645,189.17 402.538,188.477 403.43,187.786 404.323,187.095 405.216,186.405 406.109,185.716 407.002,185.029 407.894,184.342 408.787,183.655 409.68,182.968 410.573,182.28 411.466,181.59 412.358,180.898 413.251,180.204 414.144,179.505 415.037,178.802 415.93,178.094 416.822,177.379 417.715,176.658 418.608,175.93 419.501,175.195 420.394,174.451 421.286,173.7 422.179,172.941 423.072,172.174 423.965,171.399 424.858,170.617 425.75,169.829 426.643,169.035 427.536,168.236 428.429,167.432 429.322,166.625 430.214,165.815 431.107,165.004 432,164.192 432.893,163.38 433.786,162.568 434.678,161.758 435.571,160.949 436.464,160.142 437.357,159.337 438.25,158.534 439.142,157.732 440.035,156.931 440.928,156.13 441.821,155.328 442.714,154.524 443.606,153.717 444.499,152.906 445.392,152.089 446.285,151.265 447.178,150.432 448.07,149.59 448.963,148.737 449.856,147.873 450.749,146.996 451.642,146.105 452.534,145.201 453.427,144.283 454.32,143.351 455.213,142.406 456.106,141.449 456.998,140.479 457.891,139.499 458.784,138.509 459.677,137.512 460.57,136.508 461.462,135.5 462.355,134.488 463.248,133.475 464.141,132.462 465.034,131.451 465.926,130.443 466.819,129.439 467.712,128.439 468.605,127.444 469.498,126.453 470.39,125.466 471.283,124.483 472.176,123.502 473.069,122.521 473.962,121.538 474.854,120.552 475.747,119.559 476.64,118.558 477.533,117.545 478.426,116.517 479.318,115.473 480.211,114.41 481.104,113.325 481.997,112.217 482.89,111.085 483.782,109.927 484.675,108.742 485.568,107.531 486.461,106.294 487.354,105.033 488.246,103.748 489.139,102.443 490.032,101.118 490.925,99.7786 491.818,98.4265 492.71,97.0655 493.603,95.6994 494.496,94.3318 495.389,92.9662 496.282,91.606 497.174,90.254 498.067,88.9126 498.96,87.5837 499.853,86.2683 500.746,84.9666 501.638,83.6778 502.531,82.4003 503.424,81.1317 504.317,79.8686 505.21,78.6066 506.102,77.341 506.995,76.0662 507.888,74.7762 508.781,73.4651 509.674,72.1265 510.566,70.7544 511.459,69.3429 512.352,67.8868 513.245,66.3815 514.138,64.8231 515.03,63.2087 515.923,61.5366 516.816,59.8062 517.709,58.0179 518.602,56.1738 519.494,54.2769 520.387,52.3318 521.28,50.3441"/>
<polyline fill="none" stroke="#00ff00" stroke-width="2" stroke-linecap="butt" stroke-linejoin="miter" stroke-dasharray="8,8,8,8" points="76.6656,226.836 77.5584,226.861 78.4512,226.894 79.344,226.934 80.2368,226.981 81.1296,227.032 82.0224,227.085 82.9152,227.139 83.808,227.191 84.7008,227.24 85.5936,227.283 86.4864,227.318 87.3792,227.344 88.272,227.359 89.1648,227.362 90.0576,227.35 90.9504,227.324 91.8432,227.283 92.736,227.226 93.6288,227.152 94.5216,227.063 95.4144,226.958 96.3072,226.838 97.2,226.703 98.0928,226.555 98.9856,226.395 99.8784,226.224 100.771,226.043 101.664,225.854 102.557,225.658 103.45,225.456 104.342,225.251 105.235,225.042 106.128,224.831 107.021,224.619 107.914,224.405 108.806,224.191 109.699,223.976 110.592,223.759 111.485,223.54 112.378,223.317 113.27,223.089 114.163,222.856 115.056,222.613 115.949,222.361 116.842,222.097 117.734,221.819 118.627,221.526 119.52,221.214 120.413,220.884 121.306,220.533 122.198,220.161 123.091,219.766 123.984,219.349 124.877,218.91 125.77,218.449 126.662,217.969 127.555,217.469 128.448,216.954 129.341,216.424 130.234,215.885 131.126,215.339 132.019,214.791 132.912,214.245 133.805,213.706 134.698,213.178 135.59,212.667 136.483,212.176 137.376,211.711 138.269,211.275 139.162,210.873 140.054,210.507 140.947,210.179 141.84,209.891 142.733,209.644 143.626,209.439 144.518,209.273 145.411,209.148 146.304,209.059 147.197,209.006 148.09,208.984 148.982,208.992 149.875,209.026 150.768,209.083 151.661,209.159 152.554,209.253 153.446,209.36 154.339,209.48 155.232,209.609 156.125,209.747 157.018,209.893 157.91,210.046 158.803,210.205 159.696,210.371 160.589,210.544 161.482,210.724 162.374,210.911 163.267,211.105 164.16,211.307 165.053,211.515 165.946,211.729 166.838,211.947 167.731,212.166 168.624,212.385 169.517,212.598 170.41,212.802 171.302,212.991 172.195,213.159 173.088,213.299 173.981,213.404 174.874,213.466 175.766,213.477 176.659,213.428 177.552,213.309 178.445,213.112 179.338,212.828 180.23,212.446 181.123,211.959 182.016,211.358 182.909,210.633 183.802,209.778 184.694,208.786 185.587,207.65 186.48,206.367 187.373,204.934 188.266,203.352 189.158,201.622 190.051,199.754 190.944,197.76 191.837,195.657 192.73,193.472 193.622,191.241 194.515,189.008 195.408,186.829 196.301,184.772 197.194,182.915 198.086,181.346 198.979,180.159 199.872,179.449 200.765,179.308 201.658,179.812 202.55,181.018 203.443,182.957 204.336,185.625 205.229,188.984 206.122,192.965 207.014,197.471 207.907,202.387 208.8,207.589 209.693,212.955 210.586,218.37 211.478,223.734 212.371,228.963 213.264,233.992 214.157,238.776 215.05,243.283 215.942,247.495 216.835,251.408 217.728,255.022 218.621,258.347 219.514,261.395 220.406,264.181 221.299,266.723 222.192,269.038 223.085,271.143 223.978,273.056 224.87,274.793 225.763,276.369 226.656,277.799 227.549,279.096 228.442,280.272 229.334,281.338 230.227,282.305 231.12,283.182 232.013,283.978 232.906,284.699 233.798,285.355 234.691,285.95 235.584,286.491 236.477,286.983 237.37,287.432 238.262,287.842 239.155,288.216 240.048,288.56 240.941,288.876 241.834,289.167 242.726,289.436 243.619,289.687 244.512,289.921 245.405,290.14 246.298,290.346 247.19,290.541 248.083,290.727 248.976,290.903 249.869,291.073 250.762,291.235 251.654,291.392 252.547,291.543 253.44,291.688 254.333,291.829 255.226,291.965 256.118,292.097 257.011,292.223 257.904,292.345 258.797,292.462 259.69,292.573 260.582,292.68 261.475,292.781 262.368,292.877 263.261,292.968 264.154,293.052 265.046,293.132 265.939,293.206 266.832,293.274 267.725,293.337 268.618,293.395 269.51,293.449 270.403,293.498 271.296,293.543 272.189,293.584 273.082,293.622 273.974,293.658 274.867,293.69 275.76,293.722 276.653,293.751 277.546,293.78 278.438,293.808 279.331,293.836 280.224,293.864 281.117,293.893 282.01,293.922 282.902,293.953 283.795,293.984 284.688,294.016 285.581,294.049 286.474,294.083 287.366,294.118 288.259,294.154 289.152,294.19 290.045,294.226 290.938,294.262 291.83,294.298 292.723,294.333 293.616,294.366 294.509,294.399 295.402,294.43 296.294,294.459 297.187,294.486 298.08,294.51 298.973,294.533 299.866,294.553 300.758,294.57 301.651,294.585 302.544,294.598 303.437,294.609 304.33,294.618 305.222,294.625 306.115,294.63 307.008,294.634 307.901,294.638 308.794,294.641 309.686,294.644 310.579,294.647 311.472,294.65 312.365,294.655 313.258,294.66 314.15,294.666 315.043,294.674 315.936,294.683 316.829,294.694 317.722,294.707 318.614,294.721 319.507,294.736 320.4,294.752 321.293,294.77 322.186,294.788 323.078,294.807 323.971,294.826 324.864,294.845 325.757,294.863 326.65,294.881 327.542,294.897 328.435,294.912 329.328,294.926 330.221,294.938 331.114,294.948 332.006,294.956 332.899,294.961 333.792,294.965 334.685,294.966 335.578,294.966 336.47,294.963 337.363,294.959 338.256,294.954 339.149,294.948 340.042,294.94 340.934,294.933 341.827,294.925 342.72,294.918 343.613,294.912 344.506,294.906 345.398,294.902 346.291,294.899 347.184,294.898 348.077,294.898 348.97,294.901 349.862,294.905 350.755,294.912 351.648,294.92 352.541,294.929 353.434,294.94 354.326,294.952 355.219,294.965 356.112,294.978 357.005,294.991 357.898,295.003 358.79,295.015 359.683,295.026 360.576,295.035 361.469,295.043 362.362,295.048 363.254,295.051 364.147,295.052 365.04,295.051 365.933,295.046 366.826,295.04 367.718,295.031 368.611,295.02 369.504,295.007 370.397,294.993 371.29,294.977 372.182,294.961 373.075,294.944 373.968,294.928 374.861,294.912 375.754,294.897 376.646,294.883 377.539,294.871 378.432,294.861 379.325,294.854 380.218,294.849 381.11,294.846 382.003,294.846 382.896,294.849 383.789,294.854 384.682,294.861 385.574,294.87 386.467,294.88 387.36,294.891 388.253,294.903 389.146,294.914 390.038,294.925 390.931,294.935 391.824,294.943 392.717,294.949 393.61,294.953 394.502,294.954 395.395,294.952 396.288,294.946 397.181,294.937 398.074,294.925 398.966,294.909 399.859,294.89 400.752,294.868 401.645,294.844 402.538,294.818 403.43,294.791 404.323,294.762 405.216,294.734 406.109,294.706 407.002,294.679 407.894,294.654 408.787,294.631 409.68,294.611 410.573,294.595 411.466,294.582 412.358,294.573 413.251,294.567 414.144,294.566 415.037,294.568 415.93,294.574 416.822,294.583 417.715,294.595 418.608,294.608 419.501,294.622 420.394,294.637 421.286,294.652 422.179,294.665 423.072,294.677 423.965,294.685 424.858,294.69 425.75,294.69 426.643,294.686 427.536,294.677 428.429,294.663 429.322,294.642 430.214,294.617 431.107,294.586 432,294.55 432.893,294.51 433.786,294.467 434.678,294.42 435.571,294.372 436.464,294.323 437.357,294.274 438.25,294.227 439.142,294.182 440.035,294.14 440.928,294.103 441.821,294.072 442.714,294.046 443.606,294.027 444.499,294.014 445.392,294.008 446.285,294.009 447.178,294.017 448.07,294.029 448.963,294.047 449.856,294.069 450.749,294.093 451.642,294.118 452.534,294.144 453.427,294.168 454.32,294.189 455.213,294.205 456.106,294.216 456.998,294.219 457.891,294.214 458.784,294.2 459.677,294.177 460.57,294.143 461.462,294.099 462.355,294.044 463.248,293.98 464.141,293.908 465.034,293.828 465.926,293.743 466.819,293.653 467.712,293.56 468.605,293.468 469.498,293.377 470.39,293.29 471.283,293.209 472.176,293.136 473.069,293.073 473.962,293.021 474.854,292.981 475.747,292.955 476.64,292.942 477.533,292.942 478.426,292.955 479.318,292.98 480.211,293.016 481.104,293.06 481.997,293.11 482.89,293.164 483.782,293.219 484.675,293.271 485.568,293.319 486.461,293.359 487.354,293.387 488.246,293.401 489.139,293.399 490.032,293.379 490.925,293.338 491.818,293.276 492.71,293.193 493.603,293.087 494.496,292.961 495.389,292.815 496.282,292.652 497.174,292.475 498.067,292.288 498.96,292.094 499.853,291.898 500.746,291.704 501.638,291.518 502.531,291.345 503.424,291.189 504.317,291.053 505.21,290.943 506.102,290.86 506.995,290.807 507.888,290.785 508.781,290.794 509.674,290.834 510.566,290.901 511.459,290.994 512.352,291.108 513.245,291.238 514.138,291.378 515.03,291.523 515.923,291.665 516.816,291.797 517.709,291.911 518.602,292.001 519.494,292.059 520.387,292.078 521.28,292.053"/>
<text fill="#000000" x="298.08" y="22.4" font-size="11" text-anchor="middle" dy="0" font-family="Helvetica" font-weight="bold">Impedance Z1</text>
</g>
<clipPath id="cp00576432">
  <polygon points="0,432 576,432 576,0 0,0"/>
</clipPath>
<g clip-path="url(#cp00576432)">
<polygon fill="#ffffff" shape-rendering="crispEdges" points="463.981,83.5002 518.534,83.5002 463.981,35.1465"/>
<polygon fill="#ffffff" shape-rendering="crispEdges" points="518.534,83.5002 518.534,35.1465 463.981,35.1465"/>
<polyline fill="none" stroke="#262626" stroke-width="0.5" stroke-linecap="butt" stroke-linejoin="miter" stroke-dasharray="16,0" points="463.981,83.5002 518.534,83.5002"/>
<polyline fill="none" stroke="#262626" stroke-width="0.5" stroke-linecap="butt" stroke-linejoin="miter" stroke-dasharray="16,0" points="463.981,35.1465 518.534,35.1465"/>
<polyline fill="none" stroke="#262626" stroke-width="0.5" stroke-linecap="butt" stroke-linejoin="miter" stroke-dasharray="16,0" points="463.981,83.5002 463.981,35.1465"/>
<polyline fill="none" stroke="#262626" stroke-width="0.5" stroke-linecap="butt" stroke-linejoin="miter" stroke-dasharray="16,0" points="518.534,83.5002 518.534,35.1465"/>
<text fill="#000000" x="490.073" y="43.2054" font-size="10" text-anchor="start" dy="5" font-family="Helvetica">abs</text>
<text fill="#000000" x="490.073" y="59.3233" font-size="10" text-anchor="start" dy="5" font-family="Helvetica">imag</text>
<text fill="#000000" x="490.073" y="75.4412" font-size="10" text-anchor="start" dy="5" font-family="Helvetica">real</text>
<polyline fill="none" stroke="#000000" stroke-width="2" stroke-linecap="butt" stroke-linejoin="miter" points="466.728,43.2054 487.326,43.2054"/>
<polyline fill="none" stroke="#ff00ff" stroke-width="2" stroke-linecap="butt" stroke-linejoin="miter" stroke-dasharray="8,8,8,8" points="466.728,59.3233 487.326,59.3233"/>
<polyline fill="none" stroke="#00ff00" stroke-width="2" stroke-linecap="butt" stroke-linejoin="miter" stroke-dasharray="8,8,8,8" points="466.728,75.4412 487.326,75.4412"/>
</g>
</g>
</svg>
