<?xml version="1.0" encoding="UTF-8" standalone="no"?>
<svg xmlns="http://www.w3.org/2000/svg"
     xmlns:xlink="http://www.w3.org/1999/xlink"
     width="576px" height="432px" viewBox="0 0 576 432">
<title>gl2ps_renderer figure</title>
<desc>
Creator: GL2PS 1.4.0, (C) 1999-2017 C. Geuzaine
For: Octave
CreationDate: Sun Jul 19 02:19:48 2020
</desc>
<defs>
</defs>
<polygon fill="#ffffff" points="0,0 576,0 576,432 0,432"/>
<g>
<polygon fill="#ffffff" points="0,432 576,432 576,0 0,0" shape-rendering="crispEdges"/>
<clipPath id="cp00576432">
  <polygon points="0,432 576,432 576,0 0,0"/>
</clipPath>
<g clip-path="url(#cp00576432)">
<polyline fill="none" stroke="#d8d8d8" stroke-width="0.5" stroke-linecap="butt" stroke-linejoin="miter" points="315.684,208.44 315.584,206.569 315.286,204.719 314.793,202.911 314.111,201.166 313.247,199.503 312.211,197.942 311.015,196.499 309.672,195.192 308.199,194.035 306.61,193.041 304.925,192.221 303.162,191.586 301.342,191.141 299.485,190.892 297.611,190.842 295.743,190.992 293.902,191.339 292.108,191.88 290.382,192.609 288.742,193.516 287.209,194.594 285.799,195.827 284.528,197.204 283.41,198.709 282.459,200.323 281.685,202.029 281.096,203.808 280.7,205.64 280.501,207.503 280.501,209.377 280.7,211.24 281.096,213.072 281.685,214.851 282.459,216.557 283.41,218.171 284.528,219.676 285.799,221.053 287.209,222.286 288.742,223.364 290.382,224.271 292.108,225 293.902,225.541 295.743,225.888 297.611,226.038 299.485,225.988 301.342,225.739 303.162,225.294 304.925,224.659 306.61,223.839 308.199,222.845 309.672,221.688 311.015,220.381 312.211,218.938 313.247,217.377 314.111,215.714 314.793,213.969 315.286,212.161 315.584,210.311 315.684,208.44"/>
<polyline fill="none" stroke="#d8d8d8" stroke-width="0.5" stroke-linecap="butt" stroke-linejoin="miter" points="333.288,208.44 333.089,204.698 332.492,200.998 331.506,197.382 330.142,193.892 328.414,190.566 326.342,187.443 323.95,184.558 321.265,181.943 318.317,179.629 315.14,177.641 311.77,176.002 308.244,174.731 304.604,173.842 300.889,173.344 297.143,173.244 293.407,173.543 289.724,174.238 286.136,175.32 282.683,176.777 279.405,178.593 276.338,180.747 273.518,183.215 270.976,185.969 268.741,188.977 266.838,192.206 265.29,195.619 264.112,199.177 263.32,202.84 262.922,206.566 262.922,210.314 263.32,214.04 264.112,217.703 265.29,221.261 266.838,224.674 268.741,227.903 270.976,230.911 273.518,233.665 276.338,236.133 279.405,238.287 282.683,240.103 286.136,241.56 289.724,242.642 293.407,243.337 297.143,243.636 300.889,243.536 304.604,243.038 308.244,242.149 311.77,240.878 315.14,239.239 318.317,237.251 321.265,234.937 323.95,232.322 326.342,229.437 328.414,226.314 330.142,222.988 331.506,219.498 332.492,215.882 333.089,212.182 333.288,208.44"/>
<polyline fill="none" stroke="#d8d8d8" stroke-width="0.5" stroke-linecap="butt" stroke-linejoin="miter" points="350.892,208.44 350.593,202.826 349.699,197.276 348.22,191.853 346.172,186.617 343.58,181.629 340.473,176.945 336.885,172.617 332.857,168.695 328.436,165.224 323.67,162.242 318.615,159.784 313.326,157.877 307.865,156.542 302.294,155.796 296.674,155.647 291.07,156.095 285.546,157.137 280.164,158.76 274.985,160.946 270.067,163.669 265.467,166.901 261.237,170.602 257.424,174.733 254.071,179.246 251.217,184.089 248.894,189.208 247.129,194.545 245.94,200.04 245.343,205.629 245.343,211.251 245.94,216.84 247.129,222.335 248.894,227.672 251.217,232.791 254.071,237.634 257.424,242.147 261.237,246.278 265.467,249.979 270.067,253.211 274.985,255.934 280.164,258.12 285.546,259.743 291.07,260.785 296.674,261.233 302.294,261.084 307.865,260.338 313.326,259.003 318.615,257.096 323.67,254.638 328.436,251.656 332.857,248.185 336.885,244.263 340.473,239.935 343.58,235.251 346.172,230.263 348.22,225.027 349.699,219.604 350.593,214.054 350.892,208.44"/>
<polyline fill="none" stroke="#d8d8d8" stroke-width="0.5" stroke-linecap="butt" stroke-linejoin="miter" points="368.496,208.44 368.097,200.955 366.905,193.555 364.933,186.324 362.203,179.343 358.747,172.692 354.604,166.446 349.82,160.676 344.45,155.447 338.554,150.818 332.2,146.843 325.459,143.565 318.409,141.022 311.127,139.243 303.698,138.249 296.205,138.049 288.734,138.647 281.368,140.036 274.192,142.2 267.287,145.114 260.73,148.746 254.596,153.054 248.956,157.99 243.871,163.497 239.401,169.514 235.596,175.972 232.499,182.797 230.145,189.913 228.561,197.239 227.764,204.692 227.764,212.188 228.561,219.641 230.145,226.967 232.499,234.083 235.596,240.908 239.401,247.366 243.871,253.383 248.956,258.89 254.596,263.826 260.73,268.134 267.287,271.766 274.192,274.68 281.368,276.844 288.734,278.233 296.205,278.831 303.698,278.632 311.127,277.637 318.409,275.858 325.459,273.315 332.2,270.037 338.554,266.062 344.45,261.433 349.82,256.204 354.604,250.434 358.747,244.188 362.203,237.537 364.933,230.556 366.905,223.325 368.097,215.925 368.496,208.44"/>
<polyline fill="none" stroke="#d8d8d8" stroke-width="0.5" stroke-linecap="butt" stroke-linejoin="miter" points="386.1,208.44 385.601,199.084 384.111,189.834 381.646,180.795 378.234,172.069 373.914,163.755 368.735,155.948 362.755,148.735 356.042,142.199 348.673,136.413 340.73,131.443 332.304,127.346 323.491,124.168 314.389,121.944 305.103,120.701 295.737,120.451 286.397,121.199 277.19,122.935 268.22,125.64 259.588,129.283 251.392,133.822 243.725,139.208 236.674,145.378 230.319,152.262 224.732,159.783 219.975,167.855 216.104,176.387 213.161,185.282 211.181,194.439 210.185,203.755 210.185,213.125 211.181,222.441 213.161,231.598 216.104,240.493 219.975,249.025 224.732,257.097 230.319,264.618 236.674,271.503 243.725,277.672 251.392,283.058 259.588,287.597 268.22,291.24 277.19,293.945 286.397,295.681 295.737,296.429 305.103,296.179 314.389,294.936 323.491,292.712 332.304,289.534 340.73,285.437 348.673,280.467 356.042,274.681 362.755,268.145 368.735,260.932 373.914,253.125 378.234,244.811 381.646,236.085 384.111,227.046 385.601,217.796 386.1,208.44"/>
<polyline fill="none" stroke="#d8d8d8" stroke-width="0.5" stroke-linecap="butt" stroke-linejoin="miter" points="403.704,208.44 403.106,197.213 401.317,186.113 398.359,175.266 394.265,164.795 389.081,154.818 382.866,145.449 375.69,136.794 367.635,128.95 358.791,122.008 349.26,116.044 339.149,111.127 328.573,107.313 317.651,104.645 306.507,103.153 295.268,102.853 284.061,103.75 273.013,105.834 262.248,109.079 251.89,113.451 242.055,118.899 232.855,125.361 224.393,132.765 216.767,141.026 210.062,150.051 204.354,159.738 199.709,169.976 196.177,180.65 193.801,191.639 192.606,202.818 192.606,214.062 193.801,225.241 196.177,236.23 199.709,246.904 204.354,257.142 210.062,266.829 216.767,275.854 224.393,284.115 232.855,291.519 242.055,297.981 251.89,303.429 262.248,307.801 273.013,311.046 284.061,313.13 295.268,314.027 306.507,313.727 317.651,312.235 328.573,309.567 339.149,305.753 349.26,300.836 358.791,294.872 367.635,287.93 375.69,280.086 382.866,271.431 389.081,262.062 394.265,252.085 398.359,241.614 401.317,230.767 403.106,219.667 403.704,208.44"/>
<polyline fill="none" stroke="#d8d8d8" stroke-width="0.5" stroke-linecap="butt" stroke-linejoin="miter" points="421.308,208.44 420.61,195.342 418.523,182.392 415.072,169.737 410.296,157.521 404.248,145.881 396.997,134.951 388.625,124.853 379.227,115.702 368.91,107.602 357.79,100.645 345.994,94.9086 333.655,90.4588 320.913,87.3458 307.912,85.6049 294.8,85.2557 281.724,86.3022 268.835,88.7327 256.276,92.5194 244.191,97.6196 232.717,103.975 221.984,111.515 212.112,120.152 203.215,129.79 195.392,140.32 188.733,151.62 183.313,163.565 179.194,176.018 176.421,188.839 175.027,201.882 175.027,214.998 176.421,228.041 179.194,240.862 183.313,253.315 188.733,265.26 195.392,276.56 203.215,287.09 212.112,296.728 221.984,305.365 232.717,312.905 244.191,319.26 256.276,324.361 268.835,328.147 281.724,330.578 294.8,331.624 307.912,331.275 320.913,329.534 333.655,326.421 345.994,321.971 357.79,316.235 368.91,309.278 379.227,301.178 388.625,292.027 396.997,281.929 404.248,270.999 410.296,259.359 415.072,247.143 418.523,234.488 420.61,221.538 421.308,208.44"/>
<polyline fill="none" stroke="#d8d8d8" stroke-width="0.5" stroke-linecap="butt" stroke-linejoin="miter" points="438.912,208.44 438.114,193.47 435.73,178.671 431.786,164.208 426.327,150.247 419.414,136.944 411.127,124.452 401.56,112.912 390.819,102.454 379.028,93.1968 366.32,85.2454 352.839,78.6898 338.737,73.6044 324.175,70.0466 309.316,68.057 294.331,67.6579 279.388,68.854 264.657,71.6316 250.304,75.9593 236.493,81.7881 223.38,89.0519 211.113,97.6684 199.831,107.54 189.663,118.555 180.723,130.588 173.112,143.503 166.918,157.155 162.21,171.387 159.041,186.039 157.448,200.945 157.448,215.935 159.041,230.841 162.21,245.493 166.918,259.725 173.112,273.377 180.723,286.292 189.663,298.325 199.831,309.34 211.113,319.212 223.38,327.828 236.493,335.092 250.304,340.921 264.657,345.248 279.388,348.026 294.331,349.222 309.316,348.823 324.175,346.833 338.737,343.276 352.839,338.19 366.32,331.635 379.028,323.683 390.819,314.426 401.56,303.968 411.127,292.428 419.414,279.936 426.327,266.633 431.786,252.672 435.73,238.209 438.114,223.41 438.912,208.44"/>
<polyline fill="none" stroke="#d8d8d8" stroke-width="0.5" stroke-linecap="butt" stroke-linejoin="miter" points="456.516,208.44 455.618,191.599 452.936,174.949 448.499,158.679 442.357,142.972 434.581,128.007 425.258,113.954 414.495,100.971 402.412,89.2057 389.147,78.7914 374.85,69.8461 359.684,62.471 343.819,56.7499 327.436,52.7475 310.721,50.5091 293.862,50.0602 277.051,51.4057 260.479,54.5305 244.332,59.3992 228.795,65.9566 214.042,74.1284 200.242,83.8219 187.55,94.9275 176.111,107.319 166.053,120.857 157.491,135.386 150.523,150.744 145.226,166.755 141.661,183.239 139.869,200.008 139.869,216.872 141.661,233.641 145.226,250.125 150.523,266.136 157.491,281.494 166.053,296.023 176.111,309.561 187.55,321.953 200.242,333.058 214.042,342.752 228.795,350.923 244.332,357.481 260.479,362.349 277.051,365.474 293.862,366.82 310.721,366.371 327.436,364.133 343.819,360.13 359.684,354.409 374.85,347.034 389.147,338.089 402.412,327.674 414.495,315.909 425.258,302.926 434.581,288.873 442.357,273.908 448.499,258.201 452.936,241.931 455.618,225.281 456.516,208.44"/>
<polyline fill="none" stroke="#adadad" stroke-width="0.5" stroke-linecap="butt" stroke-linejoin="miter" points="474.12,208.44 473.123,189.728 470.142,171.228 465.212,153.15 458.388,135.698 449.748,119.071 439.389,103.456 427.43,89.03 414.004,75.9575 399.266,64.386 383.38,54.4467 366.529,46.2523 348.901,39.8954 330.698,35.4483 312.126,32.9612 293.394,32.4624 274.715,33.9575 256.301,37.4295 238.36,42.8391 221.096,50.1251 204.705,59.2048 189.371,69.9755 175.269,82.315 162.558,96.0835 151.383,111.125 141.871,127.269 134.128,144.333 128.242,162.123 124.281,180.438 122.289,199.071 122.289,217.809 124.281,236.442 128.242,254.757 134.128,272.547 141.871,289.611 151.383,305.755 162.558,320.797 175.269,334.565 189.371,346.905 204.705,357.675 221.096,366.755 238.36,374.041 256.301,379.451 274.715,382.923 293.394,384.418 312.126,383.919 330.698,381.432 348.901,376.985 366.529,370.628 383.38,362.433 399.266,352.494 414.004,340.923 427.43,327.85 439.389,313.424 449.748,297.81 458.388,281.182 465.212,263.73 470.142,245.652 473.123,227.152 474.12,208.44 122.04,208.44"/>
<polyline fill="none" stroke="#d8d8d8" stroke-width="0.5" stroke-linecap="butt" stroke-linejoin="miter" points="450.535,120.42 145.625,296.46"/>
<polyline fill="none" stroke="#d8d8d8" stroke-width="0.5" stroke-linecap="butt" stroke-linejoin="miter" points="386.1,55.9849 210.06,360.895"/>
<polyline fill="none" stroke="#adadad" stroke-width="0.5" stroke-linecap="butt" stroke-linejoin="miter" points="298.08,32.4 298.08,384.48"/>
<polyline fill="none" stroke="#d8d8d8" stroke-width="0.5" stroke-linecap="butt" stroke-linejoin="miter" points="210.06,55.9849 386.1,360.895"/>
<polyline fill="none" stroke="#d8d8d8" stroke-width="0.5" stroke-linecap="butt" stroke-linejoin="miter" points="145.625,120.42 450.535,296.46"/>
<text fill="#000000" x="306.882" y="199.638" font-size="10" text-anchor="start" dy="5" font-family="Helvetica">0</text>
<text fill="#000000" x="482.922" y="199.638" font-size="10" text-anchor="start" dy="5" font-family="Helvetica">1</text>
<polyline fill="none" stroke="#ff00ff" stroke-width="2" stroke-linecap="butt" stroke-linejoin="miter" points="168.016,208.44 167.358,213.005 166.774,217.622 166.261,222.295 165.826,227.027 165.479,231.821 165.22,236.68 165.062,241.605 165.019,246.595 165.096,251.649 165.298,256.769 165.653,261.944 166.16,267.174 166.835,272.452 167.696,277.767 168.749,283.109 170.007,288.469 171.481,293.832 173.183,299.183 175.12,304.507 177.299,309.787 179.725,315.008 182.402,320.149 185.331,325.195 188.512,330.128 191.945,334.927 195.622,339.58 199.542,344.065 203.694,348.374 208.071,352.485 212.664,356.385 217.46,360.065 222.446,363.512 227.61,366.717 232.939,369.67 238.417,372.363 244.03,374.79 249.763,376.94 255.599,378.82 261.525,380.42 267.524,381.734 273.58,382.766 279.679,383.516 285.805,383.985 291.944,384.165 298.08,384.07 304.2,383.699 310.29,383.057 316.338,382.15 322.328,380.976 328.251,379.551 334.094,377.874 339.847,375.959 345.498,373.807 351.038,371.429 356.46,368.839 361.753,366.036 366.911,363.036 371.921,359.836 376.782,356.457 381.484,352.9 386.022,349.177 390.386,345.289 394.573,341.251 398.576,337.069 402.385,332.746 406.001,328.298 409.411,323.727 412.614,319.045 415.601,314.257 418.372,309.377 420.919,304.412 423.243,299.376 425.333,294.273 427.191,289.117 428.819,283.922 430.213,278.697 431.381,273.455 432.316,268.206 433.024,262.961 433.516,257.735 433.788,252.534 433.862,247.375 433.732,242.262 433.412,237.206 432.903,232.213 432.234,227.294 431.402,222.453 430.414,217.694 429.294,213.022 428.036,208.44 426.661,203.95 425.17,199.553 423.573,195.25 421.884,191.04 420.108,186.923 418.242,182.899 416.301,178.964 414.282,175.12 412.188,171.364 410.035,167.692 407.809,164.107 405.525,160.602 403.182,157.178 400.773,153.837 398.312,150.571 395.797,147.38 393.232,144.259 390.61,141.213 387.942,138.232 385.225,135.317 382.461,132.463 379.651,129.667 376.798,126.926 373.892,124.242 370.942,121.606 367.943,119.019 364.894,116.479 361.787,113.99 358.625,111.547 355.4,109.159 352.113,106.82 348.758,104.535 345.329,102.317 341.828,100.16 338.246,98.0841 334.586,96.0868 330.844,94.1779 327.022,92.3617 323.114,90.6641 319.127,89.0752 315.06,87.6201 310.918,86.2945 306.703,85.1201 302.422,84.0998 298.08,83.2473 293.684,82.566 289.243,82.0677 284.766,81.7644 280.262,81.6564 275.74,81.7441 271.213,82.0401 266.692,82.5489 262.19,83.2775 257.714,84.2076 253.284,85.3639 248.905,86.7284 244.593,88.3072 240.358,90.0931 236.213,92.0844 232.164,94.2697 228.222,96.6436 224.397,99.1998 220.695,101.929 217.124,104.821 213.686,107.864 210.387,111.047 207.23,114.362 204.217,117.797 201.346,121.34 198.618,124.982 196.032,128.711 193.583,132.518 191.269,136.395 189.092,140.337 187.038,144.33 185.106,148.37 183.289,152.453 181.588,156.574 179.99,160.728 178.489,164.912 177.09,169.128 175.775,173.369 174.546,177.639 173.399,181.938 172.326,186.266 171.327,190.626 170.397,195.02 169.537,199.451 168.74,203.923 168.016,208.44"/>
<polyline fill="none" stroke="#00ff00" stroke-width="2" stroke-linecap="butt" stroke-linejoin="miter" points="217.929,208.44 217.189,211.265 216.631,214.136 216.22,217.044 215.947,219.983 215.793,222.949 215.723,225.946 215.714,228.976 215.729,232.054 215.763,235.187 215.775,238.397 215.775,241.693 215.751,245.095 215.689,248.625 215.64,252.274 215.59,256.065 215.59,259.985 215.661,264.032 215.833,268.196 216.157,272.445 216.657,276.762 217.367,281.114 218.31,285.473 219.506,289.806 220.967,294.082 222.703,298.271 224.704,302.357 226.967,306.319 229.479,310.146 232.226,313.829 235.193,317.363 238.363,320.751 241.719,323.996 245.25,327.098 248.944,330.057 252.792,332.867 256.79,335.517 260.931,337.994 265.21,340.275 269.62,342.333 274.153,344.135 278.796,345.653 283.533,346.845 288.343,347.69 293.201,348.159 298.08,348.231 302.95,347.894 307.779,347.147 312.538,345.996 317.196,344.46 321.73,342.564 326.117,340.345 330.342,337.837 334.399,335.099 338.284,332.174 342.001,329.112 345.563,325.964 348.985,322.774 352.283,319.573 355.48,316.394 358.595,313.255 361.641,310.159 364.632,307.108 367.572,304.087 370.453,301.074 373.272,298.05 376.005,294.985 378.628,291.85 381.111,288.622 383.419,285.28 385.513,281.805 387.354,278.189 388.905,274.428 390.132,270.53 391,266.503 391.481,262.365 391.551,258.14 391.199,253.857 390.402,249.544 389.168,245.242 387.479,240.979 385.366,236.801 382.827,232.741 379.904,228.841 376.596,225.129 372.951,221.642 369.004,218.408 364.817,215.454 360.406,212.798 355.881,210.458 351.284,208.44 346.697,206.742 342.225,205.353 337.982,204.246 334.072,203.382 330.683,202.691 327.922,202.097 325.931,201.496 324.765,200.788 324.407,199.886 324.728,198.741 325.534,197.348 326.614,195.736 327.805,193.942 328.954,192.024 329.986,190.019 330.822,187.98 331.45,185.931 331.853,183.903 332.05,181.9 332.058,179.929 331.904,177.984 331.617,176.053 331.226,174.117 330.74,172.168 330.166,170.202 329.502,168.222 328.737,166.244 327.844,164.313 326.809,162.463 325.615,160.748 324.244,159.232 322.689,157.984 320.954,157.063 319.054,156.529 317.008,156.435 314.855,156.812 312.634,157.686 310.391,159.064 308.177,160.939 306.043,163.278 304.038,166.048 302.207,169.175 300.588,172.57 299.208,176.141 298.08,179.73 297.198,183.169 296.525,186.208 295.992,188.577 295.483,189.965 294.862,190.189 294.018,189.331 292.9,187.664 291.512,185.536 289.887,183.226 288.069,180.935 286.105,178.802 284.038,176.9 281.907,175.28 279.75,173.967 277.598,172.964 275.473,172.261 273.393,171.84 271.367,171.673 269.394,171.723 267.471,171.961 265.584,172.35 263.72,172.859 261.856,173.459 259.971,174.126 258.045,174.846 256.058,175.608 253.997,176.411 251.856,177.261 249.628,178.164 247.322,179.135 244.954,180.192 242.536,181.35 240.094,182.623 237.65,184.025 235.234,185.566 232.876,187.254 230.599,189.09 228.433,191.075 226.405,193.205 224.526,195.47 222.825,197.864 221.308,200.371 219.988,202.979 218.86,205.674 217.929,208.44"/>
<polyline fill="none" stroke="#00ffff" stroke-width="2" stroke-linecap="butt" stroke-linejoin="miter" points="207.848,208.44 206.42,211.641 205.224,214.933 204.265,218.3 203.541,221.727 203.038,225.198 202.763,228.7 202.706,232.219 202.858,235.744 203.226,239.26 203.819,242.748 204.616,246.202 205.629,249.602 206.863,252.929 208.302,256.176 209.953,259.32 211.81,262.348 213.859,265.248 216.076,268.019 218.456,270.649 220.957,273.154 223.571,275.528 226.256,277.8 228.981,279.995 231.723,282.137 234.448,284.274 237.138,286.442 239.776,288.689 242.359,291.049 244.879,293.58 247.354,296.3 249.801,299.24 252.25,302.405 254.739,305.784 257.301,309.371 259.987,313.1 262.829,316.932 265.859,320.809 269.111,324.63 272.6,328.316 276.33,331.791 280.299,334.959 284.492,337.723 288.879,340.025 293.423,341.809 298.08,342.991 302.798,343.555 307.521,343.451 312.192,342.709 316.756,341.325 321.154,339.301 325.343,336.702 329.273,333.55 332.916,329.927 336.241,325.889 339.235,321.511 341.894,316.882 344.216,312.064 346.236,307.175 347.964,302.259 349.441,297.399 350.708,292.662 351.815,288.106 352.815,283.777 353.75,279.694 354.677,275.889 355.624,272.35 356.631,269.072 357.709,266.023 358.875,263.18 360.113,260.492 361.409,257.918 362.728,255.41 364.057,252.942 365.343,250.471 366.538,247.964 367.621,245.416 368.532,242.802 369.251,240.127 369.744,237.394 369.967,234.605 369.921,231.782 369.571,228.94 368.924,226.103 367.977,223.297 366.745,220.547 365.241,217.879 363.491,215.315 361.557,212.879 359.486,210.584 357.369,208.44 355.285,206.442 353.358,204.575 351.699,202.804 350.432,201.082 349.651,199.347 349.452,197.521 349.847,195.533 350.82,193.317 352.292,190.825 354.144,188.034 356.262,184.933 358.489,181.544 360.708,177.894 362.809,174.023 364.7,169.977 366.317,165.801 367.612,161.54 368.569,157.226 369.186,152.886 369.472,148.535 369.446,144.182 369.131,139.826 368.554,135.462 367.738,131.077 366.685,126.68 365.396,122.279 363.861,117.9 362.073,113.567 360.001,109.346 357.634,105.289 354.95,101.483 351.947,97.9973 348.632,94.8978 345.01,92.2845 341.124,90.1777 337.001,88.6538 332.693,87.7305 328.248,87.4439 323.734,87.7462 319.199,88.6688 314.705,90.1489 310.3,92.1749 306.035,94.6736 301.95,97.6066 298.08,100.894 294.451,104.521 291.085,108.401 287.996,112.496 285.194,116.752 282.689,121.155 280.482,125.649 278.572,130.199 276.952,134.757 275.63,139.346 274.579,143.872 273.803,148.352 273.273,152.723 272.966,156.949 272.852,160.994 272.895,164.818 273.038,168.364 273.216,171.577 273.352,174.405 273.36,176.8 273.155,178.735 272.646,180.193 271.77,181.195 270.482,181.789 268.772,182.051 266.661,182.076 264.184,181.957 261.389,181.782 258.335,181.632 255.076,181.568 251.67,181.645 248.163,181.899 244.603,182.358 241.031,183.04 237.485,183.958 234.001,185.117 230.606,186.516 227.335,188.154 224.208,190.022 221.248,192.109 218.469,194.402 215.9,196.89 213.538,199.554 211.408,202.379 209.51,205.347 207.839,208.44"/>
<text fill="#000000" x="298.08" y="22.4" font-size="11" text-anchor="middle" dy="0" font-family="Helvetica" font-weight="bold">normalized electrical far field @ f = 2.510000e+09 Hz</text>
</g>
<clipPath id="cp00576432">
  <polygon points="0,432 576,432 576,0 0,0"/>
</clipPath>
<g clip-path="url(#cp00576432)">
<polygon fill="#ffffff" shape-rendering="crispEdges" points="426.953,381.734 518.534,381.734 426.953,333.38"/>
<polygon fill="#ffffff" shape-rendering="crispEdges" points="518.534,381.734 518.534,333.38 426.953,333.38"/>
<polyline fill="none" stroke="#262626" stroke-width="0.5" stroke-linecap="butt" stroke-linejoin="miter" stroke-dasharray="16,0" points="426.953,381.734 518.534,381.734"/>
<polyline fill="none" stroke="#262626" stroke-width="0.5" stroke-linecap="butt" stroke-linejoin="miter" stroke-dasharray="16,0" points="426.953,333.38 518.534,333.38"/>
<polyline fill="none" stroke="#262626" stroke-width="0.5" stroke-linecap="butt" stroke-linejoin="miter" stroke-dasharray="16,0" points="426.953,381.734 426.953,333.38"/>
<polyline fill="none" stroke="#262626" stroke-width="0.5" stroke-linecap="butt" stroke-linejoin="miter" stroke-dasharray="16,0" points="518.534,381.734 518.534,333.38"/>
<text fill="#000000" x="453.044" y="341.439" font-size="10" text-anchor="start" dy="5" font-family="Helvetica">theta = 30.0</text>
<text fill="#000000" x="453.044" y="357.557" font-size="10" text-anchor="start" dy="5" font-family="Helvetica">theta = 60.0</text>
<text fill="#000000" x="453.044" y="373.675" font-size="10" text-anchor="start" dy="5" font-family="Helvetica">theta = 90.0</text>
<polyline fill="none" stroke="#ff00ff" stroke-width="2" stroke-linecap="butt" stroke-linejoin="miter" points="429.699,341.439 450.298,341.439"/>
<polyline fill="none" stroke="#00ff00" stroke-width="2" stroke-linecap="butt" stroke-linejoin="miter" points="429.699,357.557 450.298,357.557"/>
<polyline fill="none" stroke="#00ffff" stroke-width="2" stroke-linecap="butt" stroke-linejoin="miter" points="429.699,373.675 450.298,373.675"/>
</g>
</g>
</svg>
