<?xml version="1.0" encoding="UTF-8" standalone="no"?>
<svg xmlns="http://www.w3.org/2000/svg"
     xmlns:xlink="http://www.w3.org/1999/xlink"
     width="576px" height="432px" viewBox="0 0 576 432">
<title>gl2ps_renderer figure</title>
<desc>
Creator: GL2PS 1.4.0, (C) 1999-2017 C. Geuzaine
For: Octave
CreationDate: Sun Jul 19 02:19:40 2020
</desc>
<defs>
</defs>
<polygon fill="#ffffff" points="0,0 576,0 576,432 0,432"/>
<g>
<polygon fill="#ffffff" points="0,432 576,432 576,0 0,0" shape-rendering="crispEdges"/>
<clipPath id="cp00576432">
  <polygon points="0,432 576,432 576,0 0,0"/>
</clipPath>
<g clip-path="url(#cp00576432)">
<polyline fill="none" stroke="#d8d8d8" stroke-width="0.5" stroke-linecap="butt" stroke-linejoin="miter" points="315.684,208.44 315.584,206.569 315.286,204.719 314.793,202.911 314.111,201.166 313.247,199.503 312.211,197.942 311.015,196.499 309.672,195.192 308.199,194.035 306.61,193.041 304.925,192.221 303.162,191.586 301.342,191.141 299.485,190.892 297.611,190.842 295.743,190.992 293.902,191.339 292.108,191.88 290.382,192.609 288.742,193.516 287.209,194.594 285.799,195.827 284.528,197.204 283.41,198.709 282.459,200.323 281.685,202.029 281.096,203.808 280.7,205.64 280.501,207.503 280.501,209.377 280.7,211.24 281.096,213.072 281.685,214.851 282.459,216.557 283.41,218.171 284.528,219.676 285.799,221.053 287.209,222.286 288.742,223.364 290.382,224.271 292.108,225 293.902,225.541 295.743,225.888 297.611,226.038 299.485,225.988 301.342,225.739 303.162,225.294 304.925,224.659 306.61,223.839 308.199,222.845 309.672,221.688 311.015,220.381 312.211,218.938 313.247,217.377 314.111,215.714 314.793,213.969 315.286,212.161 315.584,210.311 315.684,208.44"/>
<polyline fill="none" stroke="#d8d8d8" stroke-width="0.5" stroke-linecap="butt" stroke-linejoin="miter" points="333.288,208.44 333.089,204.698 332.492,200.998 331.506,197.382 330.142,193.892 328.414,190.566 326.342,187.443 323.95,184.558 321.265,181.943 318.317,179.629 315.14,177.641 311.77,176.002 308.244,174.731 304.604,173.842 300.889,173.344 297.143,173.244 293.407,173.543 289.724,174.238 286.136,175.32 282.683,176.777 279.405,178.593 276.338,180.747 273.518,183.215 270.976,185.969 268.741,188.977 266.838,192.206 265.29,195.619 264.112,199.177 263.32,202.84 262.922,206.566 262.922,210.314 263.32,214.04 264.112,217.703 265.29,221.261 266.838,224.674 268.741,227.903 270.976,230.911 273.518,233.665 276.338,236.133 279.405,238.287 282.683,240.103 286.136,241.56 289.724,242.642 293.407,243.337 297.143,243.636 300.889,243.536 304.604,243.038 308.244,242.149 311.77,240.878 315.14,239.239 318.317,237.251 321.265,234.937 323.95,232.322 326.342,229.437 328.414,226.314 330.142,222.988 331.506,219.498 332.492,215.882 333.089,212.182 333.288,208.44"/>
<polyline fill="none" stroke="#d8d8d8" stroke-width="0.5" stroke-linecap="butt" stroke-linejoin="miter" points="350.892,208.44 350.593,202.826 349.699,197.276 348.22,191.853 346.172,186.617 343.58,181.629 340.473,176.945 336.885,172.617 332.857,168.695 328.436,165.224 323.67,162.242 318.615,159.784 313.326,157.877 307.865,156.542 302.294,155.796 296.674,155.647 291.07,156.095 285.546,157.137 280.164,158.76 274.985,160.946 270.067,163.669 265.467,166.901 261.237,170.602 257.424,174.733 254.071,179.246 251.217,184.089 248.894,189.208 247.129,194.545 245.94,200.04 245.343,205.629 245.343,211.251 245.94,216.84 247.129,222.335 248.894,227.672 251.217,232.791 254.071,237.634 257.424,242.147 261.237,246.278 265.467,249.979 270.067,253.211 274.985,255.934 280.164,258.12 285.546,259.743 291.07,260.785 296.674,261.233 302.294,261.084 307.865,260.338 313.326,259.003 318.615,257.096 323.67,254.638 328.436,251.656 332.857,248.185 336.885,244.263 340.473,239.935 343.58,235.251 346.172,230.263 348.22,225.027 349.699,219.604 350.593,214.054 350.892,208.44"/>
<polyline fill="none" stroke="#d8d8d8" stroke-width="0.5" stroke-linecap="butt" stroke-linejoin="miter" points="368.496,208.44 368.097,200.955 366.905,193.555 364.933,186.324 362.203,179.343 358.747,172.692 354.604,166.446 349.82,160.676 344.45,155.447 338.554,150.818 332.2,146.843 325.459,143.565 318.409,141.022 311.127,139.243 303.698,138.249 296.205,138.049 288.734,138.647 281.368,140.036 274.192,142.2 267.287,145.114 260.73,148.746 254.596,153.054 248.956,157.99 243.871,163.497 239.401,169.514 235.596,175.972 232.499,182.797 230.145,189.913 228.561,197.239 227.764,204.692 227.764,212.188 228.561,219.641 230.145,226.967 232.499,234.083 235.596,240.908 239.401,247.366 243.871,253.383 248.956,258.89 254.596,263.826 260.73,268.134 267.287,271.766 274.192,274.68 281.368,276.844 288.734,278.233 296.205,278.831 303.698,278.632 311.127,277.637 318.409,275.858 325.459,273.315 332.2,270.037 338.554,266.062 344.45,261.433 349.82,256.204 354.604,250.434 358.747,244.188 362.203,237.537 364.933,230.556 366.905,223.325 368.097,215.925 368.496,208.44"/>
<polyline fill="none" stroke="#d8d8d8" stroke-width="0.5" stroke-linecap="butt" stroke-linejoin="miter" points="386.1,208.44 385.601,199.084 384.111,189.834 381.646,180.795 378.234,172.069 373.914,163.755 368.735,155.948 362.755,148.735 356.042,142.199 348.673,136.413 340.73,131.443 332.304,127.346 323.491,124.168 314.389,121.944 305.103,120.701 295.737,120.451 286.397,121.199 277.19,122.935 268.22,125.64 259.588,129.283 251.392,133.822 243.725,139.208 236.674,145.378 230.319,152.262 224.732,159.783 219.975,167.855 216.104,176.387 213.161,185.282 211.181,194.439 210.185,203.755 210.185,213.125 211.181,222.441 213.161,231.598 216.104,240.493 219.975,249.025 224.732,257.097 230.319,264.618 236.674,271.503 243.725,277.672 251.392,283.058 259.588,287.597 268.22,291.24 277.19,293.945 286.397,295.681 295.737,296.429 305.103,296.179 314.389,294.936 323.491,292.712 332.304,289.534 340.73,285.437 348.673,280.467 356.042,274.681 362.755,268.145 368.735,260.932 373.914,253.125 378.234,244.811 381.646,236.085 384.111,227.046 385.601,217.796 386.1,208.44"/>
<polyline fill="none" stroke="#d8d8d8" stroke-width="0.5" stroke-linecap="butt" stroke-linejoin="miter" points="403.704,208.44 403.106,197.213 401.317,186.113 398.359,175.266 394.265,164.795 389.081,154.818 382.866,145.449 375.69,136.794 367.635,128.95 358.791,122.008 349.26,116.044 339.149,111.127 328.573,107.313 317.651,104.645 306.507,103.153 295.268,102.853 284.061,103.75 273.013,105.834 262.248,109.079 251.89,113.451 242.055,118.899 232.855,125.361 224.393,132.765 216.767,141.026 210.062,150.051 204.354,159.738 199.709,169.976 196.177,180.65 193.801,191.639 192.606,202.818 192.606,214.062 193.801,225.241 196.177,236.23 199.709,246.904 204.354,257.142 210.062,266.829 216.767,275.854 224.393,284.115 232.855,291.519 242.055,297.981 251.89,303.429 262.248,307.801 273.013,311.046 284.061,313.13 295.268,314.027 306.507,313.727 317.651,312.235 328.573,309.567 339.149,305.753 349.26,300.836 358.791,294.872 367.635,287.93 375.69,280.086 382.866,271.431 389.081,262.062 394.265,252.085 398.359,241.614 401.317,230.767 403.106,219.667 403.704,208.44"/>
<polyline fill="none" stroke="#d8d8d8" stroke-width="0.5" stroke-linecap="butt" stroke-linejoin="miter" points="421.308,208.44 420.61,195.342 418.523,182.392 415.072,169.737 410.296,157.521 404.248,145.881 396.997,134.951 388.625,124.853 379.227,115.702 368.91,107.602 357.79,100.645 345.994,94.9086 333.655,90.4588 320.913,87.3458 307.912,85.6049 294.8,85.2557 281.724,86.3022 268.835,88.7327 256.276,92.5194 244.191,97.6196 232.717,103.975 221.984,111.515 212.112,120.152 203.215,129.79 195.392,140.32 188.733,151.62 183.313,163.565 179.194,176.018 176.421,188.839 175.027,201.882 175.027,214.998 176.421,228.041 179.194,240.862 183.313,253.315 188.733,265.26 195.392,276.56 203.215,287.09 212.112,296.728 221.984,305.365 232.717,312.905 244.191,319.26 256.276,324.361 268.835,328.147 281.724,330.578 294.8,331.624 307.912,331.275 320.913,329.534 333.655,326.421 345.994,321.971 357.79,316.235 368.91,309.278 379.227,301.178 388.625,292.027 396.997,281.929 404.248,270.999 410.296,259.359 415.072,247.143 418.523,234.488 420.61,221.538 421.308,208.44"/>
<polyline fill="none" stroke="#d8d8d8" stroke-width="0.5" stroke-linecap="butt" stroke-linejoin="miter" points="438.912,208.44 438.114,193.47 435.73,178.671 431.786,164.208 426.327,150.247 419.414,136.944 411.127,124.452 401.56,112.912 390.819,102.454 379.028,93.1968 366.32,85.2454 352.839,78.6898 338.737,73.6044 324.175,70.0466 309.316,68.057 294.331,67.6579 279.388,68.854 264.657,71.6316 250.304,75.9593 236.493,81.7881 223.38,89.0519 211.113,97.6684 199.831,107.54 189.663,118.555 180.723,130.588 173.112,143.503 166.918,157.155 162.21,171.387 159.041,186.039 157.448,200.945 157.448,215.935 159.041,230.841 162.21,245.493 166.918,259.725 173.112,273.377 180.723,286.292 189.663,298.325 199.831,309.34 211.113,319.212 223.38,327.828 236.493,335.092 250.304,340.921 264.657,345.248 279.388,348.026 294.331,349.222 309.316,348.823 324.175,346.833 338.737,343.276 352.839,338.19 366.32,331.635 379.028,323.683 390.819,314.426 401.56,303.968 411.127,292.428 419.414,279.936 426.327,266.633 431.786,252.672 435.73,238.209 438.114,223.41 438.912,208.44"/>
<polyline fill="none" stroke="#d8d8d8" stroke-width="0.5" stroke-linecap="butt" stroke-linejoin="miter" points="456.516,208.44 455.618,191.599 452.936,174.949 448.499,158.679 442.357,142.972 434.581,128.007 425.258,113.954 414.495,100.971 402.412,89.2057 389.147,78.7914 374.85,69.8461 359.684,62.471 343.819,56.7499 327.436,52.7475 310.721,50.5091 293.862,50.0602 277.051,51.4057 260.479,54.5305 244.332,59.3992 228.795,65.9566 214.042,74.1284 200.242,83.8219 187.55,94.9275 176.111,107.319 166.053,120.857 157.491,135.386 150.523,150.744 145.226,166.755 141.661,183.239 139.869,200.008 139.869,216.872 141.661,233.641 145.226,250.125 150.523,266.136 157.491,281.494 166.053,296.023 176.111,309.561 187.55,321.953 200.242,333.058 214.042,342.752 228.795,350.923 244.332,357.481 260.479,362.349 277.051,365.474 293.862,366.82 310.721,366.371 327.436,364.133 343.819,360.13 359.684,354.409 374.85,347.034 389.147,338.089 402.412,327.674 414.495,315.909 425.258,302.926 434.581,288.873 442.357,273.908 448.499,258.201 452.936,241.931 455.618,225.281 456.516,208.44"/>
<polyline fill="none" stroke="#adadad" stroke-width="0.5" stroke-linecap="butt" stroke-linejoin="miter" points="474.12,208.44 473.123,189.728 470.142,171.228 465.212,153.15 458.388,135.698 449.748,119.071 439.389,103.456 427.43,89.03 414.004,75.9575 399.266,64.386 383.38,54.4467 366.529,46.2523 348.901,39.8954 330.698,35.4483 312.126,32.9612 293.394,32.4624 274.715,33.9575 256.301,37.4295 238.36,42.8391 221.096,50.1251 204.705,59.2048 189.371,69.9755 175.269,82.315 162.558,96.0835 151.383,111.125 141.871,127.269 134.128,144.333 128.242,162.123 124.281,180.438 122.289,199.071 122.289,217.809 124.281,236.442 128.242,254.757 134.128,272.547 141.871,289.611 151.383,305.755 162.558,320.797 175.269,334.565 189.371,346.905 204.705,357.675 221.096,366.755 238.36,374.041 256.301,379.451 274.715,382.923 293.394,384.418 312.126,383.919 330.698,381.432 348.901,376.985 366.529,370.628 383.38,362.433 399.266,352.494 414.004,340.923 427.43,327.85 439.389,313.424 449.748,297.81 458.388,281.182 465.212,263.73 470.142,245.652 473.123,227.152 474.12,208.44 122.04,208.44"/>
<polyline fill="none" stroke="#d8d8d8" stroke-width="0.5" stroke-linecap="butt" stroke-linejoin="miter" points="450.535,120.42 145.625,296.46"/>
<polyline fill="none" stroke="#d8d8d8" stroke-width="0.5" stroke-linecap="butt" stroke-linejoin="miter" points="386.1,55.9849 210.06,360.895"/>
<polyline fill="none" stroke="#adadad" stroke-width="0.5" stroke-linecap="butt" stroke-linejoin="miter" points="298.08,32.4 298.08,384.48"/>
<polyline fill="none" stroke="#d8d8d8" stroke-width="0.5" stroke-linecap="butt" stroke-linejoin="miter" points="210.06,55.9849 386.1,360.895"/>
<polyline fill="none" stroke="#d8d8d8" stroke-width="0.5" stroke-linecap="butt" stroke-linejoin="miter" points="145.625,120.42 450.535,296.46"/>
<text fill="#000000" x="306.882" y="199.638" font-size="10" text-anchor="start" dy="5" font-family="Helvetica">0</text>
<text fill="#000000" x="482.922" y="199.638" font-size="10" text-anchor="start" dy="5" font-family="Helvetica">1</text>
<polyline fill="none" stroke="#ff00ff" stroke-width="2" stroke-linecap="butt" stroke-linejoin="miter" points="227.028,208.44 228.548,210.868 230.407,213.172 232.627,215.319 235.205,217.277 238.125,219.012 241.346,220.499 244.805,221.723 248.419,222.68 252.085,223.385 255.674,223.875 259.041,224.213 262.026,224.492 264.472,224.832 266.242,225.369 267.262,226.233 267.543,227.522 267.182,229.281 266.348,231.495 265.215,234.117 263.957,237.072 262.724,240.275 261.623,243.646 260.731,247.116 260.103,250.618 259.772,254.094 259.748,257.503 260.043,260.794 260.639,263.948 261.531,266.93 262.695,269.729 264.111,272.327 265.752,274.722 267.597,276.906 269.62,278.881 271.797,280.652 274.107,282.221 276.531,283.592 279.045,284.784 281.641,285.782 284.294,286.622 286.999,287.282 289.74,287.791 292.508,288.126 295.291,288.302 298.08,288.319 300.865,288.178 303.635,287.878 306.379,287.404 309.087,286.757 311.746,285.942 314.342,284.947 316.862,283.772 319.298,282.436 321.637,280.94 323.868,279.292 325.989,277.516 328.004,275.65 329.92,273.722 331.76,271.782 333.557,269.888 335.362,268.104 337.239,266.496 339.264,265.125 341.528,264.051 344.123,263.312 347.138,262.924 350.653,262.88 354.715,263.132 359.359,263.616 364.587,264.246 370.368,264.918 376.656,265.529 383.378,265.974 390.46,266.165 397.797,266.012 405.291,265.445 412.835,264.41 420.319,262.864 427.637,260.784 434.686,258.161 441.359,254.994 447.566,251.305 453.224,247.122 458.25,242.485 462.584,237.446 466.169,232.063 468.961,226.4 470.929,220.527 472.054,214.515 472.329,208.44 471.759,202.375 470.357,196.393 468.15,190.565 465.172,184.957 461.466,179.631 457.083,174.643 452.075,170.045 446.511,165.878 440.453,162.18 433.967,158.981 427.131,156.3 420.008,154.154 412.682,152.545 405.228,151.468 397.713,150.917 390.221,150.864 382.816,151.285 375.58,152.133 368.577,153.362 361.882,154.904 355.553,156.691 349.655,158.634 344.241,160.638 339.362,162.592 335.051,164.38 331.315,165.901 328.155,167.046 325.537,167.733 323.389,167.938 321.63,167.65 320.145,166.942 318.843,165.869 317.628,164.535 316.412,163.067 315.143,161.56 313.788,160.094 312.328,158.752 310.761,157.579 309.09,156.643 307.337,155.943 305.521,155.494 303.664,155.307 301.793,155.346 299.926,155.58 298.08,155.953 296.263,156.416 294.475,156.884 292.704,157.292 290.927,157.544 289.112,157.577 287.216,157.329 285.193,156.752 282.994,155.829 280.581,154.583 277.921,153.052 274.998,151.311 271.804,149.423 268.352,147.488 264.664,145.593 260.784,143.841 256.754,142.304 252.632,141.061 248.48,140.171 244.367,139.691 240.361,139.653 236.531,140.083 232.946,140.992 229.659,142.367 226.726,144.192 224.187,146.437 222.074,149.058 220.396,151.999 219.156,155.205 218.339,158.612 217.909,162.153 217.824,165.767 218.025,169.394 218.445,172.984 219.022,176.498 219.684,179.906 220.374,183.192 221.049,186.352 221.684,189.392 222.276,192.327 222.843,195.174 223.424,197.948 224.07,200.661 224.845,203.319 225.81,205.916 227.028,208.44"/>
<polyline fill="none" stroke="#00ff00" stroke-width="2" stroke-linecap="butt" stroke-linejoin="miter" points="227.028,208.44 227.953,210.889 229.081,213.265 230.342,215.56 231.664,217.774 232.966,219.921 234.169,222.025 235.199,224.118 235.992,226.243 236.499,228.449 236.694,230.783 236.573,233.29 236.159,236.009 235.495,238.965 234.638,242.173 233.66,245.633 232.637,249.333 231.648,253.249 230.757,257.353 230.032,261.605 229.523,265.966 229.277,270.39 229.329,274.832 229.698,279.252 230.404,283.602 231.45,287.846 232.836,291.949 234.55,295.881 236.582,299.615 238.911,303.13 241.518,306.408 244.375,309.444 247.46,312.227 250.746,314.753 254.209,317.023 257.824,319.042 261.568,320.812 265.412,322.366 269.346,323.686 273.352,324.776 277.407,325.683 281.502,326.399 285.626,326.929 289.769,327.288 293.922,327.505 298.08,327.555 302.236,327.466 306.387,327.234 310.529,326.882 314.662,326.425 318.78,325.838 322.89,325.16 326.984,324.368 331.074,323.503 335.159,322.557 339.242,321.531 343.335,320.45 347.439,319.303 351.574,318.12 355.742,316.886 359.957,315.614 364.233,314.308 368.58,312.96 373.011,311.574 377.534,310.137 382.159,308.641 386.887,307.07 391.724,305.411 396.661,303.638 401.689,301.73 406.801,299.668 411.977,297.426 417.187,294.976 422.402,292.297 427.599,289.373 432.73,286.18 437.759,282.709 442.637,278.945 447.322,274.887 451.764,270.532 455.917,265.888 459.73,260.963 463.163,255.777 466.168,250.349 468.705,244.707 470.736,238.884 472.229,232.915 473.156,226.841 473.492,220.706 473.22,214.556 472.329,208.44 470.813,202.408 468.671,196.511 465.91,190.8 462.542,185.326 458.585,180.139 454.063,175.285 449.002,170.811 443.44,166.759 437.409,163.169 430.956,160.077 424.122,157.516 416.965,155.509 409.531,154.082 401.88,153.249 394.062,153.025 386.141,153.414 378.183,154.41 370.24,156.012 362.388,158.197 354.694,160.935 347.222,164.193 340.046,167.914 333.255,172.015 326.951,176.375 321.269,180.804 316.405,184.985 312.665,188.365 310.443,190.112 309.942,189.456 310.788,186.429 312.277,181.74 313.858,176.091 315.217,169.949 316.189,163.618 316.713,157.245 316.744,150.998 316.282,144.963 315.331,139.25 313.918,133.926 312.076,129.064 309.849,124.698 307.28,120.906 304.424,117.716 301.338,115.151 298.08,113.232 294.712,112 291.296,111.425 287.894,111.531 284.565,112.273 281.37,113.674 278.363,115.678 275.595,118.258 273.103,121.336 270.941,124.915 269.129,128.897 267.697,133.24 266.662,137.874 266.015,142.697 265.766,147.665 265.888,152.681 266.35,157.661 267.086,162.489 268.024,167.072 269.063,171.3 270.074,175.064 270.893,178.246 271.346,180.756 271.264,182.544 270.528,183.632 269.09,184.114 266.987,184.147 264.314,183.908 261.209,183.57 257.797,183.268 254.215,183.115 250.563,183.175 246.954,183.504 243.466,184.124 240.17,185.043 237.132,186.257 234.398,187.748 232.009,189.495 230.003,191.467 228.392,193.627 227.193,195.941 226.405,198.367 226.019,200.866 226.016,203.401 226.366,205.936 227.028,208.44"/>
<text fill="#000000" x="298.08" y="22.4" font-size="11" text-anchor="middle" dy="0" font-family="Helvetica" font-weight="bold">normalized electrical far field @ f = 2.510000e+09 Hz</text>
</g>
<clipPath id="cp00576432">
  <polygon points="0,432 576,432 576,0 0,0"/>
</clipPath>
<g clip-path="url(#cp00576432)">
<polygon fill="#ffffff" shape-rendering="crispEdges" points="438.267,381.734 518.534,381.734 438.267,349.498"/>
<polygon fill="#ffffff" shape-rendering="crispEdges" points="518.534,381.734 518.534,349.498 438.267,349.498"/>
<polyline fill="none" stroke="#262626" stroke-width="0.5" stroke-linecap="butt" stroke-linejoin="miter" stroke-dasharray="16,0" points="438.267,381.734 518.534,381.734"/>
<polyline fill="none" stroke="#262626" stroke-width="0.5" stroke-linecap="butt" stroke-linejoin="miter" stroke-dasharray="16,0" points="438.267,349.498 518.534,349.498"/>
<polyline fill="none" stroke="#262626" stroke-width="0.5" stroke-linecap="butt" stroke-linejoin="miter" stroke-dasharray="16,0" points="438.267,381.734 438.267,349.498"/>
<polyline fill="none" stroke="#262626" stroke-width="0.5" stroke-linecap="butt" stroke-linejoin="miter" stroke-dasharray="16,0" points="518.534,381.734 518.534,349.498"/>
<text fill="#000000" x="464.359" y="357.557" font-size="10" text-anchor="start" dy="5" font-family="Helvetica">phi = 0.0</text>
<text fill="#000000" x="464.359" y="373.675" font-size="10" text-anchor="start" dy="5" font-family="Helvetica">phi = 90.0</text>
<polyline fill="none" stroke="#ff00ff" stroke-width="2" stroke-linecap="butt" stroke-linejoin="miter" points="441.014,357.557 461.612,357.557"/>
<polyline fill="none" stroke="#00ff00" stroke-width="2" stroke-linecap="butt" stroke-linejoin="miter" points="441.014,373.675 461.612,373.675"/>
</g>
</g>
</svg>
