<?xml version="1.0" encoding="UTF-8" standalone="no"?>
<svg xmlns="http://www.w3.org/2000/svg"
     xmlns:xlink="http://www.w3.org/1999/xlink"
     width="576px" height="432px" viewBox="0 0 576 432">
<title>gl2ps_renderer figure</title>
<desc>
Creator: GL2PS 1.4.0, (C) 1999-2017 C. Geuzaine
For: Octave
CreationDate: Sun Jul 19 02:19:28 2020
</desc>
<defs>
</defs>
<polygon fill="#ffffff" points="0,0 576,0 576,432 0,432"/>
<g>
<polygon fill="#ffffff" points="0,432 576,432 576,0 0,0" shape-rendering="crispEdges"/>
<clipPath id="cp00576432">
  <polygon points="0,432 576,432 576,0 0,0"/>
</clipPath>
<g clip-path="url(#cp00576432)">
<polygon fill="#ffffff" shape-rendering="crispEdges" points="74.88,384.48 521.28,384.48 74.88,32.4"/>
<polygon fill="#ffffff" shape-rendering="crispEdges" points="521.28,384.48 521.28,32.4 74.88,32.4"/>
<polyline fill="none" stroke="#262626" stroke-width="0.5" stroke-linecap="butt" stroke-linejoin="miter" stroke-opacity="0.15" stroke-dasharray="16,0" points="74.88,384.48 74.88,32.4"/>
<polyline fill="none" stroke="#262626" stroke-width="0.5" stroke-linecap="butt" stroke-linejoin="miter" stroke-opacity="0.15" stroke-dasharray="16,0" points="164.16,384.48 164.16,32.4"/>
<polyline fill="none" stroke="#262626" stroke-width="0.5" stroke-linecap="butt" stroke-linejoin="miter" stroke-opacity="0.15" stroke-dasharray="16,0" points="253.44,384.48 253.44,32.4"/>
<polyline fill="none" stroke="#262626" stroke-width="0.5" stroke-linecap="butt" stroke-linejoin="miter" stroke-opacity="0.15" stroke-dasharray="16,0" points="342.72,384.48 342.72,32.4"/>
<polyline fill="none" stroke="#262626" stroke-width="0.5" stroke-linecap="butt" stroke-linejoin="miter" stroke-opacity="0.15" stroke-dasharray="16,0" points="432,384.48 432,32.4"/>
<polyline fill="none" stroke="#262626" stroke-width="0.5" stroke-linecap="butt" stroke-linejoin="miter" stroke-opacity="0.15" stroke-dasharray="16,0" points="521.28,384.48 521.28,32.4"/>
<polyline fill="none" stroke="#262626" stroke-width="0.5" stroke-linecap="butt" stroke-linejoin="miter" points="74.88,384.48 74.88,380.015"/>
<polyline fill="none" stroke="#262626" stroke-width="0.5" stroke-linecap="butt" stroke-linejoin="miter" points="74.88,32.4 74.88,36.865"/>
<polyline fill="none" stroke="#262626" stroke-width="0.5" stroke-linecap="butt" stroke-linejoin="miter" points="164.16,384.48 164.16,380.015"/>
<polyline fill="none" stroke="#262626" stroke-width="0.5" stroke-linecap="butt" stroke-linejoin="miter" points="164.16,32.4 164.16,36.865"/>
<polyline fill="none" stroke="#262626" stroke-width="0.5" stroke-linecap="butt" stroke-linejoin="miter" points="253.44,384.48 253.44,380.015"/>
<polyline fill="none" stroke="#262626" stroke-width="0.5" stroke-linecap="butt" stroke-linejoin="miter" points="253.44,32.4 253.44,36.865"/>
<polyline fill="none" stroke="#262626" stroke-width="0.5" stroke-linecap="butt" stroke-linejoin="miter" points="342.72,384.48 342.72,380.015"/>
<polyline fill="none" stroke="#262626" stroke-width="0.5" stroke-linecap="butt" stroke-linejoin="miter" points="342.72,32.4 342.72,36.865"/>
<polyline fill="none" stroke="#262626" stroke-width="0.5" stroke-linecap="butt" stroke-linejoin="miter" points="432,384.48 432,380.015"/>
<polyline fill="none" stroke="#262626" stroke-width="0.5" stroke-linecap="butt" stroke-linejoin="miter" points="432,32.4 432,36.865"/>
<polyline fill="none" stroke="#262626" stroke-width="0.5" stroke-linecap="butt" stroke-linejoin="miter" points="521.28,384.48 521.28,380.015"/>
<polyline fill="none" stroke="#262626" stroke-width="0.5" stroke-linecap="butt" stroke-linejoin="miter" points="521.28,32.4 521.28,36.865"/>
<text fill="#262626" x="74.88" y="389.481" font-size="10" text-anchor="middle" dy="10" font-family="Helvetica">0</text>
<text fill="#262626" x="164.16" y="389.481" font-size="10" text-anchor="middle" dy="10" font-family="Helvetica">1000</text>
<text fill="#262626" x="253.44" y="389.481" font-size="10" text-anchor="middle" dy="10" font-family="Helvetica">2000</text>
<text fill="#262626" x="342.72" y="389.481" font-size="10" text-anchor="middle" dy="10" font-family="Helvetica">3000</text>
<text fill="#262626" x="432" y="389.481" font-size="10" text-anchor="middle" dy="10" font-family="Helvetica">4000</text>
<text fill="#262626" x="521.28" y="389.481" font-size="10" text-anchor="middle" dy="10" font-family="Helvetica">5000</text>
<polyline fill="none" stroke="#262626" stroke-width="0.5" stroke-linecap="butt" stroke-linejoin="miter" stroke-opacity="0.15" stroke-dasharray="16,0" points="74.88,384.48 521.28,384.48"/>
<polyline fill="none" stroke="#262626" stroke-width="0.5" stroke-linecap="butt" stroke-linejoin="miter" stroke-opacity="0.15" stroke-dasharray="16,0" points="74.88,334.183 521.28,334.183"/>
<polyline fill="none" stroke="#262626" stroke-width="0.5" stroke-linecap="butt" stroke-linejoin="miter" stroke-opacity="0.15" stroke-dasharray="16,0" points="74.88,283.886 521.28,283.886"/>
<polyline fill="none" stroke="#262626" stroke-width="0.5" stroke-linecap="butt" stroke-linejoin="miter" stroke-opacity="0.15" stroke-dasharray="16,0" points="74.88,233.589 521.28,233.589"/>
<polyline fill="none" stroke="#262626" stroke-width="0.5" stroke-linecap="butt" stroke-linejoin="miter" stroke-opacity="0.15" stroke-dasharray="16,0" points="74.88,183.291 521.28,183.291"/>
<polyline fill="none" stroke="#262626" stroke-width="0.5" stroke-linecap="butt" stroke-linejoin="miter" stroke-opacity="0.15" stroke-dasharray="16,0" points="74.88,132.994 521.28,132.994"/>
<polyline fill="none" stroke="#262626" stroke-width="0.5" stroke-linecap="butt" stroke-linejoin="miter" stroke-opacity="0.15" stroke-dasharray="16,0" points="74.88,82.6971 521.28,82.6971"/>
<polyline fill="none" stroke="#262626" stroke-width="0.5" stroke-linecap="butt" stroke-linejoin="miter" stroke-opacity="0.15" stroke-dasharray="16,0" points="74.88,32.4 521.28,32.4"/>
<polyline fill="none" stroke="#262626" stroke-width="0.5" stroke-linecap="butt" stroke-linejoin="miter" points="74.88,384.48 79.348,384.48"/>
<polyline fill="none" stroke="#262626" stroke-width="0.5" stroke-linecap="butt" stroke-linejoin="miter" points="521.28,384.48 516.812,384.48"/>
<polyline fill="none" stroke="#262626" stroke-width="0.5" stroke-linecap="butt" stroke-linejoin="miter" points="74.88,334.183 79.348,334.183"/>
<polyline fill="none" stroke="#262626" stroke-width="0.5" stroke-linecap="butt" stroke-linejoin="miter" points="521.28,334.183 516.812,334.183"/>
<polyline fill="none" stroke="#262626" stroke-width="0.5" stroke-linecap="butt" stroke-linejoin="miter" points="74.88,283.886 79.348,283.886"/>
<polyline fill="none" stroke="#262626" stroke-width="0.5" stroke-linecap="butt" stroke-linejoin="miter" points="521.28,283.886 516.812,283.886"/>
<polyline fill="none" stroke="#262626" stroke-width="0.5" stroke-linecap="butt" stroke-linejoin="miter" points="74.88,233.589 79.348,233.589"/>
<polyline fill="none" stroke="#262626" stroke-width="0.5" stroke-linecap="butt" stroke-linejoin="miter" points="521.28,233.589 516.812,233.589"/>
<polyline fill="none" stroke="#262626" stroke-width="0.5" stroke-linecap="butt" stroke-linejoin="miter" points="74.88,183.291 79.348,183.291"/>
<polyline fill="none" stroke="#262626" stroke-width="0.5" stroke-linecap="butt" stroke-linejoin="miter" points="521.28,183.291 516.812,183.291"/>
<polyline fill="none" stroke="#262626" stroke-width="0.5" stroke-linecap="butt" stroke-linejoin="miter" points="74.88,132.994 79.348,132.994"/>
<polyline fill="none" stroke="#262626" stroke-width="0.5" stroke-linecap="butt" stroke-linejoin="miter" points="521.28,132.994 516.812,132.994"/>
<polyline fill="none" stroke="#262626" stroke-width="0.5" stroke-linecap="butt" stroke-linejoin="miter" points="74.88,82.6971 79.348,82.6971"/>
<polyline fill="none" stroke="#262626" stroke-width="0.5" stroke-linecap="butt" stroke-linejoin="miter" points="521.28,82.6971 516.812,82.6971"/>
<polyline fill="none" stroke="#262626" stroke-width="0.5" stroke-linecap="butt" stroke-linejoin="miter" points="74.88,32.4 79.348,32.4"/>
<polyline fill="none" stroke="#262626" stroke-width="0.5" stroke-linecap="butt" stroke-linejoin="miter" points="521.28,32.4 516.812,32.4"/>
<text fill="#262626" x="69.8755" y="384.48" font-size="10" text-anchor="end" dy="5" font-family="Helvetica">-70</text>
<text fill="#262626" x="69.8755" y="334.183" font-size="10" text-anchor="end" dy="5" font-family="Helvetica">-60</text>
<text fill="#262626" x="69.8755" y="283.886" font-size="10" text-anchor="end" dy="5" font-family="Helvetica">-50</text>
<text fill="#262626" x="69.8755" y="233.589" font-size="10" text-anchor="end" dy="5" font-family="Helvetica">-40</text>
<text fill="#262626" x="69.8755" y="183.291" font-size="10" text-anchor="end" dy="5" font-family="Helvetica">-30</text>
<text fill="#262626" x="69.8755" y="132.994" font-size="10" text-anchor="end" dy="5" font-family="Helvetica">-20</text>
<text fill="#262626" x="69.8755" y="82.6971" font-size="10" text-anchor="end" dy="5" font-family="Helvetica">-10</text>
<text fill="#262626" x="69.8755" y="32.4" font-size="10" text-anchor="end" dy="5" font-family="Helvetica">0</text>
<polyline fill="none" stroke="#262626" stroke-width="0.5" stroke-linecap="butt" stroke-linejoin="miter" stroke-dasharray="16,0" points="74.88,384.48 521.28,384.48"/>
<polyline fill="none" stroke="#262626" stroke-width="0.5" stroke-linecap="butt" stroke-linejoin="miter" stroke-dasharray="16,0" points="74.88,32.4 521.28,32.4"/>
<polyline fill="none" stroke="#262626" stroke-width="0.5" stroke-linecap="butt" stroke-linejoin="miter" stroke-dasharray="16,0" points="74.88,384.48 74.88,32.4"/>
<polyline fill="none" stroke="#262626" stroke-width="0.5" stroke-linecap="butt" stroke-linejoin="miter" stroke-dasharray="16,0" points="521.28,384.48 521.28,32.4"/>
<text fill="#262626" x="298.08" y="402.481" font-size="11" text-anchor="middle" dy="11" font-family="Helvetica">Frequency f (MHz)</text>
<text fill="#262626" x="49.8755" y="208.44" font-size="11" transform="rotate(-90, 49.8755, 208.44)" text-anchor="middle" dy="0" font-family="Helvetica">S parameters (dB)</text>
<polyline fill="none" stroke="#ff00ff" stroke-width="2" stroke-linecap="butt" stroke-linejoin="miter" points="76.6656,126.246 77.5584,126.175 78.4512,126.079 79.344,125.96 80.2368,125.823 81.1296,125.669 82.0224,125.505 82.9152,125.334 83.808,125.161 84.7008,124.99 85.5936,124.826 86.4864,124.672 87.3792,124.532 88.272,124.41 89.1648,124.308 90.0576,124.229 90.9504,124.176 91.8432,124.149 92.736,124.151 93.6288,124.181 94.5216,124.24 95.4144,124.329 96.3072,124.447 97.2,124.592 98.0928,124.763 98.9856,124.96 99.8784,125.179 100.771,125.419 101.664,125.678 102.557,125.952 103.45,126.239 104.342,126.536 105.235,126.84 106.128,127.149 107.021,127.461 107.914,127.774 108.806,128.086 109.699,128.395 110.592,128.703 111.485,129.009 112.378,129.313 113.27,129.618 114.163,129.926 115.056,130.241 115.949,130.564 116.842,130.901 117.734,131.257 118.627,131.635 119.52,132.042 120.413,132.484 121.306,132.964 122.198,133.491 123.091,134.068 123.984,134.703 124.877,135.401 125.77,136.168 126.662,137.01 127.555,137.932 128.448,138.941 129.341,140.043 130.234,141.242 131.126,142.546 132.019,143.96 132.912,145.491 133.805,147.145 134.698,148.929 135.59,150.85 136.483,152.917 137.376,155.137 138.269,157.52 139.162,160.076 140.054,162.816 140.947,165.754 141.84,168.904 142.733,172.283 143.626,175.913 144.518,179.816 145.411,184.022 146.304,188.564 147.197,193.485 148.09,198.832 148.982,204.661 149.875,211.03 150.768,217.979 151.661,225.488 152.554,233.345 153.446,240.881 154.339,246.623 155.232,248.621 156.125,246.216 157.018,240.866 157.91,234.448 158.803,228.054 159.696,222.105 160.589,216.707 161.482,211.844 162.374,207.466 163.267,203.52 164.16,199.959 165.053,196.748 165.946,193.86 166.838,191.274 167.731,188.98 168.624,186.972 169.517,185.25 170.41,183.819 171.302,182.689 172.195,181.875 173.088,181.398 173.981,181.287 174.874,181.579 175.766,182.322 176.659,183.582 177.552,185.447 178.445,188.037 179.338,191.526 180.23,196.168 181.123,202.355 182.016,210.724 182.909,222.301 183.802,238.193 184.694,252.248 185.587,240.413 186.48,218.797 187.373,201.185 188.266,187.215 189.158,175.711 190.051,165.919 190.944,157.372 191.837,149.772 192.73,142.919 193.622,136.673 194.515,130.931 195.408,125.617 196.301,120.672 197.194,116.05 198.086,111.715 198.979,107.636 199.872,103.789 200.765,100.152 201.658,96.7091 202.55,93.4445 203.443,90.3457 204.336,87.4014 205.229,84.6018 206.122,81.9383 207.014,79.4032 207.907,76.9897 208.8,74.6915 209.693,72.5032 210.586,70.4195 211.478,68.4359 212.371,66.548 213.264,64.752 214.157,63.044 215.05,61.4207 215.942,59.8788 216.835,58.4152 217.728,57.0272 218.621,55.7119 219.514,54.4666 220.406,53.2888 221.299,52.1761 222.192,51.126 223.085,50.1363 223.978,49.2045 224.87,48.3285 225.763,47.5059 226.656,46.7346 227.549,46.0124 228.442,45.337 229.334,44.7062 230.227,44.118 231.12,43.5699 232.013,43.0599 232.906,42.5858 233.798,42.1453 234.691,41.7363 235.584,41.3567 236.477,41.0042 237.37,40.6768 238.262,40.3724 239.155,40.089 240.048,39.8246 240.941,39.5774 241.834,39.3456 242.726,39.1275 243.619,38.9215 244.512,38.7262 245.405,38.5402 246.298,38.3623 247.19,38.1915 248.083,38.0268 248.976,37.8674 249.869,37.7128 250.762,37.5624 251.654,37.4158 252.547,37.2728 253.44,37.1332 254.333,36.9969 255.226,36.8641 256.118,36.7347 257.011,36.609 257.904,36.4872 258.797,36.3694 259.69,36.2559 260.582,36.1469 261.475,36.0426 262.368,35.9432 263.261,35.8489 264.154,35.7597 265.046,35.6757 265.939,35.5968 266.832,35.523 267.725,35.4542 268.618,35.3901 269.51,35.3304 270.403,35.2751 271.296,35.2236 272.189,35.1755 273.082,35.1306 273.974,35.0882 274.867,35.0481 275.76,35.0097 276.653,34.9727 277.546,34.9366 278.438,34.901 279.331,34.8656 280.224,34.83 281.117,34.7941 282.01,34.7576 282.902,34.7204 283.795,34.6824 284.688,34.6435 285.581,34.6039 286.474,34.5635 287.366,34.5225 288.259,34.4811 289.152,34.4395 290.045,34.398 290.938,34.3568 291.83,34.3162 292.723,34.2764 293.616,34.2378 294.509,34.2005 295.402,34.1649 296.294,34.131 297.187,34.0991 298.08,34.0693 298.973,34.0417 299.866,34.0163 300.758,33.993 301.651,33.9719 302.544,33.9529 303.437,33.9357 304.33,33.9203 305.222,33.9063 306.115,33.8936 307.008,33.8819 307.901,33.8709 308.794,33.8604 309.686,33.85 310.579,33.8396 311.472,33.8289 312.365,33.8175 313.258,33.8055 314.15,33.7926 315.043,33.7787 315.936,33.7638 316.829,33.7477 317.722,33.7306 318.614,33.7125 319.507,33.6934 320.4,33.6736 321.293,33.6531 322.186,33.6323 323.078,33.6112 323.971,33.5901 324.864,33.5693 325.757,33.549 326.65,33.5293 327.542,33.5106 328.435,33.493 329.328,33.4766 330.221,33.4615 331.114,33.448 332.006,33.436 332.899,33.4255 333.792,33.4166 334.685,33.4091 335.578,33.403 336.47,33.3982 337.363,33.3944 338.256,33.3915 339.149,33.3893 340.042,33.3875 340.934,33.3859 341.827,33.3844 342.72,33.3826 343.613,33.3804 344.506,33.3776 345.398,33.3741 346.291,33.3695 347.184,33.364 348.077,33.3574 348.97,33.3496 349.862,33.3408 350.755,33.3309 351.648,33.32 352.541,33.3083 353.434,33.2958 354.326,33.2829 355.219,33.2697 356.112,33.2563 357.005,33.243 357.898,33.2301 358.79,33.2177 359.683,33.206 360.576,33.1953 361.469,33.1855 362.362,33.1771 363.254,33.1698 364.147,33.1639 365.04,33.1595 365.933,33.1563 366.826,33.1544 367.718,33.1538 368.611,33.1542 369.504,33.1555 370.397,33.1576 371.29,33.1602 372.182,33.1632 373.075,33.1662 373.968,33.1691 374.861,33.1716 375.754,33.1736 376.646,33.1749 377.539,33.1752 378.432,33.1746 379.325,33.1727 380.218,33.1697 381.11,33.1655 382.003,33.16 382.896,33.1534 383.789,33.1458 384.682,33.1373 385.574,33.1279 386.467,33.1181 387.36,33.1078 388.253,33.0975 389.146,33.0872 390.038,33.0773 390.931,33.0679 391.824,33.0593 392.717,33.0517 393.61,33.0451 394.502,33.0399 395.395,33.0359 396.288,33.0333 397.181,33.0322 398.074,33.0324 398.966,33.034 399.859,33.0367 400.752,33.0405 401.645,33.0452 402.538,33.0506 403.43,33.0564 404.323,33.0624 405.216,33.0684 406.109,33.074 407.002,33.0792 407.894,33.0835 408.787,33.0869 409.68,33.0891 410.573,33.0901 411.466,33.0897 412.358,33.0878 413.251,33.0845 414.144,33.0798 415.037,33.0737 415.93,33.0665 416.822,33.0582 417.715,33.0491 418.608,33.0394 419.501,33.0294 420.394,33.0193 421.286,33.0094 422.179,33 423.072,32.9913 423.965,32.9837 424.858,32.9772 425.75,32.9722 426.643,32.9687 427.536,32.9668 428.429,32.9666 429.322,32.9681 430.214,32.9712 431.107,32.9758 432,32.9818 432.893,32.989 433.786,32.9971 434.678,33.0059 435.571,33.015 436.464,33.0242 437.357,33.0331 438.25,33.0416 439.142,33.0491 440.035,33.0555 440.928,33.0605 441.821,33.0639 442.714,33.0656 443.606,33.0654 444.499,33.0633 445.392,33.0594 446.285,33.0537 447.178,33.0463 448.07,33.0375 448.963,33.0275 449.856,33.0165 450.749,33.005 451.642,32.9932 452.534,32.9815 453.427,32.9703 454.32,32.96 455.213,32.9508 456.106,32.9431 456.998,32.9372 457.891,32.9332 458.784,32.9315 459.677,32.9319 460.57,32.9346 461.462,32.9396 462.355,32.9467 463.248,32.9557 464.141,32.9664 465.034,32.9786 465.926,32.9918 466.819,33.0057 467.712,33.0197 468.605,33.0337 469.498,33.0469 470.39,33.0591 471.283,33.0698 472.176,33.0787 473.069,33.0854 473.962,33.0897 474.854,33.0914 475.747,33.0904 476.64,33.0867 477.533,33.0804 478.426,33.0716 479.318,33.0606 480.211,33.0477 481.104,33.0333 481.997,33.0179 482.89,33.0019 483.782,32.9859 484.675,32.9704 485.568,32.956 486.461,32.9431 487.354,32.9323 488.246,32.924 489.139,32.9185 490.032,32.9161 490.925,32.917 491.818,32.9213 492.71,32.9289 493.603,32.9398 494.496,32.9536 495.389,32.9702 496.282,32.989 497.174,33.0095 498.067,33.0312 498.96,33.0534 499.853,33.0755 500.746,33.0967 501.638,33.1165 502.531,33.1341 503.424,33.1489 504.317,33.1604 505.21,33.1683 506.102,33.1721 506.995,33.1716 507.888,33.1668 508.781,33.1578 509.674,33.1448 510.566,33.1281 511.459,33.1083 512.352,33.0859 513.245,33.0616 514.138,33.0363 515.03,33.0107 515.923,32.9858 516.816,32.9624 517.709,32.9414 518.602,32.9236 519.494,32.9097 520.387,32.9003 521.28,32.8959"/>
<polyline fill="none" stroke="#00ff00" stroke-width="2" stroke-linecap="butt" stroke-linejoin="miter" points="76.6656,37.7517 77.5584,37.7635 78.4512,37.7797 79.344,37.7998 80.2368,37.8234 81.1296,37.8499 82.0224,37.8787 82.9152,37.9092 83.808,37.9405 84.7008,37.9721 85.5936,38.0031 86.4864,38.033 87.3792,38.0611 88.272,38.0867 89.1648,38.1093 90.0576,38.1285 90.9504,38.144 91.8432,38.1554 92.736,38.1626 93.6288,38.1655 94.5216,38.1641 95.4144,38.1586 96.3072,38.1491 97.2,38.136 98.0928,38.1197 98.9856,38.1006 99.8784,38.0792 100.771,38.056 101.664,38.0317 102.557,38.0069 103.45,37.9821 104.342,37.9579 105.235,37.9349 106.128,37.9136 107.021,37.8946 107.914,37.8782 108.806,37.8648 109.699,37.8547 110.592,37.8482 111.485,37.8453 112.378,37.8461 113.27,37.8506 114.163,37.8588 115.056,37.8704 115.949,37.8852 116.842,37.903 117.734,37.9234 118.627,37.9461 119.52,37.9706 120.413,37.9966 121.306,38.0235 122.198,38.051 123.091,38.0785 123.984,38.1057 124.877,38.1322 125.77,38.1576 126.662,38.1815 127.555,38.2037 128.448,38.2238 129.341,38.2418 130.234,38.2574 131.126,38.2705 132.019,38.2811 132.912,38.2893 133.805,38.2951 134.698,38.2986 135.59,38.3 136.483,38.2996 137.376,38.2976 138.269,38.2944 139.162,38.2902 140.054,38.2854 140.947,38.2805 141.84,38.2757 142.733,38.2716 143.626,38.2685 144.518,38.2667 145.411,38.2667 146.304,38.2689 147.197,38.2734 148.09,38.2808 148.982,38.291 149.875,38.3045 150.768,38.3213 151.661,38.3416 152.554,38.3654 153.446,38.3927 154.339,38.4236 155.232,38.4578 156.125,38.4952 157.018,38.5357 157.91,38.579 158.803,38.6248 159.696,38.6726 160.589,38.7222 161.482,38.7732 162.374,38.825 163.267,38.8772 164.16,38.9294 165.053,38.9811 165.946,39.0318 166.838,39.0811 167.731,39.1285 168.624,39.1739 169.517,39.2167 170.41,39.2569 171.302,39.2942 172.195,39.3286 173.088,39.3601 173.981,39.3889 174.874,39.4151 175.766,39.4391 176.659,39.4615 177.552,39.4827 178.445,39.5034 179.338,39.5245 180.23,39.5469 181.123,39.5715 182.016,39.5994 182.909,39.6318 183.802,39.6699 184.694,39.7151 185.587,39.7687 186.48,39.832 187.373,39.9065 188.266,39.9937 189.158,40.095 190.051,40.2118 190.944,40.3456 191.837,40.4979 192.73,40.67 193.622,40.8633 194.515,41.0793 195.408,41.3192 196.301,41.5842 197.194,41.8757 198.086,42.1947 198.979,42.5425 199.872,42.9201 200.765,43.3286 201.658,43.7688 202.55,44.2418 203.443,44.7483 204.336,45.2892 205.229,45.8653 206.122,46.4771 207.014,47.1254 207.907,47.8107 208.8,48.5335 209.693,49.2943 210.586,50.0934 211.478,50.9312 212.371,51.8079 213.264,52.7237 214.157,53.6788 215.05,54.6731 215.942,55.7067 216.835,56.7793 217.728,57.8908 218.621,59.0409 219.514,60.229 220.406,61.4547 221.299,62.7173 222.192,64.0159 223.085,65.3496 223.978,66.7173 224.87,68.1176 225.763,69.5491 226.656,71.0101 227.549,72.4988 228.442,74.0132 229.334,75.551 230.227,77.1097 231.12,78.6867 232.013,80.2792 232.906,81.8842 233.798,83.4987 234.691,85.1192 235.584,86.7427 236.477,88.3658 237.37,89.9852 238.262,91.5977 239.155,93.2004 240.048,94.7905 240.941,96.3654 241.834,97.9233 242.726,99.4622 243.619,100.981 244.512,102.479 245.405,103.957 246.298,105.414 247.19,106.851 248.083,108.27 248.976,109.672 249.869,111.061 250.762,112.437 251.654,113.805 252.547,115.166 253.44,116.525 254.333,117.883 255.226,119.244 256.118,120.61 257.011,121.984 257.904,123.368 258.797,124.763 259.69,126.17 260.582,127.591 261.475,129.026 262.368,130.473 263.261,131.934 264.154,133.405 265.046,134.885 265.939,136.371 266.832,137.86 267.725,139.349 268.618,140.833 269.51,142.308 270.403,143.769 271.296,145.213 272.189,146.633 273.082,148.026 273.974,149.388 274.867,150.716 275.76,152.006 276.653,153.258 277.546,154.471 278.438,155.645 279.331,156.781 280.224,157.883 281.117,158.954 282.01,159.999 282.902,161.022 283.795,162.029 284.688,163.027 285.581,164.021 286.474,165.018 287.366,166.023 288.259,167.042 289.152,168.08 290.045,169.142 290.938,170.232 291.83,171.352 292.723,172.506 293.616,173.693 294.509,174.916 295.402,176.174 296.294,177.464 297.187,178.784 298.08,180.13 298.973,181.498 299.866,182.881 300.758,184.272 301.651,185.662 302.544,187.044 303.437,188.407 304.33,189.742 305.222,191.038 306.115,192.287 307.008,193.48 307.901,194.611 308.794,195.674 309.686,196.668 310.579,197.592 311.472,198.448 312.365,199.242 313.258,199.981 314.15,200.673 315.043,201.33 315.936,201.962 316.829,202.582 317.722,203.202 318.614,203.833 319.507,204.486 320.4,205.172 321.293,205.901 322.186,206.679 323.078,207.515 323.971,208.413 324.864,209.38 325.757,210.416 326.65,211.525 327.542,212.707 328.435,213.959 329.328,215.279 330.221,216.661 331.114,218.097 332.006,219.579 332.899,221.093 333.792,222.625 334.685,224.157 335.578,225.67 336.47,227.141 337.363,228.548 338.256,229.869 339.149,231.082 340.042,232.17 340.934,233.12 341.827,233.926 342.72,234.588 343.613,235.113 344.506,235.515 345.398,235.813 346.291,236.03 347.184,236.191 348.077,236.321 348.97,236.446 349.862,236.589 350.755,236.771 351.648,237.012 352.541,237.329 353.434,237.735 354.326,238.244 355.219,238.866 356.112,239.61 357.005,240.482 357.898,241.488 358.79,242.633 359.683,243.918 360.576,245.343 361.469,246.908 362.362,248.606 363.254,250.429 364.147,252.364 365.04,254.391 365.933,256.484 366.826,258.606 367.718,260.712 368.611,262.745 369.504,264.64 370.397,266.328 371.29,267.742 372.182,268.825 373.075,269.543 373.968,269.889 374.861,269.887 375.754,269.584 376.646,269.045 377.539,268.344 378.432,267.551 379.325,266.731 380.218,265.938 381.11,265.219 382.003,264.609 382.896,264.136 383.789,263.823 384.682,263.686 385.574,263.739 386.467,263.993 387.36,264.46 388.253,265.147 389.146,266.064 390.038,267.22 390.931,268.625 391.824,270.288 392.717,272.219 393.61,274.429 394.502,276.928 395.395,279.72 396.288,282.808 397.181,286.181 398.074,289.807 398.966,293.619 399.859,297.497 400.752,301.235 401.645,304.532 402.538,307.012 403.43,308.324 404.323,308.289 405.216,306.997 406.109,304.761 407.002,301.963 407.894,298.94 408.787,295.932 409.68,293.09 410.573,290.499 411.466,288.204 412.358,286.227 413.251,284.572 414.144,283.242 415.037,282.232 415.93,281.541 416.822,281.165 417.715,281.106 418.608,281.365 419.501,281.948 420.394,282.866 421.286,284.132 422.179,285.767 423.072,287.796 423.965,290.257 424.858,293.195 425.75,296.674 426.643,300.781 427.536,305.634 428.429,311.401 429.322,318.33 430.214,326.798 431.107,337.4 432,351.048 432.893,368.492 433.786,383.521 434.678,375.508 435.571,357.683 436.464,343.101 437.357,331.95 438.25,323.226 439.142,316.228 440.035,310.516 440.928,305.803 441.821,301.899 442.714,298.67 443.606,296.022 444.499,293.886 445.392,292.213 446.285,290.965 447.178,290.116 448.07,289.648 448.963,289.55 449.856,289.815 450.749,290.445 451.642,291.444 452.534,292.823 453.427,294.599 454.32,296.794 455.213,299.435 456.106,302.558 456.998,306.199 457.891,310.396 458.784,315.172 459.677,320.502 460.57,326.244 461.462,331.991 462.355,336.871 463.248,339.556 464.141,338.995 465.034,335.428 465.926,330.128 466.819,324.308 467.712,318.666 468.605,313.499 469.498,308.898 470.39,304.865 471.283,301.368 472.176,298.366 473.069,295.82 473.962,293.695 474.854,291.961 475.747,290.591 476.64,289.564 477.533,288.864 478.426,288.474 479.318,288.382 480.211,288.576 481.104,289.042 481.997,289.765 482.89,290.729 483.782,291.908 484.675,293.27 485.568,294.766 486.461,296.334 487.354,297.888 488.246,299.32 489.139,300.504 490.032,301.311 490.925,301.627 491.818,301.38 492.71,300.562 493.603,299.23 494.496,297.485 495.389,295.457 496.282,293.269 497.174,291.032 498.067,288.834 498.96,286.738 499.853,284.792 500.746,283.027 501.638,281.462 502.531,280.11 503.424,278.977 504.317,278.064 505.21,277.37 506.102,276.89 506.995,276.617 507.888,276.542 508.781,276.649 509.674,276.919 510.566,277.327 511.459,277.84 512.352,278.418 513.245,279.007 514.138,279.547 515.03,279.969 515.923,280.202 516.816,280.179 517.709,279.846 518.602,279.173 519.494,278.16 520.387,276.834 521.28,275.245"/>
<text fill="#000000" x="298.08" y="22.4" font-size="11" text-anchor="middle" dy="0" font-family="Helvetica" font-weight="bold">S parameters</text>
</g>
<clipPath id="cp00576432">
  <polygon points="0,432 576,432 576,0 0,0"/>
</clipPath>
<g clip-path="url(#cp00576432)">
<polygon fill="#ffffff" shape-rendering="crispEdges" points="472.21,67.3823 518.534,67.3823 472.21,35.1465"/>
<polygon fill="#ffffff" shape-rendering="crispEdges" points="518.534,67.3823 518.534,35.1465 472.21,35.1465"/>
<polyline fill="none" stroke="#262626" stroke-width="0.5" stroke-linecap="butt" stroke-linejoin="miter" stroke-dasharray="16,0" points="472.21,67.3823 518.534,67.3823"/>
<polyline fill="none" stroke="#262626" stroke-width="0.5" stroke-linecap="butt" stroke-linejoin="miter" stroke-dasharray="16,0" points="472.21,35.1465 518.534,35.1465"/>
<polyline fill="none" stroke="#262626" stroke-width="0.5" stroke-linecap="butt" stroke-linejoin="miter" stroke-dasharray="16,0" points="472.21,67.3823 472.21,35.1465"/>
<polyline fill="none" stroke="#262626" stroke-width="0.5" stroke-linecap="butt" stroke-linejoin="miter" stroke-dasharray="16,0" points="518.534,67.3823 518.534,35.1465"/>
<text fill="#000000" x="498.301" y="43.2054" font-size="10" text-anchor="start" dy="5" font-family="Helvetica">s11</text>
<text fill="#000000" x="498.301" y="59.3233" font-size="10" text-anchor="start" dy="5" font-family="Helvetica">s21</text>
<polyline fill="none" stroke="#ff00ff" stroke-width="2" stroke-linecap="butt" stroke-linejoin="miter" points="474.956,43.2054 495.555,43.2054"/>
<polyline fill="none" stroke="#00ff00" stroke-width="2" stroke-linecap="butt" stroke-linejoin="miter" points="474.956,59.3233 495.555,59.3233"/>
</g>
</g>
</svg>
