<?xml version="1.0" encoding="UTF-8" standalone="no"?>
<svg xmlns="http://www.w3.org/2000/svg"
     xmlns:xlink="http://www.w3.org/1999/xlink"
     width="576px" height="432px" viewBox="0 0 576 432">
<title>gl2ps_renderer figure</title>
<desc>
Creator: GL2PS 1.4.0, (C) 1999-2017 C. Geuzaine
For: Octave
CreationDate: Sun Jul 19 02:19:40 2020
</desc>
<defs>
</defs>
<polygon fill="#ffffff" points="0,0 576,0 576,432 0,432"/>
<g>
<polygon fill="#ffffff" points="0,432 576,432 576,0 0,0" shape-rendering="crispEdges"/>
<clipPath id="cp00576432">
  <polygon points="0,432 576,432 576,0 0,0"/>
</clipPath>
<g clip-path="url(#cp00576432)">
<polyline fill="none" stroke="#d8d8d8" stroke-width="0.5" stroke-linecap="butt" stroke-linejoin="miter" points="315.684,208.44 315.584,206.569 315.286,204.719 314.793,202.911 314.111,201.166 313.247,199.503 312.211,197.942 311.015,196.499 309.672,195.192 308.199,194.035 306.61,193.041 304.925,192.221 303.162,191.586 301.342,191.141 299.485,190.892 297.611,190.842 295.743,190.992 293.902,191.339 292.108,191.88 290.382,192.609 288.742,193.516 287.209,194.594 285.799,195.827 284.528,197.204 283.41,198.709 282.459,200.323 281.685,202.029 281.096,203.808 280.7,205.64 280.501,207.503 280.501,209.377 280.7,211.24 281.096,213.072 281.685,214.851 282.459,216.557 283.41,218.171 284.528,219.676 285.799,221.053 287.209,222.286 288.742,223.364 290.382,224.271 292.108,225 293.902,225.541 295.743,225.888 297.611,226.038 299.485,225.988 301.342,225.739 303.162,225.294 304.925,224.659 306.61,223.839 308.199,222.845 309.672,221.688 311.015,220.381 312.211,218.938 313.247,217.377 314.111,215.714 314.793,213.969 315.286,212.161 315.584,210.311 315.684,208.44"/>
<polyline fill="none" stroke="#d8d8d8" stroke-width="0.5" stroke-linecap="butt" stroke-linejoin="miter" points="333.288,208.44 333.089,204.698 332.492,200.998 331.506,197.382 330.142,193.892 328.414,190.566 326.342,187.443 323.95,184.558 321.265,181.943 318.317,179.629 315.14,177.641 311.77,176.002 308.244,174.731 304.604,173.842 300.889,173.344 297.143,173.244 293.407,173.543 289.724,174.238 286.136,175.32 282.683,176.777 279.405,178.593 276.338,180.747 273.518,183.215 270.976,185.969 268.741,188.977 266.838,192.206 265.29,195.619 264.112,199.177 263.32,202.84 262.922,206.566 262.922,210.314 263.32,214.04 264.112,217.703 265.29,221.261 266.838,224.674 268.741,227.903 270.976,230.911 273.518,233.665 276.338,236.133 279.405,238.287 282.683,240.103 286.136,241.56 289.724,242.642 293.407,243.337 297.143,243.636 300.889,243.536 304.604,243.038 308.244,242.149 311.77,240.878 315.14,239.239 318.317,237.251 321.265,234.937 323.95,232.322 326.342,229.437 328.414,226.314 330.142,222.988 331.506,219.498 332.492,215.882 333.089,212.182 333.288,208.44"/>
<polyline fill="none" stroke="#d8d8d8" stroke-width="0.5" stroke-linecap="butt" stroke-linejoin="miter" points="350.892,208.44 350.593,202.826 349.699,197.276 348.22,191.853 346.172,186.617 343.58,181.629 340.473,176.945 336.885,172.617 332.857,168.695 328.436,165.224 323.67,162.242 318.615,159.784 313.326,157.877 307.865,156.542 302.294,155.796 296.674,155.647 291.07,156.095 285.546,157.137 280.164,158.76 274.985,160.946 270.067,163.669 265.467,166.901 261.237,170.602 257.424,174.733 254.071,179.246 251.217,184.089 248.894,189.208 247.129,194.545 245.94,200.04 245.343,205.629 245.343,211.251 245.94,216.84 247.129,222.335 248.894,227.672 251.217,232.791 254.071,237.634 257.424,242.147 261.237,246.278 265.467,249.979 270.067,253.211 274.985,255.934 280.164,258.12 285.546,259.743 291.07,260.785 296.674,261.233 302.294,261.084 307.865,260.338 313.326,259.003 318.615,257.096 323.67,254.638 328.436,251.656 332.857,248.185 336.885,244.263 340.473,239.935 343.58,235.251 346.172,230.263 348.22,225.027 349.699,219.604 350.593,214.054 350.892,208.44"/>
<polyline fill="none" stroke="#d8d8d8" stroke-width="0.5" stroke-linecap="butt" stroke-linejoin="miter" points="368.496,208.44 368.097,200.955 366.905,193.555 364.933,186.324 362.203,179.343 358.747,172.692 354.604,166.446 349.82,160.676 344.45,155.447 338.554,150.818 332.2,146.843 325.459,143.565 318.409,141.022 311.127,139.243 303.698,138.249 296.205,138.049 288.734,138.647 281.368,140.036 274.192,142.2 267.287,145.114 260.73,148.746 254.596,153.054 248.956,157.99 243.871,163.497 239.401,169.514 235.596,175.972 232.499,182.797 230.145,189.913 228.561,197.239 227.764,204.692 227.764,212.188 228.561,219.641 230.145,226.967 232.499,234.083 235.596,240.908 239.401,247.366 243.871,253.383 248.956,258.89 254.596,263.826 260.73,268.134 267.287,271.766 274.192,274.68 281.368,276.844 288.734,278.233 296.205,278.831 303.698,278.632 311.127,277.637 318.409,275.858 325.459,273.315 332.2,270.037 338.554,266.062 344.45,261.433 349.82,256.204 354.604,250.434 358.747,244.188 362.203,237.537 364.933,230.556 366.905,223.325 368.097,215.925 368.496,208.44"/>
<polyline fill="none" stroke="#d8d8d8" stroke-width="0.5" stroke-linecap="butt" stroke-linejoin="miter" points="386.1,208.44 385.601,199.084 384.111,189.834 381.646,180.795 378.234,172.069 373.914,163.755 368.735,155.948 362.755,148.735 356.042,142.199 348.673,136.413 340.73,131.443 332.304,127.346 323.491,124.168 314.389,121.944 305.103,120.701 295.737,120.451 286.397,121.199 277.19,122.935 268.22,125.64 259.588,129.283 251.392,133.822 243.725,139.208 236.674,145.378 230.319,152.262 224.732,159.783 219.975,167.855 216.104,176.387 213.161,185.282 211.181,194.439 210.185,203.755 210.185,213.125 211.181,222.441 213.161,231.598 216.104,240.493 219.975,249.025 224.732,257.097 230.319,264.618 236.674,271.503 243.725,277.672 251.392,283.058 259.588,287.597 268.22,291.24 277.19,293.945 286.397,295.681 295.737,296.429 305.103,296.179 314.389,294.936 323.491,292.712 332.304,289.534 340.73,285.437 348.673,280.467 356.042,274.681 362.755,268.145 368.735,260.932 373.914,253.125 378.234,244.811 381.646,236.085 384.111,227.046 385.601,217.796 386.1,208.44"/>
<polyline fill="none" stroke="#d8d8d8" stroke-width="0.5" stroke-linecap="butt" stroke-linejoin="miter" points="403.704,208.44 403.106,197.213 401.317,186.113 398.359,175.266 394.265,164.795 389.081,154.818 382.866,145.449 375.69,136.794 367.635,128.95 358.791,122.008 349.26,116.044 339.149,111.127 328.573,107.313 317.651,104.645 306.507,103.153 295.268,102.853 284.061,103.75 273.013,105.834 262.248,109.079 251.89,113.451 242.055,118.899 232.855,125.361 224.393,132.765 216.767,141.026 210.062,150.051 204.354,159.738 199.709,169.976 196.177,180.65 193.801,191.639 192.606,202.818 192.606,214.062 193.801,225.241 196.177,236.23 199.709,246.904 204.354,257.142 210.062,266.829 216.767,275.854 224.393,284.115 232.855,291.519 242.055,297.981 251.89,303.429 262.248,307.801 273.013,311.046 284.061,313.13 295.268,314.027 306.507,313.727 317.651,312.235 328.573,309.567 339.149,305.753 349.26,300.836 358.791,294.872 367.635,287.93 375.69,280.086 382.866,271.431 389.081,262.062 394.265,252.085 398.359,241.614 401.317,230.767 403.106,219.667 403.704,208.44"/>
<polyline fill="none" stroke="#d8d8d8" stroke-width="0.5" stroke-linecap="butt" stroke-linejoin="miter" points="421.308,208.44 420.61,195.342 418.523,182.392 415.072,169.737 410.296,157.521 404.248,145.881 396.997,134.951 388.625,124.853 379.227,115.702 368.91,107.602 357.79,100.645 345.994,94.9086 333.655,90.4588 320.913,87.3458 307.912,85.6049 294.8,85.2557 281.724,86.3022 268.835,88.7327 256.276,92.5194 244.191,97.6196 232.717,103.975 221.984,111.515 212.112,120.152 203.215,129.79 195.392,140.32 188.733,151.62 183.313,163.565 179.194,176.018 176.421,188.839 175.027,201.882 175.027,214.998 176.421,228.041 179.194,240.862 183.313,253.315 188.733,265.26 195.392,276.56 203.215,287.09 212.112,296.728 221.984,305.365 232.717,312.905 244.191,319.26 256.276,324.361 268.835,328.147 281.724,330.578 294.8,331.624 307.912,331.275 320.913,329.534 333.655,326.421 345.994,321.971 357.79,316.235 368.91,309.278 379.227,301.178 388.625,292.027 396.997,281.929 404.248,270.999 410.296,259.359 415.072,247.143 418.523,234.488 420.61,221.538 421.308,208.44"/>
<polyline fill="none" stroke="#d8d8d8" stroke-width="0.5" stroke-linecap="butt" stroke-linejoin="miter" points="438.912,208.44 438.114,193.47 435.73,178.671 431.786,164.208 426.327,150.247 419.414,136.944 411.127,124.452 401.56,112.912 390.819,102.454 379.028,93.1968 366.32,85.2454 352.839,78.6898 338.737,73.6044 324.175,70.0466 309.316,68.057 294.331,67.6579 279.388,68.854 264.657,71.6316 250.304,75.9593 236.493,81.7881 223.38,89.0519 211.113,97.6684 199.831,107.54 189.663,118.555 180.723,130.588 173.112,143.503 166.918,157.155 162.21,171.387 159.041,186.039 157.448,200.945 157.448,215.935 159.041,230.841 162.21,245.493 166.918,259.725 173.112,273.377 180.723,286.292 189.663,298.325 199.831,309.34 211.113,319.212 223.38,327.828 236.493,335.092 250.304,340.921 264.657,345.248 279.388,348.026 294.331,349.222 309.316,348.823 324.175,346.833 338.737,343.276 352.839,338.19 366.32,331.635 379.028,323.683 390.819,314.426 401.56,303.968 411.127,292.428 419.414,279.936 426.327,266.633 431.786,252.672 435.73,238.209 438.114,223.41 438.912,208.44"/>
<polyline fill="none" stroke="#d8d8d8" stroke-width="0.5" stroke-linecap="butt" stroke-linejoin="miter" points="456.516,208.44 455.618,191.599 452.936,174.949 448.499,158.679 442.357,142.972 434.581,128.007 425.258,113.954 414.495,100.971 402.412,89.2057 389.147,78.7914 374.85,69.8461 359.684,62.471 343.819,56.7499 327.436,52.7475 310.721,50.5091 293.862,50.0602 277.051,51.4057 260.479,54.5305 244.332,59.3992 228.795,65.9566 214.042,74.1284 200.242,83.8219 187.55,94.9275 176.111,107.319 166.053,120.857 157.491,135.386 150.523,150.744 145.226,166.755 141.661,183.239 139.869,200.008 139.869,216.872 141.661,233.641 145.226,250.125 150.523,266.136 157.491,281.494 166.053,296.023 176.111,309.561 187.55,321.953 200.242,333.058 214.042,342.752 228.795,350.923 244.332,357.481 260.479,362.349 277.051,365.474 293.862,366.82 310.721,366.371 327.436,364.133 343.819,360.13 359.684,354.409 374.85,347.034 389.147,338.089 402.412,327.674 414.495,315.909 425.258,302.926 434.581,288.873 442.357,273.908 448.499,258.201 452.936,241.931 455.618,225.281 456.516,208.44"/>
<polyline fill="none" stroke="#adadad" stroke-width="0.5" stroke-linecap="butt" stroke-linejoin="miter" points="474.12,208.44 473.123,189.728 470.142,171.228 465.212,153.15 458.388,135.698 449.748,119.071 439.389,103.456 427.43,89.03 414.004,75.9575 399.266,64.386 383.38,54.4467 366.529,46.2523 348.901,39.8954 330.698,35.4483 312.126,32.9612 293.394,32.4624 274.715,33.9575 256.301,37.4295 238.36,42.8391 221.096,50.1251 204.705,59.2048 189.371,69.9755 175.269,82.315 162.558,96.0835 151.383,111.125 141.871,127.269 134.128,144.333 128.242,162.123 124.281,180.438 122.289,199.071 122.289,217.809 124.281,236.442 128.242,254.757 134.128,272.547 141.871,289.611 151.383,305.755 162.558,320.797 175.269,334.565 189.371,346.905 204.705,357.675 221.096,366.755 238.36,374.041 256.301,379.451 274.715,382.923 293.394,384.418 312.126,383.919 330.698,381.432 348.901,376.985 366.529,370.628 383.38,362.433 399.266,352.494 414.004,340.923 427.43,327.85 439.389,313.424 449.748,297.81 458.388,281.182 465.212,263.73 470.142,245.652 473.123,227.152 474.12,208.44 122.04,208.44"/>
<polyline fill="none" stroke="#d8d8d8" stroke-width="0.5" stroke-linecap="butt" stroke-linejoin="miter" points="450.535,120.42 145.625,296.46"/>
<polyline fill="none" stroke="#d8d8d8" stroke-width="0.5" stroke-linecap="butt" stroke-linejoin="miter" points="386.1,55.9849 210.06,360.895"/>
<polyline fill="none" stroke="#adadad" stroke-width="0.5" stroke-linecap="butt" stroke-linejoin="miter" points="298.08,32.4 298.08,384.48"/>
<polyline fill="none" stroke="#d8d8d8" stroke-width="0.5" stroke-linecap="butt" stroke-linejoin="miter" points="210.06,55.9849 386.1,360.895"/>
<polyline fill="none" stroke="#d8d8d8" stroke-width="0.5" stroke-linecap="butt" stroke-linejoin="miter" points="145.625,120.42 450.535,296.46"/>
<text fill="#000000" x="306.882" y="199.638" font-size="10" text-anchor="start" dy="5" font-family="Helvetica">-20</text>
<text fill="#000000" x="482.922" y="199.638" font-size="10" text-anchor="start" dy="5" font-family="Helvetica">10</text>
<polyline fill="none" stroke="#ff00ff" stroke-width="2" stroke-linecap="butt" stroke-linejoin="miter" points="178.687,208.44 179.831,212.569 181.332,216.604 183.223,220.512 185.526,224.258 188.257,227.805 191.414,231.113 194.983,234.145 198.926,236.872 203.179,239.275 207.628,241.362 212.108,243.175 216.387,244.812 220.178,246.435 223.186,248.262 225.205,250.514 226.207,253.351 226.363,256.814 225.989,260.817 225.395,265.228 224.851,269.886 224.545,274.651 224.584,279.415 225.013,284.103 225.852,288.657 227.095,293.036 228.718,297.219 230.702,301.177 233.009,304.911 235.614,308.406 238.485,311.662 241.593,314.676 244.91,317.454 248.413,319.995 252.076,322.304 255.879,324.387 259.802,326.249 263.828,327.892 267.939,329.33 272.124,330.554 276.366,331.587 280.656,332.415 284.982,333.056 289.335,333.497 293.704,333.745 298.08,333.801 302.453,333.666 306.814,333.338 311.152,332.809 315.456,332.078 319.717,331.148 323.921,330.013 328.057,328.67 332.114,327.132 336.083,325.4 339.95,323.476 343.71,321.379 347.364,319.133 350.91,316.757 354.362,314.291 357.741,311.776 361.082,309.265 364.43,306.807 367.839,304.455 371.373,302.25 375.089,300.216 379.039,298.354 383.252,296.638 387.727,295.011 392.446,293.407 397.365,291.75 402.424,289.963 407.56,287.982 412.705,285.756 417.801,283.25 422.786,280.439 427.613,277.314 432.239,273.874 436.624,270.124 440.74,266.078 444.56,261.754 448.061,257.172 451.225,252.354 454.039,247.325 456.489,242.111 458.567,236.738 460.265,231.234 461.58,225.625 462.507,219.938 463.045,214.201 463.195,208.44 462.959,202.682 462.339,196.954 461.339,191.281 459.965,185.689 458.224,180.202 456.124,174.847 453.671,169.647 450.878,164.626 447.753,159.808 444.307,155.218 440.555,150.876 436.505,146.809 432.177,143.036 427.587,139.58 422.749,136.462 417.689,133.7 412.426,131.313 406.992,129.311 401.416,127.705 395.744,126.49 390.017,125.66 384.296,125.182 378.647,125.01 373.153,125.063 367.9,125.232 362.964,125.392 358.421,125.388 354.312,125.073 350.62,124.359 347.299,123.191 344.243,121.621 341.357,119.709 338.537,117.573 335.686,115.363 332.75,113.184 329.7,111.123 326.52,109.259 323.213,107.636 319.788,106.313 316.269,105.284 312.679,104.561 309.041,104.154 305.381,104.027 301.722,104.155 298.08,104.483 294.467,104.967 290.883,105.522 287.322,106.084 283.761,106.555 280.171,106.872 276.513,106.977 272.748,106.838 268.837,106.459 264.759,105.89 260.503,105.197 256.075,104.475 251.491,103.8 246.783,103.266 241.986,102.942 237.144,102.897 232.297,103.164 227.486,103.779 222.751,104.758 218.132,106.112 213.666,107.839 209.385,109.934 205.322,112.387 201.502,115.175 197.949,118.281 194.683,121.68 191.721,125.344 189.07,129.24 186.737,133.338 184.718,137.604 183.004,142.001 181.578,146.495 180.417,151.052 179.489,155.64 178.762,160.233 178.197,164.806 177.759,169.345 177.418,173.841 177.156,178.29 176.967,182.697 176.86,187.066 176.858,191.403 176.996,195.714 177.315,199.995 177.863,204.242 178.687,208.44"/>
<polyline fill="none" stroke="#00ff00" stroke-width="2" stroke-linecap="butt" stroke-linejoin="miter" points="178.687,208.44 179.396,212.585 180.345,216.673 181.484,220.695 182.761,224.647 184.113,228.535 185.475,232.375 186.784,236.189 187.984,240.009 189.033,243.872 189.912,247.81 190.626,251.854 191.204,256.024 191.695,260.327 192.158,264.76 192.659,269.305 193.26,273.939 194.017,278.631 194.973,283.351 196.164,288.066 197.61,292.745 199.328,297.357 201.325,301.875 203.599,306.277 206.148,310.54 208.962,314.646 212.03,318.58 215.335,322.328 218.865,325.88 222.603,329.228 226.532,332.366 230.633,335.29 234.891,337.997 239.29,340.484 243.814,342.754 248.447,344.806 253.175,346.642 257.983,348.275 262.861,349.697 267.798,350.907 272.779,351.926 277.799,352.75 282.846,353.38 287.914,353.822 292.994,354.088 298.08,354.167 303.166,354.071 308.244,353.799 313.312,353.36 318.363,352.761 323.392,351.993 328.397,351.071 333.372,349.988 338.317,348.762 343.227,347.389 348.101,345.872 352.94,344.222 357.739,342.436 362.503,340.526 367.228,338.489 371.917,336.33 376.571,334.052 381.188,331.653 385.77,329.134 390.314,326.494 394.818,323.728 399.279,320.833 403.692,317.804 408.048,314.635 412.338,311.318 416.554,307.852 420.684,304.229 424.712,300.444 428.624,296.493 432.407,292.377 436.044,288.093 439.519,283.644 442.815,279.032 445.917,274.261 448.81,269.339 451.479,264.273 453.909,259.072 456.087,253.748 458.002,248.313 459.641,242.781 460.994,237.166 462.053,231.485 462.809,225.754 463.255,219.99 463.386,214.213 463.195,208.44 462.681,202.692 461.838,196.989 460.667,191.351 459.165,185.801 457.331,180.36 455.168,175.05 452.674,169.895 449.854,164.92 446.706,160.149 443.234,155.608 439.44,151.327 435.329,147.333 430.9,143.659 426.158,140.34 421.101,137.414 415.731,134.923 410.05,132.915 404.048,131.45 397.726,130.588 391.077,130.407 384.085,131.001 376.736,132.483 369.024,134.976 360.958,138.607 352.619,143.443 344.283,149.303 336.74,155.229 331.569,158.791 330.152,157.113 331.578,150.42 333.69,141.467 335.222,132.288 335.808,123.701 335.452,115.94 334.285,108.967 332.416,102.766 329.96,97.2599 327.008,92.4161 323.641,88.183 319.928,84.5317 315.931,81.4216 311.701,78.8482 307.286,76.7874 302.732,75.2194 298.08,74.131 293.369,73.5271 288.636,73.3782 283.917,73.6907 279.247,74.4391 274.663,75.637 270.197,77.2625 265.885,79.3116 261.754,81.7572 257.848,84.6184 254.193,87.8618 250.828,91.4871 247.786,95.4783 245.093,99.8 242.788,104.451 240.895,109.392 239.433,114.585 238.395,119.953 237.758,125.414 237.455,130.844 237.358,136.075 237.252,140.884 236.852,145.037 235.844,148.339 233.992,150.735 231.215,152.334 227.621,153.391 223.427,154.201 218.895,155.029 214.234,156.047 209.623,157.369 205.166,159.037 200.96,161.071 197.051,163.459 193.474,166.176 190.255,169.195 187.407,172.48 184.938,175.997 182.858,179.712 181.161,183.588 179.85,187.593 178.915,191.692 178.348,195.856 178.135,200.053 178.256,204.256 178.687,208.44"/>
<text fill="#000000" x="298.08" y="22.4" font-size="11" text-anchor="middle" dy="0" font-family="Helvetica" font-weight="bold">electrical far field [dBi] @ f = 2.510000e+09 Hz</text>
</g>
<clipPath id="cp00576432">
  <polygon points="0,432 576,432 576,0 0,0"/>
</clipPath>
<g clip-path="url(#cp00576432)">
<polygon fill="#ffffff" shape-rendering="crispEdges" points="438.267,381.734 518.534,381.734 438.267,349.498"/>
<polygon fill="#ffffff" shape-rendering="crispEdges" points="518.534,381.734 518.534,349.498 438.267,349.498"/>
<polyline fill="none" stroke="#262626" stroke-width="0.5" stroke-linecap="butt" stroke-linejoin="miter" stroke-dasharray="16,0" points="438.267,381.734 518.534,381.734"/>
<polyline fill="none" stroke="#262626" stroke-width="0.5" stroke-linecap="butt" stroke-linejoin="miter" stroke-dasharray="16,0" points="438.267,349.498 518.534,349.498"/>
<polyline fill="none" stroke="#262626" stroke-width="0.5" stroke-linecap="butt" stroke-linejoin="miter" stroke-dasharray="16,0" points="438.267,381.734 438.267,349.498"/>
<polyline fill="none" stroke="#262626" stroke-width="0.5" stroke-linecap="butt" stroke-linejoin="miter" stroke-dasharray="16,0" points="518.534,381.734 518.534,349.498"/>
<text fill="#000000" x="464.359" y="357.557" font-size="10" text-anchor="start" dy="5" font-family="Helvetica">phi = 0.0</text>
<text fill="#000000" x="464.359" y="373.675" font-size="10" text-anchor="start" dy="5" font-family="Helvetica">phi = 90.0</text>
<polyline fill="none" stroke="#ff00ff" stroke-width="2" stroke-linecap="butt" stroke-linejoin="miter" points="441.014,357.557 461.612,357.557"/>
<polyline fill="none" stroke="#00ff00" stroke-width="2" stroke-linecap="butt" stroke-linejoin="miter" points="441.014,373.675 461.612,373.675"/>
</g>
</g>
</svg>
