<?xml version="1.0" encoding="UTF-8" standalone="no"?>
<svg xmlns="http://www.w3.org/2000/svg"
     xmlns:xlink="http://www.w3.org/1999/xlink"
     width="576px" height="432px" viewBox="0 0 576 432">
<title>gl2ps_renderer figure</title>
<desc>
Creator: GL2PS 1.4.0, (C) 1999-2017 C. Geuzaine
For: Octave
CreationDate: Sun Jul 19 02:19:49 2020
</desc>
<defs>
</defs>
<polygon fill="#ffffff" points="0,0 576,0 576,432 0,432"/>
<g>
<polygon fill="#ffffff" points="0,432 576,432 576,0 0,0" shape-rendering="crispEdges"/>
<clipPath id="cp00576432">
  <polygon points="0,432 576,432 576,0 0,0"/>
</clipPath>
<g clip-path="url(#cp00576432)">
<polygon fill="#ffffff" shape-rendering="crispEdges" points="74.88,384.48 521.28,384.48 74.88,32.4"/>
<polygon fill="#ffffff" shape-rendering="crispEdges" points="521.28,384.48 521.28,32.4 74.88,32.4"/>
<polyline fill="none" stroke="#262626" stroke-width="0.5" stroke-linecap="butt" stroke-linejoin="miter" stroke-opacity="0.15" stroke-dasharray="16,0" points="74.88,384.48 74.88,32.4"/>
<polyline fill="none" stroke="#262626" stroke-width="0.5" stroke-linecap="butt" stroke-linejoin="miter" stroke-opacity="0.15" stroke-dasharray="16,0" points="186.48,384.48 186.48,32.4"/>
<polyline fill="none" stroke="#262626" stroke-width="0.5" stroke-linecap="butt" stroke-linejoin="miter" stroke-opacity="0.15" stroke-dasharray="16,0" points="298.08,384.48 298.08,32.4"/>
<polyline fill="none" stroke="#262626" stroke-width="0.5" stroke-linecap="butt" stroke-linejoin="miter" stroke-opacity="0.15" stroke-dasharray="16,0" points="409.68,384.48 409.68,32.4"/>
<polyline fill="none" stroke="#262626" stroke-width="0.5" stroke-linecap="butt" stroke-linejoin="miter" stroke-opacity="0.15" stroke-dasharray="16,0" points="521.28,384.48 521.28,32.4"/>
<polyline fill="none" stroke="#262626" stroke-width="0.5" stroke-linecap="butt" stroke-linejoin="miter" points="74.88,384.48 74.88,380.015"/>
<polyline fill="none" stroke="#262626" stroke-width="0.5" stroke-linecap="butt" stroke-linejoin="miter" points="74.88,32.4 74.88,36.865"/>
<polyline fill="none" stroke="#262626" stroke-width="0.5" stroke-linecap="butt" stroke-linejoin="miter" points="186.48,384.48 186.48,380.015"/>
<polyline fill="none" stroke="#262626" stroke-width="0.5" stroke-linecap="butt" stroke-linejoin="miter" points="186.48,32.4 186.48,36.865"/>
<polyline fill="none" stroke="#262626" stroke-width="0.5" stroke-linecap="butt" stroke-linejoin="miter" points="298.08,384.48 298.08,380.015"/>
<polyline fill="none" stroke="#262626" stroke-width="0.5" stroke-linecap="butt" stroke-linejoin="miter" points="298.08,32.4 298.08,36.865"/>
<polyline fill="none" stroke="#262626" stroke-width="0.5" stroke-linecap="butt" stroke-linejoin="miter" points="409.68,384.48 409.68,380.015"/>
<polyline fill="none" stroke="#262626" stroke-width="0.5" stroke-linecap="butt" stroke-linejoin="miter" points="409.68,32.4 409.68,36.865"/>
<polyline fill="none" stroke="#262626" stroke-width="0.5" stroke-linecap="butt" stroke-linejoin="miter" points="521.28,384.48 521.28,380.015"/>
<polyline fill="none" stroke="#262626" stroke-width="0.5" stroke-linecap="butt" stroke-linejoin="miter" points="521.28,32.4 521.28,36.865"/>
<text fill="#262626" x="74.88" y="389.481" font-size="10" text-anchor="middle" dy="10" font-family="Helvetica">-200</text>
<text fill="#262626" x="186.48" y="389.481" font-size="10" text-anchor="middle" dy="10" font-family="Helvetica">-100</text>
<text fill="#262626" x="298.08" y="389.481" font-size="10" text-anchor="middle" dy="10" font-family="Helvetica">0</text>
<text fill="#262626" x="409.68" y="389.481" font-size="10" text-anchor="middle" dy="10" font-family="Helvetica">100</text>
<text fill="#262626" x="521.28" y="389.481" font-size="10" text-anchor="middle" dy="10" font-family="Helvetica">200</text>
<polyline fill="none" stroke="#262626" stroke-width="0.5" stroke-linecap="butt" stroke-linejoin="miter" stroke-opacity="0.15" stroke-dasharray="16,0" points="74.88,384.48 521.28,384.48"/>
<polyline fill="none" stroke="#262626" stroke-width="0.5" stroke-linecap="butt" stroke-linejoin="miter" stroke-opacity="0.15" stroke-dasharray="16,0" points="74.88,314.064 521.28,314.064"/>
<polyline fill="none" stroke="#262626" stroke-width="0.5" stroke-linecap="butt" stroke-linejoin="miter" stroke-opacity="0.15" stroke-dasharray="16,0" points="74.88,243.648 521.28,243.648"/>
<polyline fill="none" stroke="#262626" stroke-width="0.5" stroke-linecap="butt" stroke-linejoin="miter" stroke-opacity="0.15" stroke-dasharray="16,0" points="74.88,173.232 521.28,173.232"/>
<polyline fill="none" stroke="#262626" stroke-width="0.5" stroke-linecap="butt" stroke-linejoin="miter" stroke-opacity="0.15" stroke-dasharray="16,0" points="74.88,102.816 521.28,102.816"/>
<polyline fill="none" stroke="#262626" stroke-width="0.5" stroke-linecap="butt" stroke-linejoin="miter" stroke-opacity="0.15" stroke-dasharray="16,0" points="74.88,32.4 521.28,32.4"/>
<polyline fill="none" stroke="#262626" stroke-width="0.5" stroke-linecap="butt" stroke-linejoin="miter" points="74.88,384.48 79.348,384.48"/>
<polyline fill="none" stroke="#262626" stroke-width="0.5" stroke-linecap="butt" stroke-linejoin="miter" points="521.28,384.48 516.812,384.48"/>
<polyline fill="none" stroke="#262626" stroke-width="0.5" stroke-linecap="butt" stroke-linejoin="miter" points="74.88,314.064 79.348,314.064"/>
<polyline fill="none" stroke="#262626" stroke-width="0.5" stroke-linecap="butt" stroke-linejoin="miter" points="521.28,314.064 516.812,314.064"/>
<polyline fill="none" stroke="#262626" stroke-width="0.5" stroke-linecap="butt" stroke-linejoin="miter" points="74.88,243.648 79.348,243.648"/>
<polyline fill="none" stroke="#262626" stroke-width="0.5" stroke-linecap="butt" stroke-linejoin="miter" points="521.28,243.648 516.812,243.648"/>
<polyline fill="none" stroke="#262626" stroke-width="0.5" stroke-linecap="butt" stroke-linejoin="miter" points="74.88,173.232 79.348,173.232"/>
<polyline fill="none" stroke="#262626" stroke-width="0.5" stroke-linecap="butt" stroke-linejoin="miter" points="521.28,173.232 516.812,173.232"/>
<polyline fill="none" stroke="#262626" stroke-width="0.5" stroke-linecap="butt" stroke-linejoin="miter" points="74.88,102.816 79.348,102.816"/>
<polyline fill="none" stroke="#262626" stroke-width="0.5" stroke-linecap="butt" stroke-linejoin="miter" points="521.28,102.816 516.812,102.816"/>
<polyline fill="none" stroke="#262626" stroke-width="0.5" stroke-linecap="butt" stroke-linejoin="miter" points="74.88,32.4 79.348,32.4"/>
<polyline fill="none" stroke="#262626" stroke-width="0.5" stroke-linecap="butt" stroke-linejoin="miter" points="521.28,32.4 516.812,32.4"/>
<text fill="#262626" x="69.8755" y="384.48" font-size="10" text-anchor="end" dy="5" font-family="Helvetica">-15</text>
<text fill="#262626" x="69.8755" y="314.064" font-size="10" text-anchor="end" dy="5" font-family="Helvetica">-10</text>
<text fill="#262626" x="69.8755" y="243.648" font-size="10" text-anchor="end" dy="5" font-family="Helvetica">-5</text>
<text fill="#262626" x="69.8755" y="173.232" font-size="10" text-anchor="end" dy="5" font-family="Helvetica">0</text>
<text fill="#262626" x="69.8755" y="102.816" font-size="10" text-anchor="end" dy="5" font-family="Helvetica">5</text>
<text fill="#262626" x="69.8755" y="32.4" font-size="10" text-anchor="end" dy="5" font-family="Helvetica">10</text>
<polyline fill="none" stroke="#262626" stroke-width="0.5" stroke-linecap="butt" stroke-linejoin="miter" stroke-dasharray="16,0" points="74.88,384.48 521.28,384.48"/>
<polyline fill="none" stroke="#262626" stroke-width="0.5" stroke-linecap="butt" stroke-linejoin="miter" stroke-dasharray="16,0" points="74.88,32.4 521.28,32.4"/>
<polyline fill="none" stroke="#262626" stroke-width="0.5" stroke-linecap="butt" stroke-linejoin="miter" stroke-dasharray="16,0" points="74.88,384.48 74.88,32.4"/>
<polyline fill="none" stroke="#262626" stroke-width="0.5" stroke-linecap="butt" stroke-linejoin="miter" stroke-dasharray="16,0" points="521.28,384.48 521.28,32.4"/>
<text fill="#262626" x="298.08" y="402.481" font-size="11" text-anchor="middle" dy="11" font-family="Helvetica">phi (deg)</text>
<text fill="#262626" x="49.8755" y="208.44" font-size="11" transform="rotate(-90, 49.8755, 208.44)" text-anchor="middle" dy="0" font-family="Helvetica">directivity (dBi)</text>
<polyline fill="none" stroke="#ff00ff" stroke-width="2" stroke-linecap="butt" stroke-linejoin="miter" points="97.2,109.3 99.432,108.609 101.664,107.839 103.896,106.989 106.128,106.061 108.36,105.064 110.592,103.996 112.824,102.865 115.056,101.68 117.288,100.446 119.52,99.1616 121.752,97.8492 123.984,96.5063 126.216,95.142 128.448,93.7709 130.68,92.3956 132.912,91.0257 135.144,89.6681 137.376,88.3334 139.608,87.0277 141.84,85.7564 144.072,84.5257 146.304,83.3416 148.536,82.2088 150.768,81.129 153,80.11 155.232,79.1492 157.464,78.2533 159.696,77.4183 161.928,76.6497 164.16,75.9476 166.392,75.3094 168.624,74.735 170.856,74.2241 173.088,73.7758 175.32,73.3887 177.552,73.0611 179.784,72.7959 182.016,72.5829 184.248,72.4256 186.48,72.3246 188.712,72.2747 190.944,72.274 193.176,72.3205 195.408,72.4186 197.64,72.5594 199.872,72.7436 202.104,72.9687 204.336,73.2321 206.568,73.5373 208.8,73.8757 211.032,74.2503 213.264,74.6547 215.496,75.092 217.728,75.5578 219.96,76.0474 222.192,76.5644 224.424,77.1025 226.656,77.6702 228.888,78.2554 231.12,78.8635 233.352,79.4917 235.584,80.1449 237.816,80.8183 240.048,81.5143 242.28,82.2376 244.512,82.9821 246.744,83.7564 248.976,84.5573 251.208,85.3905 253.44,86.2524 255.672,87.1481 257.904,88.0737 260.136,89.0377 262.368,90.0383 264.6,91.0712 266.832,92.1409 269.064,93.2408 271.296,94.377 273.528,95.546 275.76,96.7405 277.992,97.9648 280.224,99.2043 282.456,100.465 284.688,101.74 286.92,103.031 289.152,104.316 291.384,105.602 293.616,106.885 295.848,108.148 298.08,109.402 300.312,110.628 302.544,111.832 304.776,113.005 307.008,114.138 309.24,115.228 311.472,116.284 313.704,117.289 315.936,118.253 318.168,119.172 320.4,120.031 322.632,120.848 324.864,121.609 327.096,122.314 329.328,122.975 331.56,123.575 333.792,124.118 336.024,124.598 338.256,125.026 340.488,125.387 342.72,125.684 344.952,125.914 347.184,126.074 349.416,126.16 351.648,126.18 353.88,126.122 356.112,125.989 358.344,125.781 360.576,125.504 362.808,125.154 365.04,124.742 367.272,124.259 369.504,123.716 371.736,123.123 373.968,122.474 376.2,121.791 378.432,121.067 380.664,120.312 382.896,119.527 385.128,118.737 387.36,117.928 389.592,117.122 391.824,116.312 394.056,115.515 396.288,114.731 398.52,113.969 400.752,113.231 402.984,112.524 405.216,111.857 407.448,111.229 409.68,110.637 411.912,110.093 414.144,109.6 416.376,109.166 418.608,108.773 420.84,108.446 423.072,108.171 425.304,107.955 427.536,107.796 429.768,107.696 432,107.648 434.232,107.652 436.464,107.708 438.696,107.813 440.928,107.962 443.16,108.149 445.392,108.372 447.624,108.625 449.856,108.904 452.088,109.202 454.32,109.512 456.552,109.83 458.784,110.148 461.016,110.46 463.248,110.765 465.48,111.047 467.712,111.303 469.944,111.527 472.176,111.72 474.408,111.866 476.64,111.96 478.872,112.008 481.104,111.991 483.336,111.912 485.568,111.767 487.8,111.55 490.032,111.258 492.264,110.888 494.496,110.44 496.728,109.908 498.96,109.3"/>
<polyline fill="none" stroke="#00ff00" stroke-width="2" stroke-linecap="butt" stroke-linejoin="miter" points="97.2,168.52 99.432,167.321 101.664,166.255 103.896,165.267 106.128,164.335 108.36,163.429 110.592,162.495 112.824,161.495 115.056,160.374 117.288,159.118 119.52,157.666 121.752,156.027 123.984,154.179 126.216,152.096 128.448,149.846 130.68,147.406 132.912,144.84 135.144,142.172 137.376,139.437 139.608,136.702 141.84,133.992 144.072,131.35 146.304,128.806 148.536,126.383 150.768,124.099 153,121.97 155.232,119.988 157.464,118.151 159.696,116.451 161.928,114.872 164.16,113.403 166.392,112.023 168.624,110.715 170.856,109.466 173.088,108.266 175.32,107.111 177.552,106.003 179.784,104.948 182.016,103.957 184.248,103.048 186.48,102.243 188.712,101.558 190.944,101.024 193.176,100.653 195.408,100.466 197.64,100.477 199.872,100.698 202.104,101.132 204.336,101.777 206.568,102.627 208.8,103.667 211.032,104.878 213.264,106.24 215.496,107.712 217.728,109.264 219.96,110.86 222.192,112.453 224.424,114.008 226.656,115.489 228.888,116.863 231.12,118.106 233.352,119.208 235.584,120.16 237.816,120.973 240.048,121.671 242.28,122.272 244.512,122.817 246.744,123.347 248.976,123.905 251.208,124.533 253.44,125.28 255.672,126.189 257.904,127.302 260.136,128.649 262.368,130.275 264.6,132.21 266.832,134.485 269.064,137.122 271.296,140.165 273.528,143.625 275.76,147.553 277.992,151.949 280.224,156.867 282.456,162.304 284.688,168.337 286.92,174.983 289.152,182.284 291.384,190.252 293.616,198.99 295.848,208.433 298.08,218.647 300.312,229.599 302.544,241.181 304.776,253.168 307.008,265.257 309.24,276.679 311.472,286.674 313.704,294.134 315.936,298.221 318.168,298.566 320.4,295.616 322.632,290.331 324.864,283.798 327.096,276.803 329.328,269.991 331.56,263.601 333.792,257.869 336.024,252.771 338.256,248.314 340.488,244.385 342.72,240.899 344.952,237.739 347.184,234.799 349.416,231.965 351.648,229.192 353.88,226.447 356.112,223.731 358.344,221.076 360.576,218.594 362.808,216.344 365.04,214.428 367.272,212.968 369.504,212.08 371.736,211.859 373.968,212.406 376.2,213.824 378.432,216.186 380.664,219.579 382.896,224.09 385.128,229.811 387.36,236.82 389.592,245.237 391.824,255.137 394.056,266.571 396.288,279.624 398.52,294.106 400.752,309.637 402.984,325.088 405.216,338.498 407.448,346.833 409.68,347.652 411.912,341.203 414.144,329.985 416.376,316.909 418.608,303.849 420.84,291.742 423.072,280.965 425.304,271.546 427.536,263.426 429.768,256.5 432,250.626 434.232,245.66 436.464,241.471 438.696,237.924 440.928,234.873 443.16,232.21 445.392,229.806 447.624,227.563 449.856,225.372 452.088,223.149 454.32,220.83 456.552,218.362 458.784,215.724 461.016,212.913 463.248,209.928 465.48,206.806 467.712,203.597 469.944,200.329 472.176,197.056 474.408,193.819 476.64,190.662 478.872,187.628 481.104,184.735 483.336,182.014 485.568,179.488 487.8,177.153 490.032,175.033 492.264,173.116 494.496,171.404 496.728,169.873 498.96,168.519"/>
<polyline fill="none" stroke="#00ffff" stroke-width="2" stroke-linecap="butt" stroke-linejoin="miter" points="97.2,154.028 99.432,152.033 101.664,150.222 103.896,148.592 106.128,147.127 108.36,145.802 110.592,144.618 112.824,143.559 115.056,142.61 117.288,141.778 119.52,141.074 121.752,140.475 123.984,139.995 126.216,139.647 128.448,139.417 130.68,139.319 132.912,139.358 135.144,139.526 137.376,139.799 139.608,140.183 141.84,140.629 144.072,141.135 146.304,141.641 148.536,142.101 150.768,142.475 153,142.691 155.232,142.701 157.464,142.444 159.696,141.889 161.928,140.972 164.16,139.691 166.392,138.032 168.624,136.016 170.856,133.685 173.088,131.073 175.32,128.274 177.552,125.345 179.784,122.356 182.016,119.409 184.248,116.575 186.48,113.91 188.712,111.484 190.944,109.365 193.176,107.579 195.408,106.156 197.64,105.151 199.872,104.565 202.104,104.435 204.336,104.736 206.568,105.479 208.8,106.68 211.032,108.304 213.264,110.362 215.496,112.812 217.728,115.642 219.96,118.818 222.192,122.291 224.424,126.039 226.656,129.959 228.888,134.031 231.12,138.17 233.352,142.298 235.584,146.327 237.816,150.171 240.048,153.769 242.28,157.023 244.512,159.905 246.744,162.363 248.976,164.403 251.208,166.016 253.44,167.263 255.672,168.193 257.904,168.889 260.136,169.39 262.368,169.801 264.6,170.213 266.832,170.66 269.064,171.244 271.296,171.994 273.528,172.962 275.76,174.221 277.992,175.771 280.224,177.673 282.456,179.929 284.688,182.561 286.92,185.568 289.152,188.952 291.384,192.706 293.616,196.751 295.848,201.034 298.08,205.399 300.312,209.701 302.544,213.669 304.776,217.024 307.008,219.423 309.24,220.587 311.472,220.229 313.704,218.307 315.936,214.884 318.168,210.211 320.4,204.631 322.632,198.456 324.864,192.049 327.096,185.645 329.328,179.432 331.56,173.542 333.792,168.044 336.024,162.97 338.256,158.307 340.488,154.024 342.72,150.074 344.952,146.406 347.184,142.964 349.416,139.692 351.648,136.536 353.88,133.487 356.112,130.532 358.344,127.685 360.576,124.957 362.808,122.406 365.04,120.064 367.272,117.999 369.504,116.252 371.736,114.857 373.968,113.886 376.2,113.327 378.432,113.231 380.664,113.597 382.896,114.452 385.128,115.743 387.36,117.512 389.592,119.71 391.824,122.347 394.056,125.378 396.288,128.797 398.52,132.555 400.752,136.677 402.984,141.108 405.216,145.847 407.448,150.873 409.68,156.216 411.912,161.853 414.144,167.781 416.376,173.979 418.608,180.539 420.84,187.356 423.072,194.513 425.304,201.939 427.536,209.596 429.768,217.428 432,225.339 434.232,233.147 436.464,240.596 438.696,247.37 440.928,253.078 443.16,257.339 445.392,259.78 447.624,260.216 449.856,258.64 452.088,255.271 454.32,250.474 456.552,244.65 458.784,238.177 461.016,231.387 463.248,224.521 465.48,217.763 467.712,211.218 469.944,204.968 472.176,199.049 474.408,193.485 476.64,188.287 478.872,183.441 481.104,178.957 483.336,174.81 485.568,170.989 487.8,167.473 490.032,164.266 492.264,161.323 494.496,158.653 496.728,156.227 498.96,154.015"/>
<text fill="#000000" x="298.08" y="22.4" font-size="11" text-anchor="middle" dy="0" font-family="Helvetica" font-weight="bold">far field pattern @ f = 2.510000e+09 Hz</text>
</g>
<clipPath id="cp00576432">
  <polygon points="0,432 576,432 576,0 0,0"/>
</clipPath>
<g clip-path="url(#cp00576432)">
<polygon fill="#ffffff" shape-rendering="crispEdges" points="426.953,83.5002 518.534,83.5002 426.953,35.1465"/>
<polygon fill="#ffffff" shape-rendering="crispEdges" points="518.534,83.5002 518.534,35.1465 426.953,35.1465"/>
<polyline fill="none" stroke="#262626" stroke-width="0.5" stroke-linecap="butt" stroke-linejoin="miter" stroke-dasharray="16,0" points="426.953,83.5002 518.534,83.5002"/>
<polyline fill="none" stroke="#262626" stroke-width="0.5" stroke-linecap="butt" stroke-linejoin="miter" stroke-dasharray="16,0" points="426.953,35.1465 518.534,35.1465"/>
<polyline fill="none" stroke="#262626" stroke-width="0.5" stroke-linecap="butt" stroke-linejoin="miter" stroke-dasharray="16,0" points="426.953,83.5002 426.953,35.1465"/>
<polyline fill="none" stroke="#262626" stroke-width="0.5" stroke-linecap="butt" stroke-linejoin="miter" stroke-dasharray="16,0" points="518.534,83.5002 518.534,35.1465"/>
<text fill="#000000" x="453.044" y="43.2054" font-size="10" text-anchor="start" dy="5" font-family="Helvetica">theta = 30.0</text>
<text fill="#000000" x="453.044" y="59.3233" font-size="10" text-anchor="start" dy="5" font-family="Helvetica">theta = 60.0</text>
<text fill="#000000" x="453.044" y="75.4412" font-size="10" text-anchor="start" dy="5" font-family="Helvetica">theta = 90.0</text>
<polyline fill="none" stroke="#ff00ff" stroke-width="2" stroke-linecap="butt" stroke-linejoin="miter" points="429.699,43.2054 450.298,43.2054"/>
<polyline fill="none" stroke="#00ff00" stroke-width="2" stroke-linecap="butt" stroke-linejoin="miter" points="429.699,59.3233 450.298,59.3233"/>
<polyline fill="none" stroke="#00ffff" stroke-width="2" stroke-linecap="butt" stroke-linejoin="miter" points="429.699,75.4412 450.298,75.4412"/>
</g>
</g>
</svg>
