<?xml version="1.0" encoding="UTF-8" standalone="no"?>
<svg xmlns="http://www.w3.org/2000/svg"
     xmlns:xlink="http://www.w3.org/1999/xlink"
     width="576px" height="432px" viewBox="0 0 576 432">
<title>gl2ps_renderer figure</title>
<desc>
Creator: GL2PS 1.4.0, (C) 1999-2017 C. Geuzaine
For: Octave
CreationDate: Sun Jul 19 02:19:41 2020
</desc>
<defs>
</defs>
<polygon fill="#ffffff" points="0,0 576,0 576,432 0,432"/>
<g>
<polygon fill="#ffffff" points="0,432 576,432 576,0 0,0" shape-rendering="crispEdges"/>
<clipPath id="cp00576432">
  <polygon points="0,432 576,432 576,0 0,0"/>
</clipPath>
<g clip-path="url(#cp00576432)">
<polygon fill="#ffffff" shape-rendering="crispEdges" points="74.88,384.48 521.28,384.48 74.88,32.4"/>
<polygon fill="#ffffff" shape-rendering="crispEdges" points="521.28,384.48 521.28,32.4 74.88,32.4"/>
<polyline fill="none" stroke="#262626" stroke-width="0.5" stroke-linecap="butt" stroke-linejoin="miter" stroke-opacity="0.15" stroke-dasharray="16,0" points="74.88,384.48 74.88,32.4"/>
<polyline fill="none" stroke="#262626" stroke-width="0.5" stroke-linecap="butt" stroke-linejoin="miter" stroke-opacity="0.15" stroke-dasharray="16,0" points="186.48,384.48 186.48,32.4"/>
<polyline fill="none" stroke="#262626" stroke-width="0.5" stroke-linecap="butt" stroke-linejoin="miter" stroke-opacity="0.15" stroke-dasharray="16,0" points="298.08,384.48 298.08,32.4"/>
<polyline fill="none" stroke="#262626" stroke-width="0.5" stroke-linecap="butt" stroke-linejoin="miter" stroke-opacity="0.15" stroke-dasharray="16,0" points="409.68,384.48 409.68,32.4"/>
<polyline fill="none" stroke="#262626" stroke-width="0.5" stroke-linecap="butt" stroke-linejoin="miter" stroke-opacity="0.15" stroke-dasharray="16,0" points="521.28,384.48 521.28,32.4"/>
<polyline fill="none" stroke="#262626" stroke-width="0.5" stroke-linecap="butt" stroke-linejoin="miter" points="74.88,384.48 74.88,380.015"/>
<polyline fill="none" stroke="#262626" stroke-width="0.5" stroke-linecap="butt" stroke-linejoin="miter" points="74.88,32.4 74.88,36.865"/>
<polyline fill="none" stroke="#262626" stroke-width="0.5" stroke-linecap="butt" stroke-linejoin="miter" points="186.48,384.48 186.48,380.015"/>
<polyline fill="none" stroke="#262626" stroke-width="0.5" stroke-linecap="butt" stroke-linejoin="miter" points="186.48,32.4 186.48,36.865"/>
<polyline fill="none" stroke="#262626" stroke-width="0.5" stroke-linecap="butt" stroke-linejoin="miter" points="298.08,384.48 298.08,380.015"/>
<polyline fill="none" stroke="#262626" stroke-width="0.5" stroke-linecap="butt" stroke-linejoin="miter" points="298.08,32.4 298.08,36.865"/>
<polyline fill="none" stroke="#262626" stroke-width="0.5" stroke-linecap="butt" stroke-linejoin="miter" points="409.68,384.48 409.68,380.015"/>
<polyline fill="none" stroke="#262626" stroke-width="0.5" stroke-linecap="butt" stroke-linejoin="miter" points="409.68,32.4 409.68,36.865"/>
<polyline fill="none" stroke="#262626" stroke-width="0.5" stroke-linecap="butt" stroke-linejoin="miter" points="521.28,384.48 521.28,380.015"/>
<polyline fill="none" stroke="#262626" stroke-width="0.5" stroke-linecap="butt" stroke-linejoin="miter" points="521.28,32.4 521.28,36.865"/>
<text fill="#262626" x="74.88" y="389.481" font-size="10" text-anchor="middle" dy="10" font-family="Helvetica">-200</text>
<text fill="#262626" x="186.48" y="389.481" font-size="10" text-anchor="middle" dy="10" font-family="Helvetica">-100</text>
<text fill="#262626" x="298.08" y="389.481" font-size="10" text-anchor="middle" dy="10" font-family="Helvetica">0</text>
<text fill="#262626" x="409.68" y="389.481" font-size="10" text-anchor="middle" dy="10" font-family="Helvetica">100</text>
<text fill="#262626" x="521.28" y="389.481" font-size="10" text-anchor="middle" dy="10" font-family="Helvetica">200</text>
<polyline fill="none" stroke="#262626" stroke-width="0.5" stroke-linecap="butt" stroke-linejoin="miter" stroke-opacity="0.15" stroke-dasharray="16,0" points="74.88,384.48 521.28,384.48"/>
<polyline fill="none" stroke="#262626" stroke-width="0.5" stroke-linecap="butt" stroke-linejoin="miter" stroke-opacity="0.15" stroke-dasharray="16,0" points="74.88,296.46 521.28,296.46"/>
<polyline fill="none" stroke="#262626" stroke-width="0.5" stroke-linecap="butt" stroke-linejoin="miter" stroke-opacity="0.15" stroke-dasharray="16,0" points="74.88,208.44 521.28,208.44"/>
<polyline fill="none" stroke="#262626" stroke-width="0.5" stroke-linecap="butt" stroke-linejoin="miter" stroke-opacity="0.15" stroke-dasharray="16,0" points="74.88,120.42 521.28,120.42"/>
<polyline fill="none" stroke="#262626" stroke-width="0.5" stroke-linecap="butt" stroke-linejoin="miter" stroke-opacity="0.15" stroke-dasharray="16,0" points="74.88,32.4 521.28,32.4"/>
<polyline fill="none" stroke="#262626" stroke-width="0.5" stroke-linecap="butt" stroke-linejoin="miter" points="74.88,384.48 79.348,384.48"/>
<polyline fill="none" stroke="#262626" stroke-width="0.5" stroke-linecap="butt" stroke-linejoin="miter" points="521.28,384.48 516.812,384.48"/>
<polyline fill="none" stroke="#262626" stroke-width="0.5" stroke-linecap="butt" stroke-linejoin="miter" points="74.88,296.46 79.348,296.46"/>
<polyline fill="none" stroke="#262626" stroke-width="0.5" stroke-linecap="butt" stroke-linejoin="miter" points="521.28,296.46 516.812,296.46"/>
<polyline fill="none" stroke="#262626" stroke-width="0.5" stroke-linecap="butt" stroke-linejoin="miter" points="74.88,208.44 79.348,208.44"/>
<polyline fill="none" stroke="#262626" stroke-width="0.5" stroke-linecap="butt" stroke-linejoin="miter" points="521.28,208.44 516.812,208.44"/>
<polyline fill="none" stroke="#262626" stroke-width="0.5" stroke-linecap="butt" stroke-linejoin="miter" points="74.88,120.42 79.348,120.42"/>
<polyline fill="none" stroke="#262626" stroke-width="0.5" stroke-linecap="butt" stroke-linejoin="miter" points="521.28,120.42 516.812,120.42"/>
<polyline fill="none" stroke="#262626" stroke-width="0.5" stroke-linecap="butt" stroke-linejoin="miter" points="74.88,32.4 79.348,32.4"/>
<polyline fill="none" stroke="#262626" stroke-width="0.5" stroke-linecap="butt" stroke-linejoin="miter" points="521.28,32.4 516.812,32.4"/>
<text fill="#262626" x="69.8755" y="384.48" font-size="10" text-anchor="end" dy="5" font-family="Helvetica">-10</text>
<text fill="#262626" x="69.8755" y="296.46" font-size="10" text-anchor="end" dy="5" font-family="Helvetica">-5</text>
<text fill="#262626" x="69.8755" y="208.44" font-size="10" text-anchor="end" dy="5" font-family="Helvetica">0</text>
<text fill="#262626" x="69.8755" y="120.42" font-size="10" text-anchor="end" dy="5" font-family="Helvetica">5</text>
<text fill="#262626" x="69.8755" y="32.4" font-size="10" text-anchor="end" dy="5" font-family="Helvetica">10</text>
<polyline fill="none" stroke="#262626" stroke-width="0.5" stroke-linecap="butt" stroke-linejoin="miter" stroke-dasharray="16,0" points="74.88,384.48 521.28,384.48"/>
<polyline fill="none" stroke="#262626" stroke-width="0.5" stroke-linecap="butt" stroke-linejoin="miter" stroke-dasharray="16,0" points="74.88,32.4 521.28,32.4"/>
<polyline fill="none" stroke="#262626" stroke-width="0.5" stroke-linecap="butt" stroke-linejoin="miter" stroke-dasharray="16,0" points="74.88,384.48 74.88,32.4"/>
<polyline fill="none" stroke="#262626" stroke-width="0.5" stroke-linecap="butt" stroke-linejoin="miter" stroke-dasharray="16,0" points="521.28,384.48 521.28,32.4"/>
<text fill="#262626" x="298.08" y="402.481" font-size="11" text-anchor="middle" dy="11" font-family="Helvetica">theta (deg)</text>
<text fill="#262626" x="49.8755" y="208.44" font-size="11" transform="rotate(-90, 49.8755, 208.44)" text-anchor="middle" dy="0" font-family="Helvetica">directivity (dBi)</text>
<polyline fill="none" stroke="#ff00ff" stroke-width="2" stroke-linecap="butt" stroke-linejoin="miter" points="97.2,202.342 99.432,205.555 101.664,209.42 103.896,214.051 106.128,219.541 108.36,225.968 110.592,233.374 112.824,241.76 115.056,251.071 117.288,261.166 119.52,271.747 121.752,282.348 123.984,292.248 126.216,300.498 128.448,306.052 130.68,308.074 132.912,306.266 135.144,301.001 137.376,293.192 139.608,283.804 141.84,273.74 144.072,263.669 146.304,254.004 148.536,244.966 150.768,236.692 153,229.223 155.232,222.534 157.464,216.63 159.696,211.424 161.928,206.888 164.16,202.95 166.392,199.56 168.624,196.652 170.856,194.184 173.088,192.102 175.32,190.355 177.552,188.906 179.784,187.723 182.016,186.747 184.248,185.994 186.48,185.38 188.712,184.939 190.944,184.611 193.176,184.434 195.408,184.375 197.64,184.437 199.872,184.614 202.104,184.911 204.336,185.358 206.568,185.961 208.8,186.716 211.032,187.653 213.264,188.787 215.496,190.094 217.728,191.584 219.96,193.263 222.192,195.094 224.424,197.015 226.656,198.978 228.888,200.869 231.12,202.552 233.352,203.849 235.584,204.563 237.816,204.477 240.048,203.38 242.28,201.103 244.512,197.546 246.744,192.691 248.976,186.647 251.208,179.575 253.44,171.699 255.672,163.276 257.904,154.546 260.136,145.732 262.368,137.003 264.6,128.524 266.832,120.403 269.064,112.725 271.296,105.554 273.528,98.9296 275.76,92.8776 277.992,87.4227 280.224,82.57 282.456,78.3206 284.688,74.6772 286.92,71.6328 289.152,69.1819 291.384,67.3186 293.616,66.0346 295.848,65.3221 298.08,65.1734 300.312,65.5818 302.544,66.5408 304.776,68.0455 307.008,70.0912 309.24,72.6752 311.472,75.796 313.704,79.4568 315.936,83.6535 318.168,88.3926 320.4,93.6848 322.632,99.5278 324.864,105.944 327.096,112.93 329.328,120.493 331.56,128.652 333.792,137.399 336.024,146.743 338.256,156.653 340.488,167.113 342.72,178.047 344.952,189.381 347.184,200.958 349.416,212.576 351.648,223.934 353.88,234.658 356.112,244.351 358.344,252.546 360.576,258.844 362.808,263.081 365.04,265.208 367.272,265.533 369.504,264.352 371.736,262.121 373.968,259.358 376.2,256.413 378.432,253.543 380.664,250.986 382.896,248.85 385.128,247.295 387.36,246.278 389.592,245.822 391.824,245.94 394.056,246.517 396.288,247.473 398.52,248.649 400.752,249.91 402.984,251.013 405.216,251.762 407.448,251.86 409.68,251.116 411.912,249.331 414.144,246.384 416.376,242.246 418.608,237.037 420.84,230.913 423.072,224.13 425.304,216.893 427.536,209.47 429.768,202.07 432,194.907 434.232,188.104 436.464,181.79 438.696,176.046 440.928,170.95 443.16,166.545 445.392,162.863 447.624,159.931 449.856,157.741 452.088,156.3 454.32,155.596 456.552,155.607 458.784,156.29 461.016,157.607 463.248,159.499 465.48,161.883 467.712,164.681 469.944,167.784 472.176,171.078 474.408,174.455 476.64,177.791 478.872,180.98 481.104,183.946 483.336,186.642 485.568,189.064 487.8,191.25 490.032,193.28 492.264,195.266 494.496,197.341 496.728,199.651 498.96,202.342"/>
<polyline fill="none" stroke="#00ff00" stroke-width="2" stroke-linecap="butt" stroke-linejoin="miter" points="97.2,202.342 99.432,204.252 101.664,206.451 103.896,208.807 106.128,211.163 108.36,213.346 110.592,215.159 112.824,216.41 115.056,216.922 117.288,216.544 119.52,215.191 121.752,212.841 123.984,209.548 126.216,205.429 128.448,200.629 130.68,195.33 132.912,189.715 135.144,183.953 137.376,178.18 139.608,172.519 141.84,167.056 144.072,161.868 146.304,157.004 148.536,152.49 150.768,148.351 153,144.592 155.232,141.213 157.464,138.199 159.696,135.544 161.928,133.227 164.16,131.229 166.392,129.522 168.624,128.085 170.856,126.899 173.088,125.933 175.32,125.166 177.552,124.577 179.784,124.109 182.016,123.777 184.248,123.57 186.48,123.42 188.712,123.335 190.944,123.304 193.176,123.309 195.408,123.31 197.64,123.339 199.872,123.36 202.104,123.379 204.336,123.365 206.568,123.301 208.8,123.218 211.032,123.066 213.264,122.875 215.496,122.589 217.728,122.22 219.96,121.762 222.192,121.182 224.424,120.49 226.656,119.642 228.888,118.652 231.12,117.496 233.352,116.165 235.584,114.657 237.816,112.961 240.048,111.083 242.28,109.026 244.512,106.802 246.744,104.418 248.976,101.9 251.208,99.2717 253.44,96.5476 255.672,93.7597 257.904,90.9429 260.136,88.1275 262.368,85.3323 264.6,82.5992 266.832,79.9519 269.064,77.4229 271.296,75.0352 273.528,72.8162 275.76,70.7881 277.992,68.976 280.224,67.3953 282.456,66.0674 284.688,65.0093 286.92,64.2371 289.152,63.7657 291.384,63.6101 293.616,63.7838 295.848,64.3004 298.08,65.1734 300.312,66.4167 302.544,68.0449 304.776,70.0728 307.008,72.5168 309.24,75.3954 311.472,78.728 313.704,82.5389 315.936,86.8502 318.168,91.6971 320.4,97.1113 322.632,103.135 324.864,109.808 327.096,117.192 329.328,125.347 331.56,134.362 333.792,144.324 336.024,155.34 338.256,167.569 340.488,181.161 342.72,196.325 344.952,213.326 347.184,232.485 349.416,254.138 351.648,278.611 353.88,305.978 356.112,335.381 358.344,363.202 360.576,380.858 362.808,378.95 365.04,359.532 367.272,332.964 369.504,306.339 371.736,282.244 373.968,261.227 376.2,242.95 378.432,227.183 380.664,213.538 382.896,201.793 385.128,191.689 387.36,183.061 389.592,175.72 391.824,169.603 394.056,164.598 396.288,160.615 398.52,157.593 400.752,155.535 402.984,154.345 405.216,154.045 407.448,154.566 409.68,155.965 411.912,158.196 414.144,161.275 416.376,165.156 418.608,169.939 420.84,175.57 423.072,182.107 425.304,189.564 427.536,197.901 429.768,207.196 432,217.408 434.232,228.505 436.464,240.317 438.696,252.643 440.928,265.107 443.16,277.121 445.392,287.802 447.624,296.096 449.856,300.965 452.088,301.804 454.32,298.664 456.552,292.279 458.784,283.691 461.016,273.976 463.248,263.911 465.48,254.095 467.712,244.826 469.944,236.353 472.176,228.749 474.408,222.055 476.64,216.284 478.872,211.414 481.104,207.415 483.336,204.272 485.568,201.927 487.8,200.357 490.032,199.512 492.264,199.346 494.496,199.806 496.728,200.83 498.96,202.342"/>
<text fill="#000000" x="298.08" y="22.4" font-size="11" text-anchor="middle" dy="0" font-family="Helvetica" font-weight="bold">far field pattern @ f = 2.510000e+09 Hz</text>
</g>
<clipPath id="cp00576432">
  <polygon points="0,432 576,432 576,0 0,0"/>
</clipPath>
<g clip-path="url(#cp00576432)">
<polygon fill="#ffffff" shape-rendering="crispEdges" points="438.267,67.3823 518.534,67.3823 438.267,35.1465"/>
<polygon fill="#ffffff" shape-rendering="crispEdges" points="518.534,67.3823 518.534,35.1465 438.267,35.1465"/>
<polyline fill="none" stroke="#262626" stroke-width="0.5" stroke-linecap="butt" stroke-linejoin="miter" stroke-dasharray="16,0" points="438.267,67.3823 518.534,67.3823"/>
<polyline fill="none" stroke="#262626" stroke-width="0.5" stroke-linecap="butt" stroke-linejoin="miter" stroke-dasharray="16,0" points="438.267,35.1465 518.534,35.1465"/>
<polyline fill="none" stroke="#262626" stroke-width="0.5" stroke-linecap="butt" stroke-linejoin="miter" stroke-dasharray="16,0" points="438.267,67.3823 438.267,35.1465"/>
<polyline fill="none" stroke="#262626" stroke-width="0.5" stroke-linecap="butt" stroke-linejoin="miter" stroke-dasharray="16,0" points="518.534,67.3823 518.534,35.1465"/>
<text fill="#000000" x="464.359" y="43.2054" font-size="10" text-anchor="start" dy="5" font-family="Helvetica">phi = 0.0</text>
<text fill="#000000" x="464.359" y="59.3233" font-size="10" text-anchor="start" dy="5" font-family="Helvetica">phi = 90.0</text>
<polyline fill="none" stroke="#ff00ff" stroke-width="2" stroke-linecap="butt" stroke-linejoin="miter" points="441.014,43.2054 461.612,43.2054"/>
<polyline fill="none" stroke="#00ff00" stroke-width="2" stroke-linecap="butt" stroke-linejoin="miter" points="441.014,59.3233 461.612,59.3233"/>
</g>
</g>
</svg>
