<?xml version="1.0" encoding="UTF-8" standalone="no"?>
<svg xmlns="http://www.w3.org/2000/svg"
     xmlns:xlink="http://www.w3.org/1999/xlink"
     width="576px" height="432px" viewBox="0 0 576 432">
<title>gl2ps_renderer figure</title>
<desc>
Creator: GL2PS 1.4.0, (C) 1999-2017 C. Geuzaine
For: Octave
CreationDate: Sun Jul 19 02:19:49 2020
</desc>
<defs>
</defs>
<polygon fill="#ffffff" points="0,0 576,0 576,432 0,432"/>
<g>
<polygon fill="#ffffff" points="0,432 576,432 576,0 0,0" shape-rendering="crispEdges"/>
<clipPath id="cp00576432">
  <polygon points="0,432 576,432 576,0 0,0"/>
</clipPath>
<g clip-path="url(#cp00576432)">
<polyline fill="none" stroke="#d8d8d8" stroke-width="0.5" stroke-linecap="butt" stroke-linejoin="miter" points="315.684,208.44 315.584,206.569 315.286,204.719 314.793,202.911 314.111,201.166 313.247,199.503 312.211,197.942 311.015,196.499 309.672,195.192 308.199,194.035 306.61,193.041 304.925,192.221 303.162,191.586 301.342,191.141 299.485,190.892 297.611,190.842 295.743,190.992 293.902,191.339 292.108,191.88 290.382,192.609 288.742,193.516 287.209,194.594 285.799,195.827 284.528,197.204 283.41,198.709 282.459,200.323 281.685,202.029 281.096,203.808 280.7,205.64 280.501,207.503 280.501,209.377 280.7,211.24 281.096,213.072 281.685,214.851 282.459,216.557 283.41,218.171 284.528,219.676 285.799,221.053 287.209,222.286 288.742,223.364 290.382,224.271 292.108,225 293.902,225.541 295.743,225.888 297.611,226.038 299.485,225.988 301.342,225.739 303.162,225.294 304.925,224.659 306.61,223.839 308.199,222.845 309.672,221.688 311.015,220.381 312.211,218.938 313.247,217.377 314.111,215.714 314.793,213.969 315.286,212.161 315.584,210.311 315.684,208.44"/>
<polyline fill="none" stroke="#d8d8d8" stroke-width="0.5" stroke-linecap="butt" stroke-linejoin="miter" points="333.288,208.44 333.089,204.698 332.492,200.998 331.506,197.382 330.142,193.892 328.414,190.566 326.342,187.443 323.95,184.558 321.265,181.943 318.317,179.629 315.14,177.641 311.77,176.002 308.244,174.731 304.604,173.842 300.889,173.344 297.143,173.244 293.407,173.543 289.724,174.238 286.136,175.32 282.683,176.777 279.405,178.593 276.338,180.747 273.518,183.215 270.976,185.969 268.741,188.977 266.838,192.206 265.29,195.619 264.112,199.177 263.32,202.84 262.922,206.566 262.922,210.314 263.32,214.04 264.112,217.703 265.29,221.261 266.838,224.674 268.741,227.903 270.976,230.911 273.518,233.665 276.338,236.133 279.405,238.287 282.683,240.103 286.136,241.56 289.724,242.642 293.407,243.337 297.143,243.636 300.889,243.536 304.604,243.038 308.244,242.149 311.77,240.878 315.14,239.239 318.317,237.251 321.265,234.937 323.95,232.322 326.342,229.437 328.414,226.314 330.142,222.988 331.506,219.498 332.492,215.882 333.089,212.182 333.288,208.44"/>
<polyline fill="none" stroke="#d8d8d8" stroke-width="0.5" stroke-linecap="butt" stroke-linejoin="miter" points="350.892,208.44 350.593,202.826 349.699,197.276 348.22,191.853 346.172,186.617 343.58,181.629 340.473,176.945 336.885,172.617 332.857,168.695 328.436,165.224 323.67,162.242 318.615,159.784 313.326,157.877 307.865,156.542 302.294,155.796 296.674,155.647 291.07,156.095 285.546,157.137 280.164,158.76 274.985,160.946 270.067,163.669 265.467,166.901 261.237,170.602 257.424,174.733 254.071,179.246 251.217,184.089 248.894,189.208 247.129,194.545 245.94,200.04 245.343,205.629 245.343,211.251 245.94,216.84 247.129,222.335 248.894,227.672 251.217,232.791 254.071,237.634 257.424,242.147 261.237,246.278 265.467,249.979 270.067,253.211 274.985,255.934 280.164,258.12 285.546,259.743 291.07,260.785 296.674,261.233 302.294,261.084 307.865,260.338 313.326,259.003 318.615,257.096 323.67,254.638 328.436,251.656 332.857,248.185 336.885,244.263 340.473,239.935 343.58,235.251 346.172,230.263 348.22,225.027 349.699,219.604 350.593,214.054 350.892,208.44"/>
<polyline fill="none" stroke="#d8d8d8" stroke-width="0.5" stroke-linecap="butt" stroke-linejoin="miter" points="368.496,208.44 368.097,200.955 366.905,193.555 364.933,186.324 362.203,179.343 358.747,172.692 354.604,166.446 349.82,160.676 344.45,155.447 338.554,150.818 332.2,146.843 325.459,143.565 318.409,141.022 311.127,139.243 303.698,138.249 296.205,138.049 288.734,138.647 281.368,140.036 274.192,142.2 267.287,145.114 260.73,148.746 254.596,153.054 248.956,157.99 243.871,163.497 239.401,169.514 235.596,175.972 232.499,182.797 230.145,189.913 228.561,197.239 227.764,204.692 227.764,212.188 228.561,219.641 230.145,226.967 232.499,234.083 235.596,240.908 239.401,247.366 243.871,253.383 248.956,258.89 254.596,263.826 260.73,268.134 267.287,271.766 274.192,274.68 281.368,276.844 288.734,278.233 296.205,278.831 303.698,278.632 311.127,277.637 318.409,275.858 325.459,273.315 332.2,270.037 338.554,266.062 344.45,261.433 349.82,256.204 354.604,250.434 358.747,244.188 362.203,237.537 364.933,230.556 366.905,223.325 368.097,215.925 368.496,208.44"/>
<polyline fill="none" stroke="#d8d8d8" stroke-width="0.5" stroke-linecap="butt" stroke-linejoin="miter" points="386.1,208.44 385.601,199.084 384.111,189.834 381.646,180.795 378.234,172.069 373.914,163.755 368.735,155.948 362.755,148.735 356.042,142.199 348.673,136.413 340.73,131.443 332.304,127.346 323.491,124.168 314.389,121.944 305.103,120.701 295.737,120.451 286.397,121.199 277.19,122.935 268.22,125.64 259.588,129.283 251.392,133.822 243.725,139.208 236.674,145.378 230.319,152.262 224.732,159.783 219.975,167.855 216.104,176.387 213.161,185.282 211.181,194.439 210.185,203.755 210.185,213.125 211.181,222.441 213.161,231.598 216.104,240.493 219.975,249.025 224.732,257.097 230.319,264.618 236.674,271.503 243.725,277.672 251.392,283.058 259.588,287.597 268.22,291.24 277.19,293.945 286.397,295.681 295.737,296.429 305.103,296.179 314.389,294.936 323.491,292.712 332.304,289.534 340.73,285.437 348.673,280.467 356.042,274.681 362.755,268.145 368.735,260.932 373.914,253.125 378.234,244.811 381.646,236.085 384.111,227.046 385.601,217.796 386.1,208.44"/>
<polyline fill="none" stroke="#d8d8d8" stroke-width="0.5" stroke-linecap="butt" stroke-linejoin="miter" points="403.704,208.44 403.106,197.213 401.317,186.113 398.359,175.266 394.265,164.795 389.081,154.818 382.866,145.449 375.69,136.794 367.635,128.95 358.791,122.008 349.26,116.044 339.149,111.127 328.573,107.313 317.651,104.645 306.507,103.153 295.268,102.853 284.061,103.75 273.013,105.834 262.248,109.079 251.89,113.451 242.055,118.899 232.855,125.361 224.393,132.765 216.767,141.026 210.062,150.051 204.354,159.738 199.709,169.976 196.177,180.65 193.801,191.639 192.606,202.818 192.606,214.062 193.801,225.241 196.177,236.23 199.709,246.904 204.354,257.142 210.062,266.829 216.767,275.854 224.393,284.115 232.855,291.519 242.055,297.981 251.89,303.429 262.248,307.801 273.013,311.046 284.061,313.13 295.268,314.027 306.507,313.727 317.651,312.235 328.573,309.567 339.149,305.753 349.26,300.836 358.791,294.872 367.635,287.93 375.69,280.086 382.866,271.431 389.081,262.062 394.265,252.085 398.359,241.614 401.317,230.767 403.106,219.667 403.704,208.44"/>
<polyline fill="none" stroke="#d8d8d8" stroke-width="0.5" stroke-linecap="butt" stroke-linejoin="miter" points="421.308,208.44 420.61,195.342 418.523,182.392 415.072,169.737 410.296,157.521 404.248,145.881 396.997,134.951 388.625,124.853 379.227,115.702 368.91,107.602 357.79,100.645 345.994,94.9086 333.655,90.4588 320.913,87.3458 307.912,85.6049 294.8,85.2557 281.724,86.3022 268.835,88.7327 256.276,92.5194 244.191,97.6196 232.717,103.975 221.984,111.515 212.112,120.152 203.215,129.79 195.392,140.32 188.733,151.62 183.313,163.565 179.194,176.018 176.421,188.839 175.027,201.882 175.027,214.998 176.421,228.041 179.194,240.862 183.313,253.315 188.733,265.26 195.392,276.56 203.215,287.09 212.112,296.728 221.984,305.365 232.717,312.905 244.191,319.26 256.276,324.361 268.835,328.147 281.724,330.578 294.8,331.624 307.912,331.275 320.913,329.534 333.655,326.421 345.994,321.971 357.79,316.235 368.91,309.278 379.227,301.178 388.625,292.027 396.997,281.929 404.248,270.999 410.296,259.359 415.072,247.143 418.523,234.488 420.61,221.538 421.308,208.44"/>
<polyline fill="none" stroke="#d8d8d8" stroke-width="0.5" stroke-linecap="butt" stroke-linejoin="miter" points="438.912,208.44 438.114,193.47 435.73,178.671 431.786,164.208 426.327,150.247 419.414,136.944 411.127,124.452 401.56,112.912 390.819,102.454 379.028,93.1968 366.32,85.2454 352.839,78.6898 338.737,73.6044 324.175,70.0466 309.316,68.057 294.331,67.6579 279.388,68.854 264.657,71.6316 250.304,75.9593 236.493,81.7881 223.38,89.0519 211.113,97.6684 199.831,107.54 189.663,118.555 180.723,130.588 173.112,143.503 166.918,157.155 162.21,171.387 159.041,186.039 157.448,200.945 157.448,215.935 159.041,230.841 162.21,245.493 166.918,259.725 173.112,273.377 180.723,286.292 189.663,298.325 199.831,309.34 211.113,319.212 223.38,327.828 236.493,335.092 250.304,340.921 264.657,345.248 279.388,348.026 294.331,349.222 309.316,348.823 324.175,346.833 338.737,343.276 352.839,338.19 366.32,331.635 379.028,323.683 390.819,314.426 401.56,303.968 411.127,292.428 419.414,279.936 426.327,266.633 431.786,252.672 435.73,238.209 438.114,223.41 438.912,208.44"/>
<polyline fill="none" stroke="#d8d8d8" stroke-width="0.5" stroke-linecap="butt" stroke-linejoin="miter" points="456.516,208.44 455.618,191.599 452.936,174.949 448.499,158.679 442.357,142.972 434.581,128.007 425.258,113.954 414.495,100.971 402.412,89.2057 389.147,78.7914 374.85,69.8461 359.684,62.471 343.819,56.7499 327.436,52.7475 310.721,50.5091 293.862,50.0602 277.051,51.4057 260.479,54.5305 244.332,59.3992 228.795,65.9566 214.042,74.1284 200.242,83.8219 187.55,94.9275 176.111,107.319 166.053,120.857 157.491,135.386 150.523,150.744 145.226,166.755 141.661,183.239 139.869,200.008 139.869,216.872 141.661,233.641 145.226,250.125 150.523,266.136 157.491,281.494 166.053,296.023 176.111,309.561 187.55,321.953 200.242,333.058 214.042,342.752 228.795,350.923 244.332,357.481 260.479,362.349 277.051,365.474 293.862,366.82 310.721,366.371 327.436,364.133 343.819,360.13 359.684,354.409 374.85,347.034 389.147,338.089 402.412,327.674 414.495,315.909 425.258,302.926 434.581,288.873 442.357,273.908 448.499,258.201 452.936,241.931 455.618,225.281 456.516,208.44"/>
<polyline fill="none" stroke="#adadad" stroke-width="0.5" stroke-linecap="butt" stroke-linejoin="miter" points="474.12,208.44 473.123,189.728 470.142,171.228 465.212,153.15 458.388,135.698 449.748,119.071 439.389,103.456 427.43,89.03 414.004,75.9575 399.266,64.386 383.38,54.4467 366.529,46.2523 348.901,39.8954 330.698,35.4483 312.126,32.9612 293.394,32.4624 274.715,33.9575 256.301,37.4295 238.36,42.8391 221.096,50.1251 204.705,59.2048 189.371,69.9755 175.269,82.315 162.558,96.0835 151.383,111.125 141.871,127.269 134.128,144.333 128.242,162.123 124.281,180.438 122.289,199.071 122.289,217.809 124.281,236.442 128.242,254.757 134.128,272.547 141.871,289.611 151.383,305.755 162.558,320.797 175.269,334.565 189.371,346.905 204.705,357.675 221.096,366.755 238.36,374.041 256.301,379.451 274.715,382.923 293.394,384.418 312.126,383.919 330.698,381.432 348.901,376.985 366.529,370.628 383.38,362.433 399.266,352.494 414.004,340.923 427.43,327.85 439.389,313.424 449.748,297.81 458.388,281.182 465.212,263.73 470.142,245.652 473.123,227.152 474.12,208.44 122.04,208.44"/>
<polyline fill="none" stroke="#d8d8d8" stroke-width="0.5" stroke-linecap="butt" stroke-linejoin="miter" points="450.535,120.42 145.625,296.46"/>
<polyline fill="none" stroke="#d8d8d8" stroke-width="0.5" stroke-linecap="butt" stroke-linejoin="miter" points="386.1,55.9849 210.06,360.895"/>
<polyline fill="none" stroke="#adadad" stroke-width="0.5" stroke-linecap="butt" stroke-linejoin="miter" points="298.08,32.4 298.08,384.48"/>
<polyline fill="none" stroke="#d8d8d8" stroke-width="0.5" stroke-linecap="butt" stroke-linejoin="miter" points="210.06,55.9849 386.1,360.895"/>
<polyline fill="none" stroke="#d8d8d8" stroke-width="0.5" stroke-linecap="butt" stroke-linejoin="miter" points="145.625,120.42 450.535,296.46"/>
<text fill="#000000" x="306.882" y="199.638" font-size="10" text-anchor="start" dy="5" font-family="Helvetica">-20</text>
<text fill="#000000" x="482.922" y="199.638" font-size="10" text-anchor="start" dy="5" font-family="Helvetica">10</text>
<polyline fill="none" stroke="#ff00ff" stroke-width="2" stroke-linecap="butt" stroke-linejoin="miter" points="154.082,208.44 153.881,213.476 153.825,218.527 153.913,223.593 154.147,228.669 154.531,233.752 155.067,238.838 155.757,243.925 156.608,249.006 157.621,254.078 158.796,259.135 160.143,264.17 161.661,269.178 163.353,274.151 165.224,279.081 167.274,283.961 169.505,288.782 171.918,293.537 174.515,298.215 177.295,302.808 180.256,307.306 183.397,311.701 186.716,315.983 190.209,320.144 193.872,324.175 197.702,328.066 201.691,331.812 205.836,335.403 210.129,338.833 214.563,342.095 219.132,345.181 223.828,348.088 228.642,350.809 233.566,353.34 238.592,355.677 243.712,357.815 248.916,359.751 254.196,361.481 259.543,363.005 264.947,364.32 270.4,365.423 275.892,366.314 281.415,366.992 286.96,367.458 292.518,367.708 298.08,367.747 303.637,367.573 309.181,367.189 314.703,366.595 320.195,365.793 325.648,364.787 331.055,363.577 336.409,362.168 341.7,360.561 346.922,358.762 352.069,356.774 357.132,354.6 362.106,352.245 366.982,349.71 371.756,347.004 376.42,344.129 380.969,341.09 385.396,337.891 389.696,334.538 393.862,331.035 397.888,327.387 401.771,323.601 405.503,319.68 409.08,315.631 412.495,311.46 415.746,307.173 418.826,302.777 421.732,298.279 424.459,293.684 427.004,289 429.364,284.237 431.536,279.4 433.519,274.498 435.309,269.538 436.906,264.53 438.312,259.48 439.522,254.397 440.544,249.291 441.373,244.167 442.013,239.034 442.463,233.899 442.733,228.77 442.822,223.653 442.731,218.555 442.47,213.482 442.036,208.44 441.438,203.434 440.675,198.469 439.754,193.549 438.681,188.68 437.458,183.864 436.085,179.106 434.571,174.409 432.914,169.777 431.119,165.213 429.193,160.719 427.131,156.3 424.944,151.957 422.631,147.692 420.192,143.512 417.635,139.415 414.962,135.404 412.176,131.482 409.276,127.651 406.27,123.912 403.16,120.268 399.947,116.718 396.636,113.265 393.23,109.909 389.728,106.655 386.135,103.5 382.453,100.447 378.684,97.4983 374.827,94.6574 370.887,91.9244 366.862,89.3058 362.757,86.8005 358.572,84.4139 354.307,82.1526 349.966,80.0167 345.55,78.0165 341.063,76.1525 336.507,74.4305 331.885,72.8538 327.201,71.4346 322.461,70.1697 317.667,69.0706 312.827,68.136 307.944,67.3757 303.026,66.7908 298.08,66.3873 293.112,66.1663 288.129,66.1325 283.139,66.2901 278.151,66.6388 273.172,67.1779 268.21,67.9115 263.274,68.8405 258.373,69.9663 253.514,71.2806 248.708,72.7916 243.961,74.4908 239.283,76.3791 234.681,78.4519 230.163,80.7068 225.737,83.1377 221.409,85.7402 217.186,88.5101 213.076,91.4417 209.082,94.5284 205.211,97.7636 201.467,101.141 197.855,104.654 194.378,108.296 191.038,112.059 187.839,115.937 184.782,119.922 181.869,124.008 179.1,128.187 176.48,132.456 174.004,136.805 171.674,141.229 169.489,145.722 167.452,150.281 165.558,154.898 163.807,159.569 162.202,164.291 160.738,169.058 159.415,173.867 158.234,178.715 157.193,183.598 156.291,188.513 155.529,193.457 154.906,198.428 154.423,203.423 154.082,208.44"/>
<polyline fill="none" stroke="#00ff00" stroke-width="2" stroke-linecap="butt" stroke-linejoin="miter" points="178.757,208.44 178.33,212.622 178.106,216.829 178.062,221.054 178.191,225.289 178.48,229.529 178.909,233.771 179.461,238.015 180.116,242.266 180.871,246.523 181.703,250.798 182.619,255.089 183.614,259.404 184.682,263.748 185.854,268.112 187.124,272.5 188.521,276.9 190.055,281.304 191.742,285.699 193.605,290.065 195.652,294.387 197.896,298.646 200.343,302.824 202.995,306.904 205.852,310.869 208.913,314.705 212.167,318.403 215.608,321.953 219.223,325.35 223.003,328.589 226.936,331.666 231.01,334.581 235.214,337.335 239.539,339.926 243.976,342.352 248.518,344.611 253.158,346.697 257.889,348.603 262.705,350.321 267.599,351.84 272.564,353.146 277.59,354.231 282.668,355.079 287.784,355.682 292.926,356.029 298.08,356.114 303.231,355.933 308.362,355.483 313.46,354.767 318.508,353.79 323.493,352.562 328.402,351.094 333.225,349.398 337.954,347.496 342.582,345.405 347.108,343.143 351.531,340.735 355.852,338.197 360.074,335.547 364.204,332.8 368.245,329.969 372.2,327.057 376.073,324.069 379.861,321.002 383.561,317.851 387.166,314.609 390.665,311.266 394.044,307.813 397.286,304.242 400.375,300.547 403.289,296.721 406.007,292.762 408.509,288.671 410.776,284.455 412.786,280.116 414.519,275.666 415.958,271.117 417.086,266.483 417.88,261.779 418.332,257.025 418.417,252.239 418.13,247.447 417.448,242.668 416.372,237.934 414.87,233.265 412.938,228.693 410.563,224.248 407.744,219.966 404.448,215.878 400.71,212.024 396.517,208.44 391.896,205.164 386.911,202.228 381.673,199.654 376.327,197.443 371.209,195.545 366.641,193.867 363.075,192.235 360.832,190.446 360.03,188.311 360.444,185.741 361.656,182.754 363.207,179.443 364.775,175.91 366.106,172.27 367.108,168.587 367.7,164.937 367.9,161.345 367.717,157.846 367.199,154.439 366.385,151.126 365.321,147.896 364.048,144.735 362.605,141.622 361.007,138.552 359.265,135.523 357.38,132.54 355.345,129.622 353.138,126.814 350.752,124.147 348.177,121.669 345.404,119.436 342.431,117.506 339.268,115.93 335.929,114.76 332.435,114.051 328.816,113.846 325.106,114.189 321.345,115.128 317.579,116.704 313.859,118.956 310.238,121.932 306.78,125.663 303.554,130.162 300.629,135.455 298.08,141.444 295.968,147.952 294.307,154.485 293.01,160.207 291.814,163.852 290.32,164.434 288.231,162.103 285.489,157.94 282.232,153.173 278.632,148.584 274.829,144.559 270.932,141.246 267.007,138.649 263.107,136.735 259.271,135.451 255.524,134.73 251.881,134.506 248.353,134.716 244.941,135.301 241.638,136.198 238.439,137.362 235.324,138.742 232.281,140.303 229.286,142.006 226.321,143.828 223.37,145.75 220.417,147.763 217.457,149.864 214.491,152.059 211.52,154.351 208.558,156.755 205.628,159.283 202.745,161.942 199.935,164.743 197.219,167.69 194.622,170.784 192.169,174.027 189.874,177.412 187.757,180.933 185.834,184.581 184.112,188.344 182.605,192.211 181.315,196.168 180.246,200.2 179.393,204.295 178.756,208.44"/>
<polyline fill="none" stroke="#00ffff" stroke-width="2" stroke-linecap="butt" stroke-linejoin="miter" points="172.718,208.44 171.964,212.844 171.442,217.295 171.152,221.781 171.091,226.287 171.247,230.804 171.623,235.319 172.21,239.823 173.002,244.306 174,248.756 175.207,253.162 176.611,257.517 178.215,261.807 180.02,266.022 182.017,270.152 184.206,274.185 186.584,278.111 189.141,281.92 191.864,285.611 194.748,289.172 197.771,292.609 200.926,295.918 204.19,299.109 207.544,302.193 210.976,305.179 214.463,308.091 217.994,310.945 221.557,313.764 225.15,316.563 228.766,319.366 232.412,322.18 236.097,325.013 239.835,327.86 243.643,330.707 247.536,333.542 251.534,336.325 255.648,339.032 259.888,341.631 264.263,344.074 268.771,346.327 273.408,348.359 278.166,350.136 283.031,351.623 287.985,352.803 293.009,353.66 298.08,354.167 303.174,354.322 308.266,354.11 313.331,353.541 318.342,352.614 323.275,351.326 328.105,349.698 332.809,347.732 337.368,345.453 341.761,342.878 345.974,340.028 349.995,336.934 353.813,333.618 357.431,330.128 360.845,326.485 364.065,322.729 367.102,318.898 369.976,315.03 372.71,311.16 375.327,307.311 377.859,303.517 380.325,299.782 382.751,296.119 385.148,292.521 387.53,288.981 389.888,285.476 392.216,281.987 394.49,278.486 396.703,274.962 398.819,271.389 400.806,267.749 402.649,264.04 404.307,260.25 405.765,256.384 406.998,252.446 407.975,248.439 408.69,244.379 409.115,240.279 409.246,236.157 409.073,232.032 408.595,227.927 407.812,223.862 406.728,219.859 405.379,215.943 403.792,212.132 402.037,208.44 400.182,204.875 398.347,201.429 396.651,198.08 395.239,194.785 394.226,191.487 393.721,188.111 393.731,184.592 394.211,180.875 395.042,176.935 396.069,172.775 397.15,168.413 398.131,163.894 398.914,159.26 399.422,154.556 399.605,149.825 399.44,145.103 398.921,140.422 398.057,135.802 396.868,131.259 395.375,126.8 393.602,122.432 391.574,118.154 389.313,113.966 386.84,109.862 384.162,105.851 381.288,101.939 378.217,98.1403 374.955,94.4685 371.494,90.9535 367.837,87.6179 363.982,84.4972 359.935,81.6185 355.708,79.0063 351.307,76.6989 346.756,74.7025 342.072,73.0472 337.278,71.7411 332.397,70.8018 327.461,70.2145 322.491,69.9991 317.517,70.1382 312.564,70.6371 307.658,71.4755 302.822,72.6483 298.08,74.131 293.453,75.9295 288.96,78.0133 284.62,80.3749 280.45,82.9965 276.469,85.8806 272.694,89.007 269.139,92.3622 265.817,95.9255 262.755,99.7195 259.953,103.688 257.438,107.847 255.21,112.153 253.275,116.576 251.628,121.077 250.256,125.606 249.118,130.084 248.149,134.414 247.255,138.485 246.308,142.175 245.169,145.383 243.681,148.024 241.731,150.089 239.257,151.636 236.267,152.784 232.832,153.69 229.048,154.507 225.026,155.363 220.873,156.363 216.676,157.573 212.512,159.037 208.432,160.773 204.483,162.789 200.694,165.081 197.09,167.637 193.692,170.446 190.51,173.488 187.559,176.749 184.844,180.207 182.37,183.845 180.14,187.644 178.162,191.587 176.428,195.654 174.946,199.83 173.71,204.097 172.713,208.44"/>
<text fill="#000000" x="298.08" y="22.4" font-size="11" text-anchor="middle" dy="0" font-family="Helvetica" font-weight="bold">electrical far field [dBi] @ f = 2.510000e+09 Hz</text>
</g>
<clipPath id="cp00576432">
  <polygon points="0,432 576,432 576,0 0,0"/>
</clipPath>
<g clip-path="url(#cp00576432)">
<polygon fill="#ffffff" shape-rendering="crispEdges" points="426.953,381.734 518.534,381.734 426.953,333.38"/>
<polygon fill="#ffffff" shape-rendering="crispEdges" points="518.534,381.734 518.534,333.38 426.953,333.38"/>
<polyline fill="none" stroke="#262626" stroke-width="0.5" stroke-linecap="butt" stroke-linejoin="miter" stroke-dasharray="16,0" points="426.953,381.734 518.534,381.734"/>
<polyline fill="none" stroke="#262626" stroke-width="0.5" stroke-linecap="butt" stroke-linejoin="miter" stroke-dasharray="16,0" points="426.953,333.38 518.534,333.38"/>
<polyline fill="none" stroke="#262626" stroke-width="0.5" stroke-linecap="butt" stroke-linejoin="miter" stroke-dasharray="16,0" points="426.953,381.734 426.953,333.38"/>
<polyline fill="none" stroke="#262626" stroke-width="0.5" stroke-linecap="butt" stroke-linejoin="miter" stroke-dasharray="16,0" points="518.534,381.734 518.534,333.38"/>
<text fill="#000000" x="453.044" y="341.439" font-size="10" text-anchor="start" dy="5" font-family="Helvetica">theta = 30.0</text>
<text fill="#000000" x="453.044" y="357.557" font-size="10" text-anchor="start" dy="5" font-family="Helvetica">theta = 60.0</text>
<text fill="#000000" x="453.044" y="373.675" font-size="10" text-anchor="start" dy="5" font-family="Helvetica">theta = 90.0</text>
<polyline fill="none" stroke="#ff00ff" stroke-width="2" stroke-linecap="butt" stroke-linejoin="miter" points="429.699,341.439 450.298,341.439"/>
<polyline fill="none" stroke="#00ff00" stroke-width="2" stroke-linecap="butt" stroke-linejoin="miter" points="429.699,357.557 450.298,357.557"/>
<polyline fill="none" stroke="#00ffff" stroke-width="2" stroke-linecap="butt" stroke-linejoin="miter" points="429.699,373.675 450.298,373.675"/>
</g>
</g>
</svg>
