<?xml version="1.0" encoding="UTF-8" standalone="no"?>
<svg
   xmlns:dc="http://purl.org/dc/elements/1.1/"
   xmlns:cc="http://creativecommons.org/ns#"
   xmlns:rdf="http://www.w3.org/1999/02/22-rdf-syntax-ns#"
   xmlns:svg="http://www.w3.org/2000/svg"
   xmlns="http://www.w3.org/2000/svg"
   id="svg282"
   version="1.2"
   height="91.047356mm"
   width="285.20178mm">
  <metadata
     id="metadata286">
    <rdf:RDF>
      <cc:Work
         rdf:about="">
        <dc:format>image/svg+xml</dc:format>
        <dc:type
           rdf:resource="http://purl.org/dc/dcmitype/StillImage" />
        <dc:title>Qt Svg Document</dc:title>
      </cc:Work>
    </rdf:RDF>
  </metadata>
  <title
     id="title2">Qt Svg Document</title>
  <desc
     id="desc4">Generated with Qt</desc>
  <defs
     id="defs6" />
  <g
     transform="translate(-29.036,-14.5)"
     style="fill:none;fill-rule:evenodd;stroke:#000000;stroke-width:1;stroke-linecap:square;stroke-linejoin:bevel"
     id="g280">
    <g
       style="font-style:normal;font-weight:400;font-size:12px;font-family:Helvetica;fill:#ffffff;fill-opacity:1;stroke:none"
       id="g10"
       font-style="normal"
       font-weight="400"
       font-size="12" />
    <g
       style="font-style:normal;font-weight:400;font-size:12px;font-family:Helvetica;fill:none;stroke:#c0c0c0;stroke-width:1;stroke-linecap:square;stroke-linejoin:bevel;stroke-opacity:1"
       id="g28"
       font-style="normal"
       font-weight="400"
       font-size="12">
      <polyline
         style="vector-effect:non-scaling-stroke;fill:none"
         id="polyline12"
         points="121,34 571,34 " />
      <polyline
         style="vector-effect:non-scaling-stroke;fill:none"
         id="polyline14"
         points="121,111 571,111 " />
      <polyline
         style="vector-effect:non-scaling-stroke;fill:none"
         id="polyline16"
         points="121,187 571,187 " />
      <polyline
         style="vector-effect:non-scaling-stroke;fill:none"
         id="polyline18"
         points="121,264 571,264 " />
      <polyline
         style="vector-effect:non-scaling-stroke;fill:none"
         id="polyline20"
         points="481,15 481,315 " />
      <polyline
         style="vector-effect:non-scaling-stroke;fill:none"
         id="polyline22"
         points="391,15 391,315 " />
      <polyline
         style="vector-effect:non-scaling-stroke;fill:none"
         id="polyline24"
         points="301,15 301,315 " />
      <polyline
         style="vector-effect:non-scaling-stroke;fill:none"
         id="polyline26"
         points="211,15 211,315 " />
    </g>
    <g
       style="font-style:normal;font-weight:400;font-size:12px;font-family:Helvetica;fill:none;stroke:#000000;stroke-width:1;stroke-linecap:square;stroke-linejoin:bevel;stroke-opacity:1"
       id="g58"
       font-style="normal"
       font-weight="400"
       font-size="12">
      <polyline
         style="vector-effect:non-scaling-stroke;fill:none"
         id="polyline30"
         points="121,310 121,320 " />
      <polyline
         style="vector-effect:non-scaling-stroke;fill:none"
         id="polyline32"
         points="211,310 211,320 " />
      <polyline
         style="vector-effect:non-scaling-stroke;fill:none"
         id="polyline34"
         points="301,310 301,320 " />
      <polyline
         style="vector-effect:non-scaling-stroke;fill:none"
         id="polyline36"
         points="391,310 391,320 " />
      <polyline
         style="vector-effect:non-scaling-stroke;fill:none"
         id="polyline38"
         points="481,310 481,320 " />
      <polyline
         style="vector-effect:non-scaling-stroke;fill:none"
         id="polyline40"
         points="571,310 571,320 " />
      <polyline
         style="vector-effect:non-scaling-stroke;fill:none"
         id="polyline42"
         points="116,264 126,264 " />
      <polyline
         style="vector-effect:non-scaling-stroke;fill:none"
         id="polyline44"
         points="116,187 126,187 " />
      <polyline
         style="vector-effect:non-scaling-stroke;fill:none"
         id="polyline46"
         points="116,111 126,111 " />
      <polyline
         style="vector-effect:non-scaling-stroke;fill:none"
         id="polyline48"
         points="116,34 126,34 " />
      <polyline
         style="vector-effect:non-scaling-stroke;fill:none"
         id="polyline50"
         points="121,15 571,15 " />
      <polyline
         style="vector-effect:non-scaling-stroke;fill:none"
         id="polyline52"
         points="571,15 571,315 " />
      <polyline
         style="vector-effect:non-scaling-stroke;fill:none"
         id="polyline54"
         points="121,315 571,315 " />
      <polyline
         style="vector-effect:non-scaling-stroke;fill:none"
         id="polyline56"
         points="121,15 121,315 " />
    </g>
    <g
       style="font-style:normal;font-weight:400;font-size:12px;font-family:Helvetica;fill:none;stroke:#00ffff;stroke-width:2;stroke-linecap:square;stroke-linejoin:bevel;stroke-opacity:1"
       id="g62"
       font-style="normal"
       font-weight="400"
       font-size="12">
      <path
         style="vector-effect:none;fill-rule:evenodd"
         id="path60"
         d="m 130,223.83 0.044,-0.161 0.045,-0.161 0.044,-0.162 0.045,-0.161 0.045,-0.161 0.045,-0.162 0.046,-0.161 0.046,-0.161 0.045,-0.161 0.047,-0.162 0.046,-0.161 0.047,-0.161 0.046,-0.161 0.048,-0.161 0.047,-0.161 0.047,-0.162 0.048,-0.161 0.048,-0.161 0.048,-0.161 0.049,-0.161 0.049,-0.161 0.049,-0.161 0.049,-0.161 0.049,-0.161 0.05,-0.161 0.05,-0.161 0.05,-0.161 0.05,-0.161 0.051,-0.161 0.051,-0.16 0.051,-0.161 0.052,-0.161 0.051,-0.161 0.052,-0.161 0.052,-0.161 0.053,-0.16 0.052,-0.161 0.053,-0.161 0.054,-0.16 0.053,-0.161 0.054,-0.161 0.054,-0.16 0.054,-0.161 0.055,-0.161 0.054,-0.16 0.055,-0.161 0.056,-0.16 0.055,-0.161 0.056,-0.16 0.056,-0.161 0.057,-0.16 0.057,-0.16 0.056,-0.161 0.058,-0.16 0.057,-0.16 0.058,-0.161 0.058,-0.16 0.059,-0.16 0.058,-0.161 0.059,-0.16 0.06,-0.16 0.059,-0.16 0.06,-0.16 0.06,-0.16 0.06,-0.16 0.061,-0.16 0.061,-0.16 0.062,-0.16 0.061,-0.16 0.062,-0.16 0.062,-0.16 0.063,-0.16 0.063,-0.16 0.063,-0.16 0.063,-0.16 0.064,-0.159 0.064,-0.16 0.065,-0.16 0.064,-0.159 0.065,-0.16 0.066,-0.16 0.065,-0.159 0.066,-0.16 0.067,-0.159 0.066,-0.16 0.067,-0.159 0.068,-0.16 0.067,-0.159 0.068,-0.159 0.069,-0.16 0.068,-0.159 0.069,-0.159 0.069,-0.159 0.07,-0.16 0.07,-0.159 0.07,-0.159 0.071,-0.159 0.071,-0.159 0.071,-0.159 0.072,-0.159 0.072,-0.159 0.073,-0.159 0.072,-0.158 0.074,-0.159 0.073,-0.159 0.074,-0.159 0.074,-0.158 0.075,-0.159 0.075,-0.159 0.075,-0.158 0.076,-0.159 0.076,-0.158 0.076,-0.158 0.077,-0.159 0.077,-0.158 0.078,-0.158 0.078,-0.159 0.078,-0.158 0.079,-0.158 0.079,-0.158 0.079,-0.158 0.08,-0.158 0.081,-0.158 0.08,-0.158 0.081,-0.158 0.082,-0.158 0.082,-0.158 0.082,-0.157 0.083,-0.158 0.083,-0.158 0.083,-0.157 0.084,-0.158 0.084,-0.157 0.085,-0.158 0.085,-0.157 0.086,-0.157 0.086,-0.157 0.086,-0.158 0.087,-0.157 0.087,-0.157 0.088,-0.157 0.088,-0.157 0.088,-0.157 0.089,-0.157 0.09,-0.156 0.09,-0.157 0.09,-0.157 0.091,-0.156 0.091,-0.157 0.091,-0.156 0.093,-0.157 0.092,-0.156 0.093,-0.156 0.094,-0.157 0.093,-0.156 0.095,-0.156 0.095,-0.156 0.095,-0.156 0.096,-0.156 0.096,-0.156 0.096,-0.155 0.098,-0.156 0.097,-0.156 0.098,-0.155 0.099,-0.155 0.099,-0.156 0.1,-0.155 0.1,-0.155 0.1,-0.156 0.101,-0.155 0.102,-0.155 0.102,-0.154 0.102,-0.155 0.104,-0.155 0.103,-0.155 0.104,-0.154 0.105,-0.155 0.105,-0.154 0.105,-0.155 0.106,-0.154 0.107,-0.154 0.107,-0.154 0.108,-0.154 0.108,-0.154 0.109,-0.154 0.109,-0.153 0.11,-0.154 0.11,-0.153 0.111,-0.154 0.112,-0.153 0.112,-0.153 0.112,-0.154 0.113,-0.153 0.114,-0.153 0.114,-0.152 0.115,-0.153 0.115,-0.153 0.116,-0.152 0.117,-0.153 0.117,-0.152 0.117,-0.152 0.118,-0.152 0.119,-0.152 0.12,-0.152 0.119,-0.152 0.121,-0.151 0.121,-0.152 0.122,-0.151 0.122,-0.151 0.123,-0.152 0.124,-0.151 0.124,-0.151 0.124,-0.15 0.126,-0.151 0.126,-0.15 0.126,-0.151 0.127,-0.15 0.128,-0.15 0.129,-0.15 0.129,-0.15 0.129,-0.15 0.131,-0.149 0.131,-0.15 0.131,-0.149 0.133,-0.149 0.133,-0.149 0.133,-0.149 0.134,-0.149 0.135,-0.149 0.136,-0.148 0.136,-0.148 0.137,-0.148 0.138,-0.148 0.138,-0.148 0.139,-0.148 0.139,-0.147 0.141,-0.148 0.14,-0.147 0.142,-0.147 0.142,-0.146 0.144,-0.147 0.143,-0.147 0.145,-0.146 0.145,-0.146 0.146,-0.146 0.146,-0.146 0.148,-0.145 0.148,-0.145 0.149,-0.146 0.149,-0.145 0.15,-0.144 0.151,-0.145 0.152,-0.144 0.152,-0.145 0.154,-0.144 0.154,-0.143 0.154,-0.144 0.156,-0.143 0.156,-0.143 0.157,-0.143 0.158,-0.143 0.158,-0.143 0.16,-0.142 0.16,-0.142 0.161,-0.142 0.161,-0.141 0.163,-0.142 0.163,-0.141 0.164,-0.141 0.165,-0.14 0.166,-0.141 0.166,-0.14 0.167,-0.14 0.169,-0.139 0.168,-0.14 0.17,-0.139 0.171,-0.138 0.171,-0.139 0.173,-0.138 0.173,-0.138 0.174,-0.138 0.175,-0.137 0.175,-0.138 0.177,-0.136 0.177,-0.137 0.179,-0.136 0.179,-0.136 0.18,-0.136 0.181,-0.135 0.182,-0.135 0.182,-0.135 0.184,-0.134 0.185,-0.134 0.185,-0.134 0.186,-0.133 0.188,-0.133 0.188,-0.133 0.189,-0.132 0.19,-0.132 0.191,-0.132 0.192,-0.131 0.193,-0.131 0.193,-0.131 0.195,-0.13 0.196,-0.13 0.197,-0.129 0.197,-0.129 0.199,-0.129 0.199,-0.128 0.201,-0.127 0.201,-0.128 0.203,-0.127 0.203,-0.126 0.205,-0.126 0.205,-0.126 0.207,-0.125 0.207,-0.125 0.209,-0.124 0.21,-0.124 0.21,-0.123 0.212,-0.123 0.213,-0.122 0.213,-0.122 0.215,-0.122 0.216,-0.12 0.217,-0.121 0.218,-0.12 0.219,-0.119 0.22,-0.119 0.221,-0.118 0.222,-0.118 0.224,-0.117 0.224,-0.116 0.226,-0.116 0.226,-0.116 0.228,-0.114 0.229,-0.115 0.23,-0.113 0.231,-0.113 0.232,-0.112 0.234,-0.112 0.234,-0.111 0.236,-0.111 0.237,-0.109 0.238,-0.109 0.239,-0.109 0.24,-0.107 0.242,-0.107 0.243,-0.107 0.244,-0.105 0.245,-0.105 0.246,-0.104 0.248,-0.103 0.248,-0.103 0.25,-0.101 0.252,-0.101 0.252,-0.1 0.254,-0.099 0.255,-0.099 0.256,-0.097 0.257,-0.097 0.259,-0.096 0.26,-0.095 0.261,-0.094 0.263,-0.093 0.263,-0.092 0.266,-0.091 0.266,-0.09 0.268,-0.089 0.269,-0.089 0.27,-0.087 0.272,-0.086 0.273,-0.085 0.274,-0.084 0.276,-0.083 0.277,-0.082 0.278,-0.08 0.28,-0.08 0.281,-0.078 0.283,-0.078 0.284,-0.075 0.285,-0.075 0.287,-0.074 0.288,-0.072 0.289,-0.071 0.291,-0.069 0.293,-0.069 0.293,-0.066 0.296,-0.066 0.296,-0.064 0.298,-0.062 0.3,-0.062 0.301,-0.059 0.303,-0.058 0.304,-0.057 0.305,-0.055 0.307,-0.053 0.309,-0.052 0.31,-0.05 0.312,-0.048 0.313,-0.046 0.314,-0.045 0.317,-0.043 0.317,-0.041 0.32,-0.039 0.321,-0.037 0.322,-0.036 0.324,-0.033 0.326,-0.031 0.327,-0.029 0.329,-0.027 0.33,-0.025 0.332,-0.022 0.334,-0.021 0.335,-0.018 0.337,-0.015 0.339,-0.013 0.34,-0.011 0.342,-0.008 0.344,-0.006 0.345,-0.003 h 0.347 l 0.349,0.003 0.35,0.005 0.352,0.008 0.354,0.012 0.356,0.014 0.357,0.017 0.359,0.021 0.361,0.023 0.363,0.028 0.364,0.03 0.367,0.034 0.368,0.038 0.37,0.041 0.371,0.045 0.374,0.049 0.375,0.053 0.377,0.056 0.379,0.061 0.381,0.066 0.383,0.069 0.384,0.074 0.387,0.079 0.388,0.084 0.39,0.088 0.393,0.094 0.394,0.098 0.396,0.104 0.398,0.109 0.4,0.115 0.402,0.121 0.404,0.126 0.406,0.133 0.407,0.139 0.41,0.146 0.412,0.152 0.414,0.159 0.416,0.166 0.418,0.174 0.42,0.181 0.422,0.189 0.424,0.197 0.427,0.205 0.428,0.214 0.431,0.223 0.432,0.233 0.435,0.242 0.437,0.252 0.439,0.262 0.441,0.273 0.443,0.284 0.445,0.295 0.448,0.308 0.45,0.32 0.452,0.333 0.454,0.346 0.457,0.361 0.458,0.375 0.461,0.39 0.464,0.406 0.465,0.424 0.468,0.44 0.47,0.459 0.473,0.478 0.474,0.498 0.477,0.519 0.48,0.541 0.482,0.564 0.484,0.589 0.486,0.616 0.489,0.642 0.491,0.671 0.494,0.703 0.496,0.734 0.499,0.77 0.501,0.806 0.503,0.846 0.506,0.888 0.508,0.934 0.511,0.982 0.514,1.034 0.516,1.092 0.518,1.153 0.521,1.219 0.524,1.293 0.526,1.374 0.529,1.462 0.531,1.559 0.534,1.669 0.536,1.792 0.54,1.929 0.542,2.087 0.544,2.267 0.547,2.476 0.55,2.722 0.553,3.015 0.555,3.369 0.558,3.807 0.56,4.361 0.564,5.086 0.566,6.066 0.569,7.465 0.572,9.574 0.575,12.888 0.577,16.578 0.58,3.604 0.583,-16.57 0.586,-14.411 0.589,-10.718 0.592,-8.341 0.595,-6.789 0.597,-5.713 0.601,-4.929 0.603,-4.333 0.607,-3.864 0.609,-3.486 0.612,-3.174 0.616,-2.912 0.618,-2.689 0.622,-2.495 0.624,-2.326 0.628,-2.176 0.63,-2.043 0.634,-1.922 0.637,-1.813 0.64,-1.713 0.643,-1.622 0.646,-1.536 0.65,-1.457 0.652,-1.382 0.656,-1.313 0.659,-1.246 0.663,-1.183 0.665,-1.123 0.669,-1.065 0.672,-1.008 0.675,-0.954 0.679,-0.901 0.682,-0.849 0.685,-0.797 0.689,-0.747 0.692,-0.696 0.696,-0.646 0.699,-0.595 0.702,-0.545 0.706,-0.492 0.709,-0.44 0.713,-0.386 0.716,-0.331 0.72,-0.273 0.723,-0.213 0.727,-0.151 0.73,-0.085 0.734,-0.015 0.738,0.059 0.741,0.139 0.745,0.225 0.749,0.318 0.752,0.42 0.756,0.534 0.759,0.659 0.764,0.799 0.767,0.959 0.771,1.14 0.774,1.351 0.779,1.598 0.782,1.89 0.786,2.245 0.79,2.68 0.794,3.229 0.797,3.943 0.802,4.899 0.806,6.236 0.809,8.178 0.814,10.946 0.817,12.819 0.822,1.173 0.825,-14.528 0.83,-14.096 0.833,-11.172 0.838,-9.026 0.842,-7.542 0.846,-6.47 0.85,-5.66 0.854,-5.021 0.859,-4.496 0.863,-4.055 0.867,-3.67 0.871,-3.331 0.875,-3.026 0.88,-2.748 0.884,-2.493 0.889,-2.258 0.892,-2.041 0.897,-1.841 0.902,-1.655 0.906,-1.486 0.911,-1.329 0.914,-1.188 0.92,-1.058 0.924,-0.941 0.928,-0.837 0.933,-0.742 0.938,-0.658 0.942,-0.583 0.947,-0.516 0.951,-0.457 0.957,-0.404 0.96,-0.358 0.966,-0.317 0.97,-0.281 0.975,-0.249 0.98,-0.221 0.985,-0.196 0.989,-0.175 0.995,-0.155 0.999,-0.137 1.004,-0.123 1.009,-0.109 1.014,-0.098 1.019,-0.087 1.024,-0.077 1.029,-0.07 1.034,-0.062 1.039,-0.055 1.044,-0.049 1.05,-0.044 1.054,-0.04 1.06,-0.035 1.065,-0.031 1.07,-0.028 1.075,-0.025 1.081,-0.022 1.086,-0.02 1.091,-0.017 1.097,-0.016 1.102,-0.013 1.107,-0.012 1.113,-0.01 1.118,-0.009 1.124,-0.007 1.129,-0.007 1.135,-0.005 1.141,-0.004 1.146,-0.003 1.151,-0.003 1.158,-0.002 h 1.163 l 1.168,-0.001 1.175,0.001 1.18,10e-4 1.186,0.001 1.192,0.002 1.197,0.003 1.204,0.003 1.209,0.003 1.216,0.004 1.221,0.004 1.228,0.004 1.233,0.005 1.239,0.006 1.246,0.005 1.251,0.006 1.258,0.006 1.264,0.007 1.27,0.006 1.277,0.007 1.282,0.007 1.289,0.008 1.295,0.008 1.302,0.008 1.308,0.008 1.315,0.008 1.32,0.009 1.328,0.009 1.334,0.009 1.34,0.009 1.347,0.01 1.354,0.009 1.36,0.01 1.367,0.01 1.373,0.011 1.381,0.01 1.387,0.011 1.394,0.011 1.401,0.011 1.407,0.012 1.415,0.012 1.422,0.011 1.428,0.013 1.436,0.012 1.442,0.013 1.45,0.012 1.457,0.014 1.464,0.013 1.471,0.013 1.478,0.014 1.486,0.014 1.492,0.015 1.501,0.014 1.507,0.015 1.515,0.015 1.523,0.016 1.529,0.015 1.538,0.016 1.545,0.017 1.552,0.016 1.56,0.017 1.568,0.017 1.576,0.018 1.583,0.017 1.591,0.019 1.599,0.018 1.606,0.019 1.615,0.019 1.622,0.02 1.631,0.019 1.638,0.021 1.646,0.02 1.655,0.021 1.663,0.022 1.67,0.021 1.679,0.023 1.688,0.022 1.695,0.023 1.704,0.024 1.712,0.024 1.721,0.024 1.729,0.025 1.737,0.026 1.747,0.026 1.754,0.026 1.764,0.027 1.771,0.028 1.781,0.028 1.789,0.029 1.799,0.029 1.806,0.03 1.816,0.031 1.825,0.031 1.834,0.032 1.842,0.033 1.852,0.034 1.861,0.034 1.87,0.035 1.879,0.037 1.889,0.037 1.897,0.038 1.907,0.039 1.916,0.04 1.926,0.041 1.935,0.042 1.945,0.043 1.954,0.044 1.964,0.046 1.973,0.046 1.984,0.048 1.992,0.049 2.003,0.05 2.013,0.051 2.022,0.052 2.032,0.054 2.042,0.054 2.053,0.055 2.062,0.056 2.073,0.057 2.082,0.057 2.093,0.058 2.103,0.058 2.114,0.058 2.123,0.058 2.135,0.057 2.144,0.057 2.156,0.058 2.165,0.06 2.177,0.07 2.187,0.102 2.198,0.148" />
    </g>
    <g
       style="font-style:normal;font-weight:400;font-size:12px;font-family:Helvetica;fill:none;stroke:#00ff00;stroke-width:2;stroke-linecap:square;stroke-linejoin:bevel;stroke-opacity:1"
       id="g66"
       font-style="normal"
       font-weight="400"
       font-size="12">
      <path
         style="vector-effect:none;fill-rule:evenodd"
         id="path64"
         d="m 130,118.657 0.044,0.017 0.045,0.016 0.044,0.017 0.045,0.017 0.045,0.017 0.045,0.018 0.046,0.017 0.046,0.017 0.045,0.018 0.047,0.017 0.046,0.018 0.047,0.018 0.046,0.018 0.048,0.018 0.047,0.018 0.047,0.018 0.048,0.018 0.048,0.018 0.048,0.019 0.049,0.018 0.049,0.019 0.049,0.019 0.049,0.019 0.049,0.019 0.05,0.019 0.05,0.019 0.05,0.019 0.05,0.02 0.051,0.019 0.051,0.02 0.051,0.019 0.052,0.02 0.051,0.02 0.052,0.02 0.052,0.02 0.053,0.021 0.052,0.02 0.053,0.02 0.054,0.021 0.053,0.021 0.054,0.021 0.054,0.02 0.054,0.021 0.055,0.022 0.054,0.021 0.055,0.021 0.056,0.022 0.055,0.022 0.056,0.021 0.056,0.022 0.057,0.022 0.057,0.022 0.056,0.023 0.058,0.022 0.057,0.022 0.058,0.023 0.058,0.023 0.059,0.023 0.058,0.023 0.059,0.023 0.06,0.023 0.059,0.023 0.06,0.024 0.06,0.024 0.06,0.023 0.061,0.024 0.061,0.024 0.062,0.025 0.061,0.024 0.062,0.024 0.062,0.025 0.063,0.025 0.063,0.025 0.063,0.025 0.063,0.025 0.064,0.025 0.064,0.026 0.065,0.025 0.064,0.026 0.065,0.026 0.066,0.026 0.065,0.026 0.066,0.026 0.067,0.027 0.066,0.027 0.067,0.026 0.068,0.027 0.067,0.027 0.068,0.028 0.069,0.027 0.068,0.028 0.069,0.027 0.069,0.028 0.07,0.028 0.07,0.029 0.07,0.028 0.071,0.028 0.071,0.029 0.071,0.029 0.072,0.029 0.072,0.029 0.073,0.03 0.072,0.029 0.074,0.03 0.073,0.03 0.074,0.03 0.074,0.03 0.075,0.03 0.075,0.031 0.075,0.031 0.076,0.031 0.076,0.031 0.076,0.031 0.077,0.032 0.077,0.031 0.078,0.032 0.078,0.032 0.078,0.032 0.079,0.033 0.079,0.033 0.079,0.032 0.08,0.033 0.081,0.034 0.08,0.033 0.081,0.033 0.082,0.034 0.082,0.034 0.082,0.034 0.083,0.035 0.083,0.034 0.083,0.035 0.084,0.035 0.084,0.035 0.085,0.036 0.085,0.036 0.086,0.035 0.086,0.036 0.086,0.037 0.087,0.036 0.087,0.037 0.088,0.037 0.088,0.037 0.088,0.037 0.089,0.038 0.09,0.038 0.09,0.038 0.09,0.038 0.091,0.039 0.091,0.039 0.091,0.039 0.093,0.039 0.092,0.039 0.093,0.04 0.094,0.04 0.093,0.04 0.095,0.041 0.095,0.04 0.095,0.041 0.096,0.042 0.096,0.041 0.096,0.042 0.098,0.042 0.097,0.042 0.098,0.042 0.099,0.043 0.099,0.043 0.1,0.044 0.1,0.043 0.1,0.044 0.101,0.044 0.102,0.044 0.102,0.045 0.102,0.045 0.104,0.045 0.103,0.046 0.104,0.046 0.105,0.046 0.105,0.046 0.105,0.047 0.106,0.047 0.107,0.047 0.107,0.047 0.108,0.048 0.108,0.048 0.109,0.049 0.109,0.049 0.11,0.049 0.11,0.049 0.111,0.05 0.112,0.05 0.112,0.05 0.112,0.051 0.113,0.051 0.114,0.051 0.114,0.052 0.115,0.052 0.115,0.052 0.116,0.053 0.117,0.053 0.117,0.053 0.117,0.054 0.118,0.054 0.119,0.054 0.12,0.055 0.119,0.055 0.121,0.056 0.121,0.056 0.122,0.056 0.122,0.056 0.123,0.057 0.124,0.058 0.124,0.057 0.124,0.059 0.126,0.058 0.126,0.059 0.126,0.059 0.127,0.06 0.128,0.06 0.129,0.061 0.129,0.06 0.129,0.062 0.131,0.061 0.131,0.063 0.131,0.062 0.133,0.063 0.133,0.064 0.133,0.063 0.134,0.065 0.135,0.064 0.136,0.066 0.136,0.065 0.137,0.066 0.138,0.067 0.138,0.067 0.139,0.067 0.139,0.068 0.141,0.069 0.14,0.068 0.142,0.07 0.142,0.07 0.144,0.07 0.143,0.071 0.145,0.071 0.145,0.072 0.146,0.072 0.146,0.073 0.148,0.073 0.148,0.074 0.149,0.075 0.149,0.075 0.15,0.075 0.151,0.076 0.152,0.077 0.152,0.077 0.154,0.078 0.154,0.078 0.154,0.079 0.156,0.079 0.156,0.08 0.157,0.081 0.158,0.081 0.158,0.082 0.16,0.082 0.16,0.083 0.161,0.083 0.161,0.085 0.163,0.084 0.163,0.086 0.164,0.086 0.165,0.087 0.166,0.087 0.166,0.088 0.167,0.089 0.169,0.089 0.168,0.091 0.17,0.09 0.171,0.092 0.171,0.092 0.173,0.093 0.173,0.093 0.174,0.095 0.175,0.095 0.175,0.096 0.177,0.096 0.177,0.097 0.179,0.098 0.179,0.099 0.18,0.1 0.181,0.1 0.182,0.102 0.182,0.102 0.184,0.102 0.185,0.104 0.185,0.105 0.186,0.105 0.188,0.106 0.188,0.107 0.189,0.108 0.19,0.109 0.191,0.109 0.192,0.111 0.193,0.112 0.193,0.112 0.195,0.113 0.196,0.115 0.197,0.115 0.197,0.116 0.199,0.117 0.199,0.119 0.201,0.119 0.201,0.12 0.203,0.121 0.203,0.122 0.205,0.124 0.205,0.124 0.207,0.126 0.207,0.126 0.209,0.128 0.21,0.129 0.21,0.13 0.212,0.131 0.213,0.132 0.213,0.133 0.215,0.135 0.216,0.136 0.217,0.137 0.218,0.138 0.219,0.14 0.22,0.141 0.221,0.142 0.222,0.143 0.224,0.145 0.224,0.146 0.226,0.148 0.226,0.148 0.228,0.151 0.229,0.151 0.23,0.153 0.231,0.155 0.232,0.156 0.234,0.158 0.234,0.159 0.236,0.16 0.237,0.163 0.238,0.163 0.239,0.166 0.24,0.167 0.242,0.169 0.243,0.17 0.244,0.172 0.245,0.174 0.246,0.176 0.248,0.177 0.248,0.179 0.25,0.181 0.252,0.183 0.252,0.185 0.254,0.187 0.255,0.189 0.256,0.191 0.257,0.193 0.259,0.195 0.26,0.197 0.261,0.199 0.263,0.201 0.263,0.204 0.266,0.206 0.266,0.208 0.268,0.21 0.269,0.213 0.27,0.215 0.272,0.218 0.273,0.22 0.274,0.223 0.276,0.226 0.277,0.228 0.278,0.23 0.28,0.234 0.281,0.236 0.283,0.239 0.284,0.242 0.285,0.245 0.287,0.248 0.288,0.251 0.289,0.255 0.291,0.257 0.293,0.261 0.293,0.264 0.296,0.267 0.296,0.271 0.298,0.275 0.3,0.278 0.301,0.282 0.303,0.285 0.304,0.29 0.305,0.293 0.307,0.298 0.309,0.302 0.31,0.306 0.312,0.31 0.313,0.315 0.314,0.319 0.317,0.324 0.317,0.328 0.32,0.334 0.321,0.339 0.322,0.343 0.324,0.349 0.326,0.355 0.327,0.36 0.329,0.365 0.33,0.372 0.332,0.377 0.334,0.384 0.335,0.39 0.337,0.397 0.339,0.403 0.34,0.41 0.342,0.417 0.344,0.425 0.345,0.432 0.347,0.44 0.349,0.448 0.35,0.456 0.352,0.465 0.354,0.474 0.356,0.483 0.357,0.492 0.359,0.502 0.361,0.512 0.363,0.522 0.364,0.534 0.367,0.545 0.368,0.556 0.37,0.568 0.371,0.581 0.374,0.594 0.375,0.608 0.377,0.622 0.379,0.636 0.381,0.652 0.383,0.668 0.384,0.685 0.387,0.703 0.388,0.72 0.39,0.74 0.393,0.76 0.394,0.782 0.396,0.803 0.398,0.827 0.4,0.852 0.402,0.877 0.404,0.905 0.406,0.935 0.407,0.964 0.41,0.998 0.412,1.032 0.414,1.069 0.416,1.109 0.418,1.15 0.42,1.195 0.422,1.244 0.424,1.295 0.427,1.35 0.428,1.411 0.431,1.475 0.432,1.545 0.435,1.621 0.437,1.703 0.439,1.793 0.441,1.89 0.443,2.011 0.445,2.123 0.448,2.267 0.45,2.467 0.452,2.648 0.454,2.898 0.457,3.09 0.458,3.33 0.461,3.783 0.464,4.121 0.465,4.475 0.468,4.938 0.47,5.01 0.473,4.853 0.474,3.678 0.477,0.898 0.48,-2.372 0.482,-4.389 0.484,-5.355 0.486,-5.308 0.489,-4.941 0.491,-4.551 0.494,-4.071 0.496,-3.638 0.499,-3.397 0.501,-3.051 0.503,-2.821 0.506,-2.576 0.508,-2.403 0.511,-2.244 0.514,-2.052 0.516,-1.903 0.518,-1.811 0.521,-1.615 0.524,-1.553 0.526,-1.405 0.529,-1.318 0.531,-1.263 0.534,-1.203 0.536,-1.091 0.54,-1.028 0.542,-0.945 0.544,-0.923 0.547,-0.827 0.55,-0.787 0.553,-0.675 0.555,-0.655 0.558,-0.614 0.56,-0.611 0.564,-0.525 0.566,-0.459 0.569,-0.411 0.572,-0.381 0.575,-0.309 0.577,-0.286 0.58,-0.228 0.583,-0.24 0.586,-0.195 0.589,-0.154 0.592,-0.16 0.595,-0.068 0.597,-0.049 0.601,-0.017 0.603,0.013 0.607,-0.01 0.609,0.084 0.612,0.097 0.616,0.178 0.618,0.276 0.622,0.282 0.624,0.356 0.628,0.428 0.63,0.534 0.634,0.589 0.637,0.665 0.64,0.736 0.643,0.915 0.646,1.012 0.65,1.106 0.652,1.143 0.656,1.295 0.659,1.432 0.663,1.531 0.665,1.651 0.669,1.732 0.672,1.993 0.675,2.157 0.679,2.325 0.682,2.678 0.685,2.937 0.689,3.288 0.692,3.862 0.696,4.528 0.699,5.377 0.702,6.167 0.706,6.927 0.709,5.896 0.713,1.109 0.716,-5.322 0.72,-8.185 0.723,-8.319 0.727,-7.51 0.73,-6.659 0.734,-5.785 0.738,-5.075 0.741,-4.527 0.745,-4.098 0.749,-3.832 0.752,-3.447 0.756,-3.274 0.759,-3.155 0.764,-2.968 0.767,-2.926 0.771,-2.73 0.774,-2.59 0.779,-2.587 0.782,-2.656 0.786,-2.483 0.79,-2.307 0.794,-2.159 0.797,-2.096 0.802,-1.998 0.806,-1.898 0.809,-1.791 0.814,-1.637 0.817,-1.568 0.822,-1.507 0.825,-1.464 0.83,-1.382 0.833,-1.331 0.838,-1.277 0.842,-1.23 0.846,-1.224 0.85,-1.131 0.854,-1.1 0.859,-1.103 0.863,-1.03 0.867,-0.926 0.871,-0.884 0.875,-0.855 0.88,-0.807 0.884,-0.705 0.889,-0.645 0.892,-0.56 0.897,-0.555 0.902,-0.52 0.906,-0.431 0.911,-0.426 0.914,-0.399 0.92,-0.358 0.924,-0.38 0.928,-0.328 0.933,-0.288 0.938,-0.31 0.942,-0.279 0.947,-0.233 0.951,-0.227 0.957,-0.227 0.96,-0.159 0.966,-0.165 0.97,-0.119 0.975,-0.156 0.98,-0.122 0.985,-0.102 0.989,-0.13 0.995,-0.098 0.999,-0.127 1.004,-0.088 1.009,-0.097 1.014,-0.146 1.019,-0.128 1.024,-0.125 1.029,-0.1 1.034,-0.099 1.039,-0.078 1.044,-0.066 1.05,-0.03 1.054,-0.032 1.06,-0.004 1.065,-0.023 1.07,-0.019 1.075,-0.001 1.081,0.013 1.086,0.001 1.091,-0.049 1.097,-0.036 1.102,-0.017 1.107,-0.015 1.113,-0.059 1.118,0.003 1.124,-0.054 1.129,-0.02 1.135,0.025 1.141,0.056 1.146,0.053 1.151,0.081 1.158,0.064 1.163,0.077 1.168,0.04 1.175,0.028 1.18,0.022 1.186,0.043 1.192,-0.002 1.197,-0.028 1.204,-0.016 1.209,0.007 1.216,0.035 1.221,0.031 1.228,0.04 1.233,0.052 1.239,0.064 1.246,0.017 1.251,0.041 1.258,0.015 1.264,0.006 1.27,0.059 1.277,0.054 1.282,0.045 1.289,0.041 1.295,0.071 1.302,0.089 1.308,0.115 1.315,0.099 1.32,0.014 1.328,-0.164 1.334,-0.32 1.34,-0.469 1.347,-0.608 1.354,-0.734 1.36,-0.845 1.367,-0.941 1.373,-1.02 1.381,-1.085 1.387,-1.136 1.394,-1.174 1.401,-1.201 1.407,-1.218 1.415,-1.228 1.422,-1.231 1.428,-1.229 1.436,-1.2218 1.442,-1.2112 1.45,-1.1981 1.457,-1.1828 1.464,-1.1659 1.471,-1.1478 1.478,-1.1291 1.486,-1.1097 1.492,-1.0901 1.501,-1.0703 1.507,-1.0507 1.515,-1.0312 1.523,-1.0119 1.529,-0.993 1.538,-0.9744 1.545,-0.9563 1.552,-0.9386 1.56,-0.9213 1.568,-0.9045 1.576,-0.8882 1.583,-0.8723 1.591,-0.8569 1.599,-0.8419 1.606,-0.8275 1.615,-0.8134 1.622,-0.7997 1.631,-0.7866 1.638,-0.7738 1.646,-0.7613 1.655,-0.7493 1.663,-0.7377 1.67,-0.7264 1.679,-0.7153 1.688,-0.7048 1.695,-0.6944 1.704,-0.6845 1.712,-0.6747 1.721,-0.6653 1.729,-0.6561 1.737,-0.6473 1.747,-0.6386 1.754,-0.6302 1.764,-0.6221 1.771,-0.6141 1.781,-0.6064 1.789,-0.599 1.799,-0.5916 1.806,-0.5845 1.816,-0.5776 1.825,-0.5709 1.834,-0.5643 1.842,-0.558 1.852,-0.5517 1.861,-0.5456 1.87,-0.5397 1.879,-0.534 1.889,-0.5283 1.897,-0.5229 1.907,-0.5175 1.916,-0.5122 1.926,-0.5071 1.935,-0.5022 1.945,-0.4973 1.954,-0.4925 1.964,-0.4879 1.973,-0.4833 1.984,-0.4789 1.992,-0.4745 2.003,-0.4702 2.013,-0.4662 2.022,-0.462 2.032,-0.458 2.042,-0.4542 2.053,-0.4503 2.062,-0.4466 2.073,-0.4429 2.082,-0.4394 2.093,-0.4358 2.103,-0.4324 2.114,-0.429 2.123,-0.4257 2.135,-0.4224 2.144,-0.4193 2.156,-0.4161 2.165,-0.4131 2.177,-0.4101 2.187,-0.4071 L 571,40" />
    </g>
    <g
       style="font-style:normal;font-weight:400;font-size:12px;font-family:Helvetica;fill:none;stroke:#ff00ff;stroke-width:2;stroke-linecap:square;stroke-linejoin:bevel;stroke-opacity:1"
       id="g70"
       font-style="normal"
       font-weight="400"
       font-size="12">
      <path
         style="vector-effect:none;fill-rule:evenodd"
         id="path68"
         d="m 130,186.626 0.044,-0.035 0.045,-0.034 0.044,-0.035 0.045,-0.034 0.045,-0.035 0.045,-0.035 0.046,-0.035 0.046,-0.036 0.045,-0.035 0.047,-0.035 0.046,-0.036 0.047,-0.036 0.046,-0.039 0.048,-0.04 0.047,-0.041 0.047,-0.04 0.048,-0.041 0.048,-0.041 0.048,-0.04 0.049,-0.042 0.049,-0.041 0.049,-0.041 0.049,-0.042 0.049,-0.043 0.05,-0.046 0.05,-0.046 0.05,-0.046 0.05,-0.047 0.051,-0.046 0.051,-0.047 0.051,-0.047 0.052,-0.047 0.051,-0.047 0.052,-0.048 0.052,-0.049 0.053,-0.052 0.052,-0.052 0.053,-0.052 0.054,-0.053 0.053,-0.052 0.054,-0.053 0.054,-0.053 0.054,-0.053 0.055,-0.053 0.054,-0.055 0.055,-0.057 0.056,-0.058 0.055,-0.058 0.056,-0.058 0.056,-0.058 0.057,-0.059 0.057,-0.059 0.056,-0.059 0.058,-0.059 0.057,-0.06 0.058,-0.063 0.058,-0.064 0.059,-0.063 0.058,-0.064 0.059,-0.064 0.06,-0.064 0.059,-0.065 0.06,-0.064 0.06,-0.065 0.06,-0.069 0.061,-0.068 0.061,-0.069 0.062,-0.069 0.061,-0.069 0.062,-0.07 0.062,-0.069 0.063,-0.07 0.063,-0.07 0.063,-0.074 0.063,-0.073 0.064,-0.074 0.064,-0.074 0.065,-0.074 0.064,-0.074 0.065,-0.075 0.066,-0.074 0.065,-0.077 0.066,-0.077 0.067,-0.078 0.066,-0.078 0.067,-0.079 0.068,-0.078 0.067,-0.079 0.068,-0.079 0.069,-0.08 0.068,-0.081 0.069,-0.082 0.069,-0.082 0.07,-0.082 0.07,-0.083 0.07,-0.082 0.071,-0.083 0.071,-0.084 0.071,-0.085 0.072,-0.085 0.072,-0.085 0.073,-0.086 0.072,-0.085 0.074,-0.086 0.073,-0.087 0.074,-0.087 0.074,-0.087 0.075,-0.088 0.075,-0.088 0.075,-0.088 0.076,-0.089 0.076,-0.089 0.076,-0.089 0.077,-0.09 0.077,-0.089 0.078,-0.09 0.078,-0.091 0.078,-0.09 0.079,-0.091 0.079,-0.091 0.079,-0.091 0.08,-0.091 0.081,-0.092 0.08,-0.092 0.081,-0.092 0.082,-0.092 0.082,-0.093 0.082,-0.091 0.083,-0.092 0.083,-0.093 0.083,-0.093 0.084,-0.093 0.084,-0.094 0.085,-0.092 0.085,-0.092 0.086,-0.092 0.086,-0.093 0.086,-0.094 0.087,-0.093 0.087,-0.094 0.088,-0.091 0.088,-0.092 0.088,-0.093 0.089,-0.093 0.09,-0.093 0.09,-0.094 0.09,-0.091 0.091,-0.091 0.091,-0.092 0.091,-0.092 0.093,-0.093 0.092,-0.093 0.093,-0.089 0.094,-0.09 0.093,-0.091 0.095,-0.091 0.095,-0.092 0.095,-0.092 0.096,-0.087 0.096,-0.089 0.096,-0.089 0.098,-0.09 0.097,-0.091 0.098,-0.088 0.099,-0.086 0.099,-0.087 0.1,-0.088 0.1,-0.088 0.1,-0.089 0.101,-0.084 0.102,-0.085 0.102,-0.085 0.102,-0.086 0.104,-0.087 0.103,-0.083 0.104,-0.082 0.105,-0.083 0.105,-0.083 0.105,-0.084 0.106,-0.083 0.107,-0.079 0.107,-0.08 0.108,-0.081 0.108,-0.082 0.109,-0.081 0.109,-0.077 0.11,-0.077 0.11,-0.078 0.111,-0.079 0.112,-0.079 0.112,-0.074 0.112,-0.075 0.113,-0.076 0.114,-0.076 0.114,-0.076 0.115,-0.072 0.115,-0.072 0.116,-0.074 0.117,-0.074 0.117,-0.072 0.117,-0.07 0.118,-0.07 0.119,-0.072 0.12,-0.072 0.119,-0.068 0.121,-0.068 0.121,-0.069 0.122,-0.07 0.122,-0.069 0.123,-0.065 0.124,-0.067 0.124,-0.067 0.124,-0.069 0.126,-0.064 0.126,-0.065 0.126,-0.066 0.127,-0.066 0.128,-0.065 0.129,-0.063 0.129,-0.065 0.129,-0.065 0.131,-0.065 0.131,-0.062 0.131,-0.063 0.133,-0.065 0.133,-0.065 0.133,-0.062 0.134,-0.062 0.135,-0.064 0.136,-0.065 0.136,-0.062 0.137,-0.063 0.138,-0.064 0.138,-0.065 0.139,-0.063 0.139,-0.064 0.141,-0.064 0.14,-0.066 0.142,-0.064 0.142,-0.064 0.144,-0.066 0.143,-0.067 0.145,-0.065 0.145,-0.066 0.146,-0.068 0.146,-0.068 0.148,-0.067 0.148,-0.068 0.149,-0.07 0.149,-0.07 0.15,-0.069 0.151,-0.071 0.152,-0.073 0.152,-0.071 0.154,-0.073 0.154,-0.074 0.154,-0.074 0.156,-0.075 0.156,-0.076 0.157,-0.077 0.158,-0.077 0.158,-0.078 0.16,-0.079 0.16,-0.08 0.161,-0.08 0.161,-0.082 0.163,-0.083 0.163,-0.082 0.164,-0.084 0.165,-0.085 0.166,-0.086 0.166,-0.085 0.167,-0.088 0.169,-0.088 0.168,-0.088 0.17,-0.089 0.171,-0.091 0.171,-0.09 0.173,-0.091 0.173,-0.093 0.174,-0.091 0.175,-0.093 0.175,-0.094 0.177,-0.094 0.177,-0.093 0.179,-0.096 0.179,-0.094 0.18,-0.094 0.181,-0.097 0.182,-0.095 0.182,-0.094 0.184,-0.097 0.185,-0.096 0.185,-0.094 0.186,-0.096 0.188,-0.095 0.188,-0.093 0.189,-0.096 0.19,-0.094 0.191,-0.091 0.192,-0.095 0.193,-0.091 0.193,-0.09 0.195,-0.093 0.196,-0.087 0.197,-0.088 0.197,-0.091 0.199,-0.082 0.199,-0.085 0.201,-0.086 0.201,-0.079 0.203,-0.083 0.203,-0.079 0.205,-0.075 0.205,-0.08 0.207,-0.071 0.207,-0.072 0.209,-0.073 0.21,-0.064 0.21,-0.069 0.212,-0.063 0.213,-0.06 0.213,-0.065 0.215,-0.053 0.216,-0.056 0.217,-0.054 0.218,-0.047 0.219,-0.052 0.22,-0.041 0.221,-0.044 0.222,-0.042 0.224,-0.034 0.224,-0.04 0.226,-0.027 0.226,-0.031 0.228,-0.028 0.229,-0.022 0.23,-0.027 0.231,-0.013 0.232,-0.019 0.234,-0.012 0.234,-0.011 0.236,-0.01 0.237,-0.003 0.238,-0.009 0.239,0.004 0.24,-0.001 0.242,0.006 0.243,0.006 0.244,0.007 0.245,0.012 0.246,0.01 0.248,0.018 0.248,0.012 0.25,0.022 0.252,0.018 0.252,0.024 0.254,0.022 0.255,0.025 0.256,0.026 0.257,0.026 0.259,0.03 0.26,0.028 0.261,0.032 0.263,0.029 0.263,0.034 0.266,0.03 0.266,0.036 0.268,0.03 0.269,0.037 0.27,0.031 0.272,0.038 0.273,0.032 0.274,0.037 0.276,0.032 0.277,0.037 0.278,0.032 0.28,0.038 0.281,0.031 0.283,0.038 0.284,0.031 0.285,0.038 0.287,0.032 0.288,0.037 0.289,0.033 0.291,0.037 0.293,0.034 0.293,0.037 0.296,0.036 0.296,0.037 0.298,0.039 0.3,0.038 0.301,0.043 0.303,0.038 0.304,0.048 0.305,0.041 0.307,0.052 0.309,0.048 0.31,0.054 0.312,0.056 0.313,0.057 0.314,0.065 0.317,0.061 0.317,0.076 0.32,0.071 0.321,0.081 0.322,0.084 0.324,0.086 0.326,0.099 0.327,0.096 0.329,0.11 0.33,0.113 0.332,0.117 0.334,0.13 0.335,0.129 0.337,0.145 0.339,0.149 0.34,0.152 0.342,0.17 0.344,0.17 0.345,0.182 0.347,0.193 0.349,0.194 0.35,0.213 0.352,0.218 0.354,0.221 0.356,0.243 0.357,0.244 0.359,0.253 0.361,0.269 0.363,0.273 0.364,0.283 0.367,0.298 0.368,0.301 0.37,0.312 0.371,0.327 0.374,0.331 0.375,0.339 0.377,0.356 0.379,0.359 0.381,0.366 0.383,0.383 0.384,0.388 0.387,0.393 0.388,0.408 0.39,0.415 0.393,0.42 0.394,0.429 0.396,0.442 0.398,0.447 0.4,0.453 0.402,0.465 0.404,0.474 0.406,0.48 0.407,0.487 0.41,0.502 0.412,0.509 0.414,0.517 0.416,0.525 0.418,0.543 0.42,0.553 0.422,0.562 0.424,0.574 0.427,0.593 0.428,0.609 0.431,0.624 0.432,0.64 0.435,0.659 0.437,0.688 0.439,0.708 0.441,0.732 0.443,0.756 0.445,0.788 0.448,0.827 0.45,0.86 0.452,0.896 0.454,0.935 0.457,0.977 0.458,1.036 0.461,1.088 0.464,1.144 0.465,1.204 0.468,1.271 0.47,1.342 0.473,1.427 0.474,1.522 0.477,1.617 0.48,1.722 0.482,1.838 0.484,1.969 0.486,2.114 0.489,2.277 0.491,2.471 0.494,2.689 0.496,2.933 0.499,3.22 0.501,3.56 0.503,3.966 0.506,4.463 0.508,5.077 0.511,5.848 0.514,6.807 0.516,7.927 0.518,8.823 0.521,7.786 0.524,1.704 0.526,-5.839 0.529,-8.3 0.531,-7.734 0.534,-6.604 0.536,-5.577 0.54,-4.747 0.542,-4.086 0.544,-3.553 0.547,-3.119 0.55,-2.759 0.553,-2.456 0.555,-2.197 0.558,-1.975 0.56,-1.782 0.564,-1.611 0.566,-1.461 0.569,-1.327 0.572,-1.207 0.575,-1.099 0.577,-1 0.58,-0.91 0.583,-0.827 0.586,-0.743 0.589,-0.669 0.592,-0.598 0.595,-0.528 0.597,-0.46 0.601,-0.389 0.603,-0.318 0.607,-0.241 0.609,-0.161 0.612,-0.074 0.616,0.021 0.618,0.138 0.622,0.26 0.624,0.393 0.628,0.544 0.63,0.714 0.634,0.908 0.637,1.134 0.64,1.412 0.643,1.733 0.646,2.096 0.65,2.527 0.652,3.037 0.656,3.632 0.659,4.298 0.663,4.831 0.665,4.765 0.669,3.052 0.672,-0.996 0.675,-5.555 0.679,-7.578 0.682,-7.748 0.685,-7.225 0.689,-6.627 0.692,-6 0.696,-5.441 0.699,-4.969 0.702,-4.597 0.706,-4.252 0.709,-3.953 0.713,-3.696 0.716,-3.469 0.72,-3.265 0.723,-3.084 0.727,-2.91 0.73,-2.761 0.734,-2.626 0.738,-2.482 0.741,-2.367 0.745,-2.262 0.749,-2.135 0.752,-2.044 0.756,-1.952 0.759,-1.846 0.764,-1.772 0.767,-1.678 0.771,-1.597 0.774,-1.532 0.779,-1.433 0.782,-1.379 0.786,-1.295 0.79,-1.231 0.794,-1.167 0.797,-1.092 0.802,-1.044 0.806,-0.96 0.809,-0.925 0.814,-0.839 0.817,-0.805 0.822,-0.73 0.825,-0.695 0.83,-0.626 0.833,-0.595 0.838,-0.529 0.842,-0.505 0.846,-0.441 0.85,-0.421 0.854,-0.366 0.859,-0.346 0.863,-0.307 0.867,-0.281 0.871,-0.259 0.875,-0.228 0.88,-0.22 0.884,-0.191 0.889,-0.183 0.892,-0.171 0.897,-0.155 0.902,-0.154 0.906,-0.142 0.911,-0.135 0.914,-0.136 0.92,-0.124 0.924,-0.122 0.928,-0.122 0.933,-0.112 0.938,-0.107 0.942,-0.106 0.947,-0.099 0.951,-0.089 0.957,-0.085 0.96,-0.081 0.966,-0.07 0.97,-0.062 0.975,-0.056 0.98,-0.052 0.985,-0.045 0.989,-0.036 0.995,-0.032 0.999,-0.03 1.004,-0.027 1.009,-0.026 1.014,-0.021 1.019,-0.02 1.024,-0.021 1.029,-0.023 1.034,-0.023 1.039,-0.025 1.044,-0.025 1.05,-0.025 1.054,-0.024 1.06,-0.024 1.065,-0.023 1.07,-0.021 1.075,-0.019 1.081,-0.016 1.086,-0.012 1.091,-0.009 1.097,-0.005 1.102,-10e-4 1.107,0.002 1.113,0.006 1.118,0.008 1.124,0.01 1.129,0.011 1.135,0.012 1.141,0.011 1.146,0.01 1.151,0.008 1.158,0.007 1.163,0.006 1.168,0.004 1.175,0.002 1.18,0.001 h 1.186 l 1.192,-0.001 h 1.197 l 1.204,0.003 1.209,0.005 1.216,0.006 1.221,0.008 1.228,0.009 1.233,0.014 1.239,0.015 1.246,0.014 1.251,0.012 1.258,0.015 1.264,0.011 1.27,0.008 1.277,0.006 1.282,0.004 h 1.289 l 1.295,-0.002 1.302,-0.003 1.308,-0.006 1.315,-0.004 1.32,-0.003 1.328,-0.003 1.334,0.003 1.34,0.002 1.347,0.008 1.354,0.007 1.36,0.011 1.367,0.01 1.373,0.01 1.381,0.008 1.387,0.005 1.394,0.002 1.401,-10e-4 1.407,-0.006 1.415,-0.006 1.422,-0.011 1.428,-0.008 1.436,-0.008 1.442,-0.006 1.45,-0.002 1.457,-10e-4 1.464,0.007 1.471,0.008 1.478,0.01 1.486,0.013 1.492,0.012 1.501,0.009 1.507,0.007 1.515,0.006 1.523,10e-4 1.529,-10e-4 1.538,-0.004 1.545,0.001 1.552,0.002 1.56,0.006 1.568,0.011 1.576,0.017 1.583,0.023 1.591,0.03 1.599,0.033 1.606,0.036 1.615,0.036 1.622,0.034 1.631,0.033 1.638,0.031 1.646,0.029 1.655,0.03 1.663,0.031 1.67,0.036 1.679,0.042 1.688,0.049 1.695,0.057 1.704,0.064 1.712,0.072 1.721,0.076 1.729,0.082 1.737,0.083 1.747,0.081 1.754,0.08 1.764,0.078 1.771,0.076 1.781,0.081 1.789,0.084 1.799,0.088 1.806,0.094 1.816,0.108 1.825,0.115 1.834,0.12 1.842,0.128 1.852,0.13 1.861,0.126 1.87,0.127 1.879,0.116 1.889,0.109 1.897,0.104 1.907,0.095 1.916,0.099 1.926,0.096 1.935,0.109 1.945,0.112 1.954,0.127 1.964,0.13 1.973,0.134 1.984,0.129 1.992,0.113 2.003,0.097 2.013,0.067 2.022,0.04 2.032,0.018 2.042,-0.004 2.053,-0.016 2.062,-0.009 2.073,-0.004 2.082,0.008 2.093,0.02 2.103,0.035 2.114,0.04 2.123,0.035 2.135,0.026 2.144,0.014 2.156,0.003 2.165,-0.002 2.177,-0.004 2.187,0.001 2.198,0.005" />
    </g>
    <g
       style="font-style:normal;font-weight:400;font-size:12px;font-family:Helvetica;fill:none;stroke:#000000;stroke-width:1;stroke-linecap:square;stroke-linejoin:bevel;stroke-opacity:1"
       id="g74"
       font-style="normal"
       font-weight="400"
       font-size="12"
       transform="translate(117,333)">
      <text
         style="font-style:normal;font-weight:400;font-size:12px;font-family:Helvetica;fill:#000000;fill-opacity:1;stroke:none"
         id="text72"
         font-style="normal"
         font-weight="400"
         font-size="12"
         y="0"
         x="0"
         xml:space="preserve">0</text>
    </g>
    <g
       style="font-style:normal;font-weight:400;font-size:12px;font-family:Helvetica;fill:none;stroke:#000000;stroke-width:1;stroke-linecap:square;stroke-linejoin:bevel;stroke-opacity:1"
       id="g78"
       font-style="normal"
       font-weight="400"
       font-size="12"
       transform="translate(198,333)">
      <text
         style="font-style:normal;font-weight:400;font-size:12px;font-family:Helvetica;fill:#000000;fill-opacity:1;stroke:none"
         id="text76"
         font-style="normal"
         font-weight="400"
         font-size="12"
         y="0"
         x="0"
         xml:space="preserve">1e9</text>
    </g>
    <g
       style="font-style:normal;font-weight:400;font-size:12px;font-family:Helvetica;fill:none;stroke:#000000;stroke-width:1;stroke-linecap:square;stroke-linejoin:bevel;stroke-opacity:1"
       id="g82"
       font-style="normal"
       font-weight="400"
       font-size="12"
       transform="translate(288,333)">
      <text
         style="font-style:normal;font-weight:400;font-size:12px;font-family:Helvetica;fill:#000000;fill-opacity:1;stroke:none"
         id="text80"
         font-style="normal"
         font-weight="400"
         font-size="12"
         y="0"
         x="0"
         xml:space="preserve">2e9</text>
    </g>
    <g
       style="font-style:normal;font-weight:400;font-size:12px;font-family:Helvetica;fill:none;stroke:#000000;stroke-width:1;stroke-linecap:square;stroke-linejoin:bevel;stroke-opacity:1"
       id="g86"
       font-style="normal"
       font-weight="400"
       font-size="12"
       transform="translate(378,333)">
      <text
         style="font-style:normal;font-weight:400;font-size:12px;font-family:Helvetica;fill:#000000;fill-opacity:1;stroke:none"
         id="text84"
         font-style="normal"
         font-weight="400"
         font-size="12"
         y="0"
         x="0"
         xml:space="preserve">3e9</text>
    </g>
    <g
       style="font-style:normal;font-weight:400;font-size:12px;font-family:Helvetica;fill:none;stroke:#000000;stroke-width:1;stroke-linecap:square;stroke-linejoin:bevel;stroke-opacity:1"
       id="g90"
       font-style="normal"
       font-weight="400"
       font-size="12"
       transform="translate(468,333)">
      <text
         style="font-style:normal;font-weight:400;font-size:12px;font-family:Helvetica;fill:#000000;fill-opacity:1;stroke:none"
         id="text88"
         font-style="normal"
         font-weight="400"
         font-size="12"
         y="0"
         x="0"
         xml:space="preserve">4e9</text>
    </g>
    <g
       style="font-style:normal;font-weight:400;font-size:12px;font-family:Helvetica;fill:none;stroke:#000000;stroke-width:1;stroke-linecap:square;stroke-linejoin:bevel;stroke-opacity:1"
       id="g94"
       font-style="normal"
       font-weight="400"
       font-size="12"
       transform="translate(558,333)">
      <text
         style="font-style:normal;font-weight:400;font-size:12px;font-family:Helvetica;fill:#000000;fill-opacity:1;stroke:none"
         id="text92"
         font-style="normal"
         font-weight="400"
         font-size="12"
         y="0"
         x="0"
         xml:space="preserve">5e9</text>
    </g>
    <g
       style="font-style:normal;font-weight:400;font-size:12px;font-family:Helvetica;fill:none;stroke:#000000;stroke-width:1;stroke-linecap:square;stroke-linejoin:bevel;stroke-opacity:1"
       id="g98"
       font-style="normal"
       font-weight="400"
       font-size="12"
       transform="translate(91,270)">
      <text
         style="font-style:normal;font-weight:400;font-size:12px;font-family:Helvetica;fill:#000000;fill-opacity:1;stroke:none"
         id="text96"
         font-style="normal"
         font-weight="400"
         font-size="12"
         y="0"
         x="0"
         xml:space="preserve">-40</text>
    </g>
    <g
       style="font-style:normal;font-weight:400;font-size:12px;font-family:Helvetica;fill:none;stroke:#000000;stroke-width:1;stroke-linecap:square;stroke-linejoin:bevel;stroke-opacity:1"
       id="g102"
       font-style="normal"
       font-weight="400"
       font-size="12"
       transform="translate(91,193)">
      <text
         style="font-style:normal;font-weight:400;font-size:12px;font-family:Helvetica;fill:#000000;fill-opacity:1;stroke:none"
         id="text100"
         font-style="normal"
         font-weight="400"
         font-size="12"
         y="0"
         x="0"
         xml:space="preserve">-20</text>
    </g>
    <g
       style="font-style:normal;font-weight:400;font-size:12px;font-family:Helvetica;fill:none;stroke:#000000;stroke-width:1;stroke-linecap:square;stroke-linejoin:bevel;stroke-opacity:1"
       id="g106"
       font-style="normal"
       font-weight="400"
       font-size="12"
       transform="translate(105,117)">
      <text
         style="font-style:normal;font-weight:400;font-size:12px;font-family:Helvetica;fill:#000000;fill-opacity:1;stroke:none"
         id="text104"
         font-style="normal"
         font-weight="400"
         font-size="12"
         y="0"
         x="0"
         xml:space="preserve">0</text>
    </g>
    <g
       style="font-style:normal;font-weight:400;font-size:12px;font-family:Helvetica;fill:none;stroke:#000000;stroke-width:1;stroke-linecap:square;stroke-linejoin:bevel;stroke-opacity:1"
       id="g110"
       font-style="normal"
       font-weight="400"
       font-size="12"
       transform="translate(96,40)">
      <text
         style="font-style:normal;font-weight:400;font-size:12px;font-family:Helvetica;fill:#000000;fill-opacity:1;stroke:none"
         id="text108"
         font-style="normal"
         font-weight="400"
         font-size="12"
         y="0"
         x="0"
         xml:space="preserve">20</text>
    </g>
    <g
       style="font-style:normal;font-weight:400;font-size:12px;font-family:Helvetica;fill:none;stroke:#000000;stroke-width:1;stroke-linecap:square;stroke-linejoin:bevel;stroke-opacity:1"
       id="g114"
       font-style="normal"
       font-weight="400"
       font-size="12"
       transform="translate(291,356)">
      <text
         style="font-style:normal;font-weight:400;font-size:12px;font-family:Helvetica;fill:#000000;fill-opacity:1;stroke:none"
         id="text112"
         font-style="normal"
         font-weight="400"
         font-size="12"
         y="0"
         x="0"
         xml:space="preserve">Frequency (Hz)</text>
    </g>
    <g
       style="font-style:normal;font-weight:400;font-size:12px;font-family:Helvetica;fill:none;stroke:#00ffff;stroke-width:1;stroke-linecap:square;stroke-linejoin:bevel;stroke-opacity:1"
       id="g118"
       font-style="normal"
       font-weight="400"
       font-size="12"
       transform="rotate(-90,143,59)">
      <text
         style="font-style:normal;font-weight:400;font-size:12px;font-family:Helvetica;fill:#00ffff;fill-opacity:1;stroke:none"
         id="text116"
         font-style="normal"
         font-weight="400"
         font-size="12"
         y="0"
         x="0"
         xml:space="preserve">Qucs_S11</text>
    </g>
    <g
       style="font-style:normal;font-weight:400;font-size:12px;font-family:Helvetica;fill:none;stroke:#00ff00;stroke-width:1;stroke-linecap:square;stroke-linejoin:bevel;stroke-opacity:1"
       id="g122"
       font-style="normal"
       font-weight="400"
       font-size="12"
       transform="rotate(-90,138,77)">
      <text
         style="font-style:normal;font-weight:400;font-size:12px;font-family:Helvetica;fill:#00ff00;fill-opacity:1;stroke:none"
         id="text120"
         font-style="normal"
         font-weight="400"
         font-size="12"
         y="0"
         x="0"
         xml:space="preserve">Measure_S11</text>
    </g>
    <g
       style="font-style:normal;font-weight:400;font-size:12px;font-family:Helvetica;fill:none;stroke:#ff00ff;stroke-width:1;stroke-linecap:square;stroke-linejoin:bevel;stroke-opacity:1"
       id="g126"
       font-style="normal"
       font-weight="400"
       font-size="12"
       transform="rotate(-90,129,91)">
      <text
         style="font-style:normal;font-weight:400;font-size:12px;font-family:Helvetica;fill:#ff00ff;fill-opacity:1;stroke:none"
         id="text124"
         font-style="normal"
         font-weight="400"
         font-size="12"
         y="0"
         x="0"
         xml:space="preserve">OpenEMS_S11</text>
    </g>
    <g
       style="font-style:normal;font-weight:400;font-size:12px;font-family:Helvetica;fill:none;stroke:#000000;stroke-width:1;stroke-linecap:square;stroke-linejoin:bevel;stroke-opacity:1"
       id="g130"
       font-style="normal"
       font-weight="400"
       font-size="12"
       transform="rotate(90,222,356)">
      <text
         style="font-style:normal;font-weight:400;font-size:12px;font-family:Helvetica;fill:#000000;fill-opacity:1;stroke:none"
         id="text128"
         font-style="normal"
         font-weight="400"
         font-size="12"
         y="0"
         x="0"
         xml:space="preserve">S11 (dB)</text>
    </g>
    <g
       style="font-style:normal;font-weight:400;font-size:12px;font-family:Helvetica;fill:none;stroke:#ff00ff;stroke-width:2;stroke-linecap:square;stroke-linejoin:bevel;stroke-opacity:1"
       id="g132"
       font-style="normal"
       font-weight="400"
       font-size="12" />
    <g
       style="font-style:normal;font-weight:400;font-size:12px;font-family:Helvetica;fill:none;stroke:#c0c0c0;stroke-width:1;stroke-linecap:square;stroke-linejoin:bevel;stroke-opacity:1"
       id="g158"
       font-style="normal"
       font-weight="400"
       font-size="12">
      <polyline
         style="vector-effect:non-scaling-stroke;fill:none"
         id="polyline134"
         points="641,28 1091,28 " />
      <polyline
         style="vector-effect:non-scaling-stroke;fill:none"
         id="polyline136"
         points="641,67 1091,67 " />
      <polyline
         style="vector-effect:non-scaling-stroke;fill:none"
         id="polyline138"
         points="641,106 1091,106 " />
      <polyline
         style="vector-effect:non-scaling-stroke;fill:none"
         id="polyline140"
         points="641,145 1091,145 " />
      <polyline
         style="vector-effect:non-scaling-stroke;fill:none"
         id="polyline142"
         points="641,184 1091,184 " />
      <polyline
         style="vector-effect:non-scaling-stroke;fill:none"
         id="polyline144"
         points="641,223 1091,223 " />
      <polyline
         style="vector-effect:non-scaling-stroke;fill:none"
         id="polyline146"
         points="641,262 1091,262 " />
      <polyline
         style="vector-effect:non-scaling-stroke;fill:none"
         id="polyline148"
         points="641,301 1091,301 " />
      <polyline
         style="vector-effect:non-scaling-stroke;fill:none"
         id="polyline150"
         points="1001,15 1001,315 " />
      <polyline
         style="vector-effect:non-scaling-stroke;fill:none"
         id="polyline152"
         points="911,15 911,315 " />
      <polyline
         style="vector-effect:non-scaling-stroke;fill:none"
         id="polyline154"
         points="821,15 821,315 " />
      <polyline
         style="vector-effect:non-scaling-stroke;fill:none"
         id="polyline156"
         points="731,15 731,315 " />
    </g>
    <g
       style="font-style:normal;font-weight:400;font-size:12px;font-family:Helvetica;fill:none;stroke:#000000;stroke-width:1;stroke-linecap:square;stroke-linejoin:bevel;stroke-opacity:1"
       id="g196"
       font-style="normal"
       font-weight="400"
       font-size="12">
      <polyline
         style="vector-effect:non-scaling-stroke;fill:none"
         id="polyline160"
         points="641,310 641,320 " />
      <polyline
         style="vector-effect:non-scaling-stroke;fill:none"
         id="polyline162"
         points="731,310 731,320 " />
      <polyline
         style="vector-effect:non-scaling-stroke;fill:none"
         id="polyline164"
         points="821,310 821,320 " />
      <polyline
         style="vector-effect:non-scaling-stroke;fill:none"
         id="polyline166"
         points="911,310 911,320 " />
      <polyline
         style="vector-effect:non-scaling-stroke;fill:none"
         id="polyline168"
         points="1001,310 1001,320 " />
      <polyline
         style="vector-effect:non-scaling-stroke;fill:none"
         id="polyline170"
         points="1091,310 1091,320 " />
      <polyline
         style="vector-effect:non-scaling-stroke;fill:none"
         id="polyline172"
         points="636,301 646,301 " />
      <polyline
         style="vector-effect:non-scaling-stroke;fill:none"
         id="polyline174"
         points="636,262 646,262 " />
      <polyline
         style="vector-effect:non-scaling-stroke;fill:none"
         id="polyline176"
         points="636,223 646,223 " />
      <polyline
         style="vector-effect:non-scaling-stroke;fill:none"
         id="polyline178"
         points="636,184 646,184 " />
      <polyline
         style="vector-effect:non-scaling-stroke;fill:none"
         id="polyline180"
         points="636,145 646,145 " />
      <polyline
         style="vector-effect:non-scaling-stroke;fill:none"
         id="polyline182"
         points="636,106 646,106 " />
      <polyline
         style="vector-effect:non-scaling-stroke;fill:none"
         id="polyline184"
         points="636,67 646,67 " />
      <polyline
         style="vector-effect:non-scaling-stroke;fill:none"
         id="polyline186"
         points="636,28 646,28 " />
      <polyline
         style="vector-effect:non-scaling-stroke;fill:none"
         id="polyline188"
         points="641,15 1091,15 " />
      <polyline
         style="vector-effect:non-scaling-stroke;fill:none"
         id="polyline190"
         points="1091,15 1091,315 " />
      <polyline
         style="vector-effect:non-scaling-stroke;fill:none"
         id="polyline192"
         points="641,315 1091,315 " />
      <polyline
         style="vector-effect:non-scaling-stroke;fill:none"
         id="polyline194"
         points="641,15 641,315 " />
    </g>
    <g
       style="font-style:normal;font-weight:400;font-size:12px;font-family:Helvetica;fill:none;stroke:#00ffff;stroke-width:2;stroke-linecap:square;stroke-linejoin:bevel;stroke-opacity:1"
       id="g200"
       font-style="normal"
       font-weight="400"
       font-size="12">
      <path
         style="vector-effect:none;fill-rule:evenodd"
         id="path198"
         d="m 650,66.8806 0.044,4e-4 0.045,5e-4 0.044,4e-4 0.045,5e-4 0.045,4e-4 0.045,4e-4 0.046,5e-4 0.045,4e-4 0.046,5e-4 0.047,4e-4 0.046,5e-4 0.047,5e-4 0.046,4e-4 0.048,5e-4 0.047,4e-4 0.047,5e-4 0.048,5e-4 0.048,5e-4 0.048,5e-4 0.049,4e-4 0.049,5e-4 0.049,5e-4 0.049,5e-4 0.049,5e-4 0.05,5e-4 0.05,5e-4 0.05,5e-4 0.05,5e-4 0.051,5e-4 0.051,5e-4 0.051,5e-4 0.052,5e-4 0.051,5e-4 0.052,5e-4 0.052,6e-4 0.053,5e-4 0.052,5e-4 0.053,5e-4 0.054,6e-4 0.053,5e-4 0.054,6e-4 0.054,5e-4 0.054,5e-4 0.055,6e-4 0.054,5e-4 0.055,6e-4 0.056,6e-4 0.055,5e-4 0.056,6e-4 0.056,6e-4 0.057,5e-4 0.056,6e-4 0.058,6e-4 0.057,6e-4 0.057,5e-4 0.058,6e-4 0.058,6e-4 0.059,6e-4 0.058,6e-4 0.059,6e-4 0.06,6e-4 0.059,6e-4 0.06,6e-4 0.06,7e-4 0.06,6e-4 0.061,6e-4 0.061,6e-4 0.062,7e-4 0.061,6e-4 0.062,6e-4 0.062,7e-4 0.063,6e-4 0.063,7e-4 0.063,6e-4 0.063,7e-4 0.064,6e-4 0.064,7e-4 0.065,7e-4 0.064,7e-4 0.065,6e-4 0.066,7e-4 0.065,7e-4 0.066,7e-4 0.067,7e-4 0.066,7e-4 0.067,7e-4 0.068,7e-4 0.067,7e-4 0.068,7e-4 0.069,7e-4 0.068,8e-4 0.069,7e-4 0.069,7e-4 0.07,8e-4 0.07,7e-4 0.07,7e-4 0.071,8e-4 0.071,7e-4 0.071,8e-4 0.072,8e-4 0.072,7e-4 0.073,8e-4 0.072,8e-4 0.074,8e-4 0.073,7e-4 0.074,8e-4 0.074,8e-4 0.075,8e-4 0.075,8e-4 0.075,8e-4 0.076,9e-4 0.076,8e-4 0.076,8e-4 0.077,8e-4 0.077,9e-4 0.078,8e-4 0.078,8e-4 0.078,9e-4 0.079,8e-4 0.079,9e-4 0.079,9e-4 0.08,8e-4 0.081,9e-4 0.08,9e-4 0.081,9e-4 0.082,9e-4 0.082,9e-4 0.082,9e-4 0.083,9e-4 0.083,9e-4 0.083,9e-4 0.084,10e-4 0.084,9e-4 0.085,9e-4 0.085,0.001 0.086,9e-4 0.086,10e-4 0.086,9e-4 0.087,0.001 0.087,0.001 0.088,10e-4 0.088,9e-4 0.088,0.001 0.089,10e-4 0.09,0.001 0.09,0.001 0.09,0.0011 0.091,0.001 0.091,0.001 0.091,10e-4 0.093,0.0011 0.092,10e-4 0.093,0.0011 0.094,0.0011 0.093,0.001 0.095,0.0011 0.095,0.0011 0.095,0.0011 0.096,0.0011 0.096,0.0011 0.097,0.0011 0.097,0.0011 0.097,0.0011 0.098,0.0011 0.099,0.0012 0.099,0.0011 0.1,0.0012 0.1,0.0011 0.1,0.0012 0.101,0.0012 0.102,0.0012 0.102,0.0011 0.102,0.0012 0.103,0.0012 0.104,0.0013 0.104,0.0012 0.105,0.0012 0.105,0.0012 0.105,0.0013 0.106,0.0012 0.107,0.0013 0.107,0.0013 0.108,0.0012 0.108,0.0013 0.109,0.0013 0.109,0.0013 0.11,0.0013 0.11,0.0013 0.111,0.0013 0.112,0.0014 0.112,0.0013 0.112,0.0014 0.113,0.0013 0.114,0.0014 0.114,0.0013 0.115,0.0014 0.115,0.0014 0.116,0.0014 0.117,0.0014 0.117,0.0015 0.117,0.0014 0.118,0.0014 0.119,0.0015 0.12,0.0014 0.119,0.0015 0.121,0.0014 0.121,0.0015 0.122,0.0015 0.122,0.0015 0.123,0.0015 0.124,0.0015 0.124,0.0016 0.124,0.0015 0.126,0.0016 0.126,0.0015 0.126,0.0016 0.127,0.0016 0.128,0.0016 0.129,0.0016 0.129,0.0016 0.129,0.0016 0.131,0.0016 0.131,0.0017 0.131,0.0016 0.133,0.0016 0.133,0.0017 0.133,0.0017 0.134,0.0017 0.135,0.0017 0.136,0.0017 0.136,0.0017 0.137,0.0018 0.138,0.0017 0.138,0.0018 0.139,0.0017 0.139,0.0018 0.141,0.0018 0.141,0.0018 0.141,0.0018 0.143,0.0018 0.143,0.0019 0.143,0.0018 0.145,0.0019 0.145,0.0018 0.146,0.0019 0.146,0.0019 0.148,0.0019 0.148,0.0019 0.148,0.0019 0.15,0.002 0.15,0.0019 0.151,0.002 0.152,0.002 0.152,0.0019 0.154,0.002 0.154,0.002 0.154,0.0021 0.156,0.002 0.156,0.002 0.157,0.0021 0.158,0.0021 0.158,0.002 0.16,0.0022 0.16,0.0021 0.161,0.0021 0.161,0.0021 0.163,0.0022 0.163,0.0021 0.164,0.0022 0.165,0.0022 0.166,0.0022 0.166,0.0022 0.167,0.0022 0.169,0.0022 0.169,0.0023 0.169,0.0022 0.171,0.0023 0.171,0.0023 0.173,0.0023 0.173,0.0023 0.174,0.0023 0.175,0.0024 0.175,0.0023 0.177,0.0024 0.177,0.0024 0.179,0.0024 0.179,0.0024 0.18,0.0024 0.181,0.0024 0.182,0.0025 0.182,0.0024 0.184,0.0025 0.185,0.0025 0.185,0.0025 0.186,0.0025 0.188,0.0025 0.188,0.0026 0.189,0.0025 0.19,0.0026 0.191,0.0026 0.192,0.0026 0.193,0.0026 0.193,0.0026 0.195,0.0026 0.196,0.0027 0.197,0.0026 0.197,0.0027 0.199,0.0027 0.199,0.0027 0.201,0.0027 0.201,0.0027 0.203,0.0028 0.203,0.0027 0.205,0.0028 0.205,0.0028 0.207,0.0028 0.208,0.0028 0.208,0.0028 0.21,0.0029 0.21,0.0028 0.212,0.0029 0.213,0.0028 0.213,0.0029 0.215,0.0029 0.216,0.0029 0.217,0.0029 0.218,0.003 0.219,0.0029 0.22,0.003 0.221,0.0029 0.222,0.003 0.224,0.003 0.224,0.003 0.226,0.0031 0.226,0.003 0.228,0.003 0.229,0.0031 0.23,0.003 0.231,0.0031 0.232,0.0031 0.234,0.0031 0.234,0.0031 0.236,0.0031 0.237,0.0032 0.238,0.0031 0.239,0.0031 0.24,0.0032 0.242,0.0032 0.243,0.0031 0.244,0.0032 0.245,0.0032 0.246,0.0032 0.248,0.0032 0.248,0.0032 0.25,0.0033 0.252,0.0032 0.252,0.0032 0.254,0.0033 0.255,0.0032 0.256,0.0033 0.257,0.0032 0.259,0.0033 0.26,0.0033 0.261,0.0033 0.263,0.0032 0.263,0.0033 0.266,0.0033 0.266,0.0033 0.268,0.0033 0.269,0.0033 0.27,0.0033 0.272,0.0033 0.273,0.0033 0.274,0.0033 0.276,0.0034 0.277,0.0033 0.278,0.0033 0.28,0.0033 0.281,0.0033 0.283,0.0033 0.284,0.0033 0.285,0.0033 0.287,0.0033 0.288,0.0033 0.289,0.0033 0.291,0.0032 0.293,0.0033 0.293,0.0033 0.296,0.0032 0.296,0.0033 0.298,0.0032 0.3,0.0033 0.301,0.0032 0.303,0.0032 0.304,0.0032 0.305,0.0032 0.307,0.0032 0.309,0.0031 0.31,0.0032 0.312,0.0031 0.313,0.0032 0.314,0.0031 0.317,0.0031 0.317,0.003 0.32,0.0031 0.321,0.003 0.322,0.003 0.324,0.003 0.326,0.003 0.327,0.0029 0.329,0.0029 0.33,0.0029 0.332,0.0029 0.334,0.0029 0.335,0.0028 0.337,0.0028 0.339,0.0027 0.34,0.0027 0.342,0.0027 0.344,0.0027 0.345,0.0026 0.347,0.0026 0.349,0.0026 0.35,0.0025 0.352,0.0025 0.354,0.0024 0.356,0.0024 0.357,0.0024 0.359,0.0023 0.361,0.0023 0.363,0.0022 0.364,0.0022 0.367,0.0021 0.368,0.0021 0.37,0.002 0.371,0.002 0.374,0.002 0.375,0.0018 0.377,0.0019 0.379,0.0018 0.381,0.0017 0.383,0.0017 0.384,0.0016 0.387,0.0015 0.388,0.0015 0.39,0.0015 0.393,0.0014 0.394,0.0013 0.396,0.0012 0.398,0.0012 0.4,0.0012 0.402,0.001 0.404,10e-4 0.406,9e-4 0.407,9e-4 0.41,8e-4 0.412,8e-4 0.414,6e-4 0.416,6e-4 0.418,6e-4 0.42,4e-4 0.422,4e-4 0.424,4e-4 0.427,2e-4 0.428,2e-4 0.43,1e-4 0.433,1e-4 h 0.435 l 0.437,-1e-4 0.439,-1e-4 0.441,-2e-4 0.443,-3e-4 0.445,-3e-4 0.448,-3e-4 0.45,-5e-4 0.452,-5e-4 0.454,-5e-4 0.457,-6e-4 0.458,-7e-4 0.461,-7e-4 0.464,-7e-4 0.465,-8e-4 0.468,-8e-4 0.47,-8e-4 0.473,-9e-4 0.474,-9e-4 0.477,-0.001 0.48,-9e-4 0.481,-0.001 0.485,-9e-4 0.486,-0.001 0.489,-0.001 0.491,-9e-4 0.494,-10e-4 0.496,-9e-4 0.499,-9e-4 0.501,-9e-4 0.503,-8e-4 0.506,-7e-4 0.508,-7e-4 0.511,-7e-4 0.514,-5e-4 0.516,-5e-4 0.518,-3e-4 0.521,-3e-4 0.524,-10e-5 h 0.526 l 0.529,2e-4 0.531,3e-4 0.534,4e-4 0.536,7e-4 0.54,8e-4 0.541,0.0011 0.545,0.0013 0.547,0.0015 0.55,0.0017 0.553,0.002 0.555,0.0023 0.558,0.0026 0.561,0.003 0.563,0.0032 0.566,0.0035 0.569,0.004 0.572,0.0043 0.575,0.0046 0.577,0.0051 0.58,0.0055 0.584,0.0059 0.585,0.0064 0.589,0.0069 0.592,0.0073 0.595,0.0078 0.597,0.0083 0.601,0.0087 0.603,0.0094 0.607,0.0098 0.609,0.0104 0.612,0.0109 0.616,0.0115 0.618,0.0121 0.622,0.0126 0.624,0.0131 0.628,0.0137 0.63,0.0143 0.634,0.0148 0.637,0.0153 0.64,0.0159 0.643,0.0164 0.646,0.0169 0.65,0.0173 0.652,0.0179 0.656,0.0182 0.659,0.0186 0.663,0.019 0.665,0.0194 0.669,0.0196 0.672,0.0199 0.675,0.02 0.679,0.0202 0.682,0.0203 0.685,0.0202 0.689,0.0203 0.692,0.0201 0.696,0.0199 0.699,0.0197 0.702,0.0193 0.706,0.0189 0.709,0.0183 0.713,0.0178 0.716,0.017 0.72,0.0163 0.723,0.0154 0.727,0.0144 0.73,0.0133 0.734,0.0122 0.738,0.011 0.741,0.0097 0.745,0.0083 0.749,0.007 0.752,0.0055 0.756,0.0041 0.759,0.0027 0.764,0.0013 0.767,1e-4 0.771,-0.0011 0.774,-0.0021 0.779,-0.0029 0.782,-0.0033 0.786,-0.0033 0.79,-0.0028 0.794,-0.0019 0.797,-1e-4 0.802,0.0026 0.806,0.0062 0.809,0.011 0.814,0.0173 0.817,0.0251 0.822,0.0349 0.825,0.0466 0.83,0.0608 0.833,0.0775 0.838,0.0971 0.842,0.1197 0.846,0.1455 0.85,0.1747 0.854,0.2073 0.859,0.2431 0.863,0.2821 0.867,0.3241 0.871,0.3685 0.875,0.4148 0.88,0.4625 0.884,0.511 0.889,0.5593 0.892,0.6068 0.897,0.6531 0.902,0.6971 0.906,0.7386 0.911,0.7773 0.914,0.8126 0.92,0.8447 0.924,0.8732 0.928,0.8984 0.933,0.9203 0.938,0.9391 0.942,0.9552 0.947,0.9684 0.951,0.9795 0.957,0.9883 0.96,0.9953 0.966,1.0007 0.97,1.0046 0.975,1.0073 0.98,1.009 0.985,1.0098 0.989,1.0098 0.995,1.0093 0.999,1.0082 1.004,1.0069 1.009,1.005 1.014,1.0032 1.019,1.001 1.024,0.9987 1.029,0.9966 1.034,0.994 1.039,0.992 1.044,0.989 1.05,0.987 1.054,0.985 1.06,0.983 1.065,0.981 1.07,0.98 1.075,0.978 1.081,0.976 1.086,0.975 1.091,0.974 1.097,0.973 1.102,0.972 1.107,0.972 1.113,0.971 1.118,0.971 1.124,0.971 1.129,0.972 1.135,0.972 1.141,0.973 1.146,0.974 1.151,0.975 1.158,0.976 1.163,0.979 1.168,0.98 1.175,0.982 1.18,0.985 1.186,0.988 1.192,0.99 1.197,0.994 1.204,0.998 1.209,1.001 1.216,1.006 1.221,1.01 1.228,1.015 1.233,1.02 1.239,1.026 1.246,1.031 1.251,1.038 1.258,1.045 1.264,1.052 1.27,1.059 1.277,1.068 1.282,1.076 1.289,1.085 1.295,1.095 1.302,1.105 1.308,1.115 1.315,1.127 1.32,1.139 1.328,1.152 1.334,1.166 1.34,1.179 1.347,1.195 1.354,1.211 1.36,1.229 1.367,1.246 1.373,1.266 1.381,1.286 1.387,1.309 1.394,1.331 1.401,1.357 1.408,1.384 1.414,1.412 1.422,1.443 1.428,1.475 1.436,1.511 1.442,1.55 1.45,1.59 1.457,1.635 1.464,1.684 1.471,1.737 1.478,1.794 1.486,1.857 1.492,1.927 1.501,2.003 1.507,2.089 1.515,2.182 1.522,2.289 1.53,2.407 1.538,2.543 1.545,2.697 1.552,2.875 1.56,3.081 1.568,3.324 1.576,3.613 1.583,3.962 1.591,4.392 1.598,4.929 1.607,5.618 1.615,6.518 1.622,7.715 1.63,9.253 1.639,10.736 1.646,9.27 1.655,-0.471 1.663,-9.299 1.67,-10.101 1.679,-8.548 1.688,-7.045 1.695,-5.888 1.704,-5.015 1.712,-4.345 1.721,-3.82 1.729,-3.4 1.737,-3.056 1.747,-2.771 1.752,-2.529 1.77,-2.324 1.77,-2.145 1.78,-1.99 1.79,-1.852 1.8,-1.731 1.8,-1.62 1.82,-1.522 1.82,-1.431 1.84,-1.349 1.84,-1.273 1.85,-1.202 1.86,-1.136 1.87,-1.074 1.88,-1.015 1.89,-0.958 1.9,-0.904 1.9,-0.851 1.92,-0.8 1.93,-0.749 1.93,-0.699 1.95,-0.648 1.95,-0.596 1.96,-0.543 1.98,-0.489 1.98,-0.431 1.99,-0.371 2.01,-0.305 2.01,-0.235 2.02,-0.158 2.03,-0.072 2.05,0.025 2.05,0.136 2.06,0.265 2.07,0.417 2.09,0.602 2.09,0.83 2.1,1.122 2.11,1.506 2.13,2.034 2.13,2.798 2.15,3.962 2.15,5.805 2.17,8.094 2.17,2.001 2.19,-22.794 2.2,-25.32" />
    </g>
    <g
       style="font-style:normal;font-weight:400;font-size:12px;font-family:Helvetica;fill:none;stroke:#00ff00;stroke-width:2;stroke-linecap:square;stroke-linejoin:bevel;stroke-opacity:1"
       id="g204"
       font-style="normal"
       font-weight="400"
       font-size="12">
      <path
         style="vector-effect:none;fill-rule:evenodd"
         id="path202"
         d="m 650,39.0238 0.044,0.0089 0.045,0.009 0.044,0.0091 0.045,0.009 0.045,0.0092 0.045,0.0092 0.046,0.0092 0.045,0.0093 0.046,0.0094 0.047,0.0094 0.046,0.0094 0.047,0.0095 0.046,0.0096 0.048,0.0096 0.047,0.0096 0.047,0.0097 0.048,0.0098 0.048,0.0098 0.048,0.0099 0.049,0.0099 0.049,0.01 0.049,0.01 0.049,0.0101 0.049,0.0101 0.05,0.0102 0.05,0.0103 0.05,0.0103 0.05,0.0104 0.051,0.0104 0.051,0.0105 0.051,0.0105 0.052,0.0106 0.051,0.0106 0.052,0.0108 0.052,0.0107 0.053,0.0109 0.052,0.0109 0.053,0.0109 0.054,0.011 0.053,0.0111 0.054,0.0111 0.054,0.0112 0.054,0.0113 0.055,0.0113 0.054,0.0114 0.055,0.0115 0.056,0.0115 0.055,0.0116 0.056,0.0116 0.056,0.0117 0.057,0.0118 0.056,0.0118 0.058,0.0119 0.057,0.012 0.057,0.012 0.058,0.0121 0.058,0.0122 0.059,0.0122 0.058,0.0123 0.059,0.0124 0.06,0.0125 0.059,0.0125 0.06,0.0126 0.06,0.0126 0.06,0.0127 0.061,0.0128 0.061,0.0129 0.062,0.013 0.061,0.013 0.062,0.0131 0.062,0.0131 0.063,0.0133 0.063,0.0133 0.063,0.0134 0.063,0.0134 0.064,0.0136 0.064,0.0136 0.065,0.0137 0.064,0.0138 0.065,0.0139 0.066,0.0139 0.065,0.014 0.066,0.0141 0.067,0.0142 0.066,0.0142 0.067,0.0144 0.068,0.0144 0.067,0.0145 0.068,0.0146 0.069,0.0146 0.068,0.0148 0.069,0.0148 0.069,0.0149 0.07,0.015 0.07,0.0151 0.07,0.0152 0.071,0.0153 0.071,0.0154 0.071,0.0154 0.072,0.0155 0.072,0.0157 0.073,0.0157 0.072,0.0158 0.074,0.0159 0.073,0.016 0.074,0.0161 0.074,0.0161 0.075,0.0163 0.075,0.0164 0.075,0.0165 0.076,0.0165 0.076,0.0167 0.076,0.0167 0.077,0.0169 0.077,0.0169 0.078,0.0171 0.078,0.0171 0.078,0.0173 0.079,0.0173 0.079,0.0175 0.079,0.0176 0.08,0.0176 0.081,0.0178 0.08,0.0179 0.081,0.0179 0.082,0.0181 0.082,0.0182 0.082,0.0183 0.083,0.0184 0.083,0.0186 0.083,0.0186 0.084,0.0187 0.084,0.0189 0.085,0.0189 0.085,0.0191 0.086,0.0192 0.086,0.0193 0.086,0.0195 0.087,0.0195 0.087,0.0196 0.088,0.0198 0.088,0.0199 0.088,0.02 0.089,0.0202 0.09,0.0202 0.09,0.0204 0.09,0.0205 0.091,0.0207 0.091,0.0207 0.091,0.0209 0.093,0.021 0.092,0.0212 0.093,0.0212 0.094,0.0214 0.093,0.0215 0.095,0.0217 0.095,0.0218 0.095,0.0219 0.096,0.0221 0.096,0.0222 0.097,0.0223 0.097,0.0225 0.097,0.0226 0.098,0.0228 0.099,0.0229 0.099,0.023 0.1,0.0232 0.1,0.0233 0.1,0.0235 0.101,0.0236 0.102,0.0237 0.102,0.024 0.102,0.024 0.103,0.0242 0.104,0.0244 0.104,0.0245 0.105,0.0247 0.105,0.0248 0.105,0.025 0.106,0.0251 0.107,0.0253 0.107,0.0255 0.108,0.0256 0.108,0.0258 0.109,0.026 0.109,0.0261 0.11,0.0263 0.11,0.0264 0.111,0.0266 0.112,0.0268 0.112,0.027 0.112,0.0271 0.113,0.0273 0.114,0.0275 0.114,0.0277 0.115,0.0278 0.115,0.028 0.116,0.0282 0.117,0.0284 0.117,0.0286 0.117,0.0288 0.118,0.0289 0.119,0.0291 0.12,0.0294 0.119,0.0295 0.121,0.0297 0.121,0.0299 0.122,0.0301 0.122,0.0303 0.123,0.0305 0.124,0.0307 0.124,0.0309 0.124,0.0312 0.126,0.0313 0.126,0.0315 0.126,0.0318 0.127,0.0319 0.128,0.0322 0.129,0.0324 0.129,0.0326 0.129,0.0328 0.131,0.033 0.131,0.0333 0.131,0.0335 0.133,0.0337 0.133,0.034 0.133,0.0341 0.134,0.0345 0.135,0.0346 0.136,0.0349 0.136,0.0351 0.137,0.0354 0.138,0.0356 0.138,0.0359 0.139,0.0361 0.139,0.0363 0.141,0.0366 0.141,0.0369 0.141,0.0371 0.143,0.0374 0.143,0.0376 0.143,0.0379 0.145,0.0382 0.145,0.0384 0.146,0.0388 0.146,0.0389 0.148,0.0393 0.148,0.0395 0.148,0.0399 0.15,0.0401 0.15,0.0403 0.151,0.0407 0.152,0.041 0.152,0.0413 0.154,0.0415 0.154,0.0419 0.154,0.0421 0.156,0.0425 0.156,0.0428 0.157,0.0431 0.158,0.0434 0.158,0.0437 0.16,0.0441 0.16,0.0443 0.161,0.0447 0.161,0.0451 0.163,0.0453 0.163,0.0457 0.164,0.046 0.165,0.0464 0.166,0.0467 0.166,0.0471 0.167,0.0474 0.169,0.0478 0.169,0.0482 0.169,0.0484 0.171,0.0489 0.171,0.0493 0.173,0.0496 0.173,0.05 0.174,0.0504 0.175,0.0508 0.175,0.0511 0.177,0.0516 0.177,0.0519 0.179,0.0524 0.179,0.0527 0.18,0.0532 0.181,0.0536 0.182,0.054 0.182,0.0545 0.184,0.0548 0.185,0.0553 0.185,0.0558 0.186,0.0561 0.188,0.0567 0.188,0.0571 0.189,0.0575 0.19,0.058 0.191,0.0585 0.192,0.0589 0.193,0.0594 0.193,0.0599 0.195,0.0604 0.196,0.0609 0.197,0.0614 0.197,0.0619 0.199,0.0624 0.199,0.0629 0.201,0.0634 0.201,0.064 0.203,0.0645 0.203,0.065 0.205,0.0656 0.205,0.0662 0.207,0.0667 0.208,0.0673 0.208,0.0678 0.21,0.0684 0.21,0.069 0.212,0.0696 0.213,0.0702 0.213,0.0708 0.215,0.0714 0.216,0.0721 0.217,0.0727 0.218,0.0733 0.219,0.0739 0.22,0.0746 0.221,0.0753 0.222,0.0759 0.224,0.0766 0.224,0.0773 0.226,0.078 0.226,0.0787 0.228,0.0794 0.229,0.0802 0.23,0.0808 0.231,0.0816 0.232,0.0823 0.234,0.0831 0.234,0.0839 0.236,0.0847 0.237,0.0854 0.238,0.0862 0.239,0.087 0.24,0.0879 0.242,0.0887 0.243,0.0895 0.244,0.0903 0.245,0.0913 0.246,0.0921 0.248,0.0929 0.248,0.0939 0.25,0.0948 0.252,0.0957 0.252,0.0967 0.254,0.0975 0.255,0.0986 0.256,0.0995 0.257,0.1005 0.259,0.1015 0.26,0.1025 0.261,0.1035 0.263,0.1046 0.263,0.1056 0.266,0.1067 0.266,0.1078 0.268,0.1088 0.269,0.11 0.27,0.1111 0.272,0.1122 0.273,0.1135 0.274,0.1145 0.276,0.1158 0.277,0.117 0.278,0.1182 0.28,0.1194 0.281,0.1207 0.283,0.1219 0.284,0.1233 0.285,0.1245 0.287,0.1259 0.288,0.1272 0.289,0.1286 0.291,0.13 0.293,0.1314 0.293,0.1327 0.296,0.1342 0.296,0.1357 0.298,0.1372 0.3,0.1386 0.301,0.1401 0.303,0.1417 0.304,0.1432 0.305,0.1447 0.307,0.1464 0.309,0.1479 0.31,0.1496 0.312,0.1512 0.313,0.1529 0.314,0.1545 0.317,0.1562 0.317,0.1579 0.32,0.1596 0.321,0.1614 0.322,0.1631 0.324,0.1648 0.326,0.1666 0.327,0.1684 0.329,0.1702 0.33,0.172 0.332,0.1737 0.334,0.1756 0.335,0.1774 0.337,0.1791 0.339,0.181 0.34,0.1828 0.342,0.1845 0.344,0.1863 0.345,0.1881 0.347,0.1898 0.349,0.1915 0.35,0.1932 0.352,0.1948 0.354,0.1964 0.356,0.1979 0.357,0.1994 0.359,0.2009 0.361,0.2022 0.363,0.2034 0.364,0.2047 0.367,0.2057 0.368,0.2066 0.37,0.2075 0.371,0.2082 0.374,0.2087 0.375,0.209 0.377,0.2092 0.379,0.2092 0.381,0.2089 0.383,0.2083 0.384,0.2076 0.387,0.2065 0.388,0.2051 0.39,0.2034 0.393,0.2013 0.394,0.1988 0.396,0.1959 0.398,0.1925 0.4,0.1888 0.402,0.1844 0.404,0.1796 0.406,0.1742 0.407,0.1683 0.41,0.1618 0.412,0.1547 0.414,0.1469 0.416,0.1386 0.418,0.1295 0.42,0.12 0.422,0.1097 0.424,0.0989 0.427,0.0874 0.428,0.0754 0.43,0.0629 0.433,0.0499 0.435,0.0365 0.437,0.0226 0.439,0.0085 0.441,-0.0059 0.443,0.0016 0.445,0.0012 0.448,0.0011 0.45,-0.0033 0.452,0.0014 0.454,5e-4 0.457,0.0029 0.458,0.0043 0.461,0.007 0.464,0.005 0.465,-0.0028 0.468,0.0023 0.47,0.012 0.473,0.0036 0.474,-0.0052 0.477,0.0083 0.48,0.0033 0.481,0.0038 0.485,0.0082 0.486,0.0044 0.489,0.0105 0.491,0.0139 0.494,0.017 0.496,0.0048 0.499,0.0104 0.501,0.0105 0.503,4e-4 0.506,0.0062 0.508,0.005 0.511,-0.0022 0.514,0.0078 0.516,0.015 0.518,0.013 0.521,0.007 0.524,0.0165 0.526,0.022 0.529,0.0165 0.531,0.0052 0.534,5e-4 0.536,0.0067 0.54,0.0124 0.541,0.022 0.545,0.0292 0.547,0.0196 0.55,0.0122 0.553,0.0183 0.555,0.0076 0.558,-0.0159 0.561,-0.0035 0.563,0.0016 0.566,0.0059 0.569,0.0285 0.572,0.0296 0.575,0.0321 0.577,0.0266 0.58,0.0086 0.584,-0.008 0.585,10e-5 0.589,0.0051 0.592,-0.0118 0.595,0.0166 0.597,0.0175 0.601,0.0281 0.603,0.0098 0.607,0.0076 0.609,-0.0099 0.612,-0.0153 0.616,-0.0049 0.618,0.0052 0.622,0.0265 0.624,0.0315 0.628,0.0375 0.63,0.0159 0.634,0.0155 0.637,-0.0316 0.64,-0.0226 0.643,-0.005 0.646,0.003 0.65,0.0332 0.652,0.03 0.656,0.027 0.659,0.0155 0.663,-0.0049 0.665,-0.022 0.669,-0.018 0.672,0.0076 0.675,0.017 0.679,0.0248 0.682,0.0318 0.685,0.0066 0.689,-0.0019 0.692,-0.0117 0.696,-0.0012 0.699,0.0042 0.702,0.03 0.706,0.026 0.709,0.0297 0.713,0.0242 0.716,0.0251 0.72,0.0233 0.723,0.0256 0.727,0.013 0.73,0.0162 0.734,0.0249 0.738,0.0416 0.741,0.0683 0.745,0.0781 0.749,0.0691 0.752,0.0579 0.756,0.0405 0.759,0.0594 0.764,0.0837 0.767,0.1489 0.771,0.1834 0.774,0.1169 0.779,0.0413 0.782,-0.0062 0.786,0.028 0.79,0.1143 0.794,0.223 0.797,0.2843 0.802,0.2371 0.806,0.1553 0.809,0.143 0.814,0.2469 0.817,0.4194 0.822,0.518 0.825,0.4306 0.83,0.277 0.833,0.1919 0.838,0.3 0.842,0.5576 0.846,0.7284 0.85,0.6843 0.854,0.4238 0.859,0.2049 0.863,0.2569 0.867,0.5736 0.871,0.8436 0.875,0.8931 0.88,0.7031 0.884,0.506 0.889,0.5476 0.892,0.8617 0.897,1.1123 0.902,1.0708 0.906,0.7766 0.911,0.5324 0.914,0.6307 0.92,1.0192 0.924,1.2564 0.928,1.0993 0.933,0.577 0.938,0.1637 0.942,0.3984 0.947,0.992 0.951,1.3059 0.957,1.2214 0.96,0.932 0.966,0.8371 0.97,1.1156 0.975,1.3651 0.98,1.2411 0.985,0.7253 0.989,0.2468 0.995,0.4434 0.999,1 1.004,1.348 1.009,1.17 1.014,0.511 1.019,0.102 1.024,0.391 1.029,0.924 1.034,0.982 1.039,0.691 1.044,0.386 1.05,0.777 1.054,1.229 1.06,1.241 1.065,0.868 1.07,0.38 1.075,0.576 1.081,1.191 1.086,1.377 1.091,1.027 1.097,0.293 1.102,-0.088 1.107,0.369 1.113,0.769 1.118,0.611 1.124,0.341 1.129,0.495 1.135,0.892 1.141,0.99 1.146,0.349 1.151,-0.394 1.158,-0.003 1.163,0.903 1.168,1.388 1.175,1.316 1.18,0.835 1.186,1.257 1.192,1.406 1.197,1.339 1.204,1.025 1.209,0.7 1.216,1.041 1.221,0.902 1.228,0.134 1.233,-0.363 1.239,-0.357 1.246,0.874 1.251,1.158 1.258,0.759 1.264,0.54 1.27,0.5 1.277,0.822 1.282,0.446 1.289,0.533 1.295,1.585 1.302,1.713 1.308,1.062 1.315,0.096 1.32,-0.664 1.328,-0.683 1.334,-0.683 1.34,-0.682 1.347,-0.676 1.354,-0.669 1.36,-0.66 1.367,-0.65 1.373,-0.64 1.381,-0.627 1.387,-0.616 1.394,-0.604 1.401,-0.591 1.408,-0.58 1.414,-0.568 1.422,-0.556 1.428,-0.544 1.436,-0.533 1.442,-0.522 1.45,-0.512 1.457,-0.501 1.464,-0.491 1.471,-0.482 1.478,-0.472 1.486,-0.463 1.492,-0.454 1.501,-0.446 1.507,-0.438 1.515,-0.429 1.522,-0.422 1.53,-0.415 1.538,-0.407 1.545,-0.401 1.552,-0.393 1.56,-0.388 1.568,-0.381 1.576,-0.375 1.583,-0.369 1.591,-0.363 1.598,-0.358 1.607,-0.353 1.615,-0.347 1.622,-0.343 1.63,-0.338 1.639,-0.332 1.646,-0.329 1.655,-0.324 1.663,-0.319 1.67,-0.316 1.679,-0.311 1.688,-0.308 1.695,-0.304 1.704,-0.3 1.712,-0.296 1.721,-0.293 1.729,-0.289 1.737,-0.286 1.747,-0.283 1.752,-0.279 1.77,-0.277 1.77,-0.273 1.78,-0.271 1.79,-0.268 1.8,-0.265 1.8,-0.262 1.82,-0.26 1.82,-0.257 1.84,-0.254 1.84,-0.252 1.85,-0.25 1.86,-0.247 1.87,-0.245 1.88,-0.242 1.89,-0.241 1.9,-0.238 1.9,-0.236 1.92,-0.234 1.93,-0.233 1.93,-0.23 1.95,-0.228 1.95,-0.226 1.96,-0.225 1.98,-0.222 1.98,-0.221 1.99,-0.219 2.01,-0.218 2.01,-0.215 2.02,-0.215 2.03,-0.212 2.05,-0.211 2.05,-0.209 2.06,-0.208 2.07,-0.206 2.09,-0.205 2.09,-0.204 2.1,-0.202 2.11,-0.201 2.13,-0.199 2.13,-0.198 2.15,-0.196 2.15,-0.196 2.17,-0.194 2.17,-0.193 2.19,-0.191 2.2,-0.191" />
    </g>
    <g
       style="font-style:normal;font-weight:400;font-size:12px;font-family:Helvetica;fill:none;stroke:#ff00ff;stroke-width:2;stroke-linecap:square;stroke-linejoin:bevel;stroke-opacity:1"
       id="g208"
       font-style="normal"
       font-weight="400"
       font-size="12">
      <path
         style="vector-effect:none;fill-rule:evenodd"
         id="path206"
         d="m 650,68.4552 0.044,7e-4 0.045,6e-4 0.044,5e-4 0.045,3e-4 0.045,2e-4 0.045,1e-4 0.046,-1e-4 0.045,-3e-4 0.046,-3e-4 0.047,-5e-4 0.046,-7e-4 0.047,-8e-4 0.046,5e-4 0.048,6e-4 0.047,5e-4 0.047,3e-4 0.048,2e-4 h 0.048 l 0.048,-10e-5 0.049,-3e-4 0.049,-5e-4 0.049,-6e-4 0.049,-8e-4 0.049,-2e-4 0.05,7e-4 0.05,5e-4 0.05,4e-4 0.05,3e-4 h 0.051 l 0.051,-1e-4 0.051,-3e-4 0.052,-5e-4 0.051,-7e-4 0.052,-8e-4 0.052,-10e-5 0.053,7e-4 0.052,6e-4 0.053,3e-4 0.054,2e-4 0.053,-10e-5 0.054,-2e-4 0.054,-4e-4 0.054,-7e-4 0.055,-8e-4 0.054,-6e-4 0.055,8e-4 0.056,6e-4 0.055,4e-4 0.056,2e-4 0.056,-10e-5 0.057,-2e-4 0.056,-4e-4 0.058,-7e-4 0.057,-9e-4 0.057,-3e-4 0.058,8e-4 0.058,5e-4 0.059,4e-4 0.058,1e-4 0.059,-1e-4 0.06,-4e-4 0.059,-6e-4 0.06,-8e-4 0.06,-0.0011 0.06,0.001 0.061,7e-4 0.061,4e-4 0.062,2e-4 0.061,-1e-4 0.062,-3e-4 0.062,-6e-4 0.063,-9e-4 0.063,-10e-4 0.063,10e-4 0.063,7e-4 0.064,4e-4 0.064,2e-4 0.065,-1e-4 0.064,-5e-4 0.065,-7e-4 0.066,-10e-4 0.065,-1e-4 0.066,0.001 0.067,6e-4 0.066,3e-4 h 0.067 l 0.068,-3e-4 0.067,-6e-4 0.068,-9e-4 0.069,-6e-4 0.068,0.001 0.069,8e-4 0.069,4e-4 h 0.07 l 0.07,-2e-4 0.07,-6e-4 0.071,-9e-4 0.071,-4e-4 0.071,0.0011 0.072,7e-4 0.072,4e-4 0.073,10e-5 0.072,-3e-4 0.074,-7e-4 0.073,-0.001 0.074,5e-4 0.074,0.0011 0.075,6e-4 0.075,3e-4 h 0.075 l 0.076,-5e-4 0.076,-9e-4 0.076,-3e-4 0.077,0.0013 0.077,9e-4 0.078,5e-4 h 0.078 l 0.078,-3e-4 0.079,-8e-4 0.079,-4e-4 0.079,0.0014 0.08,0.001 0.081,6e-4 0.08,1e-4 0.081,-4e-4 0.082,-7e-4 h 0.082 l 0.082,0.0015 0.083,0.001 0.083,6e-4 0.083,10e-5 0.084,-4e-4 0.084,-9e-4 0.085,0.0012 0.085,0.0014 0.086,0.001 0.086,4e-4 0.086,-1e-4 0.087,-6e-4 0.087,2e-4 0.088,0.0017 0.088,0.0013 0.088,7e-4 0.089,2e-4 0.09,-3e-4 0.09,-5e-4 0.09,0.0021 0.091,0.0015 0.091,9e-4 0.091,4e-4 0.093,-2e-4 0.092,-5e-4 0.093,0.0023 0.094,0.0016 0.093,0.0011 0.095,4e-4 0.095,-10e-5 h 0.095 l 0.096,0.0024 0.096,0.0017 0.097,0.001 0.097,5e-4 0.097,-2e-4 0.098,0.0011 0.099,0.0023 0.099,0.0016 0.1,0.001 0.1,3e-4 0.1,-4e-4 0.101,0.0027 0.102,0.0021 0.102,0.0015 0.102,7e-4 h 0.103 l 0.104,0.0015 0.104,0.0026 0.105,0.0018 0.105,0.0011 0.105,3e-4 0.106,8e-4 0.107,0.0029 0.107,0.0021 0.108,0.0013 0.108,6e-4 0.109,4e-4 0.109,0.0031 0.11,0.0024 0.11,0.0015 0.111,6e-4 0.112,5e-4 0.112,0.0033 0.112,0.0024 0.113,0.0015 0.114,7e-4 0.114,10e-4 0.115,0.0032 0.115,0.0023 0.116,0.0015 0.117,5e-4 0.117,0.0019 0.117,0.003 0.118,0.0022 0.119,0.0012 0.12,3e-4 0.119,0.003 0.121,0.0028 0.121,0.0018 0.122,9e-4 0.122,0.0011 0.123,0.0033 0.124,0.0023 0.124,0.0013 0.124,3e-4 0.126,0.003 0.126,0.0028 0.126,0.0017 0.127,6e-4 0.128,0.0016 0.129,0.0031 0.129,0.002 0.129,9e-4 0.131,6e-4 0.131,0.0033 0.131,0.0022 0.133,0.001 0.133,-2e-4 0.133,0.0035 0.134,0.0022 0.135,0.001 0.136,-1e-4 0.136,0.0029 0.137,0.0022 0.138,0.001 0.138,-4e-4 0.139,0.0028 0.139,0.002 0.141,8e-4 0.141,-6e-4 0.141,0.0028 0.143,0.0018 0.143,4e-4 0.143,-6e-4 0.145,0.0027 0.145,0.0013 h 0.146 l 0.146,-1e-4 0.148,0.0023 0.148,8e-4 0.148,-6e-4 0.15,7e-4 0.15,0.0017 0.151,1e-4 0.152,-0.0014 0.152,0.0018 0.154,9e-4 0.154,-6e-4 0.154,-7e-4 0.156,0.0016 h 0.156 l 0.157,-0.0016 0.158,9e-4 0.158,7e-4 0.16,-0.0011 0.16,-0.0011 0.161,0.0013 0.161,-5e-4 0.163,-0.0022 0.163,0.0011 h 0.164 l 0.165,-0.0017 0.166,-5e-4 0.166,6e-4 0.167,-0.0014 0.169,-0.0019 0.169,0.0011 0.169,-9e-4 0.171,-0.0029 0.171,0.0013 0.173,-5e-4 0.173,-0.0025 0.174,4e-4 0.175,-1e-4 0.175,-0.0023 0.177,-3e-4 0.177,2e-4 0.179,-0.0019 0.179,-7e-4 0.18,5e-4 0.181,-0.0018 0.182,-9e-4 0.182,8e-4 0.184,-0.0016 0.185,-8e-4 0.185,9e-4 0.186,-0.0015 0.188,-4e-4 0.188,0.001 0.189,-0.0014 0.19,1e-4 0.191,0.0011 0.192,-0.0014 0.193,10e-4 0.193,0.0011 0.195,-0.0016 0.196,0.0021 0.197,0.001 0.197,-0.0018 0.199,0.0035 0.199,7e-4 0.201,-1e-4 0.201,0.0032 0.203,4e-4 0.203,0.0016 0.205,0.0029 0.205,-1e-4 0.207,0.0036 0.208,0.0023 0.208,6e-4 0.21,0.0046 0.21,0.0016 0.212,0.0029 0.213,0.0039 0.213,7e-4 0.215,0.0055 0.216,0.0029 0.217,0.0028 0.218,0.005 0.219,0.0017 0.22,0.0057 0.221,0.0037 0.222,0.0033 0.224,0.0056 0.224,0.0021 0.226,0.0064 0.226,0.0039 0.228,0.0042 0.229,0.0056 0.23,0.0022 0.231,0.0071 0.232,0.0034 0.234,0.0055 0.234,0.0048 0.236,0.0036 0.237,0.006 0.238,0.0022 0.239,0.0069 0.24,0.0032 0.242,0.0053 0.243,0.0042 0.244,0.0037 0.245,0.0049 0.246,0.0022 0.248,0.0056 0.248,0.0014 0.25,0.0055 0.252,0.002 0.252,0.0041 0.254,0.0022 0.255,0.0029 0.256,0.0025 0.257,0.0016 0.259,0.0026 0.26,5e-4 0.261,0.0026 0.263,-5e-4 0.263,0.0025 0.266,-0.0015 0.266,0.0024 0.268,-0.0025 0.269,0.0022 0.27,-0.0028 0.272,0.0014 0.273,-0.0032 0.274,8e-4 0.276,-0.0037 0.277,4e-4 0.278,-0.0043 h 0.28 l 0.281,-0.0048 0.283,-3e-4 0.284,-0.0052 0.285,-5e-4 0.287,-0.0053 0.288,-0.0011 0.289,-0.005 0.291,-0.0017 0.293,-0.0046 0.293,-0.0025 0.296,-0.004 0.296,-0.0033 0.298,-0.0031 0.3,-0.0042 0.301,-0.0022 0.303,-0.005 0.304,-0.001 0.305,-0.0053 0.307,-4e-4 0.309,-0.0037 0.31,-0.0015 0.312,-0.0021 0.313,-0.0026 0.314,-3e-4 0.317,-0.0039 0.317,0.0017 0.32,-0.0021 0.321,5e-4 h 0.322 l 0.324,-0.0011 0.326,0.0023 0.327,-0.0012 0.329,0.0028 0.33,0.0012 0.332,7e-4 0.334,0.0036 0.335,2e-4 0.337,0.004 0.339,0.0027 0.34,0.0012 0.342,0.005 0.344,0.002 0.345,0.0035 0.347,0.0042 0.349,0.0012 0.35,0.0051 0.352,0.0033 0.354,0.0012 0.356,0.0053 0.357,0.0024 0.359,0.0015 0.361,0.0043 0.363,0.0014 0.364,0.0011 0.367,0.0031 0.368,3e-4 h 0.37 l 0.371,0.0018 0.374,-9e-4 0.375,-0.0018 0.377,5e-4 0.379,-0.0021 0.381,-0.0042 0.383,-7e-4 0.384,-0.0033 0.387,-0.0058 0.388,-0.0032 0.39,-0.0042 0.393,-0.0066 0.394,-0.0066 0.396,-0.0049 0.398,-0.007 0.4,-0.0091 0.402,-0.0064 0.404,-0.007 0.406,-0.0088 0.407,-0.0106 0.41,-0.0063 0.412,-0.008 0.414,-0.0094 0.416,-0.0107 0.418,-0.0064 0.42,-0.0076 0.422,-0.0088 0.424,-0.0099 0.427,-0.0062 0.428,-0.0061 0.43,-0.0069 0.433,-0.0075 0.435,-0.0068 0.437,-0.0034 0.439,-0.004 0.441,-0.0044 0.443,-0.0047 0.445,-0.0035 0.448,-4e-4 0.45,-7e-4 0.452,-9e-4 0.454,-0.0011 0.457,-0.0012 0.458,0.0022 0.461,0.0028 0.464,0.0026 0.465,0.0024 0.468,0.0022 0.47,0.002 0.473,0.0035 0.474,0.0051 0.477,0.0048 0.48,0.0044 0.481,0.004 0.485,0.0036 0.486,0.0031 0.489,0.0027 0.491,0.0037 0.494,0.0042 0.496,0.0035 0.499,0.0029 0.501,0.0022 0.503,0.0015 0.506,9e-4 0.508,2e-4 0.511,-5e-4 0.514,-0.001 0.516,-0.0016 0.518,-0.0021 0.521,-0.0017 0.524,-0.0015 0.526,-0.002 0.529,-0.0023 0.531,-0.0025 0.534,-0.0026 0.536,-0.0026 0.54,-0.0025 0.541,-0.0023 0.545,-0.002 0.547,-0.0016 0.55,-0.001 0.553,-5e-4 0.555,3e-4 0.558,0.0011 0.561,0.0019 0.563,0.0029 0.566,0.0038 0.569,0.0048 0.572,0.0059 0.575,0.0068 0.577,0.0078 0.58,0.0088 0.584,0.0096 0.585,0.0123 0.589,0.0131 0.592,0.0137 0.595,0.0144 0.597,0.0146 0.601,0.0149 0.603,0.0149 0.607,0.0147 0.609,0.0143 0.612,0.0136 0.616,0.0127 0.618,0.0144 0.622,0.0141 0.624,0.0128 0.628,0.0112 0.63,0.0095 0.634,0.0076 0.637,0.0056 0.64,0.0065 0.643,0.0067 0.646,0.0048 0.65,0.003 0.652,0.0011 0.656,-5e-4 0.659,0.0038 0.663,0.0038 0.665,0.003 0.669,0.0025 0.672,0.0025 0.675,0.0113 0.679,0.0124 0.682,0.0136 0.685,0.0153 0.689,0.0255 0.692,0.0315 0.696,0.0349 0.699,0.0386 0.702,0.0544 0.706,0.0614 0.709,0.0668 0.713,0.0774 0.716,0.0946 0.72,0.1017 0.723,0.109 0.727,0.1343 0.73,0.1425 0.734,0.1511 0.738,0.1778 0.741,0.1889 0.745,0.1984 0.749,0.2295 0.752,0.2398 0.756,0.2557 0.759,0.2837 0.764,0.2949 0.767,0.3205 0.771,0.3415 0.774,0.3556 0.779,0.3897 0.782,0.4022 0.786,0.4315 0.79,0.4522 0.794,0.4739 0.797,0.5027 0.802,0.5188 0.806,0.5531 0.809,0.5661 0.814,0.6017 0.817,0.615 0.822,0.6468 0.825,0.6614 0.83,0.69 0.833,0.7038 0.838,0.7295 0.842,0.7405 0.846,0.7634 0.85,0.7714 0.854,0.7884 0.859,0.7946 0.863,0.8039 0.867,0.808 0.871,0.8104 0.875,0.8121 0.88,0.809 0.884,0.8076 0.889,0.8023 0.892,0.7968 0.897,0.7923 0.902,0.7859 0.906,0.7822 0.911,0.779 0.914,0.7764 0.92,0.7783 0.924,0.7807 0.928,0.7848 0.933,0.7933 0.938,0.803 0.942,0.813 0.947,0.827 0.951,0.841 0.957,0.854 0.96,0.866 0.966,0.88 0.97,0.889 0.975,0.895 0.98,0.899 0.985,0.897 0.989,0.891 0.995,0.88 0.999,0.864 1.004,0.845 1.009,0.822 1.014,0.797 1.019,0.773 1.024,0.75 1.029,0.732 1.034,0.717 1.039,0.709 1.044,0.708 1.05,0.715 1.054,0.728 1.06,0.748 1.065,0.772 1.07,0.801 1.075,0.831 1.081,0.861 1.086,0.889 1.091,0.913 1.097,0.929 1.102,0.935 1.107,0.93 1.113,0.912 1.118,0.881 1.124,0.838 1.129,0.788 1.135,0.732 1.141,0.68 1.146,0.635 1.151,0.601 1.158,0.586 1.163,0.591 1.168,0.613 1.175,0.656 1.18,0.714 1.186,0.788 1.192,0.871 1.197,0.965 1.204,1.067 1.209,1.165 1.216,1.255 1.221,1.332 1.228,1.387 1.233,1.403 1.239,1.373 1.246,1.291 1.251,1.155 1.258,0.967 1.264,0.777 1.27,0.607 1.277,0.481 1.282,0.424 1.289,0.434 1.295,0.512 1.302,0.647 1.308,0.818 1.315,1.045 1.32,1.297 1.328,1.58 1.334,1.909 1.34,2.247 1.347,2.602 1.354,2.9 1.36,2.991 1.367,2.612 1.373,1.495 1.381,-0.032 1.387,-1.146 1.394,-1.513 1.401,-1.369 1.408,-1.005 1.414,-0.535 1.422,-0.071 1.428,0.472 1.436,0.996 1.442,1.604 1.45,2.301 1.457,3.11 1.464,4.059 1.471,4.759 1.478,3.539 1.486,-1.377 1.492,-4.486 1.501,-4.343 1.507,-3.423 1.515,-2.514 1.522,-1.759 1.53,-1.11 1.538,-0.521 1.545,0.074 1.552,0.637 1.56,1.236 1.568,1.915 1.576,2.739 1.583,3.83 1.591,5.446 1.598,8.197 1.607,13.382 1.615,0.467 1.622,-11.749 1.63,-6.527 1.639,-3.688 1.646,-1.93 1.655,-0.624 1.663,0.458 1.67,1.323 1.679,1.667 1.688,0.745 1.695,-1.598 1.704,-3.481 1.712,-3.844 1.721,-3.371 1.729,-2.653 1.737,-1.932 1.747,-1.252 1.752,-0.612 1.77,-0.018 1.77,0.483 1.78,0.766 1.79,0.545 1.8,-0.39 1.8,-1.753 1.82,-2.797 1.82,-3.097 1.84,-2.911 1.84,-2.495 1.85,-2.011 1.86,-1.523 1.87,-1.003 1.88,-0.528 1.89,-0.048 1.9,0.415 1.9,0.811 1.92,1.099 1.93,1.103 1.93,0.659 1.95,-0.214 1.95,-1.183 1.96,-1.741 1.98,-1.806 1.98,-1.514 1.99,-1.038 2.01,-0.421 2.01,0.233 2.02,0.948 2.03,1.613 2.05,1.823 2.05,0.685 2.06,-2.158 2.07,-4.305 2.09,-4.684 2.09,-4.227 2.1,-3.572 2.11,-2.939 2.13,-2.37 2.13,-1.851 2.15,-1.366 2.15,-0.9 2.17,-0.434 2.17,0.041 2.19,0.541 2.2,1.076" />
    </g>
    <g
       style="font-style:normal;font-weight:400;font-size:12px;font-family:Helvetica;fill:none;stroke:#000000;stroke-width:1;stroke-linecap:square;stroke-linejoin:bevel;stroke-opacity:1"
       id="g212"
       font-style="normal"
       font-weight="400"
       font-size="12"
       transform="translate(637,333)">
      <text
         style="font-style:normal;font-weight:400;font-size:12px;font-family:Helvetica;fill:#000000;fill-opacity:1;stroke:none"
         id="text210"
         font-style="normal"
         font-weight="400"
         font-size="12"
         y="0"
         x="0"
         xml:space="preserve">0</text>
    </g>
    <g
       style="font-style:normal;font-weight:400;font-size:12px;font-family:Helvetica;fill:none;stroke:#000000;stroke-width:1;stroke-linecap:square;stroke-linejoin:bevel;stroke-opacity:1"
       id="g216"
       font-style="normal"
       font-weight="400"
       font-size="12"
       transform="translate(718,333)">
      <text
         style="font-style:normal;font-weight:400;font-size:12px;font-family:Helvetica;fill:#000000;fill-opacity:1;stroke:none"
         id="text214"
         font-style="normal"
         font-weight="400"
         font-size="12"
         y="0"
         x="0"
         xml:space="preserve">1e9</text>
    </g>
    <g
       style="font-style:normal;font-weight:400;font-size:12px;font-family:Helvetica;fill:none;stroke:#000000;stroke-width:1;stroke-linecap:square;stroke-linejoin:bevel;stroke-opacity:1"
       id="g220"
       font-style="normal"
       font-weight="400"
       font-size="12"
       transform="translate(808,333)">
      <text
         style="font-style:normal;font-weight:400;font-size:12px;font-family:Helvetica;fill:#000000;fill-opacity:1;stroke:none"
         id="text218"
         font-style="normal"
         font-weight="400"
         font-size="12"
         y="0"
         x="0"
         xml:space="preserve">2e9</text>
    </g>
    <g
       style="font-style:normal;font-weight:400;font-size:12px;font-family:Helvetica;fill:none;stroke:#000000;stroke-width:1;stroke-linecap:square;stroke-linejoin:bevel;stroke-opacity:1"
       id="g224"
       font-style="normal"
       font-weight="400"
       font-size="12"
       transform="translate(898,333)">
      <text
         style="font-style:normal;font-weight:400;font-size:12px;font-family:Helvetica;fill:#000000;fill-opacity:1;stroke:none"
         id="text222"
         font-style="normal"
         font-weight="400"
         font-size="12"
         y="0"
         x="0"
         xml:space="preserve">3e9</text>
    </g>
    <g
       style="font-style:normal;font-weight:400;font-size:12px;font-family:Helvetica;fill:none;stroke:#000000;stroke-width:1;stroke-linecap:square;stroke-linejoin:bevel;stroke-opacity:1"
       id="g228"
       font-style="normal"
       font-weight="400"
       font-size="12"
       transform="translate(988,333)">
      <text
         style="font-style:normal;font-weight:400;font-size:12px;font-family:Helvetica;fill:#000000;fill-opacity:1;stroke:none"
         id="text226"
         font-style="normal"
         font-weight="400"
         font-size="12"
         y="0"
         x="0"
         xml:space="preserve">4e9</text>
    </g>
    <g
       style="font-style:normal;font-weight:400;font-size:12px;font-family:Helvetica;fill:none;stroke:#000000;stroke-width:1;stroke-linecap:square;stroke-linejoin:bevel;stroke-opacity:1"
       id="g232"
       font-style="normal"
       font-weight="400"
       font-size="12"
       transform="translate(1078,333)">
      <text
         style="font-style:normal;font-weight:400;font-size:12px;font-family:Helvetica;fill:#000000;fill-opacity:1;stroke:none"
         id="text230"
         font-style="normal"
         font-weight="400"
         font-size="12"
         y="0"
         x="0"
         xml:space="preserve">5e9</text>
    </g>
    <g
       style="font-style:normal;font-weight:400;font-size:12px;font-family:Helvetica;fill:none;stroke:#000000;stroke-width:1;stroke-linecap:square;stroke-linejoin:bevel;stroke-opacity:1"
       id="g236"
       font-style="normal"
       font-weight="400"
       font-size="12"
       transform="translate(602,307)">
      <text
         style="font-style:normal;font-weight:400;font-size:12px;font-family:Helvetica;fill:#000000;fill-opacity:1;stroke:none"
         id="text234"
         font-style="normal"
         font-weight="400"
         font-size="12"
         y="0"
         x="0"
         xml:space="preserve">-120</text>
    </g>
    <g
       style="font-style:normal;font-weight:400;font-size:12px;font-family:Helvetica;fill:none;stroke:#000000;stroke-width:1;stroke-linecap:square;stroke-linejoin:bevel;stroke-opacity:1"
       id="g240"
       font-style="normal"
       font-weight="400"
       font-size="12"
       transform="translate(602,268)">
      <text
         style="font-style:normal;font-weight:400;font-size:12px;font-family:Helvetica;fill:#000000;fill-opacity:1;stroke:none"
         id="text238"
         font-style="normal"
         font-weight="400"
         font-size="12"
         y="0"
         x="0"
         xml:space="preserve">-100</text>
    </g>
    <g
       style="font-style:normal;font-weight:400;font-size:12px;font-family:Helvetica;fill:none;stroke:#000000;stroke-width:1;stroke-linecap:square;stroke-linejoin:bevel;stroke-opacity:1"
       id="g244"
       font-style="normal"
       font-weight="400"
       font-size="12"
       transform="translate(611,229)">
      <text
         style="font-style:normal;font-weight:400;font-size:12px;font-family:Helvetica;fill:#000000;fill-opacity:1;stroke:none"
         id="text242"
         font-style="normal"
         font-weight="400"
         font-size="12"
         y="0"
         x="0"
         xml:space="preserve">-80</text>
    </g>
    <g
       style="font-style:normal;font-weight:400;font-size:12px;font-family:Helvetica;fill:none;stroke:#000000;stroke-width:1;stroke-linecap:square;stroke-linejoin:bevel;stroke-opacity:1"
       id="g248"
       font-style="normal"
       font-weight="400"
       font-size="12"
       transform="translate(611,190)">
      <text
         style="font-style:normal;font-weight:400;font-size:12px;font-family:Helvetica;fill:#000000;fill-opacity:1;stroke:none"
         id="text246"
         font-style="normal"
         font-weight="400"
         font-size="12"
         y="0"
         x="0"
         xml:space="preserve">-60</text>
    </g>
    <g
       style="font-style:normal;font-weight:400;font-size:12px;font-family:Helvetica;fill:none;stroke:#000000;stroke-width:1;stroke-linecap:square;stroke-linejoin:bevel;stroke-opacity:1"
       id="g252"
       font-style="normal"
       font-weight="400"
       font-size="12"
       transform="translate(611,151)">
      <text
         style="font-style:normal;font-weight:400;font-size:12px;font-family:Helvetica;fill:#000000;fill-opacity:1;stroke:none"
         id="text250"
         font-style="normal"
         font-weight="400"
         font-size="12"
         y="0"
         x="0"
         xml:space="preserve">-40</text>
    </g>
    <g
       style="font-style:normal;font-weight:400;font-size:12px;font-family:Helvetica;fill:none;stroke:#000000;stroke-width:1;stroke-linecap:square;stroke-linejoin:bevel;stroke-opacity:1"
       id="g256"
       font-style="normal"
       font-weight="400"
       font-size="12"
       transform="translate(611,112)">
      <text
         style="font-style:normal;font-weight:400;font-size:12px;font-family:Helvetica;fill:#000000;fill-opacity:1;stroke:none"
         id="text254"
         font-style="normal"
         font-weight="400"
         font-size="12"
         y="0"
         x="0"
         xml:space="preserve">-20</text>
    </g>
    <g
       style="font-style:normal;font-weight:400;font-size:12px;font-family:Helvetica;fill:none;stroke:#000000;stroke-width:1;stroke-linecap:square;stroke-linejoin:bevel;stroke-opacity:1"
       id="g260"
       font-style="normal"
       font-weight="400"
       font-size="12"
       transform="translate(625,73)">
      <text
         style="font-style:normal;font-weight:400;font-size:12px;font-family:Helvetica;fill:#000000;fill-opacity:1;stroke:none"
         id="text258"
         font-style="normal"
         font-weight="400"
         font-size="12"
         y="0"
         x="0"
         xml:space="preserve">0</text>
    </g>
    <g
       style="font-style:normal;font-weight:400;font-size:12px;font-family:Helvetica;fill:none;stroke:#000000;stroke-width:1;stroke-linecap:square;stroke-linejoin:bevel;stroke-opacity:1"
       id="g264"
       font-style="normal"
       font-weight="400"
       font-size="12"
       transform="translate(616,34)">
      <text
         style="font-style:normal;font-weight:400;font-size:12px;font-family:Helvetica;fill:#000000;fill-opacity:1;stroke:none"
         id="text262"
         font-style="normal"
         font-weight="400"
         font-size="12"
         y="0"
         x="0"
         xml:space="preserve">20</text>
    </g>
    <g
       style="font-style:normal;font-weight:400;font-size:12px;font-family:Helvetica;fill:none;stroke:#000000;stroke-width:1;stroke-linecap:square;stroke-linejoin:bevel;stroke-opacity:1"
       id="g268"
       font-style="normal"
       font-weight="400"
       font-size="12"
       transform="translate(811,356)">
      <text
         style="font-style:normal;font-weight:400;font-size:12px;font-family:Helvetica;fill:#000000;fill-opacity:1;stroke:none"
         id="text266"
         font-style="normal"
         font-weight="400"
         font-size="12"
         y="0"
         x="0"
         xml:space="preserve">Frequency (Hz)</text>
    </g>
    <g
       style="font-style:normal;font-weight:400;font-size:12px;font-family:Helvetica;fill:none;stroke:#000000;stroke-width:1;stroke-linecap:square;stroke-linejoin:bevel;stroke-opacity:1"
       id="g272"
       font-style="normal"
       font-weight="400"
       font-size="12"
       transform="rotate(-90,381,-214)">
      <text
         style="font-style:normal;font-weight:400;font-size:12px;font-family:Helvetica;fill:#000000;fill-opacity:1;stroke:none"
         id="text270"
         font-style="normal"
         font-weight="400"
         font-size="12"
         y="0"
         x="0"
         xml:space="preserve"> </text>
    </g>
    <g
       style="font-style:normal;font-weight:400;font-size:12px;font-family:Helvetica;fill:none;stroke:#000000;stroke-width:1;stroke-linecap:square;stroke-linejoin:bevel;stroke-opacity:1"
       id="g276"
       font-style="normal"
       font-weight="400"
       font-size="12"
       transform="rotate(90,482,616)">
      <text
         style="font-style:normal;font-weight:400;font-size:12px;font-family:Helvetica;fill:#000000;fill-opacity:1;stroke:none"
         id="text274"
         font-style="normal"
         font-weight="400"
         font-size="12"
         y="0"
         x="0"
         xml:space="preserve">S21 (dB)</text>
    </g>
    <g
       style="font-style:normal;font-weight:400;font-size:12px;font-family:Helvetica;fill:none;stroke:#ff00ff;stroke-width:2;stroke-linecap:square;stroke-linejoin:bevel;stroke-opacity:1"
       id="g278"
       font-style="normal"
       font-weight="400"
       font-size="12" />
  </g>
</svg>
